<?xml version="1.0" encoding="utf-8"?>
<!-- Generator: Adobe Illustrator 25.2.1, SVG Export Plug-In . SVG Version: 6.00 Build 0)  -->
<svg version="1.1" id="Layer_1" xmlns="http://www.w3.org/2000/svg" xmlns:xlink="http://www.w3.org/1999/xlink" x="0px" y="0px"
	 viewBox="0 0 121.75 121.78" style="enable-background:new 0 0 121.75 121.78;" xml:space="preserve">
<style type="text/css">
	.st0{fill:#EECE38;}
</style>
<g>
	<g>
		<path class="st0" d="M0.01,86.46c1.35,0,2.56,0,3.96,0c0-1.82,0.03-3.57-0.03-5.31c-0.01-0.25-0.38-0.54-0.65-0.72
			c-0.64-0.43-1.37-0.75-1.97-1.22C0.44,78.54,0,77.63,0,76.46C0.02,53.04,0.02,29.61,0,6.19c0-1.6,0.76-2.79,2.09-3.31
			c2.29-0.91,4.66-1.81,7.08-2.19c6.5-1,13.04-0.95,19.49,0.45c1.68,0.37,3.31,1.12,4.87,1.89c1.28,0.64,1.87,1.82,1.84,3.34
			c-0.06,3.18-0.02,6.37-0.02,9.5c2.28,0.47,4.47,0.88,6.64,1.38c0.82,0.19,1.62,0.55,2.39,0.91c1.86,0.87,2.97,2.2,2.77,4.42
			c-0.12,1.33-0.02,2.68-0.02,4.05c1.55-0.15,2.56-0.83,2.91-2.29c0.76-3.12,2.7-5.01,5.89-5.42c2.61-0.34,4.2-1.6,4.82-4.21
			c0.3-1.25,0.91-2.44,1.43-3.64c0.81-1.88,2.22-3.09,4.2-3.63c0.12-0.03,0.24-0.07,0.36-0.08c3.25-0.35,5.51-1.91,7.23-4.82
			c1.83-3.09,6.2-3.34,8.91-0.91c0.88,0.79,1.64,1.72,2.54,2.48c1.26,1.08,2.55,2.13,3.92,3.07c1.98,1.36,3.09,3.16,2.91,5.57
			c-0.09,1.26,0.33,1.79,1.53,2.09c2.9,0.72,4.47,2.65,5.17,5.57c1.08,4.51,0.27,3.41,4.44,5.56c0.62,0.32,1.24,0.61,1.86,0.93
			c1.65,0.86,2.69,2.22,3.18,4c0.28,1.02,0.57,2.05,0.75,3.09c0.18,1.03,0.59,1.68,1.61,2.18c2.01,1,3.05,2.76,3.08,5.05
			c0.02,1.31-0.01,2.62,0,3.92c0.02,2.09-0.86,3.74-2.56,4.88c-0.71,0.47-0.73,0.88-0.51,1.59c3.27,10.84,6.57,21.68,9.74,32.55
			c4.97,17.07-6.04,34.39-23.63,37.28c-1.32,0.22-2.68,0.3-4.03,0.3c-23.92,0.02-47.84,0.03-71.77,0.01
			c-10.29-0.01-19.6-8.16-20.84-18.36c-0.36-2.98-0.23-6.03-0.27-9.05C-0.02,91.78,0.01,89.2,0.01,86.46z M43.21,90.33
			c0.37,0.02,0.61,0.06,0.85,0.04c2.8-0.28,4.95,0.86,6.85,2.85c0.71,0.74,1.79,1.19,2.78,1.59c0.89,0.37,1.88,0.51,2.84,0.73
			c1.8,0.42,3.57,1.1,4.46,2.75c1.04,1.93,2.63,2.66,4.61,2.97c0.56,0.09,1.11,0.26,1.66,0.42c1.59,0.46,3,1.31,3.76,2.76
			c0.84,1.6,2.08,2.4,3.73,2.86c2.29,0.62,3.8,2.14,4.65,4.34c0.71,1.82,1.43,3.65,2.19,5.45c0.13,0.31,0.52,0.73,0.78,0.72
			c4.82-0.1,9.71,0.23,14.43-0.51c14.58-2.26,24.01-17.05,20.11-31.25c-2.12-7.74-4.56-15.39-6.86-23.08
			c-1.18-3.94-2.36-7.88-3.53-11.82c-19.99,0-39.9,0-59.79,0c-0.07,0.16-0.14,0.26-0.17,0.38c-2.56,8.51-5.12,17.01-7.67,25.52
			c-0.1,0.34-0.07,0.73-0.05,1.09c0.14,1.99,0.31,3.98,0.43,5.98c0.05,0.76,0.01,1.52,0.01,2.4c1.41,0,2.65,0,3.94,0
			C43.21,87.83,43.21,89.01,43.21,90.33z M88.27,12.96c0.05-1.36-0.26-1.81-1.16-2.46c-1.42-1.01-2.8-2.07-4.13-3.2
			c-0.93-0.79-1.72-1.75-2.63-2.57c-1.11-1.01-2.5-0.85-3.4,0.36c-0.46,0.62-0.9,1.26-1.3,1.93c-1.11,1.86-2.68,3.02-4.83,3.42
			c-0.96,0.17-1.89,0.49-2.85,0.69c-1.18,0.25-1.95,0.87-2.37,2.04c-0.6,1.69-1.34,3.33-1.99,5c-0.83,2.14-2.32,3.5-4.56,4.03
			c-0.95,0.22-1.89,0.5-2.85,0.71c-1.15,0.25-1.92,0.88-2.19,2.04c-0.68,2.88-2.41,4.74-5.29,5.52c-0.99,0.26-1.5,0.99-1.58,1.96
			c-0.07,0.96-0.02,1.93-0.02,2.91c10.24,0,20.34,0,30.48,0c-0.16-1.53-0.87-2.47-2.33-2.86c-1.08-0.29-2.13-0.71-3.29-1.1
			c0.44-1.31,0.84-2.48,1.22-3.61c4.16,0.81,7.64,2.25,8.47,6.88c0.16,0.89,0.78,0.77,1.39,0.77c6.7,0,13.41,0,20.11,0
			c0.69,0,1.38,0,2.2,0c-0.22-0.99-0.46-1.84-0.61-2.72c-0.22-1.28-0.9-2.12-2.1-2.64c-1.23-0.53-2.42-1.18-3.62-1.79
			c-1.74-0.88-2.84-2.28-3.33-4.17c-0.19-0.75-0.43-1.5-0.53-2.26c-0.27-1.94-1.33-2.93-3.24-3.45c-2.74-0.74-5.4-1.77-8.19-2.71
			c0.43-1.29,0.83-2.48,1.25-3.72C86.16,12.31,87.17,12.62,88.27,12.96z M21.65,98.76c0.15-0.25,0.28-0.44,0.38-0.64
			c2.37-4.5,5.8-8.01,10.55-9.77c2.45-0.91,2.89-2.13,2.83-4.48c-0.21-7.85-2.72-14.7-8.19-20.39c-3.19-3.32-8.05-3.33-11.21,0.01
			c-1.26,1.33-2.42,2.78-3.44,4.29C8.74,73.47,7.58,79.85,7.9,86.57c0.02,0.32,0.48,0.78,0.84,0.91c4.2,1.48,7.71,3.9,10.4,7.45
			C20.03,96.11,20.78,97.42,21.65,98.76z M76.71,39.33c-7.65,0-15.29,0-22.94,0c-2.74,0-5.48-0.02-8.22,0.01
			c-1.57,0.01-2.31,0.78-2.35,2.35c-0.02,0.82,0,1.64,0,2.45c0,2.48,0.56,3.05,3.01,3.05c20.24,0,40.48,0,60.72,0
			c0.29,0,0.57,0.01,0.86,0c1.35-0.08,2.1-0.82,2.16-2.17c0.04-0.9,0.01-1.8,0.01-2.7c0-2.39-0.59-2.98-2.95-2.98
			C96.91,39.33,86.81,39.33,76.71,39.33z M77.55,117.82c-0.52-1.3-1.07-2.44-1.42-3.64c-0.56-1.91-1.72-3.02-3.68-3.48
			c-2-0.47-3.39-1.78-4.49-3.54c-0.47-0.75-1.38-1.34-2.22-1.71c-1.03-0.45-2.2-0.58-3.3-0.87c-1.56-0.41-2.97-1.21-3.72-2.61
			c-0.96-1.81-2.44-2.46-4.29-2.82c-2.51-0.48-4.94-1.18-6.63-3.33c-1.17-1.5-2.74-1.74-4.6-1.42c0,1.94,0.01,3.85,0,5.76
			c-0.05,6.84-2.79,12.39-7.99,16.78c-0.29,0.25-0.57,0.51-0.94,0.84c3.06,0,5.94,0,8.82,0c0.67-5.01,1.68-6.46,5.21-7.49
			c0.55,1.11,1.11,2.23,1.66,3.33c-3,2.01-3.13,2.21-2.63,4.19C57.33,117.82,67.34,117.82,77.55,117.82z M39.32,90.6
			c-0.51,0.03-0.87,0-1.22,0.07c-5.89,1.24-10.2,4.52-12.84,9.94c-2.65,5.46-1.36,11.28-1.73,16.97c0.46,0,0.76,0.05,1.03-0.01
			c7.07-1.5,11.85-5.62,13.97-12.55C39.97,100.33,39.03,95.47,39.32,90.6z M19.62,117.64c0-3.53,0.2-6.96-0.04-10.37
			c-0.51-7.31-4.19-12.55-10.92-15.52c-1.44-0.63-3.04-0.9-4.73-1.39c0,3.5-0.06,6.64,0.01,9.78c0.15,6.26,2.8,11.23,8,14.75
			C14.22,116.44,16.74,117.42,19.62,117.64z M15.8,25.89c-0.03,0.15-0.07,0.23-0.07,0.31c-0.01,1.47-0.01,2.94-0.01,4.41
			c0,2.87,0,2.89,2.87,3.59c5.46,1.33,11.01,1.47,16.56,0.88c2.37-0.25,4.7-0.94,7.03-1.5c0.39-0.09,0.97-0.56,0.98-0.88
			c0.08-2.27,0.05-4.55,0.05-6.85C34,28.18,24.93,28.18,15.8,25.89z M15.72,49.32c0,2.37-0.01,4.53,0.02,6.7
			c0,0.28,0.17,0.74,0.35,0.79c0.86,0.24,1.82,0.65,2.64,0.49c3.06-0.6,5.92-0.29,8.65,1.22c0.38,0.21,0.83,0.45,1.23,0.42
			c3.7-0.29,7.39-0.62,11.08-1.02c0.4-0.04,0.9-0.64,1.06-1.08c0.59-1.69,1.06-3.42,1.57-5.14c0.4-1.36-0.18-1.88-1.6-1.69
			c-3.23,0.43-6.47,0.93-9.72,1.08C25.88,51.3,20.8,50.89,15.72,49.32z M15.72,37.58c0,1.69,0,3.23,0,4.78c0,2.89,0,2.91,2.85,3.61
			c5.45,1.33,10.99,1.41,16.54,0.91c1.4-0.12,2.78-0.41,4.05-0.61c0.14-2.72,0.27-5.23,0.4-7.74C31.81,39.74,23.8,39.82,15.72,37.58
			z M3.94,10.16c0,2.29-0.01,4.49,0.02,6.69c0,0.26,0.23,0.7,0.44,0.75c3.33,0.91,6.61,3.06,10.15,0.59
			c0.33-0.23,0.72-0.41,1.11-0.49c2.7-0.57,5.39-1.26,8.13-1.62c2.49-0.33,5.03-0.28,7.59-0.4c0-1.85,0-3.66,0-5.51
			C22.24,12.48,13.17,12.48,3.94,10.16z M16.71,21.37c0,0.21,0,0.41,0.01,0.62c8.51,2.17,17.01,2.26,25.49-0.34
			C33.71,19.15,25.21,19.14,16.71,21.37z M4.93,5.96c8.51,2.51,17.01,2.57,25.49-0.03C21.93,3.46,13.43,3.43,4.93,5.96z M3.94,33.78
			c0,2.23-0.03,4.5,0.03,6.77c0.01,0.27,0.45,0.69,0.76,0.77c2.28,0.64,4.58,1.21,7,1.83c0-2.9,0-5.41,0-7.85
			C9.12,34.79,6.59,34.29,3.94,33.78z M11.75,47.08c-2.64-0.51-5.18-1.01-7.81-1.52c0,2.2-0.03,4.43,0.03,6.67
			c0.01,0.29,0.37,0.72,0.67,0.85c2.25,0.98,4.62,1.41,7.11,1.57C11.75,52.05,11.75,49.58,11.75,47.08z M11.73,31.36
			c0-2.89,0-5.4,0-7.83C9.11,23.01,6.57,22.52,3.94,22c0,2.04,0.05,4.11-0.03,6.18c-0.03,0.87,0.32,1.31,1.06,1.5
			C7.16,30.25,9.36,30.78,11.73,31.36z M3.94,57.33c0,1.58,0,3.2,0,4.82c0,2.7,0,2.7,2.63,3.42c2.22,0.61,2.09,0.49,3.61-1.23
			c1.49-1.68,1.96-3.44,1.51-5.49C9.12,58.34,6.58,57.85,3.94,57.33z M32.29,62.94c1.48,2.44,2.95,4.86,4.46,7.34
			c0.8-2.71,1.59-5.37,2.39-8.09C36.7,62.46,34.49,62.7,32.29,62.94z M3.94,68.95c0,2.37-0.02,4.6,0.02,6.84
			c0,0.28,0.29,0.55,0.5,0.92c0.81-2.41,1.56-4.64,2.34-6.95C5.92,69.52,5,69.25,3.94,68.95z"/>
	</g>
	<g>
		<path class="st0" d="M106.03,82.47c-1.37,0-2.58,0-3.92,0c0-1.75,0-3.46,0-5.16c-0.01-4.13-2.43-6.55-6.55-6.56
			c-1.71,0-3.41,0-5.19,0c0,2.24-0.16,4.37,0.04,6.46c0.29,3.08,2.67,5.31,5.76,5.28c5.32-0.05,10.17,4.57,9.89,10.4
			c-0.14,3.02-0.03,6.05-0.03,9.21c-2.59,0-5.14,0-7.83,0c0,1.37,0,2.61,0,3.92c-1.34,0-2.55,0-3.9,0c0-1.31,0-2.64,0-3.96
			c-4.3-1.2-7.11-3.83-7.76-8.16c-0.36-2.39-0.06-4.87-0.06-7.38c1.24,0,2.45,0,3.84,0c0,1.57,0,3.14,0,4.72
			c0,4.72,2.27,6.99,6.98,6.99c1.55,0,3.1,0,4.9,0c-0.11-2.51-0.03-4.97-0.39-7.36c-0.38-2.56-2.84-4.3-5.62-4.42
			c-5.86-0.26-9.8-4.34-9.8-10.18c0-3.1,0-6.2,0-9.43c2.64,0,5.19,0,7.83,0c0-1.34,0-2.56,0-3.85c1.33,0,2.57,0,3.91,0
			c0,1.3,0,2.59,0,3.96c2.07,0.53,3.86,1.45,5.27,3c1.69,1.86,2.62,4.01,2.63,6.54C106.03,78.43,106.03,80.39,106.03,82.47z"/>
	</g>
	<g>
		<path class="st0" d="M60.92,79.2c-1.68,1.73-3.1,3.19-4.55,4.67c-0.9-0.93-1.78-1.83-2.79-2.87c1.46-1.4,2.96-2.84,4.39-4.21
			c-1.41-1.41-2.7-2.7-4.03-4.03c-1.67,1.72-3.43,3.52-5.18,5.32c-1.02-1.1-1.87-2.01-2.75-2.96c1.64-1.56,3.46-3.29,5.35-5.09
			c-2.07-2.03-3.89-3.81-5.69-5.57c1.08-1.07,1.98-1.96,3.02-2.99c1.7,1.81,3.43,3.64,5.12,5.44c1.43-1.45,2.7-2.76,4.09-4.18
			c-1.4-1.28-2.93-2.67-4.52-4.12c1.18-1.1,2.1-1.95,3.11-2.89c1.31,1.4,2.72,2.9,4.26,4.55c1.61-1.74,3.02-3.25,4.46-4.8
			c1.07,1.1,1.94,2,2.93,3.02c-1.46,1.4-2.95,2.84-4.39,4.22c1.42,1.41,2.72,2.7,4.1,4.06c1.64-1.73,3.37-3.56,5.15-5.44
			c1.03,1.17,1.85,2.11,2.62,2.99c-1.58,1.56-3.36,3.33-5.21,5.16c2.05,2,3.88,3.78,5.71,5.57c-1.1,1.1-1.98,1.99-3.01,3.03
			c-1.75-1.85-3.48-3.69-5.23-5.54c-1.4,1.48-2.66,2.81-3.96,4.18c1.34,1.3,2.82,2.73,4.36,4.22c-1.12,1.03-2.03,1.88-3.03,2.81
			C63.95,82.39,62.53,80.89,60.92,79.2z M57.09,69.76c1.26,1.26,2.55,2.56,3.71,3.73c1.26-1.26,2.58-2.56,3.78-3.76
			c-1.18-1.24-2.44-2.56-3.65-3.83C59.64,67.2,58.35,68.49,57.09,69.76z"/>
	</g>
	<g>
		<path class="st0" d="M74.8,22.59c-0.64-1.46-1.34-3.02-3.06-2.79c-1.4,0.19-2.71,1-4.16,1.57c-0.54-1.07-1.1-2.18-1.65-3.28
			c5.83-4.34,10.76-2.07,12.33,2.76C77.16,21.41,76.05,21.97,74.8,22.59z"/>
	</g>
	<g>
		<path class="st0" d="M68.67,23.73c0,1.28,0,2.5,0,3.88c-3.46-0.51-5.25,1.25-5.86,4.54c-1.35-0.45-2.54-0.84-3.7-1.23
			C59.86,26.22,63.52,23,68.67,23.73z"/>
	</g>
	<g>
		<path class="st0" d="M93.99,28.7c-1.11,0.56-2.22,1.12-3.13,1.58c-0.94-0.97-1.61-2.16-2.61-2.56c-1.05-0.42-2.41-0.1-3.72-0.1
			c0-1.35,0-2.59,0-3.84C89.4,23.22,92.17,23.72,93.99,28.7z"/>
	</g>
	<g>
		<path class="st0" d="M23.5,68.72c-1.27,0-2.48,0-3.77,0c0-1.25,0-2.48,0-3.79c1.24,0,2.47,0,3.77,0
			C23.5,66.17,23.5,67.38,23.5,68.72z"/>
	</g>
	<g>
		<path class="st0" d="M11.82,76.53c0-1.28,0-2.46,0-3.73c1.26,0,2.49,0,3.82,0c0,1.21,0,2.45,0,3.73
			C14.35,76.53,13.09,76.53,11.82,76.53z"/>
	</g>
	<g>
		<path class="st0" d="M19.7,76.57c0-1.28,0-2.49,0-3.78c1.26,0,2.49,0,3.8,0c0,1.24,0,2.48,0,3.78
			C22.25,76.57,21.04,76.57,19.7,76.57z"/>
	</g>
	<g>
		<path class="st0" d="M27.56,76.56c0-1.26,0-2.47,0-3.76c1.23,0,2.47,0,3.79,0c0,1.22,0,2.46,0,3.76
			C30.12,76.56,28.91,76.56,27.56,76.56z"/>
	</g>
	<g>
		<path class="st0" d="M11.88,80.61c1.29,0,2.5,0,3.77,0c0,1.26,0,2.46,0,3.77c-1.2,0-2.44,0-3.77,0
			C11.88,83.18,11.88,81.95,11.88,80.61z"/>
	</g>
	<g>
		<path class="st0" d="M19.75,80.58c1.28,0,2.46,0,3.73,0c0,1.26,0,2.49,0,3.81c-1.22,0-2.45,0-3.73,0
			C19.75,83.12,19.75,81.85,19.75,80.58z"/>
	</g>
	<g>
		<path class="st0" d="M27.58,80.58c1.29,0,2.47,0,3.74,0c0,1.24,0,2.48,0,3.81c-1.19,0-2.43,0-3.74,0
			C27.58,83.16,27.58,81.93,27.58,80.58z"/>
	</g>
	<g>
		<path class="st0" d="M19.72,88.47c1.25,0,2.46,0,3.76,0c0,1.22,0,2.46,0,3.78c-1.21,0-2.45,0-3.76,0
			C19.72,91,19.72,89.77,19.72,88.47z"/>
	</g>
	<g>
		<path class="st0" d="M55.77,112.39c2.56-3.19,7.48-3.22,10.35,0.14c-0.94,0.84-1.89,1.69-2.86,2.56c-2-1.51-2.86-1.51-4.92,0.15
			C57.5,114.32,56.67,113.4,55.77,112.39z"/>
	</g>
	<g>
		<path class="st0" d="M54.68,107.23c-1.07,0.54-2.16,1.08-3.47,1.74c-0.79-2.49-2.29-4.3-5.03-4.95c0.64-1.29,1.2-2.41,1.77-3.54
			C51.41,101.47,53.66,103.63,54.68,107.23z"/>
	</g>
</g>
</svg>
