<?xml version="1.0" encoding="utf-8"?>
<!-- Generator: Adobe Illustrator 25.2.1, SVG Export Plug-In . SVG Version: 6.00 Build 0)  -->
<svg version="1.1" id="Layer_1" xmlns="http://www.w3.org/2000/svg" xmlns:xlink="http://www.w3.org/1999/xlink" x="0px" y="0px"
	 viewBox="0 0 112.13 115.73" style="enable-background:new 0 0 112.13 115.73;" xml:space="preserve">
<style type="text/css">
	.st0{fill:#E51675;}
	.st1{fill:#E51675;stroke:#E51675;stroke-width:0.5;stroke-miterlimit:10;}
	.st2{font-family:'RupeeForadian';}
	.st3{font-size:28.3262px;}
</style>
<g>
	<g>
		<path class="st0" d="M83.26,56.11c-1.62-0.22-3.1-0.45-4.58-0.59c-0.34-0.03-0.79,0.21-1.06,0.47c-1.61,1.57-3.21,3.15-4.76,4.79
			c-0.58,0.61-1.15,0.87-2.01,0.86c-4.14-0.05-8.28,0-12.42-0.04c-0.83-0.01-1.41,0.2-1.98,0.87c-3.79,4.42-6.6,8.79-10.4,13.2
			c-0.55,0.64-1.1,0.92-1.97,0.91c-6.66-0.04-11.24,0-17.9-0.04c-0.9-0.01-1.47,0.3-2.07,0.95C17.4,84.86,10.64,92.2,3.91,99.56
			c-0.21,0.22-0.32,0.53-0.52,0.87c-1.12-1.04-2-1.85-2.93-2.71c2.47-2.7,4.9-5.36,7.34-8.01c4.88-5.32,9.77-10.63,14.64-15.96
			c0.59-0.65,1.18-0.94,2.08-0.94c6.66,0.04,12.28,0.01,18.93,0.04c0.76,0,0.23-0.2,0.74-0.8C48,67.6,50.84,63.2,54.66,58.76
			c0.56-0.65,1.12-0.91,1.97-0.9c4.26,0.05,8.51,0.05,12.77-0.01c0.57-0.01,1.23-0.33,1.68-0.72c1.03-0.88,1.95-1.88,3.02-2.94
			c-0.41-0.21-0.7-0.38-1-0.51c-11-4.9-17.55-15.82-16.74-27.89C57.21,13.39,66.98,2.48,79.1,0.43
			c15.19-2.57,28.96,6.54,32.31,21.64c1.99,8.95-0.22,17.02-6.04,24.06c-0.57,0.69-0.76,1.34-0.76,2.2
			c0.02,21.99,0.01,43.98,0.01,65.96c0,0.46,0,0.91,0,1.43c-35.93,0-68.65,0-104.63,0c0-1.42-0.02-2.84,0.02-4.26
			c0.01-0.26,0.29-0.53,0.49-0.75C9.05,100.9,17.59,91.1,26.1,81.27c0.61-0.7,1.22-1,2.16-1c6.62,0.04,11.17,0.01,17.78,0.04
			c0.77,0,1.25-0.22,1.72-0.86c3.24-4.41,5.51-8.77,8.75-13.19c0.53-0.72,1.07-0.94,1.93-0.93c4.88,0.04,9.75,0.04,14.63-0.01
			c0.57-0.01,1.28-0.28,1.69-0.68c2.62-2.54,5.17-5.15,7.74-7.73C82.74,56.67,82.96,56.42,83.26,56.11z M84.18,3.71
			c-13.24,0.02-24.14,11-24.12,24.31c0.02,13.32,10.94,24.28,24.17,24.26c13.24-0.02,24.14-11,24.12-24.31
			C108.33,14.64,97.41,3.69,84.18,3.71z M100.88,50.71c-2.16,1.12-4.22,2.26-6.34,3.26c-0.76,0.36-1.08,0.69-1.08,1.59
			c0.03,18.44,0.02,36.87,0.03,55.31c0,0.37,0.03,0.75,0.05,1.11c2.51,0,4.92,0,7.34,0C100.88,91.47,100.88,71.06,100.88,50.71z
			 M89.74,55.28c-0.54,0.41-0.89,0.61-1.17,0.88c-1.84,1.83-3.65,3.7-5.51,5.51c-0.55,0.53-0.74,1.08-0.74,1.83
			c0.02,15.75,0.01,31.5,0.01,47.26c0,0.41,0,0.82,0,1.2c2.58,0,4.99,0,7.4,0C89.74,93.12,89.74,74.38,89.74,55.28z M71.23,111.97
			c2.53,0,4.94,0,7.33,0c0-15.23,0-30.37,0-45.83c-0.77,0.81-1.38,1.38-1.91,2.03c-0.59,0.73-1.27,1.02-2.2,0.94
			c-1.06-0.08-2.13-0.02-3.22-0.02C71.23,83.47,71.23,97.69,71.23,111.97z M60.13,69.14c0,14.35,0,28.6,0,42.82c2.49,0,4.9,0,7.29,0
			c0-14.32,0-28.54,0-42.82C64.98,69.14,62.59,69.14,60.13,69.14z M56.31,72.91c-2.4,3.22-3.58,6.14-5.73,9.13
			c-0.37,0.52-0.61,1.25-0.61,1.89c-0.04,8.94-0.03,17.89-0.03,26.83c0,0.41,0,0.82,0,1.21c2.57,0,3.95,0,6.37,0
			C56.31,99,56.31,86.14,56.31,72.91z M36.03,112c0-9.36,0-18.63,0-27.88c-2.49,0-3.87,0-6.26,0c0,9.34,0,18.58,0,27.88
			C32.21,112,33.56,112,36.03,112z M39.91,84.08c0,9.37,0,18.64,0,27.88c2.49,0,3.87,0,6.25,0c0-9.34,0-18.58,0-27.88
			C43.72,84.08,42.37,84.08,39.91,84.08z M18.57,111.98c2.55,0,4.96,0,7.35,0c0-8.21,0-16.35,0-24.69
			c-2.45,2.81-4.77,5.46-7.07,8.13c-0.18,0.21-0.27,0.56-0.27,0.85C18.56,101.47,18.57,106.67,18.57,111.98z M14.8,100.05
			c-3.54,4.08-6.91,7.95-10.39,11.95c3.59,0,6.96,0,10.39,0C14.8,108.07,14.8,104.2,14.8,100.05z"/>
		<path class="st0" d="M84.23,7.44c11.34,0,20.41,9.18,20.4,20.63c-0.01,11.37-9.17,20.48-20.58,20.46
			c-11.23-0.01-20.3-9.24-20.29-20.64C63.77,16.58,72.91,7.44,84.23,7.44z M84.19,11.18c-9.14,0-16.7,7.6-16.71,16.79
			c-0.01,9.18,7.53,16.8,16.66,16.84c9.17,0.03,16.79-7.63,16.77-16.85C100.89,18.77,93.33,11.17,84.19,11.18z"/>
	</g>
</g>
<text transform="matrix(1 0 0 1 77.4378 39.1219)" class="st1 st2 st3">`</text>
</svg>
