<?xml version="1.0" encoding="utf-8"?>
<!-- Generator: Adobe Illustrator 25.2.1, SVG Export Plug-In . SVG Version: 6.00 Build 0)  -->
<svg version="1.1" id="Layer_1" xmlns="http://www.w3.org/2000/svg" xmlns:xlink="http://www.w3.org/1999/xlink" x="0px" y="0px"
	 viewBox="0 0 142.56 144.99" style="enable-background:new 0 0 142.56 144.99;" xml:space="preserve">
<style type="text/css">
	.st0{fill:#EECE38;}
</style>
<g>
	<g>
		<path class="st0" d="M79.5,128.38c-1.18,0-2.34-0.04-3.49,0.01c-1.27,0.05-2.12-0.49-2.6-1.64c-1.04-2.5-2.07-5.01-3.11-7.51
			c-0.5-1.22-0.23-2.25,0.75-3.12c1.65-1.47,3.33-2.92,4.92-4.46c0.41-0.39,0.64-1.07,0.75-1.66c0.47-2.49-0.29-4.44-2.5-5.88
			c-1.13-0.73-2.02-1.81-3.05-2.7c-1.08-0.94-1.39-2.02-0.82-3.36c1.02-2.4,2.02-4.81,2.99-7.23c0.52-1.28,1.41-1.87,2.81-1.78
			c2.01,0.13,4.02,0.17,6.03,0.33c1.14,0.1,1.9-0.32,2.79-1.03c1.85-1.47,2.27-3.2,1.9-5.41c-0.25-1.53-0.15-3.11-0.22-4.67
			c-0.05-1.22,0.54-2,1.62-2.46c2.5-1.05,5.01-2.07,7.51-3.11c1.22-0.5,2.25-0.23,3.12,0.74c1.44,1.61,2.85,3.26,4.37,4.8
			c0.46,0.47,1.23,0.73,1.9,0.87c2.46,0.49,4.32-0.36,5.73-2.49c0.77-1.16,1.86-2.11,2.8-3.16c0.92-1.03,1.99-1.25,3.26-0.71
			c2.36,0.99,4.72,1.97,7.1,2.92c1.4,0.56,2.03,1.5,1.91,3.03c-0.16,2.01-0.17,4.02-0.34,6.03c-0.09,1.04,0.32,1.72,0.94,2.53
			c1.5,1.97,3.33,2.43,5.66,2.01c1.47-0.27,3.01-0.15,4.52-0.21c1.22-0.05,2.01,0.55,2.46,1.62c1.05,2.5,2.07,5.01,3.11,7.51
			c0.54,1.3,0.15,2.34-0.85,3.24c-1.58,1.41-3.2,2.77-4.7,4.26c-0.47,0.46-0.74,1.23-0.87,1.9c-0.48,2.39,0.3,4.23,2.38,5.63
			c1.2,0.8,2.19,1.92,3.27,2.9c1.02,0.92,1.25,1.99,0.71,3.26c-1.02,2.4-2.02,4.81-2.99,7.23c-0.52,1.28-1.42,1.87-2.81,1.78
			c-2.06-0.13-4.12-0.17-6.18-0.34c-1.04-0.09-1.72,0.32-2.52,0.94c-1.89,1.46-2.42,3.22-2.02,5.52c0.27,1.52,0.34,3.13,0.15,4.66
			c-0.1,0.85-0.73,2-1.44,2.35c-2.51,1.25-5.15,2.23-7.76,3.27c-1.23,0.49-2.24,0.06-3.09-0.91c-1.43-1.62-2.85-3.26-4.35-4.81
			c-0.39-0.41-1.07-0.64-1.66-0.75c-2.49-0.47-4.44,0.29-5.88,2.5c-0.76,1.17-1.86,2.11-2.8,3.16c-0.92,1.03-1.99,1.25-3.26,0.71
			c-2.4-1.02-4.81-2.02-7.23-3c-1.29-0.52-1.86-1.42-1.77-2.81c0.14-2.06,0.17-4.12,0.34-6.18c0.09-1.04-0.35-1.71-0.94-2.53
			C84.31,127.74,82,127.77,79.5,128.38z M91.79,83.73c0.03,0,0.05,0,0.08,0c0,0.7-0.09,1.42,0.02,2.11
			c0.26,1.59-0.18,2.82-1.41,3.89c-1.28,1.13-2.35,2.5-3.68,3.57c-0.71,0.57-1.76,0.96-2.67,0.99c-1.95,0.07-3.92-0.18-5.88-0.21
			c-0.39-0.01-0.98,0.27-1.16,0.59c-2.04,3.63-2.12,3.93,1.17,6.46c2.66,2.04,3.54,4.39,3.52,7.73c-0.02,3.17-0.89,5.39-3.38,7.34
			c-3.29,2.57-3.2,2.72-1.38,6.41c0.19,0.39,0.87,0.76,1.32,0.75c2.01-0.01,4.02-0.26,6.03-0.22c0.78,0.01,1.61,0.43,2.29,0.87
			c0.66,0.42,1.1,1.19,1.74,1.66c2.93,2.12,3.88,4.85,3.46,8.47c-0.43,3.74-0.17,3.8,3.49,5.09c0.42,0.15,1.16-0.03,1.48-0.34
			c1.12-1.08,2.22-2.21,3.15-3.46c1.21-1.62,2.75-1.9,4.68-2.12c4.38-0.49,7.64,0.78,10.15,4.49c1.35,2,1.59,1.84,3.89,0.87
			c2.28-0.95,2.27-0.95,2.16-3.37c-0.04-0.85,0.09-1.74-0.09-2.56c-0.55-2.57,0.68-4.21,2.32-6.08c2.45-2.8,5.08-3.95,8.8-3.47
			c3.38,0.43,3.34,0.12,4.75-2.94c0.54-1.17,0.37-1.89-0.63-2.49c-4.45-2.68-5.88-6.67-5.06-11.64c0.01-0.05-0.01-0.11,0-0.15
			c0.41-0.92,0.62-2.02,1.27-2.73c1.32-1.44,2.89-2.65,4.29-4.02c0.27-0.27,0.49-0.92,0.36-1.22c-0.62-1.36-1.37-2.66-2.09-3.97
			c-0.03-0.05-0.29,0.02-0.44,0.03c-1.96,0.1-3.92,0.3-5.88,0.25c-0.87-0.02-1.9-0.35-2.56-0.9c-1.53-1.29-2.97-2.73-4.27-4.26
			c-0.55-0.65-0.9-1.68-0.92-2.55c-0.05-1.95,0.2-3.92,0.21-5.88c0-0.44-0.42-1.09-0.82-1.28c-3.65-1.75-3.66-1.73-6.33,1.29
			c-0.1,0.11-0.22,0.21-0.3,0.34c-1.58,2.41-3.75,3.46-6.66,3.04c-1.13-0.17-2.33,0.11-3.46-0.08c-0.87-0.15-1.85-0.52-2.48-1.11
			c-1.43-1.34-2.65-2.89-4.01-4.31c-0.28-0.29-0.89-0.6-1.2-0.49c-1.36,0.49-2.92,0.87-3.9,1.82c-0.53,0.52-0.03,2.1,0,3.2
			C91.79,83.33,91.79,83.53,91.79,83.73z"/>
	</g>
	<g>
		<path class="st0" d="M43.5,140.2c0,1.57,0,3.06,0,4.66c-1.63,0-3.15,0-4.83,0c0-1.56,0-3.1,0-4.61c-5.2-0.49-7.3-4.45-7.37-8.25
			c-0.07-3.56,0.62-6.39,3.6-8.47c1.13-0.79,1.5-1.87,1.38-3.25c-0.12-1.35-0.03-2.71-0.03-4.18c1.58,0,3.11,0,4.8,0
			c0,2.53,0.04,5.08-0.04,7.62c-0.01,0.48-0.45,0.99-0.8,1.4c-0.55,0.65-1.12,1.34-1.81,1.81c-2.12,1.44-2.41,3.49-2.16,5.8
			c0.17,1.57,1.02,2.51,2.6,2.57c1.46,0.06,2.92,0.05,4.38,0.01c1.67-0.05,2.67-0.98,2.67-2.64c0.03-7.25,0.1-14.5-0.03-21.74
			c-0.07-4.01-3.22-6.97-7.26-7c-8-0.06-16-0.06-24.01,0c-4.22,0.03-7.3,3.17-7.33,7.41c-0.05,7-0.02,13.99-0.01,20.99
			c0,2.03,0.94,2.95,2.94,2.99c1.36,0.02,2.72,0.04,4.08-0.01c1.54-0.06,2.48-0.92,2.62-2.38c0.22-2.24,0.21-4.38-2-5.85
			c-2.4-1.6-3.23-3.91-2.84-6.78c0.18-1.33,0.03-2.71,0.03-4.19c1.57,0,3.1,0,4.83,0c0,1.51,0.06,3.05-0.02,4.59
			c-0.05,1.03,0.15,1.87,1.02,2.49c3.16,2.23,4.2,5.2,3.91,9.08c-0.35,4.62-2.58,7.43-7.31,7.96c0,1.52,0,3.06,0,4.67
			c-1.63,0-3.12,0-4.78,0c0-1.51,0-3.04,0-4.63c-3.66-0.39-6.14-2.11-7.11-5.63c-0.18-0.66-0.2-1.39-0.2-2.09
			c-0.01-7-0.01-13.99-0.01-20.99c0-7.23,5.01-12.33,12.25-12.49c0.24-0.01,0.48-0.03,0.94-0.07c-3.11-3.91-4.25-8.2-3.17-12.94
			c0.75-3.29,2.51-6,5.17-8.1c5.43-4.29,13.16-4.11,18.48,0.45c5.86,5.03,6.43,12.12,1.65,20.52c1.19,0.14,2.38,0.18,3.53,0.43
			c5.55,1.19,9.44,6.02,9.46,11.7c0.02,7.15,0.01,14.29,0,21.44C50.73,136.87,48.11,139.73,43.5,140.2z M16.92,89.34
			c-0.03,5.27,4.41,9.71,9.68,9.72c5.19,0,9.6-4.4,9.63-9.61c0.03-5.26-4.43-9.74-9.68-9.71C21.34,79.75,16.95,84.13,16.92,89.34z"
			/>
	</g>
	<g>
		<path class="st0" d="M113.43,50.74c-6.19,0-12.38,0-18.57,0c-2.29,0-3.05-0.77-3.05-3.09c0-7.6-0.02-15.2,0.02-22.8
			c0-0.82,0.21-1.7,0.56-2.44c1.35-2.86,2.83-5.66,4.2-8.51c0.62-1.28,1.5-1.85,2.96-1.84c9.31,0.04,18.62,0.04,27.93,0
			c1.52-0.01,2.5,0.54,3.04,1.93c0.04,0.09,0.1,0.17,0.15,0.26c1.53,3.11,3.62,6.08,4.41,9.37c0.77,3.19,0.2,6.7,0.2,10.07
			c0.01,4.68,0.01,9.36,0,14.04c0,2.2-0.79,2.99-2.99,2.99C126.02,50.74,119.73,50.74,113.43,50.74z M123.22,26.64
			c0,2.34,0.01,4.5,0,6.66c-0.01,2.11-0.81,2.93-2.9,2.93c-4.48,0.01-8.96,0.01-13.43,0c-2.2,0-2.99-0.79-2.99-2.98
			c-0.01-2.19,0-4.39,0-6.56c-2.53,0-4.86,0-7.18,0c0,6.44,0,12.76,0,19.13c11.26,0,22.45,0,33.65,0c0-6.45,0-12.8,0-19.18
			C127.97,26.64,125.67,26.64,123.22,26.64z M108.83,26.65c0,1.63,0,3.15,0,4.65c3.24,0,6.37,0,9.49,0c0-1.6,0-3.09,0-4.65
			C115.15,26.65,112.05,26.65,108.83,26.65z M110.63,16.96c-0.39,1.61-0.75,3.13-1.13,4.71c2.8,0,5.38,0,8.12,0
			c-0.41-1.64-0.78-3.17-1.16-4.71C114.5,16.96,112.65,16.96,110.63,16.96z M104.41,21.68c0.38-1.6,0.74-3.1,1.14-4.77
			c-1.57,0-2.97-0.03-4.37,0.02c-0.29,0.01-0.69,0.24-0.82,0.48c-0.72,1.36-1.38,2.75-2.13,4.27
			C100.39,21.68,102.33,21.68,104.41,21.68z M122.71,21.67c2.11,0,4.04,0,6.16,0c-0.75-1.52-1.41-2.92-2.13-4.28
			c-0.13-0.24-0.55-0.44-0.84-0.45c-1.39-0.05-2.78-0.02-4.34-0.02C121.97,18.61,122.33,20.11,122.71,21.67z"/>
	</g>
	<g>
		<path class="st0" d="M53.15,38.66c0,5.43,0,10.87,0,16.3c0,2.22-0.78,3.02-2.96,3.02c-9.31,0.01-18.61,0.01-27.92,0
			c-2.12,0-2.94-0.8-2.94-2.88c-0.01-10.97-0.01-21.93,0-32.9c0-2.03,0.82-2.86,2.8-2.87c9.41-0.01,18.81-0.01,28.22,0
			c1.98,0,2.79,0.85,2.79,2.88C53.16,27.7,53.15,33.18,53.15,38.66z M24.25,24.23c0,9.65,0,19.22,0,28.83c8.05,0,16.02,0,23.97,0
			c0-9.67,0-19.25,0-28.83C40.17,24.23,32.24,24.23,24.25,24.23z"/>
	</g>
	<g>
		<path class="st0" d="M33.83,14.43c-1.69,0-3.18,0-4.78,0c0-3.17,0-6.27,0-9.48c-8.08,0-16.05,0-24.11,0c0,16,0,32.02,0,48.15
			c3.12,0,6.22,0,9.44,0c0,1.63,0,3.16,0,4.89c-2.11,0-4.25,0-6.4,0c-1.66,0-3.32,0.01-4.98,0C0.8,57.98,0.01,57.2,0.01,55
			c0-14.64,0-29.28,0-43.93c0-2.77-0.01-5.53,0-8.3c0.01-1.91,0.85-2.76,2.76-2.76C12.17,0,21.58,0,30.99,0.01
			c2,0,2.82,0.84,2.83,2.84C33.83,6.66,33.83,10.48,33.83,14.43z"/>
	</g>
	<g>
		<path class="st0" d="M86.15,36.32c-9.14-3.27-18.18-3.29-27.32,0.01c-0.58-1.53-1.13-2.97-1.74-4.56
			c10.25-3.75,20.41-3.72,30.78-0.03C87.28,33.3,86.73,34.76,86.15,36.32z"/>
	</g>
	<g>
		<path class="st0" d="M87.65,19.1c-0.44,1.53-0.85,2.96-1.19,4.14c-4.77-0.51-9.38-1.38-14-1.39c-4.57,0-9.15,0.87-13.95,1.38
			c-0.33-1.14-0.75-2.6-1.17-4.06C64.66,16.32,78.74,16.02,87.65,19.1z"/>
	</g>
	<g>
		<path class="st0" d="M115.96,69.96c-1.69,0.09-3.18,0.17-4.5,0.24c-1.11-4.57-2.21-9.07-3.36-13.8c1.05-0.48,2.44-1.13,3.99-1.85
			C114.41,59.42,115.53,64.49,115.96,69.96z"/>
	</g>
	<g>
		<path class="st0" d="M120.87,56.22c1.33-0.44,2.75-0.91,4.3-1.42c1.74,4.94,2.57,9.92,2.88,15.19c-1.64,0-3.17,0-4.62,0
			C122.59,65.48,121.75,60.93,120.87,56.22z"/>
	</g>
	<g>
		<path class="st0" d="M56.42,107.97c3.96,1.1,7.66,2.12,11.51,3.18c-0.16,1.36-0.35,2.88-0.55,4.53c-4.52-0.49-8.7-1.7-12.85-3.55
			C55.23,110.62,55.86,109.22,56.42,107.97z"/>
	</g>
	<g>
		<path class="st0" d="M67.89,123.21c-0.14,1.47-0.27,2.95-0.45,4.89c-4.28-0.89-8.4-1.74-12.73-2.64c0.59-1.8,1.07-3.26,1.54-4.7
			C60.13,121.57,63.92,122.37,67.89,123.21z"/>
	</g>
	<g>
		<path class="st0" d="M30,62.17c1.81,0.43,3.25,0.78,4.77,1.15c-0.37,3.03-0.73,5.99-1.1,9.06c-1.44,0-2.97,0-4.89,0
			C29.19,68.98,29.58,65.64,30,62.17z"/>
	</g>
	<g>
		<path class="st0" d="M21.61,72.42c-1.53,0-3.01,0-4.85,0c0.29-3.32,0.57-6.58,0.87-10.07c1.79,0.31,3.33,0.58,4.87,0.85
			C22.21,66.31,21.92,69.28,21.61,72.42z"/>
	</g>
	<g>
		<path class="st0" d="M14.41,14.42c-1.54,0-3.02,0-4.62,0c0-1.5,0-3.03,0-4.65c1.49,0,3.01,0,4.62,0
			C14.41,11.3,14.41,12.82,14.41,14.42z"/>
	</g>
	<g>
		<path class="st0" d="M14.43,29.08c0,1.55,0,3.04,0,4.63c-1.52,0-3.04,0-4.66,0c0-1.51,0-3.03,0-4.63
			C11.27,29.08,12.76,29.08,14.43,29.08z"/>
	</g>
	<g>
		<path class="st0" d="M14.42,19.43c0,1.61,0,3.09,0,4.65c-1.56,0-3.04,0-4.64,0c0-1.51,0-3.03,0-4.65
			C11.28,19.43,12.8,19.43,14.42,19.43z"/>
	</g>
	<g>
		<path class="st0" d="M19.44,9.73c1.59,0,3.07,0,4.64,0c0,1.55,0,3.03,0,4.64c-1.48,0-3,0-4.64,0
			C19.44,12.9,19.44,11.38,19.44,9.73z"/>
	</g>
	<g>
		<path class="st0" d="M9.78,38.72c1.56,0,3.05,0,4.62,0c0,1.58,0,3.1,0,4.7c-1.53,0-3.02,0-4.62,0
			C9.78,41.91,9.78,40.39,9.78,38.72z"/>
	</g>
	<g>
		<path class="st0" d="M106.33,125.63c-9.43,0-16.93-7.5-16.93-16.93c0-9.42,7.53-16.91,16.96-16.89
			c9.39,0.02,16.86,7.55,16.86,17.01C123.22,118.12,115.67,125.64,106.33,125.63z M118.38,108.77c0.07-6.49-5.39-12.04-11.94-12.13
			c-6.58-0.09-12.16,5.41-12.21,12.02c-0.04,6.52,5.42,12.07,11.94,12.13C112.76,120.87,118.31,115.41,118.38,108.77z"/>
	</g>
	<g>
		<path class="st0" d="M43.41,43.43c-1.58,0-3.06,0-4.65,0c0-1.54,0-3.07,0-4.68c1.53,0,3.05,0,4.65,0
			C43.41,40.28,43.41,41.77,43.41,43.43z"/>
	</g>
	<g>
		<path class="st0" d="M29.06,43.41c0-1.57,0-3.05,0-4.64c1.53,0,3.05,0,4.67,0c0,1.52,0,3.04,0,4.64
			C32.21,43.41,30.72,43.41,29.06,43.41z"/>
	</g>
	<g>
		<path class="st0" d="M43.42,29.08c0,1.55,0,3.04,0,4.63c-1.52,0-3.04,0-4.66,0c0-1.51,0-3.03,0-4.63
			C40.27,29.08,41.75,29.08,43.42,29.08z"/>
	</g>
	<g>
		<path class="st0" d="M29.09,29.02c1.6,0,3.05,0,4.62,0c0,1.54,0,3.06,0,4.7c-1.48,0-3,0-4.62,0
			C29.09,32.2,29.09,30.68,29.09,29.02z"/>
	</g>
</g>
</svg>
