<?xml version="1.0" encoding="utf-8"?>
<!-- Generator: Adobe Illustrator 25.2.1, SVG Export Plug-In . SVG Version: 6.00 Build 0)  -->
<svg version="1.1" id="Layer_1" xmlns="http://www.w3.org/2000/svg" xmlns:xlink="http://www.w3.org/1999/xlink" x="0px" y="0px"
	 viewBox="0 0 128.22 128.26" style="enable-background:new 0 0 128.22 128.26;" xml:space="preserve">
<style type="text/css">
	.st0{fill:#EECE38;}
	.st1{font-family:'RupeeForadian';}
	.st2{font-size:52.6246px;}
	.st3{letter-spacing:-1;}
</style>
<g>
	<g>
		<g>
			<path class="st0" d="M128.22,89.7c-0.38,1.95-0.63,3.93-1.16,5.84c-2.84,10.39-9.9,16.42-20.12,18.87
				c-2.97,0.71-6.09,0.98-9.15,1.02c-9.55,0.13-19.11,0.05-28.66,0.04c-0.53,0-1.1-0.04-1.58-0.23c-0.97-0.37-1.4-1.19-1.26-2.2
				c0.13-1,0.72-1.68,1.77-1.83c0.49-0.07,1-0.06,1.5-0.06c9.47,0,18.94,0.01,28.41-0.01c5.11-0.01,10.01-0.98,14.56-3.42
				c6.44-3.46,9.85-9.01,10.96-16.09c1.2-7.63-0.2-15.02-2.26-22.32c-3.42-12.09-9.25-22.81-18.21-31.71
				c-3.15-3.12-6.62-5.85-10.4-8.19c-0.95-0.59-1.79-0.89-2.84-0.3c-0.5,0.28-1.09,0.38-1.79,0.61c1.72,1.61,3.39,3.16,5.06,4.71
				c0.7,0.65,1.25,1.37,0.99,2.4c-0.44,1.77-2.37,2.23-3.83,0.89c-2.52-2.32-5-4.67-7.51-6.99c-0.33-0.3-0.75-0.51-1.4-0.95
				c0,2.02,0,3.68,0,5.33c0,0.33,0.01,0.67-0.01,1c-0.08,1.48-0.92,2.43-2.15,2.45c-1.27,0.02-2.19-1.01-2.21-2.51
				c-0.02-1.96-0.01-3.91-0.01-6.2c-0.58,0.36-1.01,0.54-1.33,0.84c-2.52,2.32-4.98,4.7-7.54,6.96c-0.56,0.49-1.51,0.89-2.2,0.79
				c-1.77-0.25-2.3-2.34-0.99-3.66c1.42-1.42,2.9-2.76,4.38-4.11c0.3-0.28,0.67-0.48,1.16-0.82c-1.21-0.43-2.04-0.81-2.91-1
				c-0.41-0.09-0.95,0.08-1.34,0.3c-6.89,3.99-12.52,9.38-17.34,15.66c-0.39,0.51-0.92,1.03-1.5,1.23
				c-0.87,0.31-1.75,0.05-2.32-0.78c-0.58-0.85-0.59-1.75,0.03-2.56c1.14-1.49,2.35-2.92,3.5-4.4c0.26-0.34,0.57-0.78,0.57-1.17
				c0.04-4.59,0.03-9.17,0.03-13.92c-7.77,3.39-15.47,3.43-23.28,0.04c0,5.11,0,10.12,0,15.1c2.02,0.34,4.08,0.48,6.01,1.07
				c2,0.61,3.98,1.48,5.77,2.57c2.07,1.26,3.05,3.24,3.04,5.79c-0.07,9.93-0.03,19.86-0.03,29.79c0,0.49,0,0.98,0,1.61
				c1.98,0,3.85-0.09,5.71,0.02c3.35,0.2,6.59,0.94,9.52,2.67c2.67,1.58,4.11,3.73,4.06,7.03c-0.14,8.51-0.11,17.02-0.01,25.53
				c0.04,2.87-1.17,4.87-3.43,6.37c-3.3,2.2-7.05,2.91-10.9,3.15c-4.74,0.29-9.3-0.39-13.59-2.68c-2.45,4.74-6.94,5.87-11.61,6.71
				c-0.36,0.06-0.71,0.17-1.06,0.26c-2.17,0-4.34,0-6.51,0c-0.35-0.09-0.71-0.2-1.07-0.26c-3.46-0.54-6.77-1.44-9.48-3.81
				c-1.48-1.29-2.29-2.88-2.24-4.94c0.08-3.04,0.15-6.1-0.01-9.14c-0.16-3.1,1.25-5.21,3.76-6.67c1.49-0.87,3.12-1.5,4.8-2.28
				c0-0.37,0-0.87,0-1.37c0-17.15,0.05-34.3-0.04-51.45c-0.02-3.29,1.34-5.51,4.06-7.03c1.22-0.68,2.54-1.25,3.88-1.66
				c1.57-0.49,3.21-0.76,4.89-1.15c0-0.47,0-0.93,0-1.38c0-6.43,0-12.85,0.01-19.28c0-0.58,0.03-1.17,0.16-1.73
				c0.59-2.6,2.49-4.09,4.7-5.19c4.43-2.2,9.17-2.62,14.01-2.22c3.26,0.27,6.42,1,9.27,2.69c2.63,1.56,4.12,3.71,4.02,6.95
				c-0.14,4.42-0.03,8.85-0.03,13.27c0,0.42,0,0.84,0,1.3c3.27-2.48,6.38-4.83,9.48-7.17C57.23,19.83,55.6,12.29,55.45,5
				c-0.07-3.6,3.32-5.65,6.51-3.97c0.95,0.5,1.83,1.16,2.66,1.84C67,4.8,69.79,4.82,72.14,2.84c4.52-3.79,9.3-3.79,13.78-0.02
				c2.39,2.02,5.17,1.98,7.61-0.02c0.86-0.71,1.79-1.38,2.78-1.88c3.02-1.52,6.29,0.52,6.32,3.91c0.01,1.08-0.09,2.17-0.21,3.24
				c-0.09,0.85,0.1,1.29,1.01,1.63c4.13,1.53,7.02,5.57,7.03,9.61c0,2.88-1.27,5.2-3.36,7.27c1.17,0.37,2.24,0.67,3.28,1.04
				c3.06,1.09,5.88,2.58,8.03,5.09c0.83,0.97,0.77,2.25-0.04,3.05c-0.84,0.83-2.17,0.86-3.03-0.05c-3.78-3.99-8.73-4.93-13.96-5.36
				c0.04,0.21,0.25,0.23,0.37,0.33c14.13,11.95,22.04,27.41,25.47,45.37c0.39,2.03,0.67,4.08,0.99,6.13
				C128.22,84.69,128.22,87.2,128.22,89.7z M12.94,53.15c0,15.85,0,31.56,0,47.42c5.15-0.4,10.1,0.08,14.88,2.52
				c0-0.62,0-1.02,0-1.43c0-4.25,0.14-8.51-0.04-12.76c-0.14-3.32,1.36-5.48,4.05-7.01c1.08-0.61,2.23-1.13,3.42-1.49
				c0.89-0.27,1.13-0.68,1.12-1.57c-0.03-8.17-0.02-16.34-0.02-24.52c0-0.36-0.03-0.72-0.05-1.18
				C28.5,56.57,20.77,56.56,12.94,53.15z M32.09,93.69c0,6.76,0.11,13.35-0.06,19.93c-0.06,2.36,0.89,3.73,2.89,4.33
				c2.49,0.74,5.05,1.42,7.63,1.64c3.85,0.34,7.64-0.2,11.13-2.07c1.32-0.7,1.97-1.69,1.94-3.3c-0.09-6.38-0.03-12.75-0.04-19.13
				c0-0.43-0.04-0.87-0.06-1.35C47.68,97.14,39.95,97.15,32.09,93.69z M60.13,4.86c-0.16,0.06-0.32,0.11-0.48,0.17
				c0.32,2.37,0.5,4.78,1,7.11c0.99,4.58,2.95,8.67,6.75,11.64c1.5,1.17,3.22,1.81,5.31,1.82c-0.25-0.51-0.45-0.86-0.61-1.24
				c-1.2-2.87-2.44-5.73-3.57-8.64c-0.47-1.23,0.22-2.4,1.4-2.79c1.09-0.36,2.2,0.24,2.68,1.44c0.12,0.31,0.16,0.65,0.31,0.95
				c1.49,3.15,2.95,6.32,4.53,9.43c0.68,1.33,2.48,1.28,3.3,0.03c2.03-3.08,3.56-6.39,4.67-9.91c0.51-1.61,1.57-2.33,2.81-1.96
				c1.34,0.41,1.93,1.65,1.3,3.25c-1.11,2.82-2.35,5.59-3.53,8.38c-0.13,0.32-0.28,0.63-0.49,1.06c2.44-0.13,4.36-1,6.01-2.52
				c2.92-2.68,4.65-6.05,5.65-9.82c0.73-2.72,1.18-5.49,1-8.57c-0.8,0.6-1.45,1.04-2.04,1.53c-3.85,3.22-9.14,3.2-12.94-0.07
				c-2.86-2.46-5.44-2.45-8.35,0.04C71.11,9.42,65.77,9.45,62,6.29C61.4,5.79,60.76,5.34,60.13,4.86z M24.61,42.63
				c-2.17,0.34-4.39,0.51-6.5,1.06c-1.49,0.39-2.95,1.14-4.26,1.98c-1.3,0.83-1.25,1.88-0.01,2.82c0.75,0.57,1.62,1.02,2.49,1.39
				c2.61,1.1,5.4,1.43,8.19,1.42c3.22,0,6.44-0.33,9.33-1.89c0.96-0.52,2.18-1.42,2.35-2.32c0.24-1.3-1.27-1.91-2.34-2.42
				C30.96,43.27,27.84,42.83,24.61,42.63z M15.46,113.26c3.59,0,6.51-0.38,9.27-1.57c1.28-0.55,2.98-1.09,2.96-2.69
				c-0.02-1.52-1.62-2.2-2.92-2.57c-2.38-0.67-4.82-1.31-7.28-1.55c-3.55-0.36-7.07,0.14-10.38,1.62c-1.17,0.52-2.66,1.08-2.69,2.51
				c-0.03,1.46,1.47,1.99,2.64,2.53C9.92,112.86,12.96,113.25,15.46,113.26z M37.29,21.52c1.85-0.23,3.77-0.24,5.55-0.73
				c1.89-0.52,3.74-1.34,5.44-2.32c1.23-0.71,1.15-1.71,0.03-2.64c-0.6-0.5-1.3-0.91-2.01-1.24c-2.61-1.22-5.42-1.6-8.26-1.66
				c-3.35-0.07-6.66,0.3-9.73,1.78c-1.09,0.52-2.53,1-2.48,2.5c0.04,1.39,1.39,1.88,2.46,2.39C31.12,20.95,34.16,21.37,37.29,21.52z
				 M43.89,83.28c-1.82,0.22-3.69,0.24-5.43,0.73c-1.89,0.53-3.74,1.35-5.45,2.32c-1.25,0.71-1.19,1.7-0.06,2.63
				c0.7,0.57,1.49,1.17,2.34,1.39c2.32,0.61,4.67,1.24,7.05,1.47c3.64,0.35,7.24-0.16,10.61-1.7c1.12-0.51,2.55-1.07,2.53-2.49
				c-0.02-1.4-1.45-1.93-2.57-2.46C50.06,83.84,47.01,83.46,43.89,83.28z M4.32,115.07c0,1.14,0.11,2.14-0.02,3.12
				c-0.26,1.95,0.7,3.07,2.32,3.82c0.6,0.28,1.21,0.56,1.84,0.77c3.75,1.27,7.61,1.56,11.46,0.87c2.13-0.38,4.21-1.22,6.23-2.05
				c0.67-0.28,1.45-1.11,1.56-1.79c0.23-1.51,0.07-3.09,0.07-4.72C19.92,118.52,12.22,118.51,4.32,115.07z M101.54,13.83
				c-1.03,4.29-3.05,8.1-6.02,11.43c3.49,1.39,8.86-0.79,10.24-4.06C106.99,18.32,104.76,14.35,101.54,13.83z"/>
		</g>
		<g>
			<path class="st0" d="M99.47,107.08c-1.13-0.02-2.1-0.24-2.68-1.31c-0.44-0.81-0.45-1.75,0.23-2.29c0.65-0.52,1.59-0.9,2.43-0.95
				c2.93-0.17,5.74-0.73,8.39-2.01c4.86-2.34,6.82-6.52,7.37-11.6c0.05-0.45-0.02-0.92,0.05-1.37c0.2-1.31,1.22-2.18,2.39-2.09
				c1.17,0.09,2.07,1.09,2.05,2.4c-0.08,3.99-1.15,7.7-3.35,11.03c-2.73,4.12-6.84,6.18-11.48,7.3
				C103.09,106.61,101.26,106.79,99.47,107.08z"/>
		</g>
	</g>
	<text transform="matrix(1 0 0 1 68.2235 91.0669)" class="st0 st1 st2 st3">`</text>
</g>
</svg>
