<?xml version="1.0" encoding="utf-8"?>
<!-- Generator: Adobe Illustrator 25.2.1, SVG Export Plug-In . SVG Version: 6.00 Build 0)  -->
<svg version="1.1" id="Layer_1" xmlns="http://www.w3.org/2000/svg" xmlns:xlink="http://www.w3.org/1999/xlink" x="0px" y="0px"
	 viewBox="0 0 126.73 126.8" style="enable-background:new 0 0 126.73 126.8;" xml:space="preserve">
<style type="text/css">
	.st0{fill:#EECE38;}
</style>
<g>
	<g>
		<path class="st0" d="M112.61,0c0.55,0.65,1.24,1.22,1.62,1.96c2.61,5.1,5.15,10.23,7.7,15.35c0.18,0.37,0.37,0.74,0.48,1.14
			c0.29,1.06-0.08,1.91-1.02,2.4c-0.92,0.49-1.85,0.36-2.58-0.45c-0.3-0.33-0.51-0.75-0.71-1.15c-1.72-3.42-3.43-6.85-5.15-10.28
			c-0.18-0.36-0.37-0.72-0.68-1.31c-1.01,2.85-1.97,5.48-2.87,8.13c-7.06,20.7-18.89,38.18-35.61,52.26
			c-14.76,12.43-31.61,20.75-50.5,24.77c-4.5,0.96-9.09,1.49-13.64,2.2C9.33,95.09,9,95.04,8.53,95.04
			c-0.12-1.35-0.24-2.68-0.36-4.09C41.97,87.24,69.28,72.1,89.65,44.8c8.56-11.47,14.13-24.41,18.33-38.26
			c-0.56,0.26-0.92,0.42-1.27,0.59c-3.43,1.71-6.85,3.42-10.28,5.12c-1.48,0.73-2.74,0.42-3.31-0.76c-0.58-1.18-0.06-2.31,1.42-3.08
			c0.18-0.1,0.37-0.18,0.55-0.27c5.08-2.54,10.16-5.09,15.23-7.64c0.28-0.14,0.53-0.34,0.8-0.51C111.62,0,112.11,0,112.61,0z"/>
	</g>
	<g>
		<path class="st0" d="M126.73,126.8c-42.21,0-84.43,0-126.73,0c0-1.4,0-2.73,0-4.15c0.35-0.02,0.71-0.07,1.07-0.07
			c41.72,0,83.44,0,125.17,0c0.16,0,0.33,0.01,0.49,0.01C126.73,123.99,126.73,125.39,126.73,126.8z"/>
	</g>
	<g>
		<path class="st0" d="M120.45,79.37c0,11.89,0,23.77,0,35.66c0,2.71-0.63,3.34-3.35,3.34c-4.25,0-8.5,0-12.76,0
			c-2.3,0-3.03-0.72-3.03-3.03c-0.01-11.43,0-22.87,0-34.3c0-12.51,0-25.01,0-37.52c0-2.81,0.59-3.4,3.41-3.4c4.21,0,8.42,0,12.63,0
			c2.38,0,3.1,0.71,3.1,3.09C120.45,55.27,120.45,67.32,120.45,79.37z M116.03,114.05c0-23.22,0-46.38,0-69.57
			c-3.48,0-6.88,0-10.28,0c0,23.24,0,46.4,0,69.57C109.22,114.05,112.59,114.05,116.03,114.05z"/>
	</g>
	<g>
		<path class="st0" d="M78.09,94.11c0-7.09,0-14.19,0-21.28c0-2.48,0.67-3.15,3.16-3.15c4.29-0.01,8.58-0.01,12.87,0
			c2.33,0,3.09,0.78,3.09,3.13c0,14.15,0,28.29,0,42.44c0,2.39-0.72,3.12-3.07,3.12c-4.33,0-8.66,0-12.99,0
			c-2.4,0-3.05-0.65-3.05-3.1C78.08,108.22,78.09,101.16,78.09,94.11z M82.45,74.06c0,13.39,0,26.65,0,39.98c3.47,0,6.86,0,10.3,0
			c0-13.36,0-26.65,0-39.98C89.29,74.06,85.92,74.06,82.45,74.06z"/>
	</g>
	<g>
		<path class="st0" d="M54.87,101.4c0-4.7-0.01-9.4,0-14.1c0-2.07,0.76-2.82,2.83-2.83c4.45-0.01,8.91-0.01,13.36,0
			c2.05,0,2.88,0.81,2.88,2.83c0.01,9.44,0.01,18.88,0,28.32c0,1.92-0.81,2.73-2.69,2.73c-4.58,0.01-9.15,0.01-13.73,0
			c-1.86,0-2.63-0.76-2.64-2.61C54.86,110.97,54.87,106.19,54.87,101.4z M59.18,88.89c0,8.42,0,16.76,0,25.15c3.48,0,6.88,0,10.33,0
			c0-8.42,0-16.76,0-25.15C66.03,88.89,62.63,88.89,59.18,88.89z"/>
	</g>
	<g>
		<path class="st0" d="M31.62,106.69c0-3.01-0.01-6.02,0-9.03c0.01-1.8,0.76-2.56,2.55-2.56c4.66-0.01,9.32-0.01,13.98,0
			c1.69,0,2.52,0.8,2.52,2.49c0.02,6.06,0.02,12.12,0,18.18c0,1.77-0.82,2.58-2.58,2.58c-4.66,0.01-9.32,0.01-13.98,0
			c-1.69-0.01-2.48-0.82-2.49-2.52C31.61,112.79,31.62,109.74,31.62,106.69z M35.91,99.36c0,4.95,0,9.79,0,14.65
			c3.51,0,6.93,0,10.37,0c0-4.94,0-9.78,0-14.65C42.8,99.36,39.42,99.36,35.91,99.36z"/>
	</g>
	<g>
		<path class="st0" d="M17.82,118.37c-2.31,0-4.62,0.01-6.92,0c-1.76-0.01-2.55-0.82-2.56-2.59c-0.01-3.91-0.01-7.83,0-11.74
			c0.01-1.76,0.77-2.61,2.54-2.63c4.66-0.04,9.31-0.04,13.97,0c1.79,0.02,2.54,0.85,2.55,2.61c0.01,3.91,0.01,7.83,0,11.74
			c0,1.84-0.79,2.6-2.65,2.61C22.44,118.38,20.13,118.37,17.82,118.37z M23.1,105.79c-3.5,0-6.94,0-10.39,0c0,2.8,0,5.53,0,8.24
			c3.52,0,6.92,0,10.39,0C23.1,111.25,23.1,108.56,23.1,105.79z"/>
	</g>
	<g>
		<path class="st0" d="M67.52,21.13c0,1.44,0,2.78,0,4.2c-9.15,0-47.81,0-57,0c0-1.41,0-2.78,0-4.2
			C19.67,21.13,58.31,21.13,67.52,21.13z"/>
	</g>
	<g>
		<path class="st0" d="M67.52,12.71c0,1.46,0,2.77,0,4.15c-9.17,0-47.85,0-57.01,0c0-1.41,0-2.75,0-4.15
			C19.68,12.71,58.35,12.71,67.52,12.71z"/>
	</g>
	<g>
		<path class="st0" d="M59.14,33.81c-6.45,0-42.29,0-48.63,0c0-1.4,0-2.75,0-4.2c0.37-0.03,0.72-0.09,1.07-0.09
			c5.57-0.01,40.72,0.01,46.29-0.02c0.93-0.01,1.37,0.19,1.28,1.22C59.07,31.7,59.14,32.69,59.14,33.81z"/>
	</g>
	<g>
		<path class="st0" d="M10.54,37.98c4.33,0,38.11,0,42.31,0c1.69,0,3.39,0.06,5.07-0.02c1.02-0.05,1.3,0.33,1.23,1.28
			c-0.07,0.97-0.02,1.96-0.02,3.01c-6.4,0-42.24,0-48.6,0C10.54,40.88,10.54,39.52,10.54,37.98z"/>
	</g>
</g>
</svg>
