<?xml version="1.0" encoding="utf-8"?>
<!-- Generator: Adobe Illustrator 25.2.1, SVG Export Plug-In . SVG Version: 6.00 Build 0)  -->
<svg version="1.1" id="Layer_1" xmlns="http://www.w3.org/2000/svg" xmlns:xlink="http://www.w3.org/1999/xlink" x="0px" y="0px"
	 viewBox="0 0 125.72 117.86" style="enable-background:new 0 0 125.72 117.86;" xml:space="preserve">
<style type="text/css">
	.st0{fill:#E51675;}
</style>
<g>
	<path class="st0" d="M0,54.28c0.07-0.04,0.16-0.06,0.2-0.12c0.57-0.88,1.39-1.15,2.34-0.8c0.93,0.34,1.15,1.13,1.15,2.08
		c-0.02,6.26-0.01,12.52-0.01,18.78c0,4.13,0,8.27,0,12.4c0,0.44,0,0.89,0,1.4c15.51,0,30.92,0,46.47,0
		c0.02-0.42,0.07-0.85,0.07-1.28c0.01-3.64,0-7.28,0.01-10.93c0.01-2.85,1.19-4.03,4.01-4.04c3.44-0.01,6.87,0,10.31,0
		c0.44,0,0.88,0,1.41,0c0.02-0.52,0.06-0.92,0.06-1.32c0-8.51-0.01-17.02,0.01-25.53c0-0.85-0.15-1.41-1.05-1.8
		c-9.08-3.98-18.14-8.02-27.2-12.04c-0.29-0.13-0.6-0.22-1.03-0.38c0,3.25,0.02,6.39-0.01,9.53c-0.01,1.89-0.93,3.18-2.57,3.34
		c-0.76,0.08-1.61-0.2-2.33-0.52c-8.85-3.89-17.69-7.82-26.53-11.74c-0.48-0.21-0.96-0.41-1.63-0.69c0,0.56,0,0.98,0,1.41
		c0,4.58-0.01,9.17,0.01,13.75c0,1.04-0.08,1.97-1.22,2.41C1.31,48.65,0.63,47.96,0,47.16c0-6.14,0-12.28,0-18.42
		c1.54-2.36,2.63-2.68,5.21-1.54c8.8,3.89,17.61,7.79,26.41,11.68c0.36,0.16,0.74,0.3,1.32,0.54c0-0.66,0-1.17,0-1.67
		c0-2.58-0.03-5.16,0.01-7.73c0.04-2.72,2.22-4.12,4.72-3.04c2.81,1.21,5.59,2.45,8.61,3.78c0-0.57,0-1,0-1.43
		c0-6.96,0-13.91,0-20.87c0-3.27,1.17-4.44,4.42-4.45c2.78,0,5.56-0.01,8.35,0c2.93,0.01,4.2,1.27,4.2,4.19
		c0.01,9.62,0.02,19.23-0.02,28.85c0,0.9,0.2,1.44,1.1,1.74c0.85,0.28,1.65,0.69,2.47,1.06c1.96,0.87,2.92,2.34,2.92,4.52
		c-0.03,8.63-0.01,17.27-0.01,25.9c0,0.44,0,0.89,0,1.51c0.56,0,1.03,0,1.5,0c6.38,0,12.76,0,19.15,0c2.99,0,4.14,1.16,4.14,4.16
		c0,0.93,0,1.86,0,2.9c2.2,0,4.28,0,6.35,0c2.82,0,5.65,0.02,8.47-0.01c1.3-0.01,2.41,0.38,3.33,1.29
		c3.94,3.93,7.92,7.82,11.76,11.85c0.71,0.75,1.19,2.02,1.22,3.06c0.13,4.54,0.06,9.08,0.05,13.62c-0.01,2.21-1.38,3.56-3.61,3.57
		c-1.51,0.01-3.03,0.03-4.54-0.01c-0.67-0.02-0.98,0.16-1.25,0.83c-1.18,2.98-3.87,4.8-6.91,4.81c-3.03,0.01-5.76-1.84-6.95-4.77
		c-0.22-0.54-0.39-0.88-1.08-0.88c-8.8,0.03-17.59,0.02-26.39,0.03c-0.08,0-0.16,0.03-0.29,0.06c-0.93,2.7-2.66,4.64-5.55,5.32
		c-3.56,0.84-7.13-0.94-8.5-4.33c-0.37-0.91-0.82-1.12-1.71-1.08c-1.67,0.07-3.35,0.02-5.03,0.02c-2.45-0.01-3.64-1.18-3.65-3.72
		c-0.03-4.42-0.01-8.84-0.01-13.26c0-1.1,0-2.19,0-3.41c-0.61,0-1.09,0-1.57,0c-14.77,0-29.54-0.02-44.31,0.03
		C2.32,91.87,0.87,91.23,0,89.39C0,77.69,0,65.98,0,54.28z M54.03,95.72c12.3,0,24.47,0,36.7,0c0-6.71,0-13.35,0-20.03
		c-12.27,0-24.46,0-36.7,0C54.03,82.39,54.03,89.01,54.03,95.72z M121.95,96.42c-0.55,0-1.03,0-1.51,0c-5.85,0-11.69,0.01-17.54,0
		c-2.94,0-4.19-1.26-4.2-4.16c0-2.58,0-5.15,0-7.73c0-0.63,0-1.27,0-1.91c-1.49,0-2.78,0-4.12,0c0,8.66,0,17.26,0,25.93
		c2.36,0,4.65,0.02,6.93-0.03c0.29-0.01,0.71-0.35,0.83-0.64c1.32-3.16,3.68-4.93,7.08-4.9c3.34,0.02,5.67,1.79,6.96,4.9
		c0.11,0.28,0.46,0.64,0.7,0.65c1.62,0.06,3.24,0.03,4.87,0.03C121.95,104.44,121.95,100.49,121.95,96.42z M90.74,99.58
		c-12.28,0-24.47,0-36.68,0c0,3.01,0,5.93,0,8.97c1.77,0,3.48-0.04,5.19,0.02c0.74,0.02,1.03-0.25,1.31-0.92
		c1.27-3,3.61-4.58,6.84-4.7c3.02-0.1,5.78,1.8,6.94,4.73c0.28,0.69,0.6,0.9,1.32,0.89c4.7-0.03,9.4-0.01,14.1-0.02
		c0.31,0,0.63-0.04,0.99-0.07C90.74,105.5,90.74,102.61,90.74,99.58z M59.39,36.56c0-5.83,0-11.46,0-17.11c-3.13,0-6.2,0-9.33,0
		c0,4.18-0.01,8.27,0.02,12.35c0,0.29,0.24,0.73,0.49,0.84C53.45,33.95,56.35,35.22,59.39,36.56z M102.54,92.52
		c5.75,0,11.39,0,17.25,0c-3.28-3.27-6.39-6.39-9.52-9.49c-0.22-0.22-0.55-0.44-0.84-0.44c-2.27-0.04-4.55-0.02-6.89-0.02
		C102.54,85.94,102.54,89.19,102.54,92.52z M59.39,7.91c-3.16,0-6.2,0-9.26,0c0,2.56,0,5.03,0,7.56c3.11,0,6.15,0,9.26,0
		C59.39,12.93,59.39,10.46,59.39,7.91z M109.42,114.09c2.02-0.04,3.64-1.7,3.63-3.72c-0.01-2.08-1.71-3.72-3.8-3.65
		c-2.03,0.06-3.63,1.75-3.57,3.76C105.73,112.49,107.43,114.13,109.42,114.09z M67.45,106.71c-2.03-0.01-3.65,1.58-3.68,3.61
		c-0.03,2.09,1.59,3.77,3.65,3.77c1.97,0,3.67-1.65,3.73-3.63C71.22,108.46,69.5,106.72,67.45,106.71z"/>
	<path class="st0" d="M98.68,26.92c-2.72,2.4-4.08,5.14-4.13,8.39c-0.1,5.97-0.08,11.95-0.01,17.92
		c0.06,5.54,4.47,10.29,10.03,10.93c3.69,0.42,7.29,0.25,10.41-2.11c2.86-2.16,4.48-5.03,4.63-8.66c0.04-1.02-0.01-2.05,0.07-3.07
		c0.09-1.12,0.94-1.94,1.9-1.86c1.08,0.09,1.75,0.74,1.84,1.81c0.99,11.17-7.12,17.71-15.25,17.78c-4.12,0.04-7.99-0.52-11.32-3.11
		c-3.79-2.95-5.9-6.81-6.02-11.66c-0.05-1.92-0.01-3.84-0.01-5.82c-3.06-0.55-5.77-1.7-8.05-3.75c-3.23-2.91-5.04-6.55-5.13-10.87
		c-0.12-6.05-0.12-12.11-0.02-18.16C77.76,6.87,84.5,0.26,92.3,0.02c4.31-0.13,8.41,0.36,11.93,3.13c3.86,3.04,5.93,6.99,6,11.93
		c0.02,1.8,0,3.6,0,5.5c0.61,0.14,1.19,0.27,1.76,0.42c6.71,1.78,11.24,7.57,11.44,14.65c0.05,1.88,0.03,3.76,0.01,5.65
		c-0.01,1.4-0.74,2.27-1.85,2.31c-1.15,0.04-1.92-0.86-1.95-2.33c-0.04-2.25,0.03-4.5-0.08-6.75c-0.23-4.75-4.72-9.58-9.33-9.95
		c0,1.25-0.04,2.5,0.03,3.74c0.01,0.25,0.4,0.56,0.68,0.7c3.11,1.53,4.61,4.05,4.63,7.47c0.02,5.11,0.01,10.23,0,15.34
		c-0.01,5.15-3.21,8.22-8.35,8.37c-4.96,0.15-7.81-3.07-8.39-6.03c-0.15-0.79-0.16-1.62-0.16-2.44c-0.01-7.73-0.01-15.46-0.01-23.2
		C98.68,28.09,98.68,27.66,98.68,26.92z M102.37,41.14c2.85-2.51,4.12-5.46,4.15-8.91c0.05-5.64,0.04-11.29-0.01-16.93
		c-0.03-3.2-1.18-5.98-3.47-8.25c-3.02-2.98-6.78-3.54-10.78-3.21c-6.22,0.51-10.56,4.66-10.81,10.88c-0.25,6.2-0.07,12.43,0,18.64
		c0.03,2.37,1.02,4.45,2.51,6.25c1.74,2.1,3.93,3.49,6.83,3.97c0-1.19-0.04-2.24,0.01-3.29c0.03-0.66-0.18-0.99-0.8-1.29
		c-3.01-1.45-4.53-3.91-4.55-7.24c-0.03-5.32-0.02-10.63,0.01-15.95c0-0.81,0.12-1.64,0.34-2.41c1.15-3.96,5.09-6.13,9.77-5.44
		c4.04,0.6,6.77,3.69,6.78,7.73C102.38,24.06,102.37,32.44,102.37,41.14z M90.75,35.05c0.5-5.41,2.89-9.54,7.42-12.4
		c0.29-0.18,0.48-0.73,0.49-1.11c0.05-1.8,0.03-3.6,0.02-5.4c-0.02-2.96-1.56-4.46-4.59-4.47c-3.32-0.01-4.82,1.35-4.85,4.43
		c-0.02,3.11-0.01,6.21,0,9.32c0,2.25-0.01,4.5,0.03,6.75C89.29,33.29,89.69,34.28,90.75,35.05z M110.73,33.03
		c-0.15,0.05-0.3,0.1-0.45,0.15c-0.51,5.25-2.9,9.36-7.37,12.22c-0.27,0.17-0.5,0.64-0.51,0.97c-0.05,2.08-0.06,4.17-0.01,6.25
		c0.05,1.91,1.37,3.43,3.29,3.69c0.99,0.14,2.04,0.12,3.04-0.04c1.76-0.28,3.02-1.72,3.03-3.49c0.04-5.68,0.06-11.36-0.03-17.03
		C111.69,34.84,111.07,33.94,110.73,33.03z"/>
	<path class="st0" d="M18.25,67.13c-1.51,0-3.02,0.02-4.53,0c-2.13-0.04-3.28-1.12-3.32-3.22c-0.05-2.49-0.05-4.98,0-7.47
		c0.04-2.05,1.15-3.19,3.21-3.23c3.14-0.06,6.29-0.06,9.43,0c2.19,0.04,3.22,1.19,3.23,3.42c0.01,2.41,0.01,4.82,0,7.23
		c-0.01,2.13-1.09,3.23-3.23,3.28C21.44,67.15,19.85,67.13,18.25,67.13z M22.49,63.33c0-2.16,0-4.22,0-6.3c-2.78,0-5.49,0-8.22,0
		c0,2.14,0,4.19,0,6.3C17.02,63.33,19.7,63.33,22.49,63.33z"/>
	<path class="st0" d="M51.34,67.12c-1.6,0-3.19,0.04-4.79-0.01c-2.02-0.06-3.08-1.16-3.09-3.16c-0.01-2.54-0.01-5.07,0-7.61
		c0.01-1.88,1-3.07,2.88-3.12c3.35-0.09,6.71-0.08,10.06,0c1.76,0.04,2.81,1.12,2.86,2.9c0.08,2.7,0.09,5.4,0,8.1
		c-0.06,1.81-1.18,2.83-3,2.88C54.61,67.16,52.97,67.12,51.34,67.12z M55.47,57.04c-2.84,0-5.55,0-8.25,0c0,2.15,0,4.21,0,6.25
		c2.8,0,5.51,0,8.25,0C55.47,61.18,55.47,59.15,55.47,57.04z"/>
</g>
</svg>
