<?xml version="1.0" encoding="utf-8"?>
<!-- Generator: Adobe Illustrator 25.2.1, SVG Export Plug-In . SVG Version: 6.00 Build 0)  -->
<svg version="1.1" id="Layer_1" xmlns="http://www.w3.org/2000/svg" xmlns:xlink="http://www.w3.org/1999/xlink" x="0px" y="0px"
	 viewBox="0 0 85.23 72.73" style="enable-background:new 0 0 85.23 72.73;" xml:space="preserve">
<style type="text/css">
	.st0{fill:#E51675;stroke:#E51675;stroke-miterlimit:10;}
	.st1{fill:#E51675;}
	.st2{font-family:'RupeeForadian';}
	.st3{font-size:32.0434px;}
</style>
<g>
	<path class="st0" d="M0.5,35.53c0.37-0.63,0.92-0.84,1.65-0.83c3.62,0.03,7.24,0.01,10.86,0.01c1.55,0,1.89,0.33,1.91,1.86
		c0,0.24,0.03,0.47,0.05,0.85c0.61-0.52,1.11-0.96,1.64-1.38c2.22-1.75,4.47-3.45,6.65-5.24c3.24-2.65,4.53-6.16,4.32-10.26
		c-0.09-1.71,0.32-3.21,1.63-4.37c2.65-2.32,6.74-1.21,7.8,2.15c1.81,5.73,2.34,11.51,0.58,17.37c-0.02,0.08-0.03,0.16-0.05,0.29
		c1.67,0,3.32,0,5.07,0c0-0.34,0-0.66,0-0.98c0-7.32,0-14.64,0-21.96c0-2.78,1.4-4.88,3.96-5.96c0.71-0.3,9.23-3.74,9.94-4
		c0.72-0.27,1.35-0.01,1.64,0.64c0.28,0.64,0.04,1.31-0.65,1.64C56.76,5.7,48.17,9.1,47.42,9.44c-1.48,0.68-2.32,1.85-2.32,3.48
		c-0.02,7.57-0.01,15.14-0.01,22.7c0,0.1,0.02,0.21,0.05,0.41c1.79,0,3.56-0.01,5.34,0c2.73,0.01,4.89,1.72,5.37,4.38
		c0.43,2.38-0.55,4.21-2.55,5.59c0.94,1.31,1.48,2.72,1.19,4.37c-0.29,1.62-1.15,2.81-2.57,3.76c1.06,1.33,1.51,2.85,1.19,4.52
		c-0.31,1.65-1.26,2.89-2.74,3.73c1.55,2.25,1.6,4.49-0.03,6.89c0.37,0,0.65,0,0.92,0c6.28,0,20.09,0,26.37,0c0.19,0,0.38,0,0.58,0
		c0.94,0.02,1.52,0.49,1.54,1.24c0.02,0.75-0.56,1.26-1.5,1.26c-2.44,0.01-12.42,0.01-14.86,0.01c-4.58,0-9.16,0.03-13.74-0.02
		c-1.07-0.01-2.14-0.34-3.21-0.51c-0.38-0.06-0.76-0.12-1.14-0.12c-6.72-0.01-13.43-0.03-20.15,0.01c-1.82,0.01-3.44-0.42-4.91-1.53
		c-1.53-1.16-3.33-1.57-5.33-1.7c0,0.91,0.01,1.75,0,2.59c-0.01,1.31-0.43,1.71-1.73,1.72c-3.67,0-7.35-0.01-11.02,0.01
		c-0.73,0.01-1.27-0.22-1.66-0.83C0.5,59.45,0.5,47.49,0.5,35.53z M14.91,65.28c0.26,0.07,0.42,0.13,0.58,0.14
		c2.54,0.23,4.83,1.07,6.9,2.58c0.5,0.36,1.22,0.58,1.84,0.58c7.35,0.04,14.69,0.03,22.04,0.02c1.56,0,2.76-1.24,2.77-2.77
		c0.01-1.58-1.18-2.8-2.78-2.84c-0.52-0.01-1.04,0-1.56,0c-1.15,0-1.75-0.44-1.74-1.27c0-0.83,0.58-1.23,1.77-1.24
		c1.1-0.01,2.2,0.04,3.29-0.03c1.59-0.11,2.67-1.27,2.68-2.77c0.01-1.51-1.04-2.68-2.62-2.83c-0.76-0.07-1.53-0.02-2.3-0.04
		c-0.89-0.02-1.45-0.49-1.47-1.21c-0.02-0.75,0.58-1.28,1.49-1.28c1.18-0.01,2.36,0.02,3.54-0.01c1.56-0.04,2.72-1.26,2.71-2.82
		c0-1.56-1.16-2.76-2.73-2.79c-1.04-0.02-2.08-0.01-3.12-0.01c-1.22,0-1.86-0.42-1.88-1.24c-0.03-0.84,0.64-1.28,1.91-1.29
		c1.59-0.01,3.18,0.05,4.77-0.06c1.71-0.12,2.8-1.77,2.38-3.43c-0.35-1.39-1.43-2.17-3.08-2.17c-4.74-0.01-9.48,0-14.23-0.01
		c-1.29,0-1.83-0.72-1.39-1.91c0.84-2.28,1.35-4.61,1.48-7.04c0.19-3.63-0.41-7.14-1.54-10.58c-0.36-1.1-1.46-1.67-2.54-1.47
		c-1.18,0.22-1.92,1.09-1.94,2.29c-0.01,0.6,0.02,1.21,0,1.81c-0.06,2.82-0.72,5.47-2.31,7.84c-1.47,2.2-3.53,3.8-5.57,5.43
		c-2.33,1.86-4.6,3.8-6.86,5.74c-0.26,0.23-0.41,0.7-0.43,1.07c-0.05,1.18,0.03,2.36-0.04,3.53c-0.03,0.45-0.21,0.99-0.52,1.29
		c-0.24,0.23-0.82,0.27-1.19,0.17c-0.63-0.17-0.81-0.75-0.81-1.37c0-2.41,0-4.83,0-7.24c0-0.29-0.03-0.58-0.04-0.86
		c-3.16,0-6.22,0-9.32,0c0,10.83,0,21.61,0,32.43c3.13,0,6.21,0,9.36,0c0-0.49,0-0.92,0-1.36c0-5.68,0-19.64,0-25.32
		c0-0.98,0.53-1.59,1.29-1.58c0.74,0.02,1.21,0.6,1.25,1.54c0.01,0.19,0,0.38,0,0.58c0,3.07,0,14.43,0,17.5
		C14.91,62.43,14.91,63.83,14.91,65.28z"/>
	<path class="st0" d="M84.72,39.2c0,8.72,0,17.43,0,26.15c0,3.55-2.48,6.2-6.02,6.4c-0.79,0.05-1.59,0.03-2.38,0.01
		c-0.75-0.02-1.16-0.47-1.24-1.18c-0.07-0.65,0.49-1.25,1.21-1.3c0.6-0.04,1.21-0.01,1.81-0.02c2.58-0.01,4.16-1.57,4.16-4.14
		c0-7.37,0-14.75,0-22.12c0-9.84,0-19.68,0-29.52c0-2.29-0.75-3.4-2.86-4.28c-4.54-1.89-9.09-3.76-13.62-5.69
		c-1.46-0.62-2.82-0.62-4.27,0.03c-2.02,0.91-4.08,1.71-6.13,2.55c-0.98,0.4-1.67,0.18-1.98-0.6c-0.27-0.69,0.1-1.32,1-1.7
		c2.19-0.92,4.39-1.82,6.59-2.74c1.78-0.74,3.56-0.76,5.34-0.01c4.77,1.99,9.53,3.97,14.29,5.97c2.73,1.15,4.11,3.19,4.11,6.2
		C84.71,21.88,84.72,30.54,84.72,39.2z"/>
	<path class="st0" d="M58.73,13.38c-0.01-2.62,2.05-4.7,4.66-4.73c2.6-0.03,4.71,2.06,4.73,4.66c0.02,2.66-2.06,4.78-4.7,4.78
		C60.82,18.08,58.73,15.99,58.73,13.38z M63.39,11.17c-1.2,0.01-2.2,1.02-2.19,2.2c0.01,1.18,1.03,2.2,2.21,2.21
		c1.21,0.01,2.26-1.06,2.23-2.27C65.61,12.11,64.61,11.16,63.39,11.17z"/>
</g>
<text transform="matrix(1 0 0 1 60.0967 55.4194)" class="st1 st2 st3">`</text>
</svg>
