<?xml version="1.0" encoding="utf-8"?>
<!-- Generator: Adobe Illustrator 25.2.1, SVG Export Plug-In . SVG Version: 6.00 Build 0)  -->
<svg version="1.1" id="Layer_1" xmlns="http://www.w3.org/2000/svg" xmlns:xlink="http://www.w3.org/1999/xlink" x="0px" y="0px"
	 viewBox="0 0 101.24 101.27" style="enable-background:new 0 0 101.24 101.27;" xml:space="preserve">
<style type="text/css">
	.st0{fill:#E51675;}
	.st1{fill:none;stroke:#E51675;stroke-width:3;stroke-miterlimit:10;}
</style>
<g>
	<g>
		<g>
			<g>
				<path class="st0" d="M18.57,79.23c0-3.34-0.01-6.67,0-10.01c0.01-2.88,2.2-5.08,5.04-5.09c2.85,0,5.07,2.18,5.07,5.05
					c0.01,6.74,0.01,13.48,0,20.22c0,2.89-2.2,5.08-5.04,5.09c-2.85,0-5.06-2.19-5.07-5.05C18.56,86.04,18.57,82.63,18.57,79.23z
					 M25.32,79.42c0-3.34,0.01-6.67-0.01-10.01c-0.01-1.13-0.75-1.91-1.7-1.89c-0.91,0.02-1.65,0.77-1.65,1.83
					c-0.02,6.64-0.03,13.28,0.03,19.91c0,0.53,0.41,1.24,0.85,1.56c1.13,0.81,2.47-0.13,2.48-1.71
					C25.34,85.89,25.32,82.65,25.32,79.42z"/>
			</g>
			<g>
				<path class="st0" d="M42.18,79.37c0,3.34,0.01,6.67,0,10.01c-0.01,2.94-2.21,5.13-5.11,5.12c-2.82-0.01-5-2.23-5-5.13
					c-0.01-6.71-0.01-13.41,0-20.12c0-2.94,2.21-5.13,5.11-5.12c2.83,0.01,4.99,2.22,5,5.13C42.19,72.63,42.18,76,42.18,79.37z
					 M38.81,79.31c0-3.3,0.01-6.6-0.01-9.9c-0.01-1.13-0.76-1.91-1.71-1.89c-0.92,0.02-1.65,0.77-1.65,1.84
					c-0.02,6.64-0.03,13.28,0.03,19.91c0,0.53,0.41,1.24,0.85,1.56c1.13,0.81,2.47-0.14,2.48-1.72
					C38.83,85.85,38.81,82.58,38.81,79.31z"/>
			</g>
			<g>
				<path class="st0" d="M55.68,79.34c0,3.34,0.01,6.67,0,10.01c-0.01,2.96-2.19,5.16-5.09,5.15c-2.83-0.01-5.01-2.22-5.03-5.11
					c-0.01-2.14-0.01-4.29,0-6.43c0-1.25,0.62-1.96,1.69-1.96c1.06,0,1.68,0.71,1.68,1.96c0.01,2,0,4,0.01,6.01
					c0.01,1.31,0.67,2.13,1.68,2.13c1.01,0,1.69-0.82,1.69-2.12c0.01-6.46,0.01-12.93,0-19.39c0-1.28-0.72-2.12-1.73-2.08
					c-0.98,0.04-1.63,0.83-1.63,2.07c-0.01,2.04,0,11.81-0.01,13.84c-0.01,1.24-0.65,1.94-1.72,1.92c-1.02-0.02-1.64-0.72-1.64-1.9
					c-0.01-2.25-0.02-12.23,0-14.48c0.03-2.7,2.31-4.85,5.07-4.85c2.76,0,5.02,2.16,5.04,4.87C55.7,72.45,55.68,75.89,55.68,79.34z"
					/>
			</g>
			<g>
				<path class="st0" d="M24.96,101.24c-6.48,0.36-10.87-3.78-12.14-8.01c-0.63-2.1-0.87-4.32-1.19-6.5
					c-0.83-5.65-1.61-11.3-2.42-16.96c-0.49-3.43-0.98-6.87-1.46-10.3c-0.15-1.11,0.44-1.96,1.41-2.08c1-0.12,1.81,0.5,1.97,1.6
					c0.38,2.56,0.72,5.13,1.09,7.7c0.81,5.69,1.62,11.38,2.44,17.06c0.35,2.46,0.61,4.94,1.11,7.37c0.82,3.99,4.1,6.62,8.17,6.73
					c0.91,0.03,10.61,0,11.52,0.01c1.27,0.01,1.97,0.6,1.99,1.66c0.02,1.1-0.7,1.7-2.04,1.71
					C34.87,101.25,25.53,101.24,24.96,101.24z"/>
			</g>
			<g>
				<path class="st0" d="M28.69,60.76c-3.26,0-15.68,0-18.94,0c-1.33,0-2.04-0.63-2.01-1.73c0.03-1.05,0.73-1.63,2.01-1.63
					c6.53,0,73.84,0,80.37,0c1.33,0,2.04,0.62,2.02,1.73c-0.03,1.05-0.73,1.63-2.01,1.64C86.86,60.76,31.96,60.76,28.69,60.76z"/>
			</g>
			<g>
				<path class="st0" d="M68.32,60.76c-1.89,0-3.79,0.01-5.68,0c-1.17-0.01-1.87-0.63-1.89-1.64c-0.02-1.07,0.68-1.72,1.92-1.72
					c3.79-0.01,7.58-0.01,11.36,0c1.18,0,1.87,0.63,1.89,1.64c0.02,1.07-0.68,1.72-1.92,1.72C72.1,60.77,70.21,60.76,68.32,60.76z"
					/>
			</g>
			<g>
				<path class="st0" d="M91.84,81.21c-0.24-0.23-0.72-0.67-1.16-1.14c-0.74-0.81-1.37-1.73-2.19-2.45
					c-0.86-0.76-1.17-1.6-0.63-2.46c0.5-0.79,1.47-1.02,2.4-0.5c1.75,0.98,2.98,2.42,3.62,4.32C94.27,80.12,93.45,81.22,91.84,81.21
					z"/>
			</g>
		</g>
		<g>
			<path class="st0" d="M99.28,14.66l-2.94-0.61c0.65-3.1,0.26-5.5-1.14-7.13c-2.64-3.06-8.13-2.76-8.18-2.76l-0.19-2.99
				c0.28-0.02,7.01-0.4,10.63,3.78C99.51,7.32,100.13,10.59,99.28,14.66z"/>
		</g>
	</g>
	<path class="st0" d="M95.9,54.01c3.08-0.01,5.31-2.12,5.31-5.03c0.01-2.94-2.21-5.08-5.26-5.08c-1.97,0-3.94,0-5.9,0
		c-1.39,0-2.79,0-4.36,0c0.5-1.15,0.94-2.15,1.39-3.17c0.25,0.15,0.37,0.22,0.49,0.29c4.51,2.64,9.86-0.18,10.3-5.39
		c0.03-0.36,0.37-0.78,0.69-1.03c3.08-2.39,3.6-6.75,1.07-9.71c-0.46-0.54-0.49-0.9-0.22-1.55c1.64-3.98,0.99-7.62-1.78-10.88
		c-0.81-0.95-1.79-1.04-2.58-0.34c-0.78,0.69-0.75,1.65,0.1,2.7c3.05,3.77,1.94,8.65-2.46,10.68c-0.87,0.4-1.3,0.97-1.36,1.92
		c-0.14,2-1.2,3.43-3.01,4.22c-1.79,0.78-3.51,0.51-5.05-0.68c-2.71-2.08-2.51-6.09,0.38-8.19c1.04-0.75,1.3-1.76,0.69-2.6
		c-0.61-0.84-1.55-0.94-2.61-0.24c-1.73,1.15-2.93,2.72-3.46,4.74c-0.25,0.97-0.35,1.98-0.51,2.97c-3.04,0.54-5.53-1.55-5.8-4.87
		c-0.1-1.22-0.7-1.86-1.7-1.85c-1.04,0.02-1.69,0.77-1.67,1.99c0.01,0.62,0.1,1.25,0.17,1.97c-0.38,0.08-0.78,0.22-1.19,0.25
		c-2.57,0.16-4.75-1.53-5.28-4.03c-0.51-2.43,0.91-4.84,3.41-5.69c0.96-0.33,1.48-0.87,1.65-1.93c0.38-2.37,2.43-4.42,4.81-4.92
		c-0.4,2.02-0.05,3.92,0.75,5.76c0.69,1.61,1.6,2.12,2.68,1.59c1.03-0.5,1.12-1.36,0.45-2.98C74.97,10.41,75.21,8,76.95,5.9
		c1.76-2.13,4.11-2.93,6.8-2.24c2.58,0.66,4.27,2.36,4.86,5c0.17,0.74,0.12,1.53,0.19,2.3c0.09,0.93,0.76,1.55,1.67,1.56
		c0.92,0.01,1.63-0.57,1.68-1.52c0.05-0.91,0.09-1.85-0.1-2.72c-0.91-4.19-3.45-6.99-7.62-7.96c-4.26-0.99-7.8,0.43-10.52,3.87
		c-0.25,0.32-0.69,0.61-1.08,0.66c-4.18,0.56-6.99,2.81-8.55,6.71c-0.17,0.43-0.56,0.87-0.97,1.09c-3.76,2.02-5.51,6.39-3.98,10.33
		c0.37,0.96,0.3,1.62-0.49,2.33c-0.43-0.9-0.85-1.78-1.27-2.66c-1.32-2.75-3.4-4.6-6.4-5.33c-0.63-0.15-0.82-0.46-0.86-1.07
		c-0.15-2.7-0.33-5.4-0.53-8.09c-0.07-0.91-0.61-1.47-1.41-1.58l0,0c-0.01,0-0.01,0-0.02,0c-0.09-0.01-0.19-0.02-0.29-0.02
		c-0.14,0-0.27,0.02-0.39,0.05c-5.53,0.27-8.87,2.77-10.04,3.76c-0.1,0.06-0.19,0.13-0.28,0.22c-0.06,0.06-0.12,0.12-0.19,0.18
		c0,0-0.01,0-0.01,0.01l0,0c-1.64,1.56-3.28,3.13-4.87,4.74c-0.74,0.74-0.61,1.83,0.19,2.5c0.35,0.29,0.75,0.52,1.13,0.77
		c2.16,1.43,4.32,2.86,6.31,4.18c-0.22,1.52-0.41,2.86-0.57,4.03c-2.24,1.02-4.46,2.02-6.82,3.08c-0.79-0.6-1.58-2.14-3.16-0.99
		c-0.93,0.68-0.79,1.62-0.21,2.59c-3,0.92-4.97,2.87-6.02,5.72c-1.31-0.44-2.5-0.85-3.7-1.24c-3.51-1.25-10.17-3.59-11.45-3.95
		c-2.98-0.85-6.02,1.31-6.29,4.39c-0.23,2.63,1.11,4.53,3.9,5.51c1.52,0.54,3.04,1.06,4.56,1.59c-0.44,0.18-0.82,0.18-1.21,0.18
		c-1.65,0.03-3.33-0.14-4.94,0.13c-2.63,0.45-4.26,2.93-3.95,5.63c0.28,2.48,2.48,4.36,5.13,4.36c11.24,0,22.49,0,33.73,0.02
		c0.65,0,1.33,0.11,1.94,0.32c2.99,0.99,5.95,2.07,8.95,3.05c2.72,0.89,5.48-0.46,6.42-3.07c0.04-0.11,0.05-0.22,0.08-0.33
		c9.28,0.02,24.32,0.01,33.29,0.01c0.38,0,0.76,0,1.23,0c-0.33,2.4-0.65,4.68-0.99,6.97c-0.03,0.19-0.26,0.39-0.44,0.5
		c-0.62,0.39-1.27,0.73-2.05,1.18c0-0.31,0.01-0.51,0-0.71c-0.11-3.04-2.77-5.07-5.74-4.36c-2.63,0.62-3.94,2.83-3.49,5.83
		c0.2,1.34,0.35,2.68,0.5,3.87c-1.72,0.28-3.38,0.39-4.93,0.87c-1.54,0.47-2.97,1.32-4.5,2.02c0-0.35,0.01-0.76,0-1.17
		c-0.05-2.71-2.3-4.86-5.06-4.86c-2.76,0-5.04,2.16-5.04,4.87c-0.02,6.85-0.02,13.71,0,20.56c0,2.18,1.44,4.07,3.54,4.72
		c1.82,0.56,3.45,0.09,4.86-1c1.07,1.54,2.1,3.02,3.19,4.59c-0.49,0-0.87,0-1.25,0c-11.53,0-23.05,0-34.57,0c-0.25,0-0.49,0-0.74,0
		c-1.33,0.01-2.05,0.62-2.02,1.73c0.02,1.05,0.73,1.64,2.01,1.64c14.69,0,29.37,0.02,44.06-0.03c1.2,0,2.4-0.43,3.61-0.6
		c0.59-0.08,1.25-0.16,1.81,0.01c4.99,1.52,8.5,0.38,11.85-3.89c0.45-0.14,0.85-0.46,1.04-0.97c1.44-3.83,5.41-14.25,4.31-18.33
		c-0.96-3.54-3.11-6.23-6.18-8.1c0.34-0.39,0.66-0.76,0.99-1.12c1.46-1.59,2.27-3.44,2.28-5.61c0.01-1.19-0.61-1.81-1.8-1.84
		c-0.87-0.02-1.74,0-2.71,0c0.33-2.32,0.64-4.49,0.97-6.75C94.86,54.01,95.38,54.01,95.9,54.01z M88.79,36.73
		c0.49-1.13,0.99-2.13,2.21-2.76c1.57-0.81,2.74-2.23,3.15-3.92c0.39-1.61,1.45-2.35,2.74-3.1c1.6,1.97,1.04,4.32-1.21,5.34
		c-1.32,0.6-1.56,1.05-1.32,2.46c0.22,1.34-0.35,2.63-1.49,3.34c-1.21,0.76-2.62,0.69-3.76-0.13
		C88.64,37.62,88.54,37.29,88.79,36.73z M65.24,87.72c0.12,0.4,0.27,0.79,0.41,1.19c0.29,0.89-0.08,1.68-0.93,2.04
		c-0.82,0.34-1.74-0.01-2.08-0.86c-0.15-0.38-0.19-0.82-0.2-1.23c-0.02-3.2-0.01-6.39-0.01-9.59c0-3.09,0-6.18,0-9.27
		c0-0.28-0.02-0.56,0.01-0.84c0.11-0.93,0.8-1.62,1.63-1.64c0.82-0.02,1.71,0.66,1.68,1.56c-0.08,2.34,0.38,4.68-0.68,7.02
		C63.33,79.92,64.13,83.86,65.24,87.72z M79.32,31.69c0.08,0.19,0.14,0.48,0.06,0.66c-0.33,0.78-0.72,1.55-1.23,2.6
		c-0.29-1.42-0.51-2.5-0.75-3.65C78.13,31.1,78.87,30.65,79.32,31.69z M71.07,28.73c0.48,0.54,1.09,1.04,1.75,1.32
		c0.8,0.34,1.05,0.91,1.19,1.66c0.57,2.88,1.15,5.76,1.73,8.64c0.17,0.84,0.53,1.53,1.49,1.67c0.99,0.13,1.57-0.37,1.97-1.22
		c0.97-2.09,1.97-4.18,2.96-6.28c1.15,0.35,2.26,0.69,3.43,1.05c-1.16,2.62-2.31,5.25-3.49,7.86c-0.1,0.22-0.45,0.45-0.68,0.45
		c-3.29,0.03-6.59,0.02-9.82,0.02c0.3-4.35-1.32-8.34-1.92-12.49c-0.14-1-0.38-1.98-0.56-2.92C69.93,27.89,70.48,28.06,71.07,28.73z
		 M68.27,41.96c0.09,0.59-0.3,1.25-0.7,1.93c-1.39-2.95-2.79-5.9-4.23-8.95c1.18,0,2.27,0,3.56,0
		C67.36,37.23,67.89,39.58,68.27,41.96z M63.72,43.83c-0.95,0-1.81,0-2.93,0c0.86-0.51,1.53-0.91,2.32-1.38
		C63.35,43,63.51,43.38,63.72,43.83z M62.02,27.04c1.09,0.44,2.13,0.83,3.13,1.29c0.26,0.12,0.5,0.46,0.58,0.75
		c0.2,0.73,0.3,1.49,0.44,2.27c-1.39,0.56-2.56,0.21-3.56-0.78C61.66,29.63,61.46,28.28,62.02,27.04z M52.08,21.47
		c-0.56,0.33-1.12,0.63-1.64,0.98c-0.86,0.58-1.1,1.47-0.65,2.28c0.47,0.84,1.41,1.1,2.37,0.64c0.38-0.18,0.73-0.42,1.1-0.62
		c0.36-0.2,0.73-0.39,1.06-0.57c0.11,0.07,0.19,0.1,0.22,0.15c0.66,1.39,1.32,2.78,2.03,4.28c-0.61,0.36-1.21,0.69-1.79,1.06
		c-0.98,0.61-1.26,1.55-0.75,2.41c0.52,0.87,1.45,1.08,2.48,0.54c0.49-0.26,0.97-0.53,1.54-0.85c1.2,2.54,2.36,5,3.58,7.57
		c-0.67,0.39-1.33,0.78-1.98,1.16c-1.65,0.96-1.83,1.75-0.64,3.4c-1.75,0-3.42,0.02-5.08-0.02c-0.22,0-0.48-0.24-0.63-0.44
		c-0.5-0.67-0.96-1.38-1.53-2.21c1.36-0.79,2.63-1.52,3.9-2.26c1.1-0.65,1.45-1.63,0.93-2.53c-0.52-0.9-1.52-1.06-2.67-0.41
		c-1.34,0.76-2.68,1.54-4.14,2.38c-0.93-1.34-1.86-2.68-2.85-4.11c1.05-0.62,2.05-1.19,3.03-1.78c1.12-0.67,1.47-1.63,0.94-2.53
		c-0.55-0.93-1.48-1.09-2.66-0.43c-1.07,0.6-2.13,1.22-3.19,1.84c-2.65-2.6-2.97-6.2-0.8-8.81C46.17,20.27,49.63,19.76,52.08,21.47z
		 M46.53,10.87c0.11,2.12,0.23,4.25,0.35,6.34c-0.59,0.17-1.01,0.29-1.49,0.43c-0.1-0.27-0.2-0.49-0.27-0.72
		c-0.54-1.87-1.08-3.73-1.62-5.6c0.93-0.35,1.94-0.71,2.99-1.05C46.51,10.48,46.52,10.67,46.53,10.87z M36.35,16.51
		c0.71-0.75,1.36-1.46,2.02-2.16c2.79,2.5,4.69,4.43,3.41,5.75C39.96,18.9,38.13,17.68,36.35,16.51z M34.4,36.86
		c0.88,0.42,1.8,0.4,2.45-0.62c0.55-0.87,0.34-1.3-1.78-3.66c1.8-0.76,3.46-1.45,5.05-2.12c3.15,4.55,6.16,8.89,9.3,13.43
		c-0.66,0-1.16-0.04-1.66,0.01c-4.06,0.39-7.92-0.38-11.66-1.96c-1.31-0.55-2.68-0.96-3.95-1.41C32.92,39.28,33.65,38.1,34.4,36.86z
		 M31.14,34.96c-0.46,2.86-2.58,4.48-4.67,3.56C27.15,36.26,28.91,34.92,31.14,34.96z M29.62,50.64c-8.1,0-16.2,0.01-24.3-0.01
		c-1.14,0-1.91-0.73-1.91-1.68c0-0.95,0.77-1.68,1.91-1.68c4.91-0.02,9.82-0.01,14.73,0c0.21,0,0.43,0.01,0.62,0.07
		c3,1.03,5.99,2.08,8.99,3.12C29.64,50.52,29.63,50.58,29.62,50.64z M52.94,53.16c-0.34,1.03-1.3,1.27-2.85,0.74
		c-8.34-2.89-16.67-5.79-25.01-8.67c-6.19-2.14-12.38-4.26-18.57-6.41c-1.14-0.4-1.64-1.23-1.33-2.14c0.34-1,1.23-1.39,2.38-1.01
		c1.36,0.45,11.34,4.01,12.71,4.44c0.13,0.04,0.26,0.07,0.39,0.08c10.18,3.54,20.37,7.07,30.55,10.6
		C52.79,51.33,53.31,52.05,52.94,53.16z M82.72,60.77c0.75,0.03,1.31,0.69,1.2,1.55c-0.33,2.74-0.7,5.48-1.07,8.21
		c-0.01,0.05-0.08,0.1-0.32,0.36c-0.25-1.88-0.48-3.56-0.7-5.24c-0.15-1.11-0.3-2.22-0.41-3.33C81.33,61.43,81.93,60.74,82.72,60.77
		z M97.69,82.17c-0.25,1.72-3.07,8.39-4.08,11.32c-0.01,0.01-0.02,0.01-0.02,0.02c-0.46,0.53-0.85,1.12-1.32,1.64
		c-2.48,2.82-4.69,3.38-8.17,1.98c-1.03-0.41-1.88-0.41-2.91,0.01c-3.49,1.42-5.96,0.78-8.32-2.14c-3.15-3.9-4.94-8.39-5.35-13.37
		c-0.48-5.76,4.46-10.88,10.22-10.75c0.77,0.02,1.33,0.11,1.6,1.09c0.4,1.44,1.83,2.28,3.32,2.28c1.49,0,2.91-0.85,3.31-2.3
		c0.27-0.98,0.86-1.05,1.62-1.07C93.61,70.76,98.56,76.24,97.69,82.17z M94.02,64.18c-0.76,2.35-2.99,3.57-5.81,3.25
		C88.73,65.25,90.96,63.98,94.02,64.18z M56.11,50.64c-0.53-1.23-1.55-2.25-2.97-2.81c-0.34-0.13-0.68-0.27-1.02-0.41
		c0.01-0.05,0.02-0.11,0.03-0.16c0.37,0,0.75,0,1.12,0c13.28,0,26.56,0,39.85,0c0.95,0,1.9-0.02,2.85,0.01
		c1.12,0.04,1.9,0.78,1.87,1.73c-0.03,0.91-0.78,1.58-1.86,1.64c-0.28,0.02-0.56,0-0.84,0C84.25,50.64,67.08,50.64,56.11,50.64z"/>
	<line class="st1" x1="7.51" y1="52.52" x2="10.44" y2="67.48"/>
</g>
</svg>
