<?xml version="1.0" encoding="utf-8"?>
<!-- Generator: Adobe Illustrator 25.2.1, SVG Export Plug-In . SVG Version: 6.00 Build 0)  -->
<svg version="1.1" id="Layer_1" xmlns="http://www.w3.org/2000/svg" xmlns:xlink="http://www.w3.org/1999/xlink" x="0px" y="0px"
	 viewBox="0 0 71.07 99.94" style="enable-background:new 0 0 71.07 99.94;" xml:space="preserve">
<style type="text/css">
	.st0{fill:#E51675;}
</style>
<g>
	<path class="st0" d="M32.82,0c0.38,0.46,0.92,0.86,1.11,1.39c0.45,1.24-0.41,2.4-1.8,2.51c-5.62,0.45-10.82,2.12-15.4,5.44
		c-7.53,5.45-11.8,12.8-12.63,22.09c-0.63,7.1,1.21,13.56,4.99,19.22c1.68-0.11,3.19-0.41,4.66-0.26c3.51,0.34,6.2,3.57,6.24,7.22
		c0.04,3.59-2.56,6.79-6,7.37c-3.03,0.51-5.55-0.43-7.38-2.89c-1.83-2.46-1.99-5.16-0.59-7.88c0.28-0.55,0.15-0.86-0.15-1.29
		c-4.39-6.46-6.33-13.63-5.78-21.4C1.14,16.52,11.71,4.22,26.38,0.79c1.35-0.32,2.73-0.53,4.09-0.79C31.26,0,32.04,0,32.82,0z
		 M12.68,54.22c-2.01-0.04-3.57,1.45-3.6,3.41c-0.03,1.91,1.5,3.47,3.43,3.5c1.96,0.02,3.51-1.45,3.54-3.37
		C16.08,55.82,14.6,54.26,12.68,54.22z"/>
	<path class="st0" d="M47.92,64.84c0.36,0.32,0.67,0.59,0.98,0.86c3.76-3.51,9.63-2.54,11.7,2.5c1.4-0.17,2.77-0.54,4.12-0.47
		c3.52,0.2,6.32,3.19,6.33,6.71c0.04,7.77,0.02,15.55,0.01,23.32c0,1.32-0.81,2.17-1.99,2.16c-1.19-0.01-1.93-0.81-1.93-2.19
		c-0.01-7.42,0-14.83-0.01-22.25c0-0.45-0.01-0.91-0.09-1.36c-0.29-1.57-1.53-2.55-3.11-2.51c-1.48,0.04-2.77,1.12-2.86,2.66
		c-0.13,2.14-0.05,4.29-0.09,6.43c-0.01,0.48-0.04,0.99-0.2,1.43c-0.31,0.81-1.26,1.27-2.07,1.11c-1.02-0.2-1.66-0.96-1.66-2.1
		c-0.02-3.15-0.01-6.31-0.01-9.46c0-0.39,0.01-0.78-0.01-1.17c-0.07-1.63-1.44-2.95-3.06-2.93c-1.62,0.01-3,1.33-3.01,2.97
		c-0.03,3.38,0.02,6.77-0.04,10.15c-0.01,0.6-0.24,1.28-0.57,1.79c-0.42,0.64-1.24,0.9-1.9,0.55c-0.57-0.3-1.02-0.91-1.37-1.47
		c-0.2-0.32-0.1-0.82-0.1-1.24c-0.01-3.19,0-6.37-0.01-9.56c0-1.33-0.59-2.32-1.81-2.88c-1.14-0.53-2.23-0.34-3.19,0.44
		c-0.84,0.68-1.13,1.63-1.13,2.69c0,3.02,0.01,6.05,0,9.07c0,1.52-0.73,2.35-1.99,2.32c-1.22-0.02-1.92-0.86-1.92-2.31
		c0-12.13,0-24.26,0-36.39c0-2.14-1.4-3.49-3.42-3.32c-1.38,0.11-2.55,1.28-2.66,2.66c-0.03,0.42-0.02,0.85-0.02,1.27
		c0,14.31,0,28.62,0,42.93c0,0.33,0.02,0.65-0.02,0.97c-0.1,0.97-0.6,1.66-1.56,1.89c-0.93,0.22-1.66-0.18-2.15-0.97
		c-0.96-1.55-1.9-3.1-2.84-4.66c-1.01-1.66-2.02-3.33-3.05-4.99c-1.09-1.76-2.96-2.32-4.59-1.39c-1.58,0.89-2.09,2.77-1.21,4.58
		c2.25,4.57,4.51,9.14,6.77,13.7c0.1,0.2,0.21,0.4,0.3,0.61c0.5,1.16,0.17,2.25-0.85,2.75c-1.03,0.51-2.1,0.14-2.68-1.01
		c-1.31-2.57-2.58-5.17-3.86-7.75c-1.15-2.33-2.34-4.63-3.43-6.99c-1.46-3.16-0.46-6.87,2.3-8.87c2.82-2.04,6.66-1.92,9.13,0.5
		c1.05,1.02,1.75,2.4,2.59,3.63c0.33,0.48,0.61,0.98,1.05,1.68c0.04-0.47,0.09-0.74,0.09-1c0-8.85,0-17.69,0.02-26.54
		c0-0.65-0.2-0.96-0.8-1.23c-6.78-3.11-10.81-8.37-11.89-15.75c-1.51-10.32,5.95-20.32,16.23-22.17
		c10.66-1.92,21.4,5.14,23.27,16.48c1.47,8.92-3.44,17.82-11.76,21.42c-0.79,0.34-1.1,0.72-1.08,1.62c0.07,3.05,0.03,6.11,0.03,9.33
		c9.72-2.59,16.81-8.22,20.66-17.46c4.19-10.05,3.01-19.71-2.88-28.89c-1.77,0.73-3.46,0.97-5.23,0.48
		c-3.53-0.98-5.93-4.39-5.51-7.86c0.47-3.86,3.55-6.71,7.34-6.77c5.45-0.09,9.18,5.75,6.78,10.67c-0.33,0.68-0.32,1.1,0.1,1.73
		c4.27,6.4,6.29,13.44,5.64,21.13c-1.09,12.97-7.57,22.37-19.11,28.33C48.41,64.55,48.2,64.68,47.92,64.84z M40.84,48.16
		c4.9-1.94,10.13-8.49,8.94-16.69c-1.14-7.81-7.97-13.63-15.88-13.59c-8.19,0.04-14.87,5.95-15.85,14.27
		c-0.92,7.8,4.03,13.96,8.77,15.87c0-0.72-0.01-1.38,0-2.05c0.02-1.84-0.15-3.71,0.62-5.48c0.08-0.19-0.13-0.59-0.3-0.8
		c-1.71-2.07-2.41-4.45-2.07-7.09c0.48-3.64,3.2-6.58,6.79-7.45c3.58-0.87,7.29,0.54,9.43,3.57c2.1,2.98,2.25,6.93,0.13,9.96
		c-0.82,1.18-1.28,2.15-0.67,3.54c0.24,0.55,0.09,1.28,0.1,1.93C40.84,45.48,40.84,46.8,40.84,48.16z M30.33,37.23
		c2.3-0.96,4-1.37,6.82-0.08c0.18,0.08,0.61-0.09,0.76-0.28c0.88-1.09,1.13-2.37,0.98-3.75c-0.22-2.02-1.93-3.8-4.04-4.21
		c-2.09-0.4-4.32,0.68-5.33,2.59C28.48,33.47,28.8,35.72,30.33,37.23z M55.28,13.49c1.96,0.01,3.49-1.47,3.51-3.39
		c0.02-2-1.48-3.52-3.48-3.52c-1.96,0-3.46,1.5-3.47,3.44C51.83,11.96,53.34,13.48,55.28,13.49z"/>
	<path class="st0" d="M42.8,2.67c-0.01,1.09-0.94,2-1.99,1.96C39.78,4.6,38.9,3.7,38.88,2.68c-0.02-1.07,0.89-2,1.97-2
		C41.94,0.67,42.81,1.57,42.8,2.67z"/>
</g>
</svg>
