<?xml version="1.0" encoding="utf-8"?>
<!-- Generator: Adobe Illustrator 25.2.1, SVG Export Plug-In . SVG Version: 6.00 Build 0)  -->
<svg version="1.1" id="Layer_1" xmlns="http://www.w3.org/2000/svg" xmlns:xlink="http://www.w3.org/1999/xlink" x="0px" y="0px"
	 viewBox="0 0 91.51 88.07" style="enable-background:new 0 0 91.51 88.07;" xml:space="preserve">
<style type="text/css">
	.st0{fill:#E51675;stroke:#E51675;stroke-width:0.5;stroke-miterlimit:10;}
	.st1{font-family:'RupeeForadian';}
	.st2{font-size:25.5652px;}
	.st3{fill:#E51675;}
</style>
<g>
	<text transform="matrix(1 0 0 1 62.9888 42.2669)" class="st0 st1 st2">`</text>
	<g>
		<path class="st3" d="M51.48,19.97c-1.81-2.63-4.32-4.48-7.09-5.96c-2.75-1.47-5.73-2.26-8.87-2.48c0-3.85,0-7.59,0-11.53
			c1.97,0.29,3.9,0.46,5.78,0.86c5.68,1.22,10.83,3.59,15.16,7.53c1.39,1.26,2.69,2.63,3.95,4.02c0.44,0.48,0.79,0.56,1.35,0.35
			c2.68-1.01,5.46-1.4,8.32-1.31c3.16,0.1,6.18,0.81,9.03,2.19c4.46,2.16,7.82,5.41,10.1,9.87c2.95,5.75,2.97,11.57,0.56,17.39
			c-1.01,2.45-2.5,4.75-4.48,6.6c-2.32,2.16-4.89,3.97-7.9,5.05c-0.5,0.18-0.68,0.42-0.66,0.95c0.04,1.09,0.01,2.17,0.01,3.37
			c1.59,0,3.12-0.02,4.64,0c2.35,0.03,5.07,2.67,4.01,5.57c-0.4,1.09-1.24,1.82-2.21,2.42c-0.25,0.15-0.52,0.26-0.82,0.42
			c0.45,1.58,0.25,3.05-0.8,4.31c1.39,2.37,1.39,3.63-0.01,5.72c1.22,1.66,1.48,3.43,0.3,5.23c-1.2,1.83-3.09,1.95-5.12,1.87
			c0,0.41,0,0.75,0,1.1c0,2.8-1.78,4.57-4.6,4.58c-1.92,0-3.84,0.01-5.76,0c-2.53-0.01-4.33-1.82-4.34-4.36c0-0.41,0-0.82,0-1.32
			c-2.75,0-5.43,0.01-8.1-0.01c-0.85-0.01-1.71-0.04-2.55-0.16c-1.84-0.28-3.45-1.14-4.93-2.24C45.17,79,43.9,78,42.6,77.04
			c-0.21-0.15-0.54-0.22-0.81-0.2c-6.91,0.47-13.83,0.96-20.74,1.43c-5.62,0.38-11.24,0.74-16.86,1.11
			c-1.32,0.09-2.65,0.2-4.05,0.31c0-8.6,0-17.18,0-25.79c2.78,0.18,5.54,0.36,8.59,0.57C3.37,48.63,0.73,41.87,0,34.21
			c4.03,0,7.97,0,11.89,0c0.3,1.48,0.54,2.96,0.92,4.41c1.04,3.98,3.33,7.23,6.36,9.88c3.59,3.14,7.84,4.93,12.63,5.37
			c0.2,0.02,0.4,0.09,0.66,0.15c0,0.69,0,1.36,0,2.08c1.79,0.14,3.52,0.28,5.24,0.4c1.15,0.08,2.31,0.05,3.44,0.23
			c1.02,0.16,1.73-0.29,2.47-0.84c1.5-1.13,2.98-2.31,4.55-3.34c1.48-0.97,3.17-1.38,4.96-1.37c1.62,0.01,3.25,0,5.15,0
			c-5.58-3.36-9.05-7.95-10.56-14.12C46.18,30.71,48.2,25.28,51.48,19.97z M3.14,56.98c0,6.59,0,13.07,0,19.6
			c7.86-0.54,15.65-1.08,23.6-1.63c-4.19-5.52-4.16-10.9-0.01-16.35C18.78,58.06,11,57.53,3.14,56.98z M67.85,54.07
			c-0.14-0.02-0.23-0.05-0.31-0.05c-4.75,0-9.5-0.02-14.25,0.01c-1.5,0.01-2.93,0.38-4.15,1.29c-1.44,1.07-2.88,2.15-4.27,3.28
			c-0.28,0.23-0.5,0.72-0.51,1.1c-0.03,4.73-0.04,9.46,0,14.19c0,0.39,0.26,0.9,0.57,1.16c1.1,0.92,2.32,1.72,3.42,2.64
			c1.54,1.3,3.3,1.88,5.29,1.88c2.51,0,5.02,0,7.53,0c0.28,0,0.56,0,0.84,0c0-6.68,0-13.23,0-19.87c-1.18,0-2.33-0.01-3.47,0.01
			c-0.2,0.01-0.43,0.16-0.6,0.3c-0.63,0.53-1.23,1.08-1.86,1.61c-2.59,2.22-5.64,2.54-8.87,2.27c0-0.94,0-1.81,0-2.7
			c0.12-0.03,0.2-0.08,0.28-0.07c3.68,0.37,6.62-0.96,8.92-3.83c0.21-0.26,0.7-0.41,1.07-0.42c2.39-0.04,4.78,0,7.17-0.02
			C66.57,56.83,67.61,55.93,67.85,54.07z M69.39,14.31c-0.32,0-0.65-0.03-0.97,0.01c-0.79,0.08-1.58,0.15-2.37,0.29
			c-6.62,1.15-11.5,4.81-14.27,10.85c-2.51,5.47-2.25,11.03,0.96,16.3c1.23,2.03,2.68,3.83,4.6,5.29c4.66,3.54,9.85,4.77,15.56,3.78
			c5.27-0.91,9.47-3.69,12.49-8.04c4.4-6.34,3.97-15.63-0.93-21.24c-1.44-1.65-2.94-3.17-4.84-4.33
			C76.46,15.28,73.04,14.4,69.39,14.31z M41.29,59.71c-0.11-0.04-0.19-0.1-0.28-0.1c-3.32-0.23-6.64-0.46-9.96-0.67
			c-0.18-0.01-0.43,0.06-0.56,0.19c-0.77,0.76-1.66,1.44-2.25,2.33c-2.82,4.25-1.9,9.69,2.11,12.88c0.24,0.19,0.64,0.29,0.96,0.28
			c2.35-0.12,4.7-0.29,7.06-0.44c0.96-0.06,1.93-0.14,2.91-0.22C41.29,69.14,41.29,64.42,41.29,59.71z M64.88,59.73
			c0,0.86,0,1.65,0,2.44c0,7.06,0,14.12,0,21.17c0,1.23,0.45,1.83,1.52,1.86c1.95,0.05,3.89,0.04,5.84,0.01
			c0.91-0.02,1.44-0.6,1.49-1.53c0.02-0.4,0-0.81,0-1.32c-2.02,0.15-3.9,0-5.1-1.82c-1.18-1.79-0.97-3.56,0.27-5.23
			c-1.39-2.23-1.39-3.2-0.01-5.76c-0.08-0.11-0.17-0.23-0.25-0.35c-1.73-2.61-0.43-5.88,2.63-6.54c0.79-0.17,1.61-0.15,2.41-0.21
			c0-2.96,0-5.86,0-8.81c-1.01,0.13-1.96,0.25-2.89,0.37C70.4,57.55,68.48,59.41,64.88,59.73z M44.93,11.08
			c3.45,1.56,6.21,3.9,8.64,6.56c1.53-1.13,3.04-2.24,4.62-3.4c-3.08-3.54-6.64-6.5-11.08-8.42C46.37,7.61,45.68,9.27,44.93,11.08z
			 M15.02,48.72c-1.16-1.71-2.39-3.51-3.67-5.4c-1.65,0.67-3.39,1.36-5.22,2.1c1.37,2.71,2.8,5.24,5.22,7.36
			C12.61,51.38,13.85,50.01,15.02,48.72z M4.79,42.86c1.96-0.81,3.69-1.52,5.4-2.22c-0.34-1.29-0.64-2.45-0.95-3.61
			c-1.94,0-3.85,0-5.93,0C3.8,38.97,4.27,40.83,4.79,42.86z M38.49,3.17c0,1.92-0.01,3.68,0.01,5.44c0,0.15,0.18,0.38,0.32,0.42
			c1.09,0.31,2.19,0.58,3.3,0.86c0.8-1.73,1.56-3.38,2.42-5.24C42.46,4.13,40.54,3.67,38.49,3.17z M13.17,54.78
			c4.32,0.3,8.4,0.58,12.49,0.86c-3.05-1.13-5.73-2.84-8.3-4.8C16.02,52.1,14.68,53.36,13.17,54.78z M75.23,65.36
			c-0.24,0-0.47,0-0.71,0c-0.71,0-1.42-0.03-2.12,0.01c-0.89,0.05-1.91,1.05-1.62,1.6c0.36,0.67,0.85,1.25,1.76,1.23
			c1.8-0.03,3.6,0.01,5.4-0.01c0.96-0.01,1.62-0.6,1.63-1.4c0.01-0.8-0.65-1.4-1.6-1.43C77.06,65.35,76.14,65.36,75.23,65.36z
			 M75.23,73.88c0.86,0,1.71,0.01,2.57,0c1.09-0.01,1.78-0.58,1.77-1.44c-0.01-0.85-0.7-1.4-1.8-1.4c-1.68-0.01-3.36-0.02-5.05,0.01
			c-0.37,0.01-0.82,0.04-1.09,0.24c-0.46,0.35-1.13,0.78-0.79,1.47c0.34,0.68,0.93,1.18,1.83,1.13
			C73.51,73.84,74.37,73.88,75.23,73.88z M75.17,79.55c0.89,0,1.77,0.01,2.66,0c1.04-0.01,1.71-0.56,1.74-1.38
			c0.03-0.85-0.67-1.45-1.75-1.45c-1.68-0.01-3.36-0.01-5.05,0c-1.05,0-2.04,0.71-2.03,1.43c0.01,0.72,1,1.41,2.05,1.41
			C73.58,79.56,74.38,79.55,75.17,79.55z M76.76,62.52c1.54,0,3,0.04,4.47-0.02c0.76-0.03,1.27-0.53,1.33-1.3
			c0.06-0.77-0.4-1.39-1.14-1.44c-1.54-0.1-3.09-0.03-4.65-0.03C76.76,60.68,76.76,61.53,76.76,62.52z"/>
		<path class="st3" d="M32.41,11.41c-11.58,1.69-18.66,8.04-20.57,19.86c-3.84,0-7.75,0-11.8,0c0.25-2.01,0.24-4.02,0.98-5.94
			c0.41-1.06,0.56-2.24,1.01-3.28c0.89-2.08,1.7-4.23,2.89-6.14c2.41-3.88,5.53-7.18,9.32-9.75c5.35-3.64,11.3-5.61,17.75-6.04
			c0.12-0.01,0.23,0,0.41,0C32.41,3.9,32.41,7.66,32.41,11.41z M22.96,10.92c-0.69-1.67-1.39-3.34-2.1-5.06
			c-2.88,1.15-5.27,2.9-7.68,4.82c1.46,1.37,2.82,2.65,4.1,3.86C19.17,13.34,21.01,12.16,22.96,10.92z M11.35,12.63
			c-2.45,2.17-3.88,4.71-5.23,7.4c1.86,0.75,3.59,1.44,5.22,2.1c1.31-1.91,2.54-3.72,3.62-5.31C13.81,15.49,12.59,14.07,11.35,12.63
			z M29.61,3.15c-2.1,0.52-4.08,1.01-6.13,1.52c0.86,1.85,1.63,3.52,2.4,5.18c1.27-0.32,2.51-0.63,3.73-0.94
			C29.61,7.02,29.61,5.19,29.61,3.15z M3.31,28.43c2.08,0,4.01,0,5.94,0c0.31-1.21,0.62-2.37,0.94-3.62
			c-1.76-0.71-3.51-1.42-5.41-2.19C4.26,24.66,3.79,26.5,3.31,28.43z"/>
		<path class="st3" d="M34.03,22.84c2.98,0,5.8,0,8.69,0c0,6.59,0,13.14,0,19.79c1.02,0,1.97,0,2.98,0c0,0.99,0,1.89,0,2.83
			c-8.81,0-17.6,0-26.44,0c0-0.89,0-1.79,0-2.78c0.95,0,1.91,0,2.93,0c0-4.75,0-9.41,0-14.13c2.96,0,5.87,0,8.86,0
			c0,4.68,0,9.36,0,14.08c1.03,0,1.96,0,2.99,0C34.03,36.05,34.03,29.48,34.03,22.84z M39.85,42.62c0-5.7,0-11.32,0-16.92
			c-1.02,0-1.97,0-2.95,0c0,2.88,0,5.68,0,8.49c0,2.8,0,5.59,0,8.43C37.92,42.62,38.85,42.62,39.85,42.62z M27.98,42.62
			c0-3.8,0-7.53,0-11.24c-0.96,0-1.85,0-2.73,0c0,3.78,0,7.49,0,11.24C26.17,42.62,27.05,42.62,27.98,42.62z"/>
		<path class="st3" d="M69.12,17.09c4.05,0.1,7.42,1.22,10.44,3.54c2.43,1.87,3.91,4.3,5.07,7.06c1.16,2.76,1.29,5.57,0.57,8.37
			c-0.8,3.11-2.23,6.01-4.76,8.08c-5.63,4.62-11.86,5.63-18.52,2.43c-9.27-4.45-11.33-15.74-5.58-23.21
			c2.6-3.37,6.14-5.43,10.43-6.04C67.64,17.19,68.53,17.14,69.12,17.09z M82.59,32.75c0-7.13-6-12.79-13.28-12.78
			c-7.57,0.02-13.23,5.96-13.25,12.73c-0.02,6.75,5.61,12.73,13.19,12.78C76.52,45.53,82.56,39.9,82.59,32.75z"/>
		<path class="st3" d="M33.93,71.04c-2.45-0.01-4.31-1.86-4.3-4.3c0.01-2.44,1.91-4.19,4.47-4.22c2.46-0.03,4.38,2.24,4.34,4.31
			C38.41,68.88,36.56,71.18,33.93,71.04z M34.05,65.38c-0.84-0.01-1.54,0.6-1.57,1.36c-0.04,0.78,0.68,1.46,1.56,1.46
			c0.74,0,1.43-0.67,1.43-1.4C35.47,66.06,34.79,65.38,34.05,65.38z"/>
	</g>
</g>
</svg>
