<?xml version="1.0" encoding="utf-8"?>
<!-- Generator: Adobe Illustrator 25.2.1, SVG Export Plug-In . SVG Version: 6.00 Build 0)  -->
<svg version="1.1" id="Layer_1" xmlns="http://www.w3.org/2000/svg" xmlns:xlink="http://www.w3.org/1999/xlink" x="0px" y="0px"
	 viewBox="0 0 88.2 89.69" style="enable-background:new 0 0 88.2 89.69;" xml:space="preserve">
<style type="text/css">
	.st0{fill:#E51675;}
</style>
<g>
	<path class="st0" d="M48.32,55.12c0.45,0.03,0.96-0.01,1.44,0.1c1.45,0.34,2.57-0.06,3.49-1.25c0.37-0.47,0.6-0.87,0.56-1.48
		c-0.1-1.3-0.13-2.61-0.21-3.92c-0.05-0.87,0.34-1.4,1.13-1.72c1.47-0.59,2.93-1.2,4.39-1.82c0.86-0.37,1.55-0.19,2.16,0.51
		c0.84,0.96,1.67,1.93,2.57,2.83c0.31,0.31,0.81,0.48,1.25,0.57c1.5,0.33,2.6-0.25,3.46-1.51c0.49-0.71,1.16-1.3,1.73-1.95
		c0.56-0.63,1.21-0.82,2.01-0.49c1.52,0.63,3.04,1.26,4.56,1.89c0.75,0.31,1.11,0.85,1.06,1.67c-0.08,1.27-0.11,2.55-0.21,3.82
		c-0.05,0.67,0.18,1.12,0.61,1.65c0.93,1.15,2.01,1.48,3.43,1.21c0.91-0.17,1.86-0.09,2.79-0.14c0.75-0.04,1.27,0.3,1.55,0.96
		c0.67,1.57,1.31,3.15,1.96,4.73c0.31,0.76,0.09,1.39-0.51,1.92c-0.97,0.87-1.98,1.71-2.9,2.64c-0.31,0.31-0.48,0.81-0.58,1.25
		c-0.31,1.49,0.24,2.61,1.51,3.46c0.74,0.5,1.36,1.19,2.02,1.8c0.6,0.54,0.74,1.19,0.42,1.94c-0.63,1.52-1.26,3.04-1.89,4.56
		c-0.31,0.75-0.85,1.11-1.67,1.06c-1.27-0.08-2.55-0.11-3.82-0.21c-0.67-0.05-1.12,0.19-1.65,0.61c-1.16,0.93-1.47,2.01-1.21,3.43
		c0.17,0.88,0.07,1.8,0.13,2.7c0.06,0.87-0.35,1.4-1.13,1.72c-1.49,0.61-2.99,1.22-4.47,1.85c-0.79,0.33-1.45,0.15-2.01-0.48
		c-0.87-0.98-1.71-1.98-2.64-2.9c-0.31-0.31-0.81-0.47-1.25-0.57c-1.5-0.33-2.6,0.25-3.46,1.51c-0.51,0.74-1.19,1.35-1.8,2.02
		c-0.55,0.6-1.19,0.74-1.94,0.42c-1.52-0.63-3.04-1.27-4.56-1.89c-0.76-0.31-1.11-0.85-1.06-1.67c0.08-1.27,0.11-2.55,0.21-3.82
		c0.05-0.67-0.18-1.12-0.61-1.65c-0.91-1.1-1.94-1.48-3.34-1.22c-0.94,0.17-1.92,0.1-2.89,0.14c-0.75,0.04-1.26-0.3-1.55-0.97
		c-0.67-1.57-1.31-3.15-1.96-4.73c-0.31-0.76-0.09-1.39,0.51-1.92c0.98-0.87,1.98-1.71,2.9-2.64c0.31-0.31,0.48-0.81,0.57-1.25
		c0.32-1.49-0.24-2.61-1.51-3.46c-0.72-0.48-1.3-1.16-1.95-1.73c-0.67-0.59-0.81-1.27-0.46-2.09c0.56-1.31,1.1-2.63,1.65-3.95
		c0.62-1.51,0.75-1.59,2.35-1.56C47.78,55.12,48.03,55.12,48.32,55.12z M46.66,73.5c0.35,0.85,0.63,1.64,1,2.38
		c0.11,0.22,0.5,0.44,0.75,0.43c1.21-0.01,2.43-0.16,3.64-0.13c0.54,0.01,1.18,0.22,1.58,0.56c0.95,0.8,1.84,1.69,2.64,2.64
		c0.34,0.41,0.55,1.04,0.57,1.58c0.03,1.21-0.12,2.42-0.13,3.64c0,0.26,0.21,0.65,0.43,0.76c2.28,1.19,2.29,1.18,4.01-0.77
		c0.08-0.09,0.18-0.18,0.24-0.28c0.95-1.41,2.22-2.07,3.97-1.8c0.7,0.11,1.45-0.08,2.14,0.05c0.59,0.11,1.25,0.36,1.69,0.76
		c0.87,0.79,1.61,1.73,2.41,2.6c0.16,0.17,0.44,0.41,0.58,0.37c0.85-0.3,1.68-0.65,2.48-1.05c0.13-0.07,0.18-0.42,0.17-0.64
		c-0.04-1.24-0.17-2.49-0.15-3.73c0.01-0.48,0.21-1.06,0.52-1.42c0.86-0.98,1.79-1.9,2.77-2.77c0.34-0.3,0.88-0.49,1.34-0.5
		c1.09-0.03,2.19-0.01,3.26,0.15c0.87,0.12,1.25-0.11,1.56-0.94c0.7-1.92,0.75-1.9-0.77-3.25c-0.09-0.08-0.18-0.18-0.28-0.24
		c-1.67-1.09-2.14-2.59-2.14-4.59c0-2.04,0.57-3.45,2.16-4.69c1.96-1.54,1.9-1.64,0.79-3.9c-0.12-0.24-0.53-0.48-0.81-0.48
		c-1.24,0.01-2.49,0.16-3.73,0.14c-0.48-0.01-1-0.26-1.42-0.53c-0.41-0.26-0.68-0.74-1.08-1.03c-1.81-1.31-2.41-2.99-2.15-5.24
		c0.27-2.31,0.1-2.34-2.14-3.16c-0.26-0.09-0.73,0.01-0.92,0.2c-0.86,0.86-1.6,1.83-2.49,2.66c-0.41,0.38-1.05,0.67-1.61,0.72
		c-1.17,0.11-2.37,0.11-3.54,0c-0.56-0.05-1.19-0.34-1.61-0.72c-0.87-0.8-1.59-1.75-2.42-2.59c-0.19-0.2-0.62-0.4-0.81-0.32
		c-0.85,0.36-1.67,0.83-2.48,1.28c-0.05,0.03,0.01,0.24,0.02,0.36c0.06,1.21,0.19,2.43,0.15,3.64c-0.02,0.53-0.26,1.16-0.61,1.57
		c-0.78,0.92-1.65,1.79-2.57,2.57c-0.41,0.34-1.04,0.57-1.57,0.59c-1.21,0.04-2.42-0.12-3.64-0.13c-0.28,0-0.69,0.24-0.81,0.48
		c-1.12,2.28-1.17,2.36,0.8,3.9c1.55,1.22,2.42,2.58,2.09,4.6c-0.09,0.55-0.04,1.12-0.01,1.68c0.04,0.77-0.23,1.37-0.82,1.88
		C48.68,71.62,47.71,72.55,46.66,73.5z"/>
	<path class="st0" d="M7.48,71.79c1.01,0,1.94,0,2.99,0c0,0.96,0.05,1.91-0.02,2.86c-0.05,0.69,0.14,1.21,0.69,1.61
		c1.96,1.39,2.55,3.26,2.36,5.65c-0.22,2.76-1.64,4.52-4.52,4.83c0,0.94,0,1.89,0,2.89c-1.01,0-1.93,0-2.96,0c0-0.92,0-1.87,0-2.86
		c-2.26-0.24-3.8-1.3-4.4-3.48C1.52,82.88,1.51,82.43,1.51,82c-0.01-4.33-0.01-8.66,0-12.98c0-4.48,3.1-7.64,7.57-7.73
		c0.15,0,0.3-0.02,0.59-0.04c-1.94-2.44-2.64-5.13-1.95-8.09c0.49-2.07,1.62-3.75,3.32-5.04c3.41-2.59,8.2-2.37,11.43,0.5
		c3.51,3.13,3.83,7.55,0.88,12.58c0.74,0.09,1.47,0.11,2.18,0.26c3.43,0.73,5.85,3.72,5.86,7.23c0.01,4.27-0.09,8.53,0.04,12.8
		c0.08,2.52-1.2,4.9-4.51,5.29c0,0.92,0,1.84,0,2.83c-1,0-1.95,0-2.99,0c0-0.95,0-1.91,0-2.84c-3.22-0.33-4.55-2.72-4.56-5.2
		c-0.01-2.12,0.35-3.84,2.15-5.09c0.75-0.52,1.01-1.24,0.93-2.16c-0.08-0.8-0.02-1.62-0.02-2.57c0.51,0,0.99,0,1.47,0
		c0.46,0,0.93,0,1.5,0c0,1.63,0.03,3.2-0.03,4.78c-0.01,0.32-0.32,0.66-0.55,0.93c-0.32,0.38-0.65,0.78-1.06,1.05
		c-1.32,0.89-1.5,2.15-1.34,3.58c0.11,0.97,0.63,1.56,1.6,1.6c0.93,0.04,1.87,0.04,2.8,0c0.97-0.04,1.57-0.63,1.57-1.62
		c0.02-4.48,0.06-8.97-0.02-13.45c-0.04-2.48-1.99-4.32-4.48-4.34c-4.95-0.04-9.9-0.04-14.85,0c-2.61,0.02-4.52,1.96-4.54,4.58
		c-0.03,4.33-0.02,8.66-0.01,12.98c0,1.26,0.57,1.83,1.81,1.86c0.81,0.01,1.62,0.02,2.43,0c1.13-0.03,1.64-0.62,1.75-1.75
		c0.14-1.38-0.1-2.55-1.32-3.4c-1.4-0.98-1.92-2.33-1.7-4.03C7.57,73.63,7.48,72.73,7.48,71.79z M10.47,55.29
		c0,3.26,2.75,6.01,6.01,5.99c3.21-0.01,5.93-2.74,5.94-5.97c0.01-3.26-2.76-6.02-6.01-5.99C13.18,49.35,10.47,52.07,10.47,55.29z"
		/>
	<path class="st0" d="M70.21,31.39c-3.83,0-7.66,0-11.49,0c-1.44,0-1.92-0.47-1.93-1.87c0-4.73-0.01-9.47,0.01-14.2
		c0-0.48,0.13-0.99,0.33-1.42c0.85-1.8,1.77-3.56,2.64-5.35c0.37-0.75,0.9-1.1,1.77-1.09c5.79,0.02,11.58,0.02,17.37,0
		c0.85,0,1.41,0.31,1.78,1.07c0.89,1.81,1.82,3.61,2.69,5.43c0.19,0.4,0.29,0.89,0.3,1.34c0.02,4.76,0.02,9.53,0.01,14.29
		c0,1.3-0.5,1.8-1.81,1.8C78,31.39,74.11,31.39,70.21,31.39z M80.65,28.36c0-4.01,0-7.94,0-11.87c-1.49,0-2.91,0-4.42,0
		c0,1.4,0,2.76,0,4.13c-0.01,1.3-0.5,1.8-1.8,1.81c-2.77,0.01-5.54,0-8.31,0c-1.36,0-1.84-0.49-1.84-1.85c0-1.36,0-2.71,0-4.05
		c-1.57,0-3.01,0-4.44,0c0,3.98,0,7.89,0,11.85C66.78,28.36,73.68,28.36,80.65,28.36z M67.31,16.48c0,1.03,0,1.95,0,2.89
		c1.99,0,3.92,0,5.86,0c0-1,0-1.94,0-2.89C71.19,16.48,69.28,16.48,67.31,16.48z M67.73,13.42c1.72,0,3.32,0,5.03,0
		c-0.24-1-0.47-1.95-0.71-2.92c-1.22,0-2.39,0-3.62,0C68.21,11.47,67.98,12.41,67.73,13.42z M65.3,10.46
		c-0.97,0-1.84-0.02-2.71,0.01c-0.18,0.01-0.42,0.15-0.5,0.3c-0.45,0.84-0.85,1.7-1.31,2.62c1.35,0,2.58,0,3.81,0
		C64.83,12.42,65.05,11.49,65.3,10.46z M75.91,13.4c1.3,0,2.5,0,3.81,0c-0.46-0.94-0.87-1.81-1.32-2.65
		c-0.08-0.15-0.34-0.27-0.52-0.28c-0.86-0.03-1.72-0.01-2.68-0.01C75.45,11.51,75.68,12.44,75.91,13.4z"/>
	<path class="st0" d="M32.88,23.96c0,3.33,0,6.66,0,9.99c0,1.44-0.47,1.92-1.87,1.92c-5.73,0-11.45,0-17.18,0
		c-1.38,0-1.87-0.48-1.87-1.83c0-6.75,0-13.51,0-20.26c0-1.35,0.49-1.82,1.87-1.82c5.73,0,11.45,0,17.18,0
		c1.41,0,1.87,0.48,1.87,1.92C32.89,17.24,32.88,20.6,32.88,23.96z M29.83,32.88c0-6.05,0-11.97,0-17.89c-4.98,0-9.88,0-14.82,0
		c0,5.97,0,11.89,0,17.86c0.23,0.01,0.41,0.03,0.59,0.03C20.32,32.88,25.05,32.88,29.83,32.88z"/>
	<path class="st0" d="M20.93,8.97c-0.74,0-1.33,0-1.92,0c-0.31,0-0.62,0-1.03,0c0-1.98,0-3.92,0-5.92c-5.03,0-9.96,0-14.94,0
		c0,9.91,0,19.8,0,29.79c1.92,0,3.86,0,5.86,0c0,1.04,0,1.99,0,3.03c-2.55,0-5.09,0.03-7.64-0.02c-0.72-0.01-1.16-0.55-1.25-1.29
		c-0.03-0.24-0.01-0.5-0.01-0.75c0-10.58,0-21.17,0-31.75C0.01,0.43,0.42,0,2.02,0c5.66,0,11.33,0,16.99,0
		c1.43,0,1.91,0.47,1.91,1.88C20.93,4.21,20.93,6.54,20.93,8.97z"/>
	<path class="st0" d="M54.37,19.64c-0.38,1-0.71,1.86-1.07,2.82c-5.6-2-11.19-2.05-16.89,0.01c-0.19-0.47-0.36-0.92-0.53-1.37
		c-0.17-0.46-0.34-0.92-0.54-1.47C41.68,17.34,47.97,17.35,54.37,19.64z"/>
	<path class="st0" d="M36.19,14.37c-0.21-0.74-0.46-1.63-0.71-2.51c4.44-1.75,13.13-1.98,18.73-0.06c-0.25,0.9-0.5,1.81-0.71,2.57
		c-2.95-0.32-5.81-0.86-8.66-0.86C42,13.51,39.18,14.06,36.19,14.37z"/>
	<path class="st0" d="M71.73,43.28c-1.05,0.05-1.97,0.1-2.78,0.14c-0.69-2.84-1.37-5.62-2.08-8.53c0.66-0.3,1.52-0.7,2.48-1.14
		C70.77,36.77,71.48,39.9,71.73,43.28z"/>
	<path class="st0" d="M79.2,43.31c-1.03,0-1.98,0-2.84,0c-0.53-2.82-1.05-5.63-1.59-8.52c0.8-0.27,1.7-0.57,2.67-0.89
		C78.5,36.97,79.04,40.05,79.2,43.31z"/>
	<path class="st0" d="M33.75,69.36c0.41-0.92,0.8-1.79,1.16-2.58c2.4,0.67,4.7,1.31,7.12,1.98c-0.1,0.83-0.21,1.77-0.33,2.8
		C38.9,71.27,36.32,70.53,33.75,69.36z"/>
	<path class="st0" d="M33.89,77.45c0.33-0.98,0.62-1.86,0.91-2.75c2.38,0.5,4.72,0.99,7.18,1.51c-0.07,0.85-0.15,1.78-0.23,2.84
		C39.05,78.91,36.52,78.3,33.89,77.45z"/>
	<path class="st0" d="M17.8,44.8c0.25-2.14,0.5-4.19,0.75-6.34c1.13,0.27,2.05,0.49,2.96,0.71c-0.23,1.91-0.45,3.74-0.68,5.62
		C19.92,44.8,19,44.8,17.8,44.8z"/>
	<path class="st0" d="M13.93,39.1c-0.19,1.96-0.37,3.8-0.55,5.69c-0.92,0-1.84,0-3,0c0.18-2.04,0.35-4.08,0.54-6.23
		C12.03,38.76,12.97,38.93,13.93,39.1z"/>
	<path class="st0" d="M8.9,8.93c-0.97,0-1.89,0-2.86,0c0-0.98,0-1.92,0-2.9c0.96,0,1.88,0,2.86,0C8.9,6.96,8.9,7.9,8.9,8.93z"/>
	<path class="st0" d="M6.06,17.96c0.97,0,1.87,0,2.84,0c0,0.96,0,1.9,0,2.9c-0.92,0-1.87,0-2.84,0C6.06,19.89,6.06,18.93,6.06,17.96
		z"/>
	<path class="st0" d="M8.92,14.9c-0.95,0-1.87,0-2.86,0c0-0.93,0-1.87,0-2.88c0.92,0,1.86,0,2.86,0C8.92,12.97,8.92,13.91,8.92,14.9
		z"/>
	<path class="st0" d="M14.91,6.03c0,0.97,0,1.89,0,2.87c-0.95,0-1.89,0-2.89,0c0-0.94,0-1.88,0-2.87
		C12.96,6.03,13.88,6.03,14.91,6.03z"/>
	<path class="st0" d="M8.93,23.96c0,0.98,0,1.89,0,2.88c-0.96,0-1.9,0-2.89,0c0-0.95,0-1.89,0-2.88
		C6.99,23.96,7.91,23.96,8.93,23.96z"/>
	<path class="st0" d="M65.76,56.8c5.86,0.01,10.47,4.67,10.46,10.58c-0.01,5.73-4.7,10.35-10.51,10.34
		c-5.81-0.01-10.42-4.67-10.41-10.53C55.31,61.43,59.98,56.79,65.76,56.8z M65.8,59.79c-4.08-0.02-7.51,3.4-7.5,7.49
		c0.01,4.04,3.41,7.45,7.44,7.46c4.09,0,7.49-3.39,7.5-7.49C73.24,63.22,69.84,59.81,65.8,59.79z"/>
	<path class="st0" d="M23.97,23.96c0.95,0,1.87,0,2.86,0c0,0.93,0,1.87,0,2.88c-0.92,0-1.86,0-2.86,0
		C23.97,25.89,23.97,24.95,23.97,23.96z"/>
	<path class="st0" d="M20.88,26.87c-0.98,0-1.9,0-2.88,0c0-0.96,0-1.9,0-2.9c0.96,0,1.9,0,2.88,0
		C20.88,24.93,20.88,25.85,20.88,26.87z"/>
	<path class="st0" d="M26.84,20.88c-0.99,0-1.91,0-2.87,0c0-0.96,0-1.88,0-2.87c0.92,0,1.87,0,2.87,0
		C26.84,18.93,26.84,19.87,26.84,20.88z"/>
	<path class="st0" d="M18.01,17.98c0.99,0,1.91,0,2.87,0c0,0.96,0,1.88,0,2.87c-0.92,0-1.87,0-2.87,0
		C18.01,19.93,18.01,18.99,18.01,17.98z"/>
</g>
</svg>
