<?xml version="1.0" encoding="utf-8"?>
<!-- Generator: Adobe Illustrator 25.2.1, SVG Export Plug-In . SVG Version: 6.00 Build 0)  -->
<svg version="1.1" id="Layer_1" xmlns="http://www.w3.org/2000/svg" xmlns:xlink="http://www.w3.org/1999/xlink" x="0px" y="0px"
	 viewBox="0 0 90.18 88.96" style="enable-background:new 0 0 90.18 88.96;" xml:space="preserve">
<style type="text/css">
	.st0{fill:#E51675;}
</style>
<g>
	<g>
		<path class="st0" d="M0,39.26c5.64-7,11.29-14.01,16.93-21.01c0.77-0.96,1.63-1.08,2.71-0.4c2.63,1.66,5.26,3.31,7.85,5.01
			c1.19,0.78,2.42,1.36,3.81,1.71c2.55,0.64,5.07,1.38,7.62,2.04c0.42,0.11,0.93,0.1,1.35-0.02c2.79-0.77,5.56-1.6,8.35-2.37
			c0.64-0.18,1.32-0.29,1.98-0.29c3.67-0.03,7.33,0.01,11-0.04c0.6-0.01,1.27-0.21,1.78-0.53c2.87-1.77,5.7-3.6,8.54-5.41
			c1.33-0.85,2.1-0.7,3.07,0.56c4.81,6.25,9.62,12.5,14.44,18.75c1.07,1.38,1,2.13-0.35,3.29c-2.53,2.19-5.07,4.35-7.59,6.56
			c-0.36,0.32-0.67,0.73-0.88,1.17c-1.71,3.53-3.41,7.06-5.07,10.61c-0.15,0.31-0.2,0.81-0.06,1.1c2.04,4.34-0.51,8.81-5.26,9.21
			c-0.08,0.01-0.16,0.04-0.24,0.06c-0.91,4.32-2.42,5.83-6.38,6.35c-0.4,3.78-2.46,5.97-6.32,6.36c-1.25,6.29-5.69,8.01-11.17,4.24
			c-1.74,2.09-3.94,3.21-6.71,2.56c-2.78-0.65-4.31-2.54-4.86-5.36c-1.88,0.11-3.6-0.3-5.05-1.56c-1.43-1.25-2.07-2.87-2.19-4.69
			c-4.82-1.35-6.39-3.17-6.24-7.26c-0.17-0.06-0.35-0.13-0.54-0.17c-4.47-0.93-6.49-6.03-3.83-9.75c0.38-0.53,0.38-0.84-0.01-1.35
			c-2.33-3.09-4.61-6.21-6.94-9.31c-0.4-0.53-0.91-0.99-1.42-1.43c-2.35-2.04-4.72-4.05-7.06-6.09c-0.46-0.4-0.85-0.87-1.27-1.31
			C0,40.08,0,39.67,0,39.26z M30.15,60.44c1.98-0.26,3.78,0.04,5.32,1.33c1.53,1.28,2.2,2.97,2.27,4.93
			c2.04,0.05,3.67,0.8,4.91,2.33c1.26,1.54,1.55,3.35,1.29,5.23c0.12,0.08,0.17,0.12,0.22,0.13c3.63,0.67,6.14,4.62,4.54,8.63
			c-0.07,0.18-0.06,0.47,0.04,0.62c0.61,0.85,1.96,1.23,3.01,0.89c1.11-0.36,1.78-1.26,1.83-2.42c0.04-0.92-0.34-1.64-0.97-2.27
			c-1.29-1.29-2.61-2.54-3.81-3.9c-0.38-0.43-0.68-1.17-0.6-1.71c0.21-1.47,1.92-1.93,3.04-0.85c1.35,1.3,2.65,2.66,3.97,4
			c0.72,0.73,1.57,1.13,2.62,0.89c2.13-0.5,2.86-2.91,1.32-4.54c-1.75-1.86-3.58-3.64-5.37-5.46c-0.76-0.77-1.54-1.53-2.28-2.32
			c-0.5-0.53-0.74-1.24-0.36-1.85c0.31-0.49,0.91-1.05,1.42-1.09c0.56-0.05,1.3,0.32,1.74,0.75c2.44,2.37,4.81,4.81,7.2,7.23
			c0.74,0.75,1.59,1.21,2.68,0.95c2.2-0.53,2.84-3.01,1.2-4.68c-3.62-3.68-7.26-7.34-10.9-11.01c-0.25-0.25-0.51-0.5-0.69-0.79
			c-0.71-1.16,0.11-2.71,1.46-2.63c0.55,0.03,1.18,0.36,1.58,0.76c3.56,3.53,7.08,7.11,10.61,10.68c0.31,0.31,0.62,0.64,0.97,0.89
			c0.85,0.61,1.79,0.7,2.74,0.23c0.95-0.47,1.43-1.26,1.48-2.32c0.04-0.96-0.41-1.66-1.06-2.31C64.81,54.03,58.1,47.3,51.36,40.6
			c-0.33-0.33-0.9-0.56-1.37-0.6c-2.1-0.19-4.21-0.27-6.32-0.45c-0.57-0.05-0.83,0.13-1.09,0.6c-1.32,2.38-2.66,4.76-4.03,7.11
			c-1.5,2.57-4.33,3.74-7.06,2.99c-3.95-1.09-5.85-5.42-3.88-9.03c2.05-3.75,4.2-7.45,6.3-11.17c0.16-0.29,0.31-0.59,0.49-0.93
			c-1.53-0.42-2.95-0.76-4.34-1.2c-0.61-0.19-0.94-0.06-1.33,0.43c-3.91,4.8-7.85,9.57-11.77,14.36c-1.34,1.63-2.67,3.26-4.02,4.91
			c1.16,1.56,2.28,3.07,3.39,4.57c1.13,1.52,2.26,3.04,3.39,4.57C23.48,53.7,29,55.32,30.15,60.44z M72.52,56.89
			c1.56-3.26,2.96-6.28,4.45-9.26c0.37-0.74,0.25-1.18-0.22-1.78c-4.68-5.91-9.34-11.83-13.98-17.76c-0.36-0.46-0.72-0.66-1.31-0.65
			c-3.49,0.03-6.98,0-10.47,0.02c-0.52,0-1.05,0.07-1.55,0.21c-3.82,1.09-7.64,2.19-11.45,3.32c-0.3,0.09-0.66,0.3-0.81,0.56
			c-2.16,3.76-4.32,7.52-6.38,11.33c-0.32,0.6-0.34,1.48-0.19,2.17c0.21,1.02,1.03,1.62,2.07,1.76c1.23,0.17,2.18-0.32,2.8-1.4
			c1.57-2.75,3.14-5.49,4.67-8.26c0.53-0.96,1.22-1.39,2.34-1.3c2.92,0.24,5.85,0.41,8.77,0.59c0.84,0.05,1.48,0.41,2.07,1
			c6.15,6.17,12.31,12.33,18.47,18.49C72.02,56.19,72.19,56.47,72.52,56.89z M25.95,26.1c-2.43-1.54-4.76-3.02-7.11-4.52
			C13.94,27.67,9.1,33.65,4.25,39.67c2.11,1.81,4.12,3.55,6.19,5.33C15.62,38.68,20.75,32.44,25.95,26.1z M79.73,43.9
			c2.11-1.82,4.13-3.56,6.19-5.34c-4.38-5.69-8.71-11.31-13.06-16.96c-2.41,1.53-4.73,3.02-7.1,4.53
			C70.46,32.1,75.07,37.97,79.73,43.9z M27.64,73.46c0.28-0.12,0.91-0.23,1.3-0.6c1.58-1.48,3.14-3,4.6-4.6
			c0.97-1.06,0.77-2.71-0.26-3.65c-1.02-0.94-2.55-0.98-3.59,0c-1.51,1.43-2.99,2.9-4.41,4.42c-0.76,0.81-0.87,1.84-0.4,2.87
			C25.36,72.93,26.21,73.41,27.64,73.46z M33.68,79.93c0.53-0.22,1.16-0.33,1.56-0.69c1.58-1.48,3.14-3,4.6-4.59
			c0.98-1.06,0.8-2.68-0.22-3.65c-1-0.95-2.54-1.02-3.59-0.04c-1.52,1.42-2.99,2.9-4.42,4.41c-0.77,0.81-0.88,1.85-0.43,2.87
			C31.64,79.27,32.49,79.78,33.68,79.93z M38.15,82.61c0.01,1.15,0.47,1.96,1.41,2.45c0.94,0.49,1.93,0.51,2.73-0.16
			c1.02-0.86,1.99-1.83,2.84-2.86c0.75-0.9,0.65-2.19-0.03-3.11c-0.66-0.9-1.84-1.4-2.87-0.93c-1.76,0.82-3.03,2.23-3.98,3.92
			C38.13,82.14,38.17,82.44,38.15,82.61z M21.85,66.38c0.5-0.2,1.11-0.3,1.49-0.63c0.95-0.82,1.87-1.7,2.67-2.67
			c0.92-1.12,0.72-2.75-0.32-3.65c-1.06-0.92-2.6-0.88-3.67,0.13c-0.77,0.72-1.52,1.46-2.23,2.24c-0.79,0.86-0.91,1.88-0.44,2.94
			C19.81,65.78,20.67,66.25,21.85,66.38z"/>
		<path class="st0" d="M35.25,20.62c-0.23-0.13-0.74-0.31-1.09-0.65c-3.95-3.92-7.89-7.86-11.82-11.8c-0.86-0.87-0.9-1.88-0.15-2.64
			c0.76-0.77,1.78-0.77,2.65,0.09c3.97,3.95,7.92,7.91,11.87,11.87c0.58,0.59,0.81,1.29,0.43,2.08
			C36.83,20.24,36.29,20.58,35.25,20.62z"/>
		<path class="st0" d="M54.71,20.77c-1.48-0.18-2.33-1.62-1.65-2.8c0.13-0.23,0.31-0.43,0.5-0.61c3.87-3.88,7.73-7.77,11.64-11.6
			c0.43-0.42,1.19-0.77,1.76-0.72c1.4,0.12,1.97,1.77,1.08,2.87c-0.27,0.34-0.61,0.63-0.92,0.94c-3.65,3.65-7.29,7.3-10.95,10.93
			C55.76,20.19,55.2,20.45,54.71,20.77z"/>
		<path class="st0" d="M43.31,13.8c0-1.61-0.01-3.22,0-4.83c0.01-1.13,0.72-1.9,1.73-1.92c1.04-0.02,1.79,0.77,1.79,1.94
			c0.01,3.22,0.01,6.44,0,9.66c0,1.21-0.69,1.94-1.78,1.94c-1.08-0.01-1.74-0.74-1.75-1.96C43.3,17.02,43.31,15.41,43.31,13.8z"/>
		<path class="st0" d="M46.83,1.73c0.02,1.02-0.73,1.79-1.75,1.79c-0.99,0-1.74-0.71-1.77-1.68C43.28,0.8,44.01,0.02,45.02,0
			C46.05-0.02,46.82,0.71,46.83,1.73z"/>
	</g>
</g>
</svg>
