<?xml version="1.0" encoding="utf-8"?>
<!-- Generator: Adobe Illustrator 25.2.1, SVG Export Plug-In . SVG Version: 6.00 Build 0)  -->
<svg version="1.1" id="Layer_1" xmlns="http://www.w3.org/2000/svg" xmlns:xlink="http://www.w3.org/1999/xlink" x="0px" y="0px"
	 viewBox="0 0 101.93 88.02" style="enable-background:new 0 0 101.93 88.02;" xml:space="preserve">
<style type="text/css">
	.st0{fill:#E51675;}
	.st1{fill:#E51675;stroke:#E51675;stroke-width:0.5;stroke-miterlimit:10;}
	.st2{font-family:'RupeeForadian';}
	.st3{font-size:24px;}
</style>
<g>
	<path class="st0" d="M-532.58,276.99c0.27-0.99,0.44-2.01,0.83-2.95c2.04-4.95,5.74-7.84,11.01-8.73c0.17-0.03,0.33-0.09,0.71-0.19
		c-2.69-0.49-4.69-1.73-6.13-3.81c-1.44-2.09-1.87-4.42-1.36-6.89c0.89-4.33,4.9-7.26,9.46-6.97c4.1,0.26,7.73,3.86,8.07,8
		c0.38,4.58-2.6,8.73-7.31,9.62c1.4,0.45,3,0.8,4.45,1.47c1.43,0.66,2.72,1.63,4.12,2.5c1.45-1.84,3.29-3.44,5.48-4.65
		c2.15-1.19,4.47-1.83,6.9-2.2c-3.17-0.56-5.77-2.04-7.73-4.56c-1.98-2.55-2.78-5.45-2.41-8.65c0.72-6.18,6.21-10.95,12.78-10.38
		c5.95,0.52,10.36,5.25,10.76,10.9c0.47,6.46-4.16,11.74-10.2,12.69c5.11,0.64,9.29,2.92,12.52,7.01c2.42-2.33,5.33-3.57,8.6-4.05
		c-5.06-1.02-7.97-5.35-7.45-9.85c0.53-4.67,4.39-7.93,9.15-7.87c4.31,0.05,8.15,3.66,8.53,8c0.41,4.71-2.67,8.68-7.64,9.69
		c0.82,0.18,1.48,0.31,2.14,0.47c5.57,1.4,9.62,5.88,10.33,11.57c0.18,1.46,0.07,2.95,0.04,4.43c-0.02,0.69-0.61,1.21-1.3,1.29
		c-0.22,0.02-0.44,0.01-0.66,0.01c-23.89,0-47.77,0-71.66,0.01c-0.91,0-1.58-0.23-2.01-1.05
		C-532.58,280.24-532.58,278.62-532.58,276.99z M-479.96,279.91c-0.33-5.9-2.86-10.43-8.09-13.06c-5.53-2.79-10.95-2.2-15.85,1.57
		c-3.72,2.86-5.49,6.79-5.61,11.49C-499.63,279.91-489.84,279.91-479.96,279.91z M-485.89,250.38c-0.01-4.83-4.01-8.83-8.84-8.85
		c-4.84-0.02-8.9,4.03-8.89,8.88c0.01,4.83,4.01,8.83,8.84,8.85C-489.93,259.28-485.88,255.22-485.89,250.38z M-512.6,279.92
		c0.2-1.39,0.28-2.73,0.6-4.01c0.32-1.28,0.88-2.49,1.29-3.75c0.07-0.22-0.06-0.6-0.23-0.78c-4.73-4.9-13.2-4.09-16.96,1.6
		c-1.4,2.11-1.88,4.43-1.68,6.94C-523.88,279.92-518.23,279.92-512.6,279.92z M-459.79,279.91c-0.11-1.16-0.09-2.31-0.34-3.39
		c-0.94-4.1-3.55-6.76-7.52-7.92c-4.12-1.2-7.8-0.13-10.95,2.79c-0.3,0.28-0.34,0.52-0.17,0.89c0.32,0.69,0.67,1.38,0.84,2.11
		c0.43,1.8,0.76,3.63,1.15,5.51C-471.28,279.91-465.61,279.91-459.79,279.91z M-512.94,256.33c-0.13-3.28-2.42-5.85-5.86-5.89
		c-3.23-0.04-5.86,2.32-5.91,5.81c-0.05,3.3,2.41,5.86,5.87,5.94C-515.67,262.27-512.97,259.52-512.94,256.33z M-464.76,256.29
		c-0.02-3.19-2.72-5.88-5.9-5.89c-3.17-0.01-5.94,2.68-5.89,5.88c0.05,3.39,2.54,5.92,5.91,5.89
		C-467.22,262.15-464.9,259.59-464.76,256.29z"/>
	<path class="st0" d="M-501.62,226.67c-0.08-0.11-0.22-0.33-0.4-0.5c-1.3-1.28-2.59-2.56-3.91-3.82c-0.54-0.52-0.86-1.09-0.6-1.84
		c0.25-0.72,0.85-0.94,1.56-1.03c1.7-0.22,3.4-0.49,5.1-0.73c0.59-0.08,1-0.28,1.27-0.9c0.7-1.59,1.51-3.14,2.27-4.71
		c0.32-0.65,0.72-1.18,1.53-1.18c0.81,0,1.21,0.53,1.52,1.19c0.76,1.57,1.56,3.12,2.28,4.71c0.25,0.56,0.59,0.82,1.19,0.89
		c1.75,0.22,3.5,0.51,5.25,0.74c0.72,0.1,1.26,0.37,1.51,1.09c0.24,0.72-0.1,1.24-0.57,1.71c-1.32,1.29-2.66,2.56-3.95,3.88
		c-0.23,0.23-0.38,0.7-0.34,1.02c0.28,1.84,0.62,3.68,0.95,5.51c0.12,0.66-0.01,1.24-0.56,1.65c-0.55,0.42-1.14,0.38-1.73,0.07
		c-1.67-0.88-3.35-1.75-5.02-2.65c-0.39-0.21-0.69-0.2-1.08,0.01c-1.6,0.87-3.22,1.69-4.82,2.55c-0.65,0.35-1.3,0.51-1.93,0.02
		c-0.59-0.46-0.65-1.08-0.51-1.79c0.33-1.69,0.59-3.38,0.88-5.08C-501.69,227.27-501.67,227.04-501.62,226.67z M-487.93,222.04
		c-1.01-0.15-2.1-0.36-3.19-0.45c-1.04-0.09-1.72-0.53-2.14-1.51c-0.44-1.06-1-2.07-1.55-3.21c-0.58,1.18-1.14,2.23-1.61,3.33
		c-0.39,0.91-1.05,1.28-1.99,1.38c-1.13,0.12-2.25,0.32-3.33,0.47c0.9,0.95,1.77,1.89,2.66,2.8c0.48,0.5,0.68,1.02,0.53,1.73
		c-0.25,1.24-0.43,2.5-0.65,3.85c0.66-0.34,1.23-0.64,1.8-0.93c2.97-1.54,2.21-1.55,5.21,0.01c0.55,0.28,1.09,0.56,1.77,0.9
		c-0.24-1.42-0.43-2.65-0.65-3.88c-0.13-0.72,0.1-1.27,0.62-1.79C-489.58,223.88-488.77,222.95-487.93,222.04z"/>
	<path class="st0" d="M-511.03,232.17c-0.23,0.38-0.41,0.82-0.71,1.14c-0.83,0.87-1.73,1.68-2.56,2.55
		c-0.19,0.2-0.31,0.59-0.27,0.87c0.15,1.14,0.38,2.27,0.56,3.41c0.11,0.68,0.09,1.33-0.54,1.8c-0.62,0.46-1.24,0.34-1.86,0
		c-0.97-0.53-1.97-1.01-2.92-1.56c-0.45-0.26-0.81-0.29-1.27-0.02c-1.02,0.59-2.08,1.11-3.12,1.66c-0.57,0.3-1.14,0.34-1.66-0.06
		c-0.54-0.41-0.71-0.95-0.58-1.63c0.22-1.13,0.37-2.28,0.6-3.41c0.1-0.51-0.01-0.87-0.4-1.23c-0.82-0.74-1.6-1.54-2.39-2.3
		c-0.51-0.49-0.83-1.04-0.57-1.77c0.25-0.69,0.79-0.95,1.47-1.03c1.12-0.14,2.23-0.34,3.35-0.48c0.48-0.06,0.77-0.25,0.98-0.72
		c0.45-1.03,0.99-2.03,1.49-3.04c0.3-0.61,0.72-1.06,1.46-1.06c0.74,0,1.16,0.42,1.46,1.04c0.53,1.08,1.05,2.17,1.61,3.23
		c0.11,0.21,0.39,0.43,0.62,0.48c1.23,0.22,2.47,0.39,3.71,0.58C-511.68,230.74-511.15,231.29-511.03,232.17z M-522.44,237.87
		c0.78-0.32,1.61-0.91,2.45-0.92c0.82-0.01,1.64,0.58,2.44,0.9c-0.05-0.89-0.35-1.85-0.09-2.61c0.27-0.79,1.08-1.39,1.76-2.2
		c-2.21,0.24-3.53-0.75-4.12-2.89c-0.57,2.16-1.91,3.1-4.08,2.91c0.68,0.82,1.5,1.42,1.75,2.21
		C-522.07,236.06-522.38,237.03-522.44,237.87z"/>
	<path class="st0" d="M-460.79,232.2c-0.24,0.38-0.42,0.81-0.73,1.13c-0.83,0.87-1.73,1.68-2.56,2.55
		c-0.18,0.19-0.29,0.55-0.26,0.81c0.15,1.14,0.37,2.28,0.56,3.41c0.12,0.71,0.11,1.38-0.56,1.86c-0.63,0.46-1.24,0.3-1.86-0.03
		c-0.99-0.54-2.01-1.03-2.99-1.59c-0.42-0.24-0.74-0.21-1.14,0.01c-1.03,0.57-2.09,1.1-3.12,1.65c-0.59,0.32-1.18,0.37-1.73-0.06
		c-0.53-0.42-0.68-0.97-0.55-1.64c0.22-1.13,0.38-2.27,0.6-3.41c0.09-0.48,0-0.83-0.38-1.17c-0.82-0.74-1.6-1.54-2.39-2.3
		c-0.5-0.49-0.86-1.02-0.61-1.76c0.24-0.73,0.8-0.99,1.52-1.08c1.17-0.15,2.34-0.32,3.49-0.55c0.28-0.05,0.6-0.31,0.74-0.56
		c0.54-0.99,1.02-2.01,1.51-3.03c0.32-0.66,0.73-1.17,1.54-1.16c0.78,0.01,1.18,0.5,1.48,1.13c0.49,1.02,1.01,2.02,1.49,3.04
		c0.17,0.36,0.36,0.57,0.79,0.62c1.22,0.14,2.43,0.34,3.64,0.53C-461.41,230.74-460.9,231.31-460.79,232.2z M-469.6,230.2
		c-0.06,0.02-0.12,0.04-0.19,0.06c-0.22,0.43-0.48,0.85-0.65,1.31c-0.35,0.93-1.04,1.31-1.98,1.38c-0.45,0.04-0.89,0.13-1.33,0.2
		c-0.05,0.04-0.1,0.09-0.15,0.13c1.93,1.1,2.34,2.71,1.6,4.75c1.71-1.42,3.34-1.4,5.14-0.04c-0.99-2.15-0.14-3.61,1.53-4.88
		C-467.85,233.27-469.13,232.3-469.6,230.2z"/>
	<path class="st0" d="M-483.95,275.4c0,0.79-0.33,1.24-0.94,1.48c-0.62,0.24-1.16,0.1-1.6-0.39c-0.13-0.14-0.25-0.31-0.34-0.48
		c-0.71-1.39-1.72-2.5-2.99-3.41c-0.53-0.38-0.87-0.89-0.72-1.58c0.22-1.04,1.31-1.55,2.24-0.97c1.87,1.19,3.27,2.82,4.23,4.82
		C-483.98,275.07-483.97,275.3-483.95,275.4z"/>
	<path class="st0" d="M-493.28,269.58c0.01,0.83-0.65,1.51-1.48,1.5c-0.8,0-1.45-0.65-1.46-1.44c-0.01-0.83,0.65-1.51,1.48-1.5
		C-493.94,268.14-493.29,268.78-493.28,269.58z"/>
</g>
<g>
	<g>
		<path class="st0" d="M89.18,6.46c-2.19-1.1-4.38-2.2-6.71-3.36c0.51-1.03,1-2.03,1.53-3.09c2.06,1.03,4.04,2.02,6.02,3.02
			c2.4,1.2,4.79,2.41,7.2,3.6c0.74,0.37,1.32,0.82,1.32,1.74c0,0.92-0.57,1.37-1.32,1.74c-4.2,2.09-8.4,4.2-12.6,6.31
			c-0.18,0.09-0.38,0.16-0.64,0.27c-0.5-1.01-0.98-1.97-1.52-3.04c2.29-1.16,4.5-2.27,6.71-3.39c-0.02-0.06-0.03-0.13-0.05-0.19
			c-0.34,0-0.67,0-1.01,0c-21.83,0-43.66,0-65.5,0c-9.61,0-17.08,6.13-18.92,15.56c-0.24,1.24-0.29,2.53-0.3,3.8
			C3.39,42.9,3.4,56.38,3.4,69.87c0,0.42,0,0.83,0,1.3c-1.14,0-2.19,0-3.4,0c0-0.33,0-0.67,0-1.01c0-13.91-0.01-27.82,0-41.73
			C0.02,17.6,8.38,8.2,19.15,6.86c1.05-0.13,2.11-0.2,3.17-0.2c21.9-0.01,43.81-0.01,65.71-0.01c0.37,0,0.74,0,1.11,0
			C89.15,6.59,89.17,6.52,89.18,6.46z"/>
		<path class="st0" d="M12.77,81.61c2.19,1.11,4.38,2.21,6.7,3.38c-0.5,1.02-0.98,1.98-1.5,3.03c-0.32-0.14-0.6-0.24-0.87-0.37
			c-4.11-2.05-8.21-4.11-12.33-6.16C4,81.11,3.38,80.66,3.4,79.69c0.02-0.92,0.61-1.35,1.35-1.71c4.36-2.17,8.71-4.36,13.18-6.59
			c0.52,1.03,1.02,2.02,1.55,3.08c-2.31,1.16-4.51,2.26-6.97,3.5c0.6,0.03,0.93,0.07,1.25,0.07c21.87,0,43.74,0.01,65.61,0
			c9.57,0,17.09-6.22,18.87-15.63c0.23-1.24,0.28-2.53,0.28-3.8c0.02-13.45,0.01-26.9,0.01-40.35c0-0.42,0-0.84,0-1.32
			c1.12,0,2.17,0,3.4,0c0,0.34,0,0.71,0,1.08c0,13.77,0.01,27.54,0,41.31c-0.01,11.18-8.13,20.44-19.25,21.92
			c-1.05,0.14-2.11,0.19-3.17,0.19c-21.84,0.01-43.67,0.01-65.51,0.01c-0.39,0-0.78,0-1.17,0C12.82,81.48,12.79,81.55,12.77,81.61z"
			/>
		<path class="st0" d="M8.5,44.04c0-3.11,0.03-6.23-0.02-9.34c-0.02-1.08,0.42-1.71,1.39-2.12c5.46-2.32,10.89-4.68,16.36-6.96
			c0.55-0.23,1.36-0.23,1.91-0.01c5.5,2.3,10.97,4.67,16.45,7.01c0.87,0.37,1.29,0.98,1.29,1.97c-0.02,6.3-0.02,12.6,0,18.9
			c0,0.99-0.42,1.6-1.29,1.97c-5.48,2.35-10.95,4.72-16.45,7.01c-0.57,0.24-1.43,0.21-2.01-0.04c-5.4-2.26-10.77-4.6-16.17-6.89
			c-1.06-0.45-1.51-1.1-1.49-2.26C8.53,50.19,8.5,47.12,8.5,44.04z M11.89,36.93c0,5.17-0.01,10.12,0.03,15.07
			c0,0.3,0.37,0.74,0.67,0.87c4.01,1.75,8.03,3.47,12.06,5.18c0.24,0.1,0.5,0.15,0.83,0.26c0-5.07,0.01-10.03-0.03-14.98
			c0-0.3-0.38-0.72-0.69-0.86c-2.22-1-4.47-1.94-6.7-2.9C16.06,38.71,14.06,37.85,11.89,36.93z M28.88,58.35
			c0.33-0.1,0.49-0.14,0.65-0.21c4.09-1.75,8.17-3.51,12.27-5.23c0.64-0.27,0.68-0.68,0.67-1.24c-0.01-4.6-0.01-9.2-0.01-13.81
			c0-0.26-0.03-0.53-0.06-0.9c-4.45,1.9-8.79,3.75-13.12,5.64c-0.21,0.09-0.4,0.49-0.4,0.74C28.88,48.29,28.88,53.25,28.88,58.35z
			 M14.59,34.32c3.74,1.6,7.3,3.05,10.79,4.67c1.31,0.61,2.37,0.58,3.67-0.01c3.48-1.6,7.03-3.05,10.7-4.62
			c-0.46-0.22-0.77-0.38-1.09-0.51c-3.11-1.34-6.26-2.6-9.32-4.05c-1.49-0.71-2.73-0.74-4.24-0.02
			C21.73,31.37,18.26,32.75,14.59,34.32z"/>
		<path class="st0" d="M93.44,44.07c-0.02,10.44-8.37,18.68-18.91,18.66c-10.28-0.02-18.49-8.47-18.46-18.99
			c0.03-10.12,8.49-18.42,18.75-18.39C85.15,25.37,93.46,33.72,93.44,44.07z M74.76,28.74c-8.4,0.04-15.3,6.91-15.3,15.25
			c0,8.43,6.91,15.34,15.33,15.32c8.4-0.02,15.29-6.98,15.25-15.4C89.99,35.62,83.03,28.71,74.76,28.74z"/>
	</g>
	<text transform="matrix(1 0 0 1 69.4059 52.4681)" class="st1 st2 st3">`</text>
</g>
</svg>
