<?xml version="1.0" encoding="utf-8"?>
<!-- Generator: Adobe Illustrator 25.2.1, SVG Export Plug-In . SVG Version: 6.00 Build 0)  -->
<svg version="1.1" id="Layer_1" xmlns="http://www.w3.org/2000/svg" xmlns:xlink="http://www.w3.org/1999/xlink" x="0px" y="0px"
	 viewBox="0 0 119.1 111.17" style="enable-background:new 0 0 119.1 111.17;" xml:space="preserve">
<style type="text/css">
	.st0{fill:#E51675;}
</style>
<g>
	<path class="st0" d="M119.1,103.32c0,1.94,0,3.88,0,5.81c-0.87,1.62-2.27,2.04-4.03,2.04c-37.06-0.02-74.13-0.02-111.19-0.02
		c-0.54,0-1.09-0.02-1.61-0.13c-1.37-0.27-2.25-1.3-2.26-2.68C0,101.79,0,95.23,0.01,88.68c0-1.35,0.95-2.52,2.22-2.75
		c0.53-0.1,1.09-0.09,1.62-0.04c0.82,0.09,1.15-0.11,1.11-1.04c-0.11-2.03,0.57-3.82,2.14-5.16c0.4-0.34,0.4-0.7,0.4-1.13
		c0-8.88,0-17.75,0.01-26.63c0-0.53-0.12-0.93-0.49-1.35c-1.11-1.28-1.8-2.78-1.97-4.49c-0.23-2.28-0.07-4.57-0.09-6.85
		c0-0.33,0.13-0.68,0.27-1c2.24-5.29,4.47-10.58,6.74-15.85c0.73-1.69,2.07-2.55,3.93-2.56c0.34,0,0.68,0,1.03,0
		c-1.51-6.85,0.2-12.59,5.85-16.72c5.18-3.78,10.92-4.16,16.47-0.94C46,6.1,48.19,12.23,46.62,19.83c2.91,0,5.78,0,8.65,0
		c0.19,0,0.51-0.01,0.54-0.1c0.23-0.71,0.11-1.44,0.09-2.17c-0.01-0.55-0.51-0.47-0.87-0.55c-4.67-1.03-7.57-5.7-6.43-10.32
		c1-4.02,4.31-6.53,8.72-6.56c3.88-0.03,7.75-0.01,11.63-0.01c8.8,0,17.6-0.02,26.4,0.01c6.34,0.02,10.57,5.56,8.6,11.27
		c-1.05,3.05-3.2,4.97-6.39,5.6c-0.85,0.17-1.21,0.5-1.05,1.35c0.02,0.11,0.02,0.23,0,0.35c-0.13,0.85,0.12,1.21,1.09,1.16
		c1.78-0.09,3.57-0.01,5.35-0.03c2.1-0.03,3.5,0.93,4.3,2.87c1.54,3.7,2.97,7.46,4.75,11.05c1.73,3.5,2.52,7.09,2.15,10.96
		c-0.01,0.12,0,0.23,0,0.35c-0.08,2.07-0.69,3.96-2.07,5.53c-0.36,0.41-0.5,0.82-0.49,1.35c0.02,2.17,0.02,4.34,0,6.51
		c-0.01,1.4-0.71,2.21-1.83,2.2c-1.05-0.01-1.71-0.81-1.73-2.18c-0.02-1.47-0.03-2.95,0.01-4.42c0.01-0.61-0.15-0.83-0.78-0.71
		c-3.27,0.6-5.9-0.58-8.11-3.03c-1.72,2.04-3.91,3.18-6.57,3.2c-2.68,0.01-4.89-1.15-6.62-3.2c-3.17,3.77-8.95,4.7-13.26,0.05
		c-3.91,4.1-8.74,4.25-12.73,0.36c-0.42-0.41-0.55-0.26-0.87,0.06c-3.69,3.65-8.66,3.68-12.25,0.02c-0.49-0.5-0.66-0.36-1.02,0.05
		c-0.67,0.77-1.49,1.34-2.41,1.79c-3.05,1.5-7.12,1.25-10.28-2.29c-3.84,4.42-9.73,3.91-12.84,0.34c-0.45-0.51-0.59-0.14-0.85,0.13
		c-2.05,2.1-4.51,3.06-7.45,2.56c-0.66-0.11-1-0.06-0.95,0.76c0.07,1.2,0.09,2.41,0,3.6c-0.08,1.05,0.24,1.34,1.32,1.34
		c16.55-0.03,33.11-0.02,49.66-0.01c0.89,0,1.78,0,2.67,0.04c0.97,0.03,1.68,0.54,2.19,1.33c0.49,0.76,0.46,1.62,0.46,2.47
		c0,11.59-0.01,23.18,0.01,34.77c0,1.18-0.52,2.76,0.24,3.44c0.66,0.58,2.22,0.1,3.36,0.21c1.07,0.1,1.34-0.26,1.33-1.32
		c-0.04-12.44-0.03-24.89-0.02-37.33c0-2.62,0.96-3.61,3.54-3.61c7.72-0.01,15.43-0.01,23.15,0c2.48,0,3.5,1.04,3.51,3.55
		c0.01,3.29,0,6.59,0,9.88c0,9.23,0.01,18.45-0.02,27.68c0,0.9,0.21,1.22,1.14,1.15c1.08-0.08,2.18-0.09,3.25,0
		c0.99,0.09,1.2-0.26,1.19-1.21c-0.04-10.66-0.02-21.32-0.02-31.98c0-0.46-0.01-0.94,0.08-1.39c0.21-1.09,1.05-1.58,2.14-1.31
		c1.29,0.31,1.34,1.32,1.34,2.36c0,10,0,20,0,30c0,1.12-0.39,2.62,0.17,3.25c0.65,0.73,2.19,0.27,3.33,0.21
		C116.89,101.15,118.25,101.7,119.1,103.32z M109.53,37.29c-1.67-3.96-3.27-7.83-4.95-11.66c-1.18-2.68-0.4-2.2-3.4-2.22
		c-5.12-0.03-10.23-0.01-15.35,0c-0.89,0-1.58-0.27-1.93-1.16c-0.29-0.76,0.01-1.36,0.48-1.9c0.49-0.55,1.17-0.6,1.83-0.5
		c1.29,0.18,0.93-0.72,0.98-1.39c0.06-0.75,0.07-1.26-1.03-1.25c-6.63,0.06-13.25,0.07-19.88,0c-1.28-0.01-0.93,0.74-0.97,1.4
		c-0.04,0.71-0.16,1.29,0.99,1.26c3.68-0.09,7.36-0.05,11.04-0.03c1.13,0.01,1.9,0.8,1.94,1.89c0.03,0.87-0.79,1.61-1.87,1.66
		c-0.35,0.02-0.7,0.01-1.05,0.01c-10.08,0-20.15,0.01-30.23-0.02c-0.79,0-1.23,0.25-1.68,0.9c-5.99,8.7-18.76,9-25.05,0.51
		c-0.93-1.25-1.89-1.48-3.21-1.36c-0.52,0.05-0.83,0.24-1.04,0.74c-1.83,4.34-3.68,8.67-5.57,13.12
		C42.94,37.29,76.17,37.29,109.53,37.29z M63.85,76.85c0-4.42-0.02-8.84,0.02-13.26c0.01-0.75-0.1-1.08-0.98-1.07
		c-4.46,0.05-8.92,0.04-13.37,0c-0.8-0.01-0.94,0.26-0.93,0.98c0.03,4.3,0.02,8.6,0.01,12.91c0,1.53-0.64,2.36-1.79,2.34
		c-1.13-0.01-1.69-0.76-1.69-2.28c0-4.3-0.02-8.61,0.02-12.91c0.01-0.78-0.16-1.06-1-1.05c-4.46,0.04-8.92,0.05-13.37,0
		c-0.88-0.01-0.99,0.31-0.98,1.07c0.04,3.88,0.04,7.75,0,11.63c-0.01,0.99,0.39,1.89,0.45,2.85c0.02,0.32,0.17,0.32,0.45,0.31
		c4.87-0.26,7.28,1.9,7.36,6.68c0.01,0.8,0.31,0.84,0.95,0.84c3.34,0.02,4.04,0.74,4.05,4.13c0,0.12,0.02,0.24,0,0.35
		c-0.15,0.88,0.44,0.79,0.99,0.78c0.56-0.01,1.16,0.16,1.12-0.81c-0.07-1.62-0.03-3.26-0.02-4.88c0.01-1.28,0.66-2.01,1.73-2
		c1.04,0.01,1.73,0.79,1.74,2.04c0.02,1.59,0.04,3.18-0.01,4.77c-0.02,0.71,0.18,0.91,0.9,0.91c4.46-0.03,8.92-0.04,13.37,0
		c0.85,0.01,1.02-0.29,1.01-1.07C63.83,85.69,63.85,81.27,63.85,76.85z M98.93,85.05c0-7.09-0.02-14.18,0.02-21.27
		c0.01-0.95-0.22-1.24-1.21-1.23c-6.93,0.04-13.87,0.04-20.8,0c-0.91,0-1.16,0.23-1.16,1.15c0.03,14.22,0.03,28.43,0,42.65
		c0,0.94,0.2,1.24,1.19,1.24c6.93-0.05,13.87-0.04,20.8,0c0.9,0,1.17-0.23,1.17-1.15C98.91,99.31,98.93,92.18,98.93,85.05z
		 M76.29,3.71C76.29,3.71,76.29,3.72,76.29,3.71c-6.39,0.01-12.79,0-19.18,0.01c-2.48,0.01-4.3,1.28-4.99,3.4
		c-1.09,3.35,1.35,6.56,5.06,6.57c7.79,0.03,15.58,0.02,23.37,0.02c5,0,10,0.02,15-0.01c3.62-0.02,6.02-2.97,5.17-6.32
		c-0.57-2.27-2.48-3.67-5.13-3.68C89.16,3.7,82.73,3.71,76.29,3.71z M21.51,89.36c-5.66,0-11.32,0.02-16.98-0.02
		c-0.89-0.01-1.13,0.24-1.08,1.1c0.07,1.24,0.02,2.48,0.02,3.72c0,2.6,0,2.6,2.57,2.6c10.74,0,21.47-0.02,32.21,0.03
		c1.1,0,1.37-0.32,1.31-1.35c-0.08-1.66-0.07-3.33,0-5c0.04-0.87-0.2-1.1-1.08-1.09C32.83,89.39,27.17,89.36,21.51,89.36z
		 M53.44,107.57c3.1,0,6.2-0.02,9.3,0.02c0.77,0.01,1.09-0.15,1.08-1.01c-0.05-3.64-0.04-7.29,0-10.93
		c0.01-0.75-0.19-0.99-0.97-0.99c-6.28,0.03-12.56,0.03-18.84,0c-0.86-0.01-1.01,0.29-1,1.07c0.04,3.6,0.05,7.21-0.01,10.81
		c-0.02,0.94,0.32,1.06,1.13,1.05C47.24,107.54,50.34,107.57,53.44,107.57z M21.63,100.28c-5.66,0-11.32,0.03-16.98-0.03
		c-0.99-0.01-1.27,0.27-1.19,1.22c0.09,1-0.01,2.01,0.03,3.02c0.04,0.99-0.44,2.31,0.22,2.89c0.56,0.49,1.84,0.18,2.8,0.18
		c10.58,0.01,21.16-0.01,31.75,0.03c1.1,0,1.36-0.32,1.31-1.35c-0.08-1.58-0.08-3.18,0-4.76c0.05-0.95-0.2-1.23-1.19-1.23
		C32.79,100.3,27.21,100.28,21.63,100.28z M43.59,15.68c0.14-6.46-5.07-11.82-11.62-11.95c-6.53-0.13-11.83,4.96-12.01,11.55
		c-0.18,6.6,5.04,11.98,11.72,12.1C38.12,27.48,43.44,22.26,43.59,15.68z M26.3,72.7c0-3.25-0.01-6.42,0.01-9.59
		c0-0.47-0.18-0.58-0.61-0.58c-4.65,0.01-9.29,0.02-13.94,0c-0.57,0-0.71,0.2-0.71,0.74c0.02,4.72,0.01,9.45,0.01,14.17
		c0,0.31-0.15,0.73,0.42,0.77c0.54,0.03,0.49-0.39,0.56-0.7c0.74-3.39,2.98-5.18,6.4-5.13c0.47,0.01,0.87,0.08,1.05-0.56
		c0.21-0.74,0.79-1.11,1.58-1.11c0.85,0,1.42,0.44,1.65,1.2c0.13,0.46,0.34,0.51,0.73,0.48C24.38,72.32,25.3,72.38,26.3,72.7z
		 M31.32,43.58c0.02,0,0.04,0,0.07,0c0-0.66-0.03-1.32,0.01-1.97c0.03-0.53-0.18-0.64-0.67-0.64c-2.78,0.02-5.57,0.02-8.35,0
		c-0.58-0.01-0.72,0.21-0.71,0.74c0.03,1.16-0.04,2.32,0.03,3.48c0.14,2.68,2,4.58,4.6,4.78c2.36,0.18,4.57-1.58,5-4.07
		C31.43,45.14,31.32,44.35,31.32,43.58z M39.78,40.97c-1.35,0-2.71,0.03-4.06-0.01c-0.67-0.02-0.87,0.2-0.84,0.85
		c0.05,1.12-0.01,2.24,0.02,3.36c0.06,2.58,1.97,4.56,4.58,4.8c2.34,0.21,4.56-1.58,5.01-4.05c0.26-1.46,0.07-2.93,0.13-4.4
		c0.03-0.6-0.39-0.56-0.78-0.56C42.48,40.97,41.13,40.97,39.78,40.97z M79.4,40.98c-1.39,0-2.78,0.01-4.18,0
		c-0.42,0-0.76-0.01-0.74,0.58c0.04,1.31-0.07,2.64,0.06,3.94c0.27,2.67,2.51,4.62,4.99,4.47c2.68-0.16,4.61-2.22,4.65-4.96
		c0.02-1-0.05-2.01,0.02-3.01c0.05-0.78-0.13-1.09-0.99-1.04C81.96,41.04,80.68,40.98,79.4,40.98z M92.58,40.97
		c-1.35,0-2.71,0.03-4.06-0.01c-0.67-0.02-0.87,0.2-0.84,0.85c0.05,1.12-0.01,2.24,0.02,3.36c0.06,2.58,1.97,4.56,4.58,4.8
		c2.34,0.21,4.56-1.58,5.01-4.05c0.26-1.46,0.07-2.93,0.13-4.4c0.03-0.6-0.39-0.56-0.78-0.56C95.29,40.97,93.94,40.97,92.58,40.97z
		 M66.2,40.97c-1.35,0-2.71,0.02-4.06-0.01c-0.59-0.02-0.83,0.16-0.81,0.78c0.05,1.31-0.02,2.63,0.06,3.94
		c0.15,2.38,2.37,4.34,4.78,4.31c2.49-0.03,4.67-2.05,4.77-4.46c0.05-1.23-0.02-2.47,0.03-3.71c0.02-0.65-0.16-0.88-0.84-0.86
		C68.83,41.01,67.51,40.97,66.2,40.97z M18.16,43.87c0-0.68-0.05-1.23,0.01-1.76c0.11-0.91-0.22-1.18-1.14-1.15
		c-2.52,0.07-5.04,0.05-7.56,0.01c-0.67-0.01-0.99,0.12-0.95,0.88c0.07,1.16-0.01,2.32,0.03,3.49c0.09,2.44,1.78,4.24,4.26,4.57
		c2.24,0.3,4.36-1.08,5.12-3.3C18.27,45.65,18.08,44.69,18.16,43.87z M52.97,40.98c-1.35,0-2.71,0.03-4.06-0.01
		c-0.6-0.02-0.81,0.15-0.78,0.77c0.05,1.24-0.01,2.48,0.03,3.71c0.09,2.45,2.19,4.46,4.71,4.53c2.46,0.07,4.68-1.9,4.85-4.37
		c0.09-1.31,0.01-2.63,0.06-3.94c0.02-0.58-0.2-0.71-0.74-0.7C55.68,41,54.32,40.98,52.97,40.98z M105.83,40.98
		c-1.39,0-2.79,0.02-4.18-0.01c-0.55-0.01-0.74,0.15-0.72,0.71c0.04,1.2-0.01,2.4,0.02,3.6c0.06,2.59,2.19,4.69,4.77,4.71
		c2.52,0.02,4.67-1.98,4.81-4.54c0.07-1.23-0.01-2.48,0.05-3.71c0.03-0.64-0.21-0.78-0.8-0.76C108.47,41,107.15,40.98,105.83,40.98z
		 M28.79,85.87c1.63,0,3.26-0.03,4.88,0.01c0.67,0.02,0.85-0.21,0.85-0.86c0-1.22-0.17-2.33-1.36-2.98
		c-1.14-0.63-2.15-0.33-3.11,0.43c-0.73,0.58-1.52,0.6-2.24,0.04c-1.01-0.77-2.03-1.11-3.21-0.43c-1.16,0.67-1.35,1.77-1.36,3
		c-0.01,0.72,0.29,0.81,0.9,0.8C25.69,85.85,27.24,85.87,28.79,85.87z M14.12,85.87c1.63,0,3.26,0.01,4.88-0.01
		c0.31,0,0.68,0.14,0.78-0.42c0.22-1.19-0.24-2.62-1.12-3.24c-1.06-0.74-1.97-0.69-3.3,0.23c-0.78,0.54-1.57,0.66-2.35,0.05
		c-0.96-0.75-1.97-1.07-3.11-0.46c-1.15,0.61-1.36,1.65-1.38,2.85c-0.02,0.86,0.3,1.03,1.07,1C11.09,85.83,12.61,85.87,14.12,85.87z
		 M109.07,107.47c1.9,0,3.79-0.02,5.69,0.01c0.58,0.01,0.88-0.11,0.8-0.76c-0.05-0.38-0.04-0.78,0-1.16
		c0.06-0.54-0.19-0.63-0.66-0.63c-3.87,0.02-7.74,0.02-11.61,0c-0.61,0-0.73,0.24-0.68,0.76c0.03,0.31,0.05,0.63,0,0.93
		c-0.12,0.75,0.21,0.89,0.9,0.87C105.35,107.44,107.21,107.47,109.07,107.47z M26.6,78.19c-0.35-2.05-2.28-3.03-3.87-1.89
		c-1.2,0.86-2.16,0.93-3.31-0.02c-0.78-0.64-1.76-0.59-2.63-0.09c-0.79,0.46-1.33,1.13-1.25,2.2c2.12-0.49,3.97-0.04,5.58,1.3
		c0.22,0.18,0.38,0.36,0.67,0.1C23.15,78.53,24.8,78.11,26.6,78.19z M69.77,107.47c0.58,0,1.16,0.01,1.74,0
		c0.21,0,0.55,0.09,0.57-0.21c0.05-0.69,0.16-1.43-0.02-2.07c-0.14-0.5-0.81-0.2-1.25-0.23c-0.66-0.04-1.33,0.06-1.97-0.03
		c-1.1-0.15-1.43,0.19-1.42,1.35c0.01,1.07,0.34,1.35,1.3,1.2C69.07,107.43,69.42,107.47,69.77,107.47z M59.54,18.46
		c-0.12,0.79-0.2,1.45,1.05,1.4c0.97-0.04,1.29-0.27,1.19-1.23c-0.08-0.76,0.16-1.51-1.12-1.42C59.73,17.27,59.27,17.44,59.54,18.46
		z M92.97,18.59c0.15-0.83,0.15-1.45-1.08-1.38c-0.93,0.05-1.29,0.21-1.2,1.2c0.07,0.82-0.15,1.56,1.18,1.45
		C92.84,19.78,93.22,19.56,92.97,18.59z"/>
	<path class="st0" d="M96.77,80.6c0,4.15,0,8.29,0,12.44c0,2.33-1.15,3.49-3.5,3.49c-3.95,0.01-7.91,0.01-11.86,0
		c-2.26-0.01-3.45-1.2-3.45-3.45c-0.01-8.29-0.01-16.59,0-24.88c0-2.31,1.19-3.48,3.52-3.48c3.95-0.01,7.91-0.01,11.86,0
		c2.26,0.01,3.43,1.17,3.43,3.43C96.77,72.3,96.77,76.45,96.77,80.6z M93.27,80.64c0-3.8-0.02-7.59,0.02-11.39
		c0.01-0.77-0.13-1.07-0.99-1.06c-3.29,0.05-6.59,0.05-9.88,0.01c-0.78-0.01-0.97,0.23-0.97,0.98c0.03,7.63,0.03,15.26,0,22.9
		c0,0.82,0.3,0.95,1.02,0.94c3.29-0.03,6.59-0.03,9.88,0.01c0.79,0.01,0.95-0.26,0.95-1C93.25,88.24,93.27,84.44,93.27,80.64z"/>
	<path class="st0" d="M87.4,103.51c-2.44,0-4.88,0.02-7.33-0.01c-1.6-0.02-2.51-1.25-1.92-2.5c0.31-0.66,0.85-1.02,1.56-1.02
		c5.08-0.01,10.15-0.03,15.23,0c1.1,0.01,1.81,0.79,1.81,1.73c0,1.03-0.79,1.76-2.03,1.78C92.29,103.53,89.84,103.51,87.4,103.51z"
		/>
	<path class="st0" d="M76.4,6.95c5.12,0,10.23,0,15.35,0c0.39,0,0.78-0.01,1.16,0.04c0.9,0.11,1.39,0.69,1.5,1.52
		c0.1,0.81-0.3,1.41-1.05,1.76c-0.43,0.21-0.9,0.2-1.36,0.2c-10.42,0-20.85,0-31.27,0c-0.43,0-0.85,0.01-1.25-0.17
		c-0.82-0.35-1.18-0.98-1.08-1.85c0.1-0.88,0.63-1.43,1.51-1.48c1.04-0.06,2.09-0.03,3.14-0.03C67.49,6.95,71.95,6.95,76.4,6.95z"/>
	<path class="st0" d="M31.49,22.98c-2.71,0.17-5.32-0.57-7.16-3.12c-1.51-2.09-1.75-4.44-1.08-6.85c0.74-2.67,3.08-4.29,5.83-4.19
		c0.53,0.02,0.88,0.12,1.01-0.63c0.14-0.83,0.84-1.29,1.71-1.27c0.87,0.03,1.52,0.5,1.64,1.36c0.09,0.66,0.39,0.56,0.84,0.55
		c3.44-0.1,5.99,2.2,6.26,5.63c0.39,4.82-2.67,8.3-7.5,8.53C32.63,23,32.2,22.98,31.49,22.98z M31.67,19.46c0-0.01,0-0.03,0-0.04
		c0.31,0,0.62,0,0.93,0c3.11-0.02,4.6-1.62,4.4-4.73c-0.13-2-2.17-3.07-3.76-1.88c-1.09,0.81-1.94,0.78-3.01-0.02
		c-1.27-0.95-3.05-0.42-3.53,1.07c-0.74,2.32,0.08,4.65,2.55,5.41C30.01,19.49,30.87,19.4,31.67,19.46z"/>
</g>
</svg>
