<?xml version="1.0" encoding="utf-8"?>
<!-- Generator: Adobe Illustrator 25.2.1, SVG Export Plug-In . SVG Version: 6.00 Build 0)  -->
<svg version="1.1" id="Layer_1" xmlns="http://www.w3.org/2000/svg" xmlns:xlink="http://www.w3.org/1999/xlink" x="0px" y="0px"
	 viewBox="0 0 101.18 108.36" style="enable-background:new 0 0 101.18 108.36;" xml:space="preserve">
<style type="text/css">
	.st0{fill:#E51675;}
</style>
<g>
	<g>
		<path class="st0" d="M101.17,108.36c-33.72,0-67.44,0-101.17,0c0-12.04,0-24.08,0-36.21c1.3,0,2.41,0,3.56,0
			c0.02-0.26,0.04-0.43,0.04-0.6c0-10.68,0.01-21.37-0.03-32.05c0-0.39-0.32-0.9-0.64-1.16c-1.87-1.51-2.91-3.41-2.93-5.83
			c-0.02-2.93-0.02-5.85,0.01-8.78c0-0.44,0.11-0.91,0.3-1.3C3.91,15.21,7.53,8.01,11.11,0.79C11.41,0.19,11.74,0,12.39,0
			c25.46,0.02,50.93,0.02,76.39,0c0.66,0,0.98,0.19,1.28,0.79c3.58,7.22,7.2,14.42,10.79,21.64c0.19,0.39,0.3,0.87,0.3,1.3
			c0.03,2.93,0.02,5.85,0.01,8.78c-0.01,2.37-0.99,4.31-2.87,5.73c-0.55,0.42-0.74,0.81-0.74,1.47c0.02,10.47,0.01,20.95,0.01,31.42
			c0,0.34,0,0.67,0,1.1c1.27,0,2.38,0,3.6,0C101.17,84.33,101.17,96.34,101.17,108.36z M97.49,75.97c-31.29,0-62.51,0-93.8,0
			c0,9.6,0,19.13,0,28.72c31.29,0,62.51,0,93.8,0C97.49,95.1,97.49,85.57,97.49,75.97z M59.58,57.79c0-1.75-0.01-3.33,0-4.92
			c0.01-2.61,1.09-4.53,3.57-5.58c0.32-0.14,0.6-0.55,0.74-0.9c0.44-1.17,0.81-2.38,1.23-3.64c1.19,0.41,2.31,0.78,3.46,1.17
			c-0.26,0.8-0.4,1.54-0.73,2.19c-0.55,1.09-0.29,1.77,0.87,2.15c0.34-0.22,0.67-0.55,1.06-0.64c1.01-0.25,1.33-0.99,1.58-1.87
			c0.28-1,0.66-1.97,1-3c1.21,0.41,2.29,0.78,3.44,1.16c-0.26,0.8-0.4,1.58-0.74,2.25c-0.54,1.06-0.28,1.71,0.89,2.08
			c0.36-0.22,0.74-0.58,1.2-0.71c0.83-0.23,1.14-0.8,1.36-1.54c0.31-1.07,0.69-2.12,1.07-3.25c1.21,0.41,2.31,0.79,3.45,1.18
			c-0.41,1.25-0.77,2.38-1.15,3.55c2.37,1.38,3.21,3.45,3.05,6.07c-0.09,1.39-0.02,2.79-0.02,4.29c1.9,0,3.65,0,5.51,0
			c0,4.85,0,9.58,0,14.28c1.23,0,2.34,0,3.48,0c0-10.8,0-21.51,0-32.31c-2.07-0.19-3.9-0.9-5.34-2.51c-1.54,1.53-3.28,2.44-5.4,2.46
			c-2.15,0.02-3.93-0.89-5.42-2.38c-3.09,2.83-7.06,3.52-10.92,0.03c-3.18,3.06-7.43,3.26-10.82-0.04
			c-3.2,3.19-7.62,3.21-10.83-0.04c-1.48,1.51-3.26,2.43-5.42,2.43c-2.14,0-3.92-0.9-5.4-2.45c-1.56,1.56-3.31,2.44-5.43,2.45
			c-2.14,0-3.92-0.93-5.42-2.43c-1.57,1.55-3.33,2.44-5.45,2.43c-2.15-0.01-3.91-0.94-5.39-2.42c-1.93,1.6-1.93,1.6-5.35,2.54
			c0,10.73,0,21.47,0,32.24c1.75,0,3.44,0,5.29,0c-1.56-2.16-1.87-4.5-1.78-6.94c0.08-2.26,1.58-3.75,3.82-3.79
			c0.48-0.01,0.96,0,1.67,0c-1.67-2.22-1.97-4.59-1.88-7.06c0.07-1.9,1.3-3.54,3-3.69c2.29-0.2,4.59-0.19,6.68,1.02
			c0.51,0.29,1,0.61,1.5,0.91c1.52-2.34,3.83-2.59,7.44-1.61c5.24,1.42,7,5.44,6.74,10.57c5.29,1.6,7.51,5.29,7.22,10.58
			c2.47,0,4.8,0,7.22,0c0-4.8,0-9.51,0-14.32C56.01,57.79,57.73,57.79,59.58,57.79z M57.86,72.12c9.62,0,19.18,0,28.73,0
			c0-3.59,0-7.1,0-10.64c-9.61,0-19.15,0-28.73,0C57.86,65.05,57.86,68.56,57.86,72.12z M43.28,25.19c0-7.25,0-14.37,0-21.5
			c-2.39,0-4.7,0-7.05,0c0,7.19,0,14.32,0,21.5C38.61,25.19,40.91,25.19,43.28,25.19z M54.1,25.2c0-7.26,0-14.39,0-21.51
			c-2.4,0-4.71,0-7.05,0c0,7.2,0,14.33,0,21.51C49.43,25.2,51.75,25.2,54.1,25.2z M57.87,25.16c2.39,0,4.72,0,7.05,0
			c0-7.21,0-14.33,0-21.48c-2.38,0-4.69,0-7.05,0C57.87,10.87,57.87,17.99,57.87,25.16z M3.48,25.24c2.45,0,4.6-0.04,6.74,0.02
			c0.81,0.02,1.16-0.21,1.38-1.01c1.82-6.52,3.7-13.03,5.55-19.54c0.09-0.32,0.15-0.66,0.24-1.08c-0.98,0-1.86,0.05-2.73-0.02
			c-0.68-0.05-0.99,0.24-1.27,0.81c-3.12,6.3-6.28,12.58-9.4,18.88C3.73,23.83,3.68,24.46,3.48,25.24z M83.81,3.63
			c0.03,0.29,0.03,0.46,0.08,0.62c1.93,6.75,3.88,13.49,5.78,20.24c0.17,0.61,0.45,0.77,1.02,0.76c1.62-0.03,3.24-0.01,4.86-0.01
			c0.65,0,1.31,0,2.11,0c-0.14-0.71-0.13-1.27-0.35-1.71c-3.2-6.46-6.43-12.9-9.67-19.33c-0.12-0.24-0.42-0.53-0.65-0.54
			C85.95,3.59,84.91,3.63,83.81,3.63z M25,3.62c-1.05,0-1.99,0.04-2.94-0.01c-0.61-0.03-0.85,0.19-1.01,0.76
			c-1.9,6.72-3.83,13.44-5.75,20.16c-0.06,0.2-0.01,0.44-0.01,0.71c2.02,0,3.96-0.02,5.89,0.01c0.58,0.01,0.78-0.19,0.85-0.78
			c0.2-1.75,0.48-3.48,0.73-5.22C23.5,14.1,24.24,8.96,25,3.62z M86.08,25.23c-2.08-7.29-4.13-14.43-6.16-21.55
			c-1.3,0-2.48,0-3.73,0c0.22,1.52,0.42,2.98,0.63,4.44c0.78,5.5,1.55,11,2.36,16.49c0.03,0.23,0.35,0.59,0.53,0.59
			C81.78,25.25,83.85,25.23,86.08,25.23z M32.43,3.62c-1.01,0-1.92,0.04-2.83-0.01c-0.71-0.04-0.99,0.19-1.05,0.93
			c-0.1,1.22-0.32,2.44-0.49,3.66c-0.81,5.64-1.62,11.27-2.44,16.98c2.28,0,4.52,0,6.81,0C32.43,18,32.43,10.89,32.43,3.62z
			 M68.77,3.62c0,7.25,0,14.39,0,21.53c2.3,0,4.53,0,6.78,0c-0.35-2.49-0.69-4.89-1.03-7.3c-0.64-4.53-1.27-9.05-1.95-13.58
			c-0.04-0.24-0.39-0.61-0.62-0.62C70.9,3.59,69.85,3.62,68.77,3.62z M46.99,29.02c0,0.44,0,0.82,0,1.2
			c0.01,0.88-0.05,1.77,0.04,2.64c0.2,1.87,1.64,3.16,3.46,3.2c1.88,0.05,3.43-1.2,3.64-3.11c0.14-1.28,0.03-2.58,0.03-3.93
			C51.78,29.02,49.47,29.02,46.99,29.02z M57.75,29.02c0.07,1.49,0.03,2.89,0.23,4.27c0.26,1.73,1.79,2.83,3.57,2.77
			c1.73-0.05,3.24-1.31,3.4-3.01c0.12-1.31,0.02-2.65,0.02-4.03C62.59,29.02,60.28,29.02,57.75,29.02z M90.37,29.01
			c0,1.35-0.05,2.58,0.01,3.8c0.08,1.68,1.43,3.04,3.08,3.21c1.84,0.19,3.56-0.81,3.86-2.51c0.26-1.46,0.2-2.97,0.29-4.51
			C95.1,29.01,92.79,29.01,90.37,29.01z M36.2,29.02c0,1.38-0.09,2.71,0.02,4.02c0.14,1.62,1.55,2.87,3.18,3
			c1.75,0.14,3.41-0.82,3.72-2.43c0.28-1.49,0.23-3.04,0.32-4.59C40.91,29.02,38.6,29.02,36.2,29.02z M10.8,29.02
			c-2.44,0-4.74,0-7.23,0c0.07,1.49,0.03,2.93,0.24,4.33c0.27,1.75,1.88,2.82,3.72,2.7c1.72-0.12,3.15-1.45,3.25-3.16
			C10.86,31.63,10.8,30.37,10.8,29.02z M75.78,29.05c-2.43,0-4.73,0-7.02,0c0,1.42-0.1,2.76,0.02,4.09
			c0.16,1.72,1.75,2.96,3.55,2.93c1.73-0.03,3.29-1.32,3.42-2.97C75.86,31.77,75.78,30.43,75.78,29.05z M25.36,29.02
			c0,0.37,0,0.62,0,0.86c0,0.95-0.02,1.9,0.02,2.85c0.07,1.66,1.31,3.05,2.88,3.28c1.84,0.27,3.6-0.62,3.97-2.33
			c0.32-1.5,0.23-3.09,0.32-4.66C30.03,29.02,27.75,29.02,25.36,29.02z M14.56,29.01c0,1.38-0.07,2.65,0.02,3.9
			c0.12,1.73,1.45,2.99,3.15,3.12c1.82,0.14,3.53-0.91,3.78-2.63c0.21-1.43,0.04-2.91,0.04-4.4C19.21,29.01,16.93,29.01,14.56,29.01
			z M79.56,29.01c0,1.35-0.04,2.58,0.01,3.81c0.07,1.64,1.37,3,2.96,3.2c1.84,0.23,3.59-0.71,3.92-2.42
			c0.29-1.48,0.19-3.04,0.27-4.59C84.22,29.01,81.95,29.01,79.56,29.01z M36.03,61.3c0.71-5.47-3.32-7.7-6.99-6.97
			C28.29,59.37,31.88,61.98,36.03,61.3z M36.25,65.13c-0.75,5.44,3.4,7.82,7.06,6.89C43.7,67.26,40.89,64.49,36.25,65.13z
			 M18.22,54.26c-0.81,5.47,3.3,7.77,6.94,6.99C25.76,56.55,23.06,53.79,18.22,54.26z M25.49,65.14c-0.9,4.51,2.62,8.01,6.93,6.9
			C33.1,66.96,29.48,64.47,25.49,65.14z M21.56,72.11c0.8-5.48-3.48-7.74-6.96-6.9C13.96,69.86,16.76,72.66,21.56,72.11z
			 M63.27,57.7c1.24,0,2.37,0,3.51,0c0-1.87,0.07-3.66-0.03-5.44c-0.06-1.05-0.93-1.72-1.83-1.65c-0.93,0.07-1.63,0.81-1.65,1.85
			C63.25,54.18,63.27,55.9,63.27,57.7z M74.05,57.76c0-1.85,0.05-3.61-0.02-5.35c-0.04-1.06-0.84-1.82-1.73-1.79
			c-0.9,0.03-1.67,0.51-1.72,1.41c-0.11,1.91-0.03,3.82-0.03,5.74C71.74,57.76,72.82,57.76,74.05,57.76z M81.16,57.76
			c0-1.95,0.08-3.9-0.03-5.84c-0.05-0.87-0.84-1.32-1.68-1.29c-0.89,0.03-1.62,0.56-1.66,1.47c-0.09,1.88-0.03,3.76-0.03,5.66
			C78.93,57.76,80.01,57.76,81.16,57.76z"/>
		<path class="st0" d="M51.81,88.32c0.86-1.19,1.63-2.28,2.41-3.36c2.63-3.66,6.38-4.67,10.48-2.81c0.09,0.04,0.2,0.06,0.42,0.13
			c1.27-1.34,2.57-2.72,3.82-4.06c0.95,0.96,1.79,1.8,2.72,2.75c-1.22,1.15-2.55,2.4-4.08,3.85c1.71,0,3.13,0,4.63,0
			c0,1.25,0,2.38,0,3.62c-1.12,0-2.23,0-3.43,0c-0.07,0.37-0.16,0.67-0.19,0.96c-0.25,2.5-1.45,4.45-3.63,5.61
			c-3.69,1.97-7.44,3.84-11.22,5.64c-1.98,0.94-4.19,0.63-6.26,0.4c-5.84-0.64-10.12-4.69-11.16-10.47
			c-0.26-1.47-0.2-3.02-0.11-4.53c0.09-1.49,1.34-2.74,2.9-2.91c4.73-0.54,8.85,0.7,12.06,4.4C51.38,87.77,51.55,87.99,51.81,88.32z
			 M39.87,86.82C39.04,94,44.92,98.38,50.51,97.33C51.19,91.03,46.55,85.98,39.87,86.82z M54.35,96.28c0.89-0.44,1.8-0.87,2.7-1.32
			c2.07-1.05,4.17-2.04,6.18-3.18c1.48-0.84,2.07-2.58,1.63-4.09c-0.44-1.48-1.41-2.4-2.94-2.69c-1.69-0.32-3.17,0.06-4.24,1.46
			c-1.25,1.65-2.44,3.36-3.63,5.06c-0.17,0.24-0.31,0.59-0.27,0.86C53.93,93.66,54.14,94.92,54.35,96.28z"/>
		<path class="st0" d="M61.39,68.58c0-1.07,0-2.02,0-2.96c0-0.17,0.03-0.34,0.05-0.57c7.22,0,14.39,0,21.64,0c0,1.17,0,2.32,0,3.53
			C75.86,68.58,68.69,68.58,61.39,68.58z"/>
	</g>
</g>
</svg>
