<?xml version="1.0" encoding="utf-8"?>
<!-- Generator: Adobe Illustrator 25.2.1, SVG Export Plug-In . SVG Version: 6.00 Build 0)  -->
<svg version="1.1" id="Layer_1" xmlns="http://www.w3.org/2000/svg" xmlns:xlink="http://www.w3.org/1999/xlink" x="0px" y="0px"
	 viewBox="0 0 140.53 140.59" style="enable-background:new 0 0 140.53 140.59;" xml:space="preserve">
<style type="text/css">
	.st0{fill:#EECE38;}
</style>
<g>
	<g>
		<path class="st0" d="M41.92,23.54c0.11-0.42,0.34-0.84,0.31-1.24c-0.42-4.55-0.81-9.11-1.35-13.65c-0.5-4.25,1.17-7.32,4.75-8.35
			c4.58-1.32,8.95,1.9,8.71,6.64c-0.23,4.47-0.82,8.91-1.25,13.37c-0.07,0.75-0.18,1.5-0.16,2.26c0.01,0.34,0.27,0.67,0.42,1
			c0.12-0.03,0.24-0.07,0.36-0.1c1.51-4.15,2.99-8.3,4.54-12.43c1.22-3.26,3.96-5.03,7.21-4.79c3.35,0.25,6.16,2.55,6.9,5.75
			c0.48,2.09,0,4-1.21,5.77c-2.32,3.38-4.61,6.79-6.91,10.18c-0.26,0.39-0.51,0.78-0.79,1.2c5.81,6.03,7.85,13.16,6.28,21.63
			c5.48-6.72,12.22-8.86,20.55-6.53c0-0.71,0-1.34,0-1.98c0.03-3.96-0.06-7.93,0.11-11.89c0.29-6.58,6.83-12.44,13.43-12.1
			c0,1.42,0,2.85,0,4.36c-0.82,0.17-1.7,0.3-2.54,0.55c-3.82,1.15-6.36,4.55-6.4,8.55c-0.02,1.63,0,3.25,0,4.74
			c1.7-1.5,3.26-3.14,5.07-4.43c2.47-1.77,5.33-2.52,8.39-2.5c3.77,0.02,7.53,0.01,11.39,0.01c0.5,6.31-1.63,11.35-6.63,15.26
			c7.02,4.37,10.72,10.9,12.79,18.73c2.99,0,6.06,0.17,9.09-0.04c3.52-0.25,5.89,2.23,5.53,5.5c-0.13,1.17-0.01,2.36-0.02,3.54
			c-0.03,2.72-1.91,4.57-4.66,4.6c-1.41,0.01-2.82,0-4.4,0c0,0.64,0,1.19,0,1.74c0,13.64,0,27.28,0,40.92
			c0,6.89-4.85,11.72-11.77,11.72c-21.43,0-42.85,0.01-64.28-0.02c-1.01,0-1.75,0.26-2.51,0.94c-6.71,5.97-14.58,8.61-23.53,8.11
			c-13.76-0.76-26.35-11.91-28.73-25.51c-1.88-10.75,0.79-20.18,8.3-28.14c1.27-1.35,2.89-2.38,4.45-3.64
			c-4.81-3.77-7.04-8.78-6.45-15.11c4.45,0,8.91,0,13.41,0c0.64-4.8,4.1-4.83,7.86-4.56c-0.57-2.78-1.17-5.37-1.64-7.98
			c-0.58-3.24-1.35-6.48-1.52-9.74c-0.31-6.07,1.93-11.33,5.97-15.84c0.25-0.28,0.5-0.56,0.78-0.87c-2.58-3.81-5.13-7.61-7.71-11.37
			c-1.21-1.77-1.7-3.68-1.21-5.77c0.74-3.19,3.56-5.5,6.9-5.75c3.25-0.24,5.98,1.52,7.21,4.79c1.55,4.13,3.03,8.29,4.54,12.44
			C41.62,23.49,41.77,23.52,41.92,23.54z M29.41,86.17c-2.55,0-4.96,0.14-7.35-0.03c-4.45-0.33-7.91,1.57-10.69,4.75
			c-5.52,6.32-7.73,13.75-6.51,22.04c2.17,14.75,16.05,25.08,30.81,22.74c10.47-1.66,17.86-7.67,21.5-17.66
			c3.63-9.95,1.65-19.12-5.17-27.18c-2.5-2.95-5.85-4.58-9.73-4.33c-2.76,0.18-5.48,1.03-8.23,1.59c0,1.57,0,2.88,0,4.57
			c1.85-1.2,3.52-2.29,5.23-3.41c0.95,0.97,1.96,2,2.98,3.04c-6.76,6.95-14.32,6.97-21.01,0.06c0.99-1.07,1.97-2.13,2.88-3.11
			c1.75,1.13,3.42,2.21,5.27,3.42C29.41,90.3,29.41,88.33,29.41,86.17z M34.05,83.53c0.56-0.17,1.01-0.28,1.44-0.44
			c8.33-3.03,16.09-0.71,21.39,6.46c0.62,0.84,1.24,1.19,2.31,1.19c22.04-0.04,44.08-0.03,66.12-0.03c0.5,0,0.99,0,1.59,0
			c0-6.13,0-12.06,0-18.15c3.05,0,5.99,0,8.92,0c0-1.59,0-3.02,0-4.45c-33.89,0-67.67,0-101.63,0c-0.09,1.48-0.18,2.91-0.28,4.5
			c29.59,0,58.96,0,88.31,0c0,1.59,0,3.02,0,4.55c-29.45,0-58.79,0-88.19,0C34.05,79.28,34.05,81.3,34.05,83.53z M37.46,62.98
			c0.05,0.15,0.1,0.31,0.15,0.46c8.22,0,16.43,0,24.72,0c0.98-4.74,1.93-9.44,2.93-14.13c2.62-12.31-7.55-23.39-20.06-21.83
			c-9.77,1.22-16.94,10.45-15.53,20.12c0.42,2.88,1.1,5.72,1.67,8.58c0.35,1.76,0.73,3.52,1.14,5.49c2.97-3.17,6.28-4.97,10.5-4.94
			c0,1.58,0,3.02,0,4.17C41.03,61.64,39.25,62.31,37.46,62.98z M57.75,126.96c0.84,0,1.36,0,1.87,0c11.56,0,23.12,0,34.68,0
			c8.45,0,16.89,0.01,25.34-0.01c3.77-0.01,6.6-2.16,7.06-5.78c0.32-2.53,0.06-5.14,0.06-7.74c-21.22,0-42.38,0-63.62,0
			C62.4,118.3,60.62,122.71,57.75,126.96z M126.78,108.79c0-4.58,0-9.03,0-13.48c-22.1,0-44.1,0-66.29,0
			c1.96,4.35,2.91,8.81,3,13.48C84.64,108.79,105.66,108.79,126.78,108.79z M68.56,63.45c17.54,0,34.93,0,52.37,0
			c-0.01-0.26,0.02-0.45-0.04-0.62c-1.27-4.33-3.38-8.19-6.6-11.36c-2.27-2.23-4.95-3.81-8.24-3.87c-3.3-0.06-6.6,0.03-9.91,0.06
			c-0.41,0-0.81,0.05-1.22,0.08c0,2.08,0,4.04,0,6.37c1.84-1.21,3.47-2.28,5.16-3.39c0.97,0.99,1.98,2.02,3,3.05
			c-6.71,6.85-14.28,7.05-21.03,0.01c1.01-1.05,2.02-2.1,2.94-3.06c1.7,1.1,3.36,2.17,5.27,3.41c0-1.71,0.07-2.94-0.04-4.16
			c-0.03-0.39-0.44-0.93-0.8-1.07c-5.12-1.94-9.88-1.25-13.93,2.45C71.96,54.58,69.84,58.72,68.56,63.45z M29.26,81.9
			c-1.16-4.55-3.6-7.65-7.76-8.65c-3.14-0.76-6.5-0.64-9.98-0.92c1.19,4.61,3.67,7.71,7.9,8.69C22.53,81.74,25.83,81.62,29.26,81.9z
			 M97.45,43.09c2.44,0,4.81,0.18,7.14-0.04c4.83-0.45,8.2-2.99,9.92-7.58c0.16-0.43,0.21-0.9,0.32-1.4c-2.36,0-4.48-0.05-6.6,0.01
			C102.88,34.24,98.31,38.03,97.45,43.09z M37.21,25.2c-1.57-4.31-3.07-8.46-4.61-12.59c-0.52-1.38-1.59-1.99-2.84-1.76
			c-2.25,0.42-3.17,2.44-1.9,4.34c2.3,3.45,4.65,6.86,6.98,10.28c0.18,0.26,0.4,0.48,0.64,0.75C36.07,25.87,36.58,25.57,37.21,25.2z
			 M59.79,26.28c2.64-3.9,5.24-7.65,7.74-11.46c0.92-1.4,0.36-2.82-1.21-3.62c-1.54-0.79-2.97-0.35-3.67,1.14
			c-0.2,0.42-0.34,0.88-0.5,1.32c-1.39,3.83-2.78,7.66-4.19,11.54C58.59,25.57,59.11,25.87,59.79,26.28z M48.14,22.61
			c0.06-0.3,0.14-0.58,0.17-0.85c0.51-4.91,1.03-9.82,1.49-14.73c0.14-1.45-0.92-2.47-2.32-2.42c-1.41,0.05-2.26,1.1-2.1,2.58
			c0.17,1.59,0.34,3.18,0.49,4.77c0.32,3.18,0.61,6.36,0.94,9.54C46.89,22.17,46.86,23.05,48.14,22.61z M29.42,72.48
			c0-1.51,0-2.92,0-4.38c-1.52,0-2.95,0-4.75,0c0.32,0.69,0.42,1.39,0.81,1.7C26.69,70.75,28.01,71.54,29.42,72.48z"/>
	</g>
	<g>
		<path class="st0" d="M31.66,126.99c0,1.5,0,2.9,0,4.3c-9.85,1.01-22.84-8.51-22.51-22.36c1.43,0,2.86,0,4.42,0
			c0.19,4.9,1.88,9.19,5.36,12.68C22.42,125.09,26.72,126.78,31.66,126.99z"/>
	</g>
	<g>
		<path class="st0" d="M117.94,81.68c1.48,0,2.84,0,4.3,0c0,1.45,0,2.88,0,4.4c-1.4,0-2.83,0-4.3,0
			C117.94,84.6,117.94,83.14,117.94,81.68z"/>
	</g>
	<g>
		<path class="st0" d="M58.81,40.79c-1.51,0-2.9,0-4.36,0c0-1.46,0-2.85,0-4.35c1.41,0,2.84,0,4.36,0
			C58.81,37.84,58.81,39.27,58.81,40.79z"/>
	</g>
	<g>
		<path class="st0" d="M54.45,49.84c0-1.45,0-2.85,0-4.34c1.42,0,2.85,0,4.37,0c0,1.41,0,2.84,0,4.34
			C57.4,49.84,56.01,49.84,54.45,49.84z"/>
	</g>
	<g>
		<path class="st0" d="M54.46,54.52c1.47,0,2.86,0,4.35,0c0,1.44,0,2.86,0,4.38c-1.43,0-2.85,0-4.35,0
			C54.46,57.47,54.46,56.07,54.46,54.52z"/>
	</g>
	<g>
		<path class="st0" d="M117.88,122.33c0-1.5,0-2.89,0-4.36c1.45,0,2.85,0,4.35,0c0,1.4,0,2.83,0,4.36
			C120.84,122.33,119.42,122.33,117.88,122.33z"/>
	</g>
	<g>
		<path class="st0" d="M122.28,99.85c0,1.45,0,2.85,0,4.34c-1.42,0-2.85,0-4.37,0c0-1.41,0-2.84,0-4.34
			C119.32,99.85,120.72,99.85,122.28,99.85z"/>
	</g>
</g>
</svg>
