<?xml version="1.0" encoding="utf-8"?>
<!-- Generator: Adobe Illustrator 25.2.1, SVG Export Plug-In . SVG Version: 6.00 Build 0)  -->
<svg version="1.1" id="Layer_1" xmlns="http://www.w3.org/2000/svg" xmlns:xlink="http://www.w3.org/1999/xlink" x="0px" y="0px"
	 viewBox="0 0 131.57 131.5" style="enable-background:new 0 0 131.57 131.5;" xml:space="preserve">
<style type="text/css">
	.st0{fill:#EECE38;}
</style>
<g>
	<g>
		<path class="st0" d="M0,113.76c0.78-2.14,1.26-4.46,2.41-6.38c3.03-5.06,7.64-7.66,13.6-7.74c1.37-0.02,2.73,0,4.2,0
			c0-19.07,0-38.09,0-57.31c-0.54,0-1.12,0.04-1.69-0.01c-1.25-0.09-2.08-0.94-2.05-2.03c0.03-1.04,0.82-1.8,2.03-1.91
			c0.38-0.04,0.77-0.02,1.15-0.02c19.21,0,38.43,0,57.64,0c0.47,0,0.95-0.02,1.41,0.06c1.06,0.18,1.69,0.78,1.7,1.91
			c0.01,1.13-0.64,1.75-1.67,1.95c-0.66,0.13-1.35,0.08-2.09,0.12c0,19.06,0,38.04,0,57.14c2.95,0,5.9,0,9,0c0-0.53,0-1.03,0-1.53
			c0-6.93,0-13.86,0-20.8c0-2.42,0.55-2.97,2.91-2.97c7.83,0,15.66,0,23.49,0c2.35,0,2.92,0.58,2.92,2.98c0,6.93,0,13.86,0,20.8
			c0,0.5,0,1,0,1.6c2.86-0.05,5.45,0.52,7.89,1.77c5.91,3.04,9.53,9.86,8.55,16.19c-1.1,7.12-6.24,12.49-13.09,13.66
			c-0.8,0.14-1.61,0.23-2.42,0.23c-20.84,0.01-41.68,0.01-62.52,0.01c-1.72,0-2.8-0.99-2.46-2.3c0.29-1.09,1.04-1.57,2.19-1.56
			c3.89,0.03,7.78,0.01,11.76,0.01c0-3.33,0-6.6,0-9.96c-10.95,0-21.92,0-32.98,0c0,3.27,0,6.54,0,9.96c2.14,0,4.26,0,6.39,0
			c1.8,0,3.59-0.01,5.39,0c1.35,0.01,2.24,0.82,2.21,1.96c-0.03,1.1-0.89,1.88-2.16,1.88c-9.59,0.01-19.17,0.07-28.76-0.02
			c-7.02-0.07-13.63-6.14-14.72-13.28c-0.04-0.28-0.17-0.54-0.26-0.82C0,116.16,0,114.96,0,113.76z M24.27,127.56
			c1.23,0,2.36,0,3.62,0c0-0.53,0-0.99,0-1.45c0-3.34-0.01-6.68,0.01-10.01c0.01-1.77,0.65-2.47,2.37-2.48
			c12.07-0.02,24.13-0.02,36.2,0c1.74,0,2.37,0.7,2.38,2.45c0.01,3.38,0,6.76,0,10.14c0,0.45,0,0.9,0,1.35c1.37,0,2.55,0,3.75,0
			c0-25.85,0-51.63,0-77.44c-16.14,0-32.2,0-48.34,0C24.27,75.94,24.27,101.68,24.27,127.56z M76.65,123.78c0,1.4,0,2.58,0,3.75
			c0.21,0.04,0.33,0.09,0.45,0.09c12.92,0,25.85,0.13,38.77-0.05c7.61-0.11,12.88-6.97,11.49-14.42c-1.05-5.61-6.1-9.64-12.24-9.65
			c-12.5-0.03-24.99-0.01-37.49,0c-0.33,0-0.65,0.06-1.01,0.09c0,1.26,0,2.44,0,3.76c0.56,0,1.06,0,1.56,0
			c12.32,0,24.65,0,36.97,0.01c0.72,0,1.46,0.03,2.16,0.19c4.29,0.99,6.96,4.84,6.42,9.16c-0.51,4.04-4.04,7.07-8.3,7.07
			c-12.41,0.01-24.82,0-37.23,0C77.72,123.78,77.21,123.78,76.65,123.78z M89.64,99.56c7.17,0,14.21,0,21.27,0
			c0-7.15,0-14.23,0-21.36c-1.51,0-2.94,0-4.52,0c0,0.53,0,0.99,0,1.45c0,3.04,0.03,6.07-0.02,9.11c-0.03,1.84-1.68,2.72-3.11,1.63
			c-2.03-1.55-3.91-1.54-5.94,0.01c-1.37,1.05-3.03,0.19-3.08-1.54c-0.06-2.48-0.02-4.96-0.02-7.44c0-1.05,0-2.11,0-3.19
			c-1.63,0-3.09,0-4.58,0C89.64,85.39,89.64,92.43,89.64,99.56z M24.28,45.96c16.2,0,32.26,0,48.34,0c0-1.24,0-2.37,0-3.56
			c-16.13,0-32.2,0-48.34,0C24.28,43.61,24.28,44.74,24.28,45.96z M89.41,119.88c6.46,0,12.7,0,19.1,0
			c-1.57-2.9-1.52-5.76-0.02-8.65c-6.41,0-12.65,0-19.04,0C90.98,114.11,91.05,116.94,89.41,119.88z M20.24,123.78
			c-1.56,0-2.97,0.01-4.38,0c-4.46-0.04-8.13-3.75-8.13-8.21c0-4.47,3.66-8.17,8.13-8.21c1.44-0.01,2.88,0,4.36,0
			c0-1.35,0-2.56,0-3.82c-1.66,0-3.24-0.1-4.8,0.02c-8.45,0.6-13.78,8.95-10.5,16.63c2.78,6.49,8.61,8.17,15.32,7.28
			C20.24,126.27,20.24,125.09,20.24,123.78z M20.3,115.53c-0.01-2.36-2.01-4.34-4.35-4.32c-2.37,0.03-4.29,2-4.27,4.39
			c0.02,2.38,2,4.35,4.34,4.32C18.37,119.89,20.31,117.89,20.3,115.53z M78.06,115.51c-0.03,2.35,1.92,4.37,4.26,4.41
			c2.33,0.04,4.34-1.93,4.37-4.3c0.04-2.36-1.91-4.36-4.27-4.4C80.11,111.17,78.09,113.16,78.06,115.51z M111.23,115.53
			c-0.03,2.32,1.98,4.36,4.31,4.39c2.31,0.02,4.36-1.99,4.38-4.32c0.02-2.32-1.99-4.36-4.32-4.38
			C113.29,111.19,111.26,113.19,111.23,115.53z M102.37,85.38c0-2.38,0-4.78,0-7.18c-1.46,0-2.8,0-4.2,0c0,2.47,0,4.87,0,7.18
			C99.6,85.38,100.94,85.38,102.37,85.38z"/>
	</g>
	<g>
		<path class="st0" d="M105.03,0c1.71,1.34,0.82,3.31,1.17,5.14c0.48,0,0.93,0,1.39,0c7.1,0,14.21,0,21.31,0
			c2.01,0,2.57,0.57,2.58,2.59c0,2.27,0.01,4.54,0,6.8c-0.01,1.51-0.66,2.19-2.17,2.23c-1.19,0.04-2.38,0.01-3.79,0.01
			c0,1.71,0,3.31,0,4.91c-0.01,2.28-0.63,2.91-2.89,2.91c-4.96,0-9.93,0-14.89,0c-0.47,0-0.94,0-1.62,0c0,0.83,0,1.57,0,2.32
			c-0.01,2.24-0.56,2.79-2.8,2.81c-0.3,0-0.6,0-1,0c0,4.64,0,9.23,0,14.02c1.5,0,3.02,0.03,4.54-0.01c1.1-0.03,1.96,0.31,2.75,1.1
			c2.2,2.22,4.43,4.4,6.69,6.56c0.77,0.74,1.09,1.54,1.08,2.61c-0.04,4.19-0.01,8.39-0.02,12.58c0,1.9-0.64,2.55-2.52,2.57
			c-2.18,0.02-4.37,0.02-6.55,0c-1.56-0.01-2.49-0.79-2.45-1.99c0.04-1.21,0.96-1.91,2.54-1.92c1.62-0.01,3.25,0,4.97,0
			c0.04-0.39,0.11-0.71,0.11-1.03c0.01-3.04,0.04-6.08-0.03-9.11c-0.01-0.56-0.31-1.24-0.7-1.65c-1.66-1.73-3.38-3.4-5.13-5.03
			c-0.39-0.36-1.02-0.65-1.54-0.66c-3.89-0.05-7.79-0.05-11.68-0.01c-0.45,0-1,0.23-1.33,0.54c-1.84,1.72-3.65,3.49-5.43,5.28
			c-0.27,0.27-0.52,0.71-0.53,1.07c-0.04,3.46-0.02,6.93-0.02,10.6c1.69,0,3.34-0.02,4.99,0.01c0.5,0.01,1.19-0.02,1.46,0.27
			c0.5,0.54,1.1,1.35,1.01,1.95c-0.08,0.6-0.93,1.52-1.49,1.56c-2.73,0.16-5.47,0.13-8.21,0.06c-1.03-0.03-1.62-0.77-1.63-1.8
			c-0.02-4.71-0.03-9.41,0.03-14.12c0.01-0.52,0.39-1.13,0.78-1.52c2.35-2.37,4.71-4.73,7.17-6.99c0.56-0.52,1.5-0.79,2.29-0.86
			c1.56-0.13,3.14-0.04,4.78-0.04c0-4.72,0-9.28,0-13.9c-1.23-0.33-2.95,0.35-3.48-1.26c-0.39-1.17-0.26-2.51-0.38-4
			c-0.48,0-1.01,0-1.55,0c-27.86,0-55.72,0-83.58,0c-2.78,0-3.27-0.49-3.27-3.3c0-1.37-0.01-2.74-0.03-4.11
			c0-0.08-0.06-0.16-0.15-0.41c-0.95,0-1.97-0.05-2.98,0.01C1.68,16.86,0.72,16.58,0,15.67c0-3.17,0-6.33,0-9.5
			c0.56-0.34,1.12-0.95,1.69-0.97C5.07,5.1,8.45,5.11,11.83,5.18c1.03,0.02,1.61,0.83,1.63,1.83c0.02,1.06-0.55,1.79-1.64,1.96
			c-0.46,0.07-0.94,0.02-1.41,0.02c-2.16,0-4.33,0-6.45,0c0,1.4,0,2.61,0,3.8c30.21,0,60.31,0,90.45,0c0-1.29,0-2.5,0-3.8
			c-0.59,0-1.1,0-1.61,0c-23.75,0-47.49,0-71.24,0c-0.43,0-0.87,0.05-1.28-0.03c-1.01-0.19-1.57-0.85-1.58-1.88
			c-0.01-1.03,0.54-1.7,1.54-1.91c0.45-0.09,0.94-0.04,1.41-0.04c23.75,0,47.49,0,71.24,0c0.5,0,1,0,1.52,0
			c0.33-1.82-0.54-3.77,1.13-5.14C98.7,0,101.87,0,105.03,0z M10.03,20.5c28.21,0,56.29,0,84.35,0c0-1.28,0-2.45,0-3.65
			c-28.16,0-56.21,0-84.35,0C10.03,18.09,10.03,19.27,10.03,20.5z M102.11,25.68c0-7.26,0-14.52,0-21.76c-1.29,0-2.47,0-3.7,0
			c0,7.28,0,14.48,0,21.76C99.66,25.68,100.84,25.68,102.11,25.68z M127.58,9.06c-7.18,0-14.26,0-21.38,0c0,1.29,0,2.5,0,3.73
			c7.17,0,14.25,0,21.38,0C127.58,11.53,127.58,10.35,127.58,9.06z M106.2,16.84c0,1.31,0,2.49,0,3.67c5.15,0,10.21,0,15.22,0
			c0-1.29,0-2.46,0-3.67C116.31,16.84,111.32,16.84,106.2,16.84z"/>
	</g>
	<g>
		<path class="st0" d="M48.28,53.68c5.99,0,11.98,0,17.97,0c2.01,0,2.6,0.58,2.6,2.58c0.01,4.79,0.01,9.59,0,14.38
			c0,1.93-0.61,2.55-2.51,2.55c-11.98,0-23.97,0-35.95,0c-1.82,0-2.48-0.64-2.49-2.46c-0.02-4.88-0.02-9.76,0-14.64
			c0.01-1.8,0.67-2.41,2.53-2.41C36.38,53.67,42.33,53.68,48.28,53.68z M31.9,69.24c11.07,0,22.03,0,32.97,0c0-3.94,0-7.8,0-11.64
			c-11.04,0-21.97,0-32.97,0C31.9,61.49,31.9,65.32,31.9,69.24z"/>
	</g>
	<g>
		<path class="st0" d="M55.19,99.04c2.86,0,5.73-0.02,8.59,0c1.69,0.01,2.47,0.63,2.49,1.91c0.02,1.32-0.84,2-2.54,2
			c-5.81,0-11.62-0.01-17.44,0.01c-1.13,0-2.06-0.29-2.37-1.49c-0.36-1.38,0.53-2.4,2.17-2.42C49.12,99.02,52.16,99.04,55.19,99.04z
			"/>
	</g>
	<g>
		<path class="st0" d="M61.63,87.55c-0.89,0-1.79,0.04-2.68-0.01c-1.13-0.07-1.94-0.96-1.91-2c0.03-0.99,0.81-1.82,1.9-1.85
			c1.83-0.05,3.66-0.05,5.49,0.01c1.12,0.04,1.82,0.85,1.82,1.9c0,1.04-0.72,1.86-1.81,1.94C63.51,87.6,62.57,87.55,61.63,87.55z"/>
	</g>
	<g>
		<path class="st0" d="M61.76,95.25c-0.86,0-1.71,0.03-2.57-0.01c-1.24-0.05-2.12-0.88-2.12-1.96c0-1.03,0.82-1.88,2-1.92
			c1.75-0.06,3.51-0.06,5.26,0c1.26,0.04,1.94,0.79,1.94,1.92c0,1.15-0.78,1.91-2.07,1.95C63.38,95.28,62.57,95.25,61.76,95.25z"/>
	</g>
	<g>
		<path class="st0" d="M35.11,95.25c-0.86,0-1.71,0.03-2.57-0.01c-1.22-0.05-1.98-0.79-2.01-1.89c-0.03-1.14,0.64-1.93,1.88-1.98
			c1.79-0.06,3.59-0.06,5.39,0c1.17,0.04,1.98,0.94,1.93,1.98c-0.05,1.03-0.9,1.84-2.06,1.89C36.83,95.28,35.97,95.25,35.11,95.25z"
			/>
	</g>
	<g>
		<path class="st0" d="M34.94,102.96c-0.81,0-1.63,0.03-2.44-0.01c-1.2-0.06-1.95-0.83-1.97-1.93c-0.01-1.14,0.67-1.9,1.92-1.94
			c1.75-0.06,3.51-0.06,5.26,0c1.2,0.04,2.01,0.86,2.02,1.9c0.01,1.08-0.87,1.93-2.1,1.98C36.74,102.98,35.84,102.96,34.94,102.96z"
			/>
	</g>
	<g>
		<path class="st0" d="M35.12,83.68c0.86,0,1.71-0.04,2.57,0.01c1.22,0.06,1.99,0.83,2,1.9c0.01,1.09-0.85,1.94-2.09,1.97
			c-1.71,0.03-3.42,0.04-5.13,0c-1.18-0.03-1.96-0.84-1.97-1.92c-0.01-1.12,0.71-1.87,1.94-1.93
			C33.32,83.64,34.22,83.68,35.12,83.68z"/>
	</g>
	<g>
		<path class="st0" d="M48.42,95.25c-0.86,0-1.71,0.03-2.57-0.01c-1.2-0.06-1.97-0.83-1.99-1.91c-0.02-1.13,0.67-1.92,1.91-1.96
			c1.79-0.06,3.59-0.06,5.39,0.01c1.14,0.04,1.88,0.84,1.9,1.86c0.03,1.03-0.81,1.89-1.94,2c-0.08,0.01-0.17,0-0.26,0
			C50.04,95.25,49.23,95.25,48.42,95.25z"/>
	</g>
	<g>
		<path class="st0" d="M48.37,87.55c-0.86,0-1.71,0.03-2.56-0.01c-1.17-0.05-1.99-0.86-2.01-1.92c-0.02-1.08,0.74-1.91,1.94-1.94
			c1.79-0.05,3.59-0.05,5.38,0.01c1.15,0.04,1.85,0.81,1.86,1.87c0.02,1.08-0.77,1.92-1.93,1.97
			C50.16,87.59,49.26,87.55,48.37,87.55z"/>
	</g>
</g>
</svg>
