<?xml version="1.0" encoding="utf-8"?>
<!-- Generator: Adobe Illustrator 25.2.1, SVG Export Plug-In . SVG Version: 6.00 Build 0)  -->
<svg version="1.1" id="Layer_1" xmlns="http://www.w3.org/2000/svg" xmlns:xlink="http://www.w3.org/1999/xlink" x="0px" y="0px"
	 viewBox="0 0 372.17 372.16" style="enable-background:new 0 0 372.17 372.16;" xml:space="preserve">
<g>
	<path d="M142.09,24.05c11.64-0.24,21.44,3.83,29.24,12.62c0.76,0.86,2.08,1.3,3.21,1.75c9.28,3.64,16.13,9.89,20.22,18.99
		c0.88,1.95,1.78,2.76,4.05,2.81c27.39,0.67,44.07,30.27,30.31,53.86c-1.42,2.43-1.32,3.95,0.08,6.27c3.99,6.61,5.4,13.89,4.66,21.6
		c-0.11,1.17,0.29,2.39,0.44,3.47c5.02-2.63,9.49-4.98,14.41-7.56c-0.8-8.63-1.65-17.82-2.51-27.01
		c-1.13-12.07,5.32-22.31,16.2-25.68c11.14-3.45,23.06,1.01,28.59,10.73c2.91,5.1,3.38,10.58,2.77,16.33
		c-0.9,8.45-1.54,16.93-2.27,25.39c-0.02,0.22,0.16,0.46,0.04,0.15c4.91,2.39,9.44,4.6,14.36,7c0.31-0.23,1.09-0.82,1.88-1.4
		c9.36-6.96,21.42-7.12,30.66,0c21.51,16.58,32.82,38.51,33.6,65.7c0.39,13.52,0.25,26.99-4.42,40c-3.41,9.5-8.25,18.16-14.7,26.24
		c0.79,0.59,1.41,1.14,2.1,1.56c13.15,7.96,19.23,21.55,16.29,36.46c-2.71,13.74-14.09,24.36-28.59,26.6
		c-54.93,8.48-109.85,16.95-164.78,25.4c-14.32,2.2-28.61,4.7-43,6.31c-26.17,2.93-47.27-6.47-62.85-27.73
		c-1.85-2.52-3.38-2.92-6.11-2.27c-8.5,2.04-17.14,3.52-25.54,5.88c-12.07,3.39-24.76-5.36-22.18-21.13
		c0.1-0.59,0.22-1.17,0.33-1.74c-12.51-2.43-18.8-8.87-18.58-18.9c0.21-9.58,6.89-16.09,17.96-17.75c0.23-3.85-0.07-7.76,0.79-11.4
		c2.03-8.58,10.64-13.84,19.27-12.04c9.53,1.99,19.03,4.15,28.51,6.37c2.33,0.54,3.61,0.14,5.25-1.91
		c3.88-4.86,8.17-9.42,12.63-13.76c1.76-1.71,2.43-2.81,1.51-5.28c-3.81-10.17-7.41-20.42-10.95-30.68
		c-0.81-2.36-1.93-3.49-4.58-4.03c-18.51-3.77-30.86-22-27.98-40.61c0.23-1.51-0.5-3.67-1.56-4.79c-10.21-10.77-13.3-23.16-8.8-37.3
		c0.69-2.17,0.32-3.21-1.43-4.59C1.96,105.29,7.28,61.63,40.46,46.27c1.39-0.64,2.9-2.02,3.42-3.41
		c5.41-14.33,15.68-22.42,30.75-24.69c1.17-0.18,2.57-0.93,3.25-1.86c17.78-24.23,51-20.94,63.44,6.33
		C141.53,23.09,141.79,23.51,142.09,24.05z M126.78,360.31c1.87-0.09,3.77-0.02,5.61-0.29c15.2-2.26,30.39-4.55,45.57-6.88
		c28.39-4.36,56.78-8.76,85.17-13.13c26.17-4.03,52.35-7.99,78.5-12.1c10.83-1.7,18.47-10.95,18.42-21.82
		c-0.05-10.69-7.66-19.84-18.33-21.52c-27.63-4.36-55.29-8.55-82.94-12.81c-38.51-5.93-77.03-11.84-115.53-17.81
		c-9.42-1.46-18.8-2.7-28.29-0.6c-27.08,6.02-45.69,31.17-42.77,57.88C75.31,339.68,98.28,360.31,126.78,360.31z M103.6,161.26
		c-11.91,20.11-10.69,26.69,7.59,42.1c-0.66,1.9-1.42,3.86-2.04,5.87c-4.38,14.08,5.15,29.09,19.56,30.94
		c9.04,1.16,18.06,2.44,27.09,3.69c5.11,0.71,10.21,1.48,15.72,2.28c-4.37-15.26-3.97-30.21-2.95-45.22
		c0.08-1.14-0.97-2.99-1.98-3.46c-6.3-2.93-12.55-6.2-19.18-8.13c-6.85-1.99-14.12-2.57-21.19-3.76c0-3.65,0-7.36,0-11.38
		c14.08,0.43,27.43,3.21,40.52,8.62c-3.26-10.29-6.79-20.25-10.59-30.12c-0.76-1.97-2.24-3.93-3.91-5.24
		c-6.58-5.15-14.4-7.46-22.52-8.45c-6.9-0.84-13.88-0.98-21.11-1.44c-0.36-3.5-0.74-7.22-1.14-11.12c6.6,0,13.1-0.47,19.5,0.13
		c6.48,0.61,12.85,2.3,20.01,3.65c-6.62-12.5-13.03-24.62-19.61-37.06c3.02-1.95,6.24-4.02,10.27-6.61
		c8.31,16.08,16.46,31.85,24.75,47.9c5.89-14.23,14.15-26.63,25.89-36.97c2.61,3.24,5.02,6.22,7.47,9.27
		c-12.24,11.56-20.69,25.04-24.98,41.01c-0.54,2.02-1.48,4.37-0.94,6.18c1.91,6.4,4.39,12.63,6.71,19.09
		c2.56-4.05,4.61-8.12,7.42-11.57c9.89-12.1,19.33-25.14,37.97-23.1c0.33-9.14-4.71-15.37-10.91-21.28
		c10.01-8.83,14.66-19.24,8.37-31.56c-6.89-13.48-18.79-15.51-32.59-11.42c-0.33-1.77-0.6-3.09-0.83-4.42
		c-2.08-12.05-10.14-20.17-21.31-21.45c-10.77-1.24-20.34,4.63-25.11,15.62c-0.95,2.18-1.97,2.89-4.44,2.62
		c-13.28-1.47-24.11,6.53-26.47,19.78c-0.6,3.37-2.02,4.63-5.14,5.57c-14.14,4.29-24.08,16.74-25.38,31.26
		c-1.28,14.36,6.26,28.04,19.32,34.99C99.39,159.12,101.38,160.11,103.6,161.26z M86.95,165.75c-0.38-0.25-0.7-0.45-1-0.67
		c-30.46-22.22-24.93-68.2,9.34-83.17c1.07-0.47,2.13-1.7,2.54-2.81c5.36-14.5,15.69-22.71,30.94-24.92
		c1.07-0.16,2.42-0.79,2.99-1.63c4.49-6.64,10.43-11.37,17.9-14.23c0.36-0.14,0.61-0.55,0.96-0.89c-6.12-2.82-11.95-0.28-17.92,0.43
		c-0.31-1.71-0.56-3.05-0.79-4.39c-1.51-8.84-5.91-15.57-14.28-19.3C105.18,8.64,91.4,14.31,85.69,27.3
		c-0.88,2.01-1.42,3.56-4.41,3.22c-13.54-1.57-24.25,6.42-26.75,19.88c-0.53,2.87-1.45,4.39-4.49,5.28
		c-14.51,4.27-24.46,16.44-25.92,31.18c-1.44,14.53,6.25,28.33,19.76,35.45c1.84,0.97,3.71,1.91,5.89,3.03
		c-5.22,7.07-9.07,14.16-7.37,23.08c1.69,8.87,7.51,14.34,14.73,18.53c-6.51,24.67,0.51,35.09,25.17,37.5
		c5,13.94,10.03,27.97,15.11,42.16c3.5-1.35,6.59-2.54,9.76-3.77c-0.22-0.46-0.31-0.85-0.55-1.1c-8.53-9.03-12.04-19.6-10.06-31.98
		c0.19-1.16-0.8-2.65-1.55-3.79c-2.65-4.04-6.01-7.72-8.06-12.03C82.64,184.8,83.23,175.3,86.95,165.75z M265.54,192.74
		c-0.21,1.46-0.67,3.28-0.71,5.12c-0.3,12.62-0.83,25.24-0.64,37.85c0.11,7.33,1.45,14.64,2.2,21.96c0.25,2.47,1.38,3.42,4,3.79
		c13.85,1.96,27.66,4.18,41.47,6.41c2.44,0.4,4.04,0.05,4.87-2.55c1.88-5.93,5.05-11.71,5.64-17.75
		c1.25-12.77,1.85-25.68,1.51-38.51c-0.59-22.59-10-41.22-27.59-55.54c-1.58-1.28-3.55-2.07-5.65-3.27
		c-1.16,5.48-2.19,9.5,3.46,13.25c8.31,5.52,8.09,15.4,0.05,21.41c-3.5,2.61-7.81,4.56-12.06,5.64
		C276.85,191.91,271.29,192.04,265.54,192.74z M249.66,150.38c-2.07,1.26-3.73,2.08-5.17,3.19c-10.52,8.12-18.18,18.39-23.22,30.68
		c-7.43,18.13-5.19,37.09-4.76,55.87c0.08,3.69,1.04,7.41,1.97,11.02c0.27,1.07,1.72,2.33,2.84,2.58c3.88,0.89,7.85,1.4,11.8,2
		c6.96,1.06,13.92,2.08,20.99,3.13c-3.12-23.44-2.63-46.45-0.68-69.29c-2.32-1.35-4.6-2.43-6.6-3.88
		c-9.02-6.52-9.26-16.76-0.04-22.89c3.7-2.46,4.18-4.97,3.45-8.6C250.04,153.22,249.94,152.24,249.66,150.38z M327.67,270.13
		c3.13,0.54,5.84,0.92,8.52,1.48c2.44,0.51,4.15-0.13,5.85-2.1c7.71-8.97,13.26-19.04,15.97-30.59c3.1-13.21,3.01-26.64,1.07-39.89
		c-2.76-18.87-12.26-34.14-27.43-45.75c-5.87-4.5-12.45-4.16-17.33,0.75c0.67,0.84,1.35,1.71,2.05,2.56
		c8.72,10.76,15.36,22.73,17.45,36.43c1.67,10.92,1.71,22.11,2.21,33.19C336.71,241.28,334.47,255.87,327.67,270.13z M204.8,251.32
		c-0.26-14.05-0.61-27.62-0.71-41.2c-0.07-9.32,1.78-18.35,4.91-27.12c3.82-10.7,9.66-20.2,17.14-28.67
		c-4.49-4.95-11.59-5.93-16.93-1.45c-5.6,4.7-11.02,9.85-15.49,15.6c-14.08,18.12-15.03,39.4-13.2,61.03
		c0.47,5.53,2.3,10.95,3.7,16.37c0.25,0.99,1.33,2.34,2.22,2.5C192.77,249.54,199.16,250.45,204.8,251.32z M288.59,173.53
		c-3.08-1.46-5.7-3.05-8.54-3.94c-2.59-0.81-3.6-1.91-3.27-4.72c0.79-6.57,1.28-13.17,1.88-19.76c1.11-12.06,2.3-24.11,3.29-36.18
		c0.52-6.34-3.07-11.2-8.85-12.55c-9.1-2.11-15.83,4.38-14.89,14.25c1.7,17.77,3.28,35.55,5.01,53.32c0.28,2.91,0.15,4.88-3.39,5.73
		c-2.82,0.68-5.38,2.48-8.15,3.83C257.09,181.75,281.69,182.3,288.59,173.53z M59.99,300.23c-13.77,0-27.13-0.01-40.49,0.01
		c-4.72,0.01-7.47,2.26-7.48,5.99c0,3.73,2.76,5.99,7.48,6c12.62,0.02,25.25,0.01,37.87,0c0.84,0,1.68-0.15,2.61-0.24
		C59.99,308.08,59.99,304.38,59.99,300.23z M63.89,282.56c-8.75-1.93-17.59-3.82-26.39-5.87c-2.51-0.58-5.17-0.86-6.29,1.57
		c-0.94,2.04-1.35,5.09-0.47,6.96c0.73,1.55,3.67,2.78,5.69,2.87c7.21,0.34,14.46-0.15,21.66,0.24
		C62.38,288.56,63.88,286.82,63.89,282.56z M65.09,329.61c-1.65-2.19-2.78-5.09-4.03-5.15c-8.94-0.38-17.92-0.32-26.87-0.07
		c-3.17,0.09-4.66,3.1-4.17,7.12c0.37,3.04,2.7,5.2,5.65,4.59C45.13,334.15,54.53,331.96,65.09,329.61z"/>
	<path d="M131.76,336.08c-3.95,0-7.65,0-11.54,0c0-19.86,0-39.55,0-59.55c3.7,0,7.49,0,11.54,0
		C131.76,296.2,131.76,315.98,131.76,336.08z"/>
	<path d="M168.17,336.06c0-19.95,0-39.64,0-59.59c3.87,0,7.65,0,11.65,0c0,19.84,0,39.62,0,59.59
		C175.98,336.06,172.28,336.06,168.17,336.06z"/>
	<path d="M227.76,336.1c-3.89,0-7.59,0-11.5,0c0-19.93,0-39.71,0-59.68c3.82,0,7.51,0,11.5,0
		C227.76,296.16,227.76,315.94,227.76,336.1z"/>
	<path d="M275.82,324.17c-3.97,0-7.58,0-11.48,0c0-11.84,0-23.62,0-35.68c3.68,0,7.46,0,11.48,0
		C275.82,300.28,275.82,312.05,275.82,324.17z"/>
	<path d="M323.86,318.07c-3.89,0-7.58,0-11.54,0c0-7.81,0-15.59,0-23.61c3.78,0,7.56,0,11.54,0
		C323.86,302.25,323.86,309.94,323.86,318.07z"/>
</g>
</svg>
