<?xml version="1.0" encoding="utf-8"?>
<!-- Generator: Adobe Illustrator 25.2.1, SVG Export Plug-In . SVG Version: 6.00 Build 0)  -->
<svg version="1.1" id="Layer_1" xmlns="http://www.w3.org/2000/svg" xmlns:xlink="http://www.w3.org/1999/xlink" x="0px" y="0px"
	 viewBox="0 0 384 195.31" style="enable-background:new 0 0 384 195.31;" xml:space="preserve">
<g>
	<path d="M384,188.35c-2.65,5.29-6.91,7.05-12.79,6.94c-16.12-0.29-32.25-0.09-48.37-0.1c-4.85,0-7.26-1.88-7.25-5.56
		c0.01-3.64,2.52-5.67,7.26-5.67c15.12-0.03,30.25-0.01,45.37-0.01c1.35,0,2.71,0,5.04,0c-0.6-7.23-0.61-14.23-1.9-20.99
		c-1.54-8.08-7.91-12.22-14.9-15.66c-5.91-2.91-10.99-3.38-16.85,0.8c-7.09,5.06-15.02,8.92-22.5,13.44
		c-5.93,3.58-11.65,3.63-17.62,0.02c-9.08-5.49-18.26-10.83-27.51-16.03c-1.39-0.78-3.44-0.76-5.13-0.57
		c-1.69,0.19-3.33,1.01-4.95,1.65c-13.13,5.24-18.07,12.5-18.13,26.61c-0.01,3.37,0,6.73,0,10.72c1.47,0,2.78,0,4.08,0
		c15.12,0,30.25,0,45.37,0.01c1.25,0,2.53-0.08,3.73,0.18c3.06,0.68,4.86,2.58,4.65,5.84c-0.21,3.23-2.1,5.03-5.3,5.17
		c-3.12,0.14-6.25,0.05-9.37,0.05c-14.5,0-29,0.02-43.5-0.01c-7.11-0.02-10.84-3.75-10.91-10.85c-0.04-4.37-0.06-8.75,0.01-13.13
		c0.26-15.99,7.62-27.47,22.33-33.74c6.51-2.78,13.44-4.6,20.22-6.72c4.09-1.28,4.51-1.52,6.29-5.84c-2.44-2-5.03-3.93-7.41-6.09
		c-10.31-9.38-18.76-20.32-20.59-34.35c-2-15.35-2.29-30.97,2.75-46.02c8.27-24.69,30.36-39.75,55.92-38.36
		c23.96,1.31,44.64,19.59,50.12,44.53c2.84,12.96,3.08,26.23,1.17,39.17c-2.39,16.2-12.23,28.4-24.83,38.43
		c-0.98,0.78-1.98,1.52-2.96,2.29c-0.09,0.07-0.13,0.21-0.31,0.5c0.72,3.07,2.66,4.77,5.9,5.71c7.05,2.06,14.2,4.02,20.93,6.91
		c11.92,5.13,19.5,14.07,21.39,27.28c0.05,0.33,0.36,0.62,0.56,0.93C384,173.35,384,180.85,384,188.35z M263.73,74.95
		c-0.03,0-0.05,0-0.08,0c0.12,2.12,0.2,4.24,0.37,6.35c0.07,0.86,0.23,1.74,0.49,2.57c5.72,18.96,18.03,31.68,36.85,37.57
		c4.26,1.33,9.54,1.13,13.94,0.02c22.62-5.7,39.26-29.17,37.43-52.22c-0.08-1.04-1.44-2.22-2.49-2.9c-4.24-2.75-9.2-4.7-12.74-8.14
		c-3.97-3.85-7.6-4.97-12.65-3.02c-11.05,4.27-22.17,4.1-33.26,0.02c-0.81-0.3-1.71-0.37-2.53-0.67c-3.17-1.16-5.58-0.3-8.11,1.99
		c-3.48,3.15-7.09,6.87-11.33,8.28c-5.33,1.77-6.74,4.48-5.89,9.39C263.77,74.44,263.73,74.7,263.73,74.95z M352.31,55.79
		c-1.2-26.06-21.79-45.67-46.03-44.42c-26.06,1.35-41.14,23.31-41.91,44.36c2.79-2.2,5.41-3.7,7.31-5.85
		c6.1-6.87,13.3-8.89,21.93-5.76c9.47,3.44,18.9,3.9,28.47,0.22c9.06-3.48,16.81-1.52,23.23,5.97
		C347.01,52.32,349.5,53.64,352.31,55.79z M284.64,139.79c7.16,4.19,14.51,8.61,22.02,12.72c1.07,0.59,3.18,0.08,4.44-0.6
		c4.72-2.53,9.29-5.34,13.91-8.06c2.38-1.4,4.75-2.84,6.79-4.06c-2.59-3.31-4.87-6.22-7.35-9.39c-10.76,4.65-21.81,4.58-32.31,0.04
		C289.47,133.76,287.17,136.64,284.64,139.79z"/>
	<path d="M0,165.85c0.15-0.19,0.4-0.37,0.43-0.58c2.31-16.03,12.65-24.89,27.01-29.99c4.93-1.75,9.98-3.24,15.06-4.47
		c3.3-0.79,5.31-2.5,6.37-5.94c-0.8-0.63-1.65-1.3-2.51-1.97c-12.7-9.86-22.99-21.84-25.41-38.03c-2.42-16.19-2.52-32.7,3.35-48.5
		c8.65-23.29,30.16-37.45,54.77-36.3c23.1,1.08,43.3,17.9,49.79,41.61c3.76,13.74,3.74,27.89,1.94,41.71
		c-2.14,16.38-12.14,28.69-24.84,38.82c-0.98,0.78-1.97,1.53-2.95,2.3c-0.09,0.07-0.13,0.21-0.32,0.52c0.71,3.07,2.64,4.79,5.89,5.7
		c6.36,1.77,12.77,3.53,18.89,5.97c16,6.4,24.03,18.4,23.99,35.71c-0.01,4.25,0.09,8.5-0.03,12.75c-0.17,6.18-4.02,10-10.22,10.02
		c-16.87,0.06-33.75,0.04-50.62,0.01c-4.3-0.01-6.59-1.91-6.68-5.38c-0.09-3.6,2.32-5.82,6.71-5.84
		c15.62-0.05,31.25-0.02,46.87-0.03c0.74,0,1.47-0.09,2.62-0.16c0.01-7.64,0.94-15.24-1.72-22.59c-2.63-7.27-8.53-11-15.15-14.16
		c-5.59-2.67-10.33-3.04-15.84,0.86c-7.21,5.1-15.24,9.04-22.82,13.63c-5.93,3.59-11.64,3.66-17.62,0.05
		c-9.09-5.48-18.27-10.82-27.52-16.01c-1.4-0.78-3.42-0.73-5.12-0.59c-1.44,0.11-2.85,0.87-4.24,1.4
		c-13.75,5.22-18.79,12.52-18.83,27.24c-0.01,3.24,0,6.49,0,10.36c1.45,0,2.75,0,4.06,0c14.87,0,29.75,0,44.62,0
		c1,0,2.01-0.06,3,0.06c3.5,0.4,5.59,2.73,5.43,5.96c-0.15,3.08-2.27,5.12-5.7,5.2c-4.37,0.11-8.75,0.04-13.12,0.04
		c-12.25,0-24.51-0.23-36.75,0.1C6.9,195.45,2.66,193.63,0,188.35C0,180.85,0,173.35,0,165.85z M120.13,68.52
		c-5.6-3.69-11.02-6.24-15.07-10.2c-4.1-4.01-7.81-5.03-12.97-3.06c-10.79,4.12-21.68,4.04-32.54,0.11
		c-0.93-0.34-1.96-0.43-2.88-0.79c-3.32-1.27-5.97-0.51-8.37,2.16c-4.16,4.61-9.06,8.15-15.18,9.86c-0.78,0.22-1.85,1.45-1.83,2.2
		c0.1,5.1-0.4,10.42,0.88,15.25c4.51,17.02,15.77,28.51,31.5,35.83c7.91,3.68,15.89,3.48,23.94,0.14
		C109.1,111.12,121.76,90.73,120.13,68.52z M31.75,55.67c2.7-2.05,5.27-3.41,7.05-5.46c6.34-7.32,13.91-9.28,22.9-5.93
		c9.25,3.44,18.44,3.62,27.73,0.08c9.24-3.53,17.04-1.45,23.52,6.14c1.66,1.94,4.13,3.18,6.72,5.11
		C118.95,30.79,98.7,10.87,75.3,11.28C51,11.7,33.09,31.27,31.75,55.67z M91.86,130.39c-10.82,4.66-21.75,4.54-32.33,0.02
		c-2.58,3.27-4.92,6.23-7.42,9.4c7.19,4.2,14.47,8.51,21.83,12.67c0.84,0.48,2.36,0.64,3.15,0.2c7.56-4.26,15.04-8.67,22.24-12.87
		C96.78,136.59,94.48,133.69,91.86,130.39z"/>
	<path d="M183.43,140.4c11.06,0,21.05-0.04,31.04,0.04c1.57,0.01,3.77,0.01,4.57,0.96c1.36,1.61,2.64,4.02,2.5,6
		c-0.2,2.89-2.71,4.26-5.71,4.25c-9.12-0.01-18.24,0-27.35,0.01c-1.35,0-2.69,0-5.11,0c2.01,1.82,3.35,2.98,4.63,4.22
		c2.55,2.47,2.87,5.65,0.88,8.04c-1.99,2.39-5.35,2.76-8.03,0.54c-4.99-4.15-9.95-8.36-14.69-12.79c-3.52-3.29-3.48-8,0.05-11.28
		c4.76-4.41,9.72-8.62,14.72-12.75c2.65-2.19,5.64-1.88,7.73,0.38c2.14,2.31,2,5.55-0.45,8.05
		C186.94,137.35,185.53,138.51,183.43,140.4z"/>
	<path d="M202.34,75.89c-11.37,0-21.58,0.11-31.78-0.1c-1.91-0.04-4.35-0.85-5.53-2.19c-1.03-1.18-1.47-4.16-0.67-5.36
		c1.12-1.68,3.57-3.36,5.52-3.44c8.98-0.36,17.98-0.16,26.97-0.17c1.44,0,2.89,0,5.3,0c-2.06-1.86-3.46-3.02-4.73-4.3
		c-2.43-2.43-2.61-5.76-0.52-8.04c2.11-2.3,5.04-2.65,7.71-0.45c5.01,4.13,9.96,8.34,14.7,12.77c3.68,3.43,3.6,8.07-0.13,11.53
		c-4.67,4.32-9.51,8.47-14.41,12.54c-2.68,2.23-6.02,1.87-8.03-0.51c-1.99-2.36-1.67-5.57,0.85-8.02
		C198.85,78.95,200.18,77.83,202.34,75.89z"/>
</g>
</svg>
