<?xml version="1.0" encoding="utf-8"?>
<!-- Generator: Adobe Illustrator 25.2.1, SVG Export Plug-In . SVG Version: 6.00 Build 0)  -->
<svg version="1.1" id="Layer_1" xmlns="http://www.w3.org/2000/svg" xmlns:xlink="http://www.w3.org/1999/xlink" x="0px" y="0px"
	 viewBox="0 0 357.08 360.16" style="enable-background:new 0 0 357.08 360.16;" xml:space="preserve">
<g>
	<path d="M166.47,311.89c5.01,0.97,6.13,4.32,6.06,8.86c-0.17,10.62-0.04,21.25-0.06,31.87c-0.01,5.4-2.11,7.52-7.46,7.53
		c-26.99,0.02-53.99,0.02-80.98,0c-5.53,0-7.55-2.11-7.56-7.8c-0.02-10.62-0.01-21.25,0-31.87c0-5.56,0.74-6.64,5.95-8.71
		c0-8.68,0.18-17.43-0.07-26.16c-0.15-5.4-3.03-9.61-7.04-13.16c-12.64-11.17-25.15-22.49-37.86-33.59
		c-5.77-5.04-9.38-11.1-11.33-18.5c-8.17-31.01-16.48-61.98-24.87-92.93c-3.12-11.52-0.39-20.89,9.17-28.23
		c0.87-0.67,1.44-2.24,1.47-3.41c0.28-12.46,8.33-22.48,19.72-24.37c11.91-1.97,23.36,5.28,27.43,17.15
		c8.5,24.78,17.09,49.54,25.74,74.26c0.48,1.36,1.67,2.79,2.92,3.53c16.75,9.94,33.57,19.76,50.36,29.63
		c18.98,11.15,28.45,27.74,28.43,49.76C166.45,267.73,166.47,289.72,166.47,311.89z M154.46,311.96c0-22.7,0.06-44.95-0.02-67.21
		c-0.06-16.6-7.22-29.34-21.51-37.84c-16.96-10.08-34.02-20-51.08-29.92c-1.69-0.98-3.62-1.83-5.53-2.1
		c-5.87-0.83-11.14,2.51-12.98,7.88c-1.9,5.53,0.26,11.26,5.69,14.44c10.88,6.38,21.85,12.61,32.75,18.96
		c3.97,2.31,5.08,5.44,3.29,8.69c-1.83,3.32-5.33,3.97-9.39,1.63c-10.83-6.22-21.68-12.41-32.43-18.76
		c-11.66-6.9-15.5-19.29-10.12-31.71c0.5-1.14,0.77-2.72,0.41-3.85c-5.99-18.79-12.05-37.55-18.2-56.29
		c-1.63-4.96-5.34-7.83-10.44-8.53c-8.43-1.16-14.71,6.65-12.37,15.43c8.4,31.6,16.93,63.17,25.31,94.79
		c1.3,4.9,3.68,8.87,7.49,12.21c12.68,11.14,25.21,22.44,37.87,33.61c5.84,5.15,9.96,11.33,10.78,19.13
		c0.6,5.69,0.39,11.47,0.47,17.22c0.06,4.07,0.01,8.15,0.01,12.23C114.68,311.96,134.38,311.96,154.46,311.96z M88.73,324.29
		c0,8.13,0,15.92,0,23.55c24.06,0,47.84,0,71.52,0c0-8.01,0-15.71,0-23.55C136.34,324.29,112.65,324.29,88.73,324.29z M24.08,95.01
		c12.86,1.4,20.46,8.47,23.9,20.59c2.28,8.03,5.06,15.91,7.63,23.86c2.76,8.5,5.54,17,8.31,25.49c2.79-0.84,5.28-1.59,7.95-2.39
		c-3.22-9.28-6.42-18.44-9.58-27.6c-4.93-14.25-9.81-28.52-14.76-42.76c-2.13-6.11-8.03-9.8-13.97-8.86
		C28.29,84.15,24.4,88.81,24.08,95.01z"/>
	<path d="M274.49,311.9c4.98,0.93,6.13,4.27,6.06,8.81c-0.18,10.62-0.04,21.25-0.06,31.87c-0.01,5.42-2.1,7.56-7.43,7.57
		c-26.99,0.02-53.99,0.02-80.98,0c-5.56,0-7.59-2.1-7.6-7.76c-0.02-10.75-0.01-21.5,0-32.25c0.01-5.22,0.83-6.37,6-8.36
		c0-14.66-0.05-29.4,0.02-44.14c0.05-10.12-0.49-20.31,0.56-30.34c1.88-18.09,11.46-31.63,27.09-40.84
		c16.57-9.76,33.14-19.5,49.8-29.1c2.58-1.49,4-3.35,4.94-6.1c8.38-24.43,16.88-48.82,25.34-73.22c4.03-11.61,15.2-18.5,26.96-16.65
		c11.41,1.8,19.62,11.89,19.92,24.22c0.03,1.34,0.88,3.08,1.93,3.92c8.34,6.67,11.86,15.2,9.16,25.53
		c-8.61,32.96-17.48,65.85-26.35,98.74c-1.61,5.96-5.34,10.62-9.95,14.68c-12.47,10.99-24.77,22.17-37.33,33.06
		c-5.61,4.86-8.39,10.56-8.12,18.02C274.7,296.93,274.49,304.31,274.49,311.9z M262.49,311.96c0-8.03,0.07-15.77-0.02-23.5
		c-0.11-10.13,3.65-18.4,11.27-25.09c12.78-11.22,25.59-22.4,38.04-33.98c3.04-2.83,5.75-6.84,6.85-10.8
		c8.79-31.63,17.17-63.37,25.64-95.1c2.03-7.59-1.18-13.98-7.81-15.91c-6.31-1.84-12.94,2.21-15.26,9.36
		c-5.81,17.93-11.66,35.85-17.32,53.82c-0.56,1.79-0.39,4.17,0.3,5.94c2.68,6.89,3.18,13.84-0.47,20.28
		c-2.14,3.77-5.22,7.57-8.82,9.85c-11.19,7.06-22.83,13.39-34.28,20.04c-2.54,1.48-5.34,1.84-7.2-0.39
		c-1.31-1.58-2.09-4.3-1.79-6.31c0.23-1.55,2.3-3.16,3.92-4.12c10.42-6.17,20.94-12.19,31.45-18.22c3.63-2.08,6.46-4.78,7.04-9.13
		c0.64-4.83-0.75-8.96-4.88-11.8c-4.35-3-8.9-2.94-13.41-0.31c-17.68,10.34-35.47,20.5-52.97,31.14
		c-13.29,8.08-20.05,20.37-20.22,35.89c-0.24,22.01-0.06,44.02-0.06,66.03c0,0.72,0.08,1.43,0.12,2.31
		C222.56,311.96,242.26,311.96,262.49,311.96z M196.65,324.28c0,8.1,0,15.8,0,23.67c23.96,0,47.73,0,71.59,0c0-7.99,0-15.78,0-23.67
		C244.31,324.28,220.62,324.28,196.65,324.28z M292.93,164.91c0.39-1.09,0.79-2.13,1.13-3.19c5.26-16.24,10.52-32.48,15.78-48.72
		c3.02-9.33,9.29-15.14,18.81-17.43c1.39-0.34,2.83-0.48,4.21-0.7c-0.45-6.22-4.34-10.79-9.62-11.57
		c-5.79-0.86-11.5,2.53-13.55,8.31c-4.04,11.39-7.95,22.83-11.91,34.25c-4.23,12.2-8.46,24.41-12.73,36.75
		C287.82,163.42,290.3,164.15,292.93,164.91z"/>
	<path d="M178.66,0c49.53,0.05,89.91,40.52,89.82,90.03c-0.08,49.92-40.6,90.19-90.61,90.05c-49.41-0.14-89.54-40.73-89.42-90.44
		C88.57,40.14,129.02-0.05,178.66,0z M178.75,12.03c-43.83,0.16-78.4,34.98-78.29,78.85c0.1,42.5,35.51,77.33,78.47,77.19
		c42.68-0.14,77.72-35.44,77.55-78.12C256.3,46.94,221.32,11.87,178.75,12.03z"/>
	<path d="M178.72,156.04c-36.73,0.02-66.22-29.46-66.25-66.23c-0.03-36.3,29.71-65.81,66.31-65.8c35.93,0.01,65.64,29.71,65.7,65.68
		C244.54,126.25,215.03,156.02,178.72,156.04z M124.47,89.95c-0.09,29.8,24.18,54.08,54.1,54.11c29.41,0.04,53.8-24.19,53.91-53.56
		c0.11-29.83-23.87-54.32-53.36-54.48C148.92,35.86,124.56,59.9,124.47,89.95z"/>
	<path d="M172.37,59.99c0.66-4.41-1.86-11.53,5.84-11.71c8.36-0.19,5.59,7.38,6.32,11.45c4.18,2.19,8.11,3.82,11.56,6.16
		c3.88,2.62,6.06,6.6,6.33,11.39c0.2,3.54-2,6.26-5.21,6.68c-3.03,0.4-6.02-1.5-6.54-4.83c-0.48-3.08-2.29-4.62-4.82-5.63
		c-5.65-2.25-11.27-2.17-16.57,0.95c-3.66,2.15-3.75,5.22,0.04,7.05c2.93,1.41,6.36,2.16,9.63,2.43c5.71,0.47,11.14,1.55,15.9,4.86
		c10.2,7.1,10.22,19.54-0.11,26.42c-2.96,1.97-6.47,3.12-10.27,4.9c0,1.35,0.05,3.32-0.01,5.29c-0.13,4.05-2.59,6.68-6.1,6.61
		c-3.39-0.07-5.72-2.6-5.87-6.46c-0.07-1.98-0.01-3.97-0.01-5.16c-4.36-2.33-8.39-4.05-11.92-6.48c-3.73-2.57-5.8-6.5-6.04-11.15
		c-0.19-3.56,2-6.25,5.22-6.67c3.04-0.4,6.01,1.49,6.54,4.84c0.51,3.26,2.51,4.75,5.17,5.76c5.55,2.1,11.06,1.95,16.23-1.1
		c3.65-2.15,3.75-5.22-0.05-7.05c-2.93-1.41-6.36-2.15-9.63-2.42c-5.71-0.47-11.13-1.57-15.89-4.87
		c-10.2-7.08-10.21-19.55,0.12-26.42C165.16,62.87,168.67,61.72,172.37,59.99z"/>
</g>
</svg>
