<?xml version="1.0" encoding="utf-8"?>
<!-- Generator: Adobe Illustrator 25.2.1, SVG Export Plug-In . SVG Version: 6.00 Build 0)  -->
<svg version="1.1" id="Layer_1" xmlns="http://www.w3.org/2000/svg" xmlns:xlink="http://www.w3.org/1999/xlink" x="0px" y="0px"
	 viewBox="0 0 495.12 494.75" style="enable-background:new 0 0 495.12 494.75;" xml:space="preserve">
<style type="text/css">
	.st0{fill:#E51675;}
</style>
<g>
	<path class="st0" d="M413.9,494.75c-129.89,0-259.77,0-389.66,0c-0.05-1.93-0.13-3.86-0.13-5.79c-0.01-53.33-0.01-106.66-0.01-160
		c0-44.79-0.01-89.58,0.02-134.38c0-2.46,0.09-4.35-3.02-5.57c-13.73-5.39-20.89-16.2-21.02-31c-0.06-6.61-0.17-13.22,0.07-19.82
		c0.1-2.81,0.6-5.77,1.66-8.36c11.07-26.92,22.13-53.86,33.59-80.61c3.25-7.58,5-15.07,4.59-23.32C39.56,17.29,39.9,8.62,39.9,0
		c106.84,0,213.04,0,319.57,0c0,11.32-0.13,22.26,0.09,33.19c0.06,3.12,0.66,6.42,1.84,9.3c12.05,29.31,24.28,58.54,36.41,87.81
		c0.72,1.75,1.43,3.66,1.47,5.51c0.15,8.05,0.36,16.13-0.05,24.16c-0.7,13.62-7.41,23.48-20.07,28.73c-3.14,1.3-3.95,2.75-3.93,5.92
		c0.12,29.16,0.07,58.33,0.07,87.49c0,1.54,0,3.08,0,5c13.24,0,25.76,0,38.51,0c1.14,5.68,2.1,11.06,3.34,16.37
		c0.37,1.56,1.18,3.67,2.4,4.27c7.01,3.45,13.53,6.41,21.16-0.41c7.35-6.57,8.07-5.76,15.07,1.24c8.29,8.28,16.58,16.56,24.85,24.82
		c-1.72,2.59-2.86,5.01-4.62,6.83c-6.25,6.48-7.29,13.35-2.21,20.95c0.26,0.39,0.21,1.03,0.52,1.33c0.87,0.84,1.75,2.03,2.8,2.24
		c5.97,1.23,12,2.23,18.01,3.3c0,15.15,0,30.3,0,45.45c-2.68,0.53-5.37,1.54-8.04,1.51c-9.48-0.11-14.6,4.84-16.53,13.62
		c-0.36,1.63-0.33,3.81,0.48,5.16c2.94,4.95,6.29,9.65,9.73,14.81c-5.48,5.39-10.78,10.54-16.02,15.75
		c-5.33,5.29-10.6,10.64-15.86,15.93c-4.6-3.07-8.79-5.52-12.57-8.49c-3.2-2.52-5.8-1.9-9.55-0.93c-7.94,2.06-10.58,7.01-11.06,14.4
		C415.49,488.46,414.52,491.59,413.9,494.75z M151.5,180.43c-6.59,7.03-14.42,10.68-23.78,10.7c-9.5,0.03-17.26-4.13-23.97-10.8
		c-8.84,9.22-19.32,12.38-31.6,10.1c0,74.85,0,149.37,0,223.98c5.37,0,10.41,0,15.8,0c0-12.78-0.04-25.16,0.01-37.54
		c0.08-20.72,10.47-34.8,30.23-40.85c14.92-4.57,29.88-8.97,44.81-13.5c1.49-0.45,3.28-0.89,4.22-1.95
		c1.66-1.87,0.1-14.07-1.77-16.04c-9.32-9.82-13.86-21.48-13.67-35.03c0.1-7.09-0.29-14.2,0.12-21.26
		c0.31-5.25,0.95-10.62,2.47-15.62c6.76-22.33,29.05-36.02,52.67-32.75c21.91,3.03,39.91,23.3,40.45,45.77
		c0.22,9.02,0.21,18.05-0.01,27.07c-0.26,10.46-3.4,20.2-10.46,27.91c-4.43,4.84-5.95,9.7-5.62,15.99c0.19,3.57,1.31,4.98,4.61,5.93
		c15.3,4.4,30.53,9.05,45.78,13.62c11.9,3.56,20.74,10.71,25.97,22.12c0.28,0.61,0.76,1.13,1.33,1.96c0.73-1.58,1.13-2.82,1.82-3.89
		c2.64-4.05,2-7.51-1.03-11.22c-2.91-3.56-5.15-7.66-7.88-11.82c7.54-7.5,14.76-14.84,22.18-21.97c2.39-2.29,3.39-4.64,3.38-7.99
		c-0.11-35.93-0.07-71.87-0.08-107.8c0-1.66-0.19-3.32-0.3-5.18c-12.78,2.44-23.1-1.2-31.74-10.05
		c-6.72,6.91-14.46,10.79-23.83,10.83c-9.54,0.05-17.35-4.01-23.88-10.63c-15.99,15.12-34.72,13.24-48.06,0.14
		C186.68,193.48,168.03,195.89,151.5,180.43z M55.85,431.01c0-83.65,0-166.61,0-249.54c-4.08,2.54-7.51,5.44-11.46,6.91
		c-3.77,1.41-4.58,3.31-4.57,7.02c0.1,92.48,0.08,184.96,0.08,277.44c0,1.73,0,3.47,0,5.53c97.33,0,194.13,0,291.75,0
		c-1.6-1.73-2.6-2.91-3.7-4c-7.74-7.75-15.41-15.57-23.29-23.18c-2.2-2.12-2.35-3.63-0.56-6.08c3.2-4.35,6.04-8.96,9.46-14.1
		C227.41,431.01,142.11,431.01,55.85,431.01z M303.56,381.59c0,1.69-0.04,3.12,0.01,4.54c0.14,4.64-1.33,10.5,0.95,13.55
		c2.04,2.73,8.2,2.48,12.59,3.3c2.56,0.48,3.47,1.82,4.36,4.25c2.7,7.37,5.76,14.63,9.1,21.73c1.14,2.42,1.11,3.99-0.39,6.07
		c-2.62,3.62-4.98,7.43-7.25,10.86c4.61,4.65,8.89,8.96,13.38,13.48c3.55-2.34,7.38-4.69,10.99-7.33c2.09-1.52,3.6-1.52,6.01-0.33
		c6.32,3.12,12.75,6.25,19.46,8.24c4.6,1.37,6.32,3.63,7.11,8.05c1.93,10.75,2.12,10.72,12.98,10.72c7.97,0,8.4,0.05,9.35-8.01
		c0.77-6.57,3.22-10.59,10.16-11.43c2.49-0.3,5.24-1.1,7.23-2.55c8.71-6.39,16.84-6.93,24.79,1.23c0.66,0.67,2.95,0.83,3.61,0.24
		c4.17-3.72,8.1-7.71,12.16-11.66c-2.89-4.37-5.59-7.99-7.73-11.92c-0.79-1.45-0.85-3.84-0.23-5.41c2.29-5.82,5.91-11.26,7.3-17.24
		c1.63-7.01,5.33-9.49,12.02-10.22c7.63-0.84,7.58-1.28,7.58-8.75c0-2.26-0.19-4.53,0.04-6.76c0.37-3.52-0.75-5.37-4.53-5.7
		c-3.18-0.28-6.41-0.93-9.43-1.96c-1.5-0.51-3.11-2.02-3.76-3.48c-3.32-7.47-6.44-15.03-9.37-22.65c-0.56-1.46-0.53-3.69,0.21-5.01
		c2.27-4.04,5.03-7.81,7.21-11.1c-4.62-4.69-8.97-9.1-13.46-13.66c-3.1,2.05-6.54,4.16-9.77,6.53c-2.58,1.9-4.7,2.51-7.72,0.45
		c-3.29-2.24-7-4.53-10.81-5.19c-10.76-1.88-16.6-7.39-16.56-18.65c0-0.88-1.93-2.48-3.03-2.54c-5.28-0.27-10.59-0.12-16.16-0.12
		c-0.98,4.68-1.67,9.14-2.95,13.42c-0.48,1.62-2.04,3.43-3.58,4.13c-7.44,3.38-15,6.51-22.62,9.46c-1.47,0.57-3.73,0.53-5.07-0.22
		c-4.03-2.27-7.79-5.03-11.59-7.57c-4.54,4.55-8.83,8.84-13.4,13.43c2.49,3.75,5.25,7.51,7.52,11.53c0.76,1.34,0.86,3.6,0.29,5.06
		c-2.95,7.62-6.09,15.18-9.46,22.63c-0.7,1.54-2.5,3.12-4.11,3.6C312.73,379.91,308.27,380.6,303.56,381.59z M263.66,375.04
		c0,13.35,0,26.31,0,39.51c8.74,0,16.88,0,24.41,0c0-15.34,0-30.56,0-46.01c1.74-0.5,3.71-1.07,5.7-1.65
		c-2.84-8.06-7.58-12.6-16.66-15.4c-15.82-4.88-31.73-9.49-47.53-14.43c-2.96-0.93-4.64-0.19-6.64,1.89
		c-7.56,7.86-15.31,15.53-23.13,23.41c-8.14-8.13-15.93-15.81-23.58-23.63c-1.88-1.92-3.46-2.59-6.25-1.71
		c-15.65,4.9-31.39,9.47-47.07,14.27c-13.04,3.99-19,12-19.11,25.59c-0.09,11.27-0.03,22.55,0,33.82c0,1.23,0.23,2.47,0.36,3.8
		c10.57,0,20.8,0,31.6,0c0-13.24,0-26.2,0-39.27c5.63,0,10.67,0,16.21,0c0,13.3,0,26.26,0,39.18c32.11,0,63.72,0,95.62,0
		c0-6.82,0-13.24,0-19.66c0-6.53,0-13.06,0-19.71C253.11,375.04,257.92,375.04,263.66,375.04z M231.26,259.27
		c0-4.99,0.3-9.99-0.05-14.95c-1.14-16.18-14.82-28.81-31.18-29.03c-16.23-0.22-30.6,12.21-31.73,28.35
		c-0.72,10.23-0.68,20.59-0.02,30.84c0.88,13.8,11.6,25.29,24.83,27.84c14.07,2.72,27.48-3.59,34.41-15.75
		C232.45,277.91,231.37,268.54,231.26,259.27z M56.39,15.9c0,5.3,0,10.33,0,15.34c95.78,0,191.2,0,286.71,0c0-5.23,0-10.15,0-15.34
		C247.42,15.9,152.01,15.9,56.39,15.9z M167.09,47.79c-2.22,26.58-4.4,52.79-6.61,79.29c10.54,0,20.58,0,30.82,0
		c0-26.52,0-52.81,0-79.29C183.29,47.79,175.61,47.79,167.09,47.79z M208.1,47.87c0,26.55,0,52.83,0,79.16c10.39,0,20.44,0,30.83,0
		c-2.23-26.55-4.43-52.77-6.65-79.16C223.92,47.87,216.12,47.87,208.1,47.87z M97.69,127.15c6.58-26.36,13.14-52.62,19.87-79.56
		c-7.12,0-13.37,0.21-19.6-0.08c-3.37-0.16-4.79,1.08-5.8,4.17c-7.86,23.98-15.87,47.91-23.82,71.86c-0.37,1.11-0.5,2.3-0.77,3.61
		C77.83,127.15,87.62,127.15,97.69,127.15z M282.58,47.61c-0.18,0.96-0.26,1.13-0.23,1.27c6.2,25.45,12.38,50.91,18.7,76.33
		c0.22,0.87,1.72,2,2.64,2.02c9.29,0.15,18.58,0.09,27.79,0.09c0.13-0.79,0.31-1.15,0.22-1.41c-8.38-25.33-16.75-50.66-25.27-75.94
		c-0.34-1.01-1.98-2.22-3.04-2.26C296.51,47.51,289.61,47.61,282.58,47.61z M76.78,47.59c-6.73,0-12.83,0.19-18.92-0.07
		c-3.41-0.15-5.1,0.99-6.42,4.21c-9.82,23.96-19.85,47.84-29.79,71.75c-0.47,1.13-0.74,2.34-1.21,3.85c9.26,0,18.12,0.11,26.96-0.12
		c1.27-0.03,3.24-1.44,3.64-2.63C59.61,99.3,68,73.97,76.78,47.59z M323.39,47.61c-0.14,0.83-0.32,1.19-0.23,1.46
		c8.39,25.33,16.78,50.66,25.28,75.96c0.32,0.94,1.67,2.17,2.56,2.19c9.23,0.16,18.47,0.1,28.28,0.1
		c-10.94-26.27-21.54-51.79-32.26-77.27c-0.44-1.05-1.99-2.3-3.06-2.33C337.08,47.51,330.19,47.61,323.39,47.61z M343.37,181.73
		c0,1.42,0,2.99,0,4.56c0,38.81,0.08,77.61-0.11,116.42c-0.02,4.13,1.53,6.19,4.66,8.48c3.8,2.78,6.47,0.36,9.14-1.15
		c1.32-0.74,2.26-3.24,2.3-4.96c0.22-9.66,0.1-19.32,0.1-28.98c0-27.21,0.04-54.43-0.1-81.64c-0.01-1.7-0.95-4.1-2.26-4.97
		C352.89,186.69,348.29,184.45,343.37,181.73z M248.29,47.61c2.26,27.08,4.45,53.29,6.64,79.42c10.46,0,20.19,0,30.26,0
		c-6.45-25.77-12.78-51.18-19.27-76.55c-0.29-1.14-1.93-2.66-3.03-2.74C258.28,47.43,253.64,47.61,248.29,47.61z M151.08,47.59
		c-4.69,0-8.7,0.24-12.67-0.07c-3.42-0.27-4.74,1.02-5.52,4.28c-3.92,16.43-8.07,32.8-12.15,49.19c-2.15,8.64-4.32,17.28-6.52,26.06
		c10.38,0,20.14,0,30.27,0C146.68,100.68,148.84,74.56,151.08,47.59z M16.32,143.75c0,6.04-0.34,11.81,0.08,17.52
		c0.56,7.58,6.55,13.12,14.3,13.92c7.05,0.74,14.84-3.86,16.23-10.92c1.3-6.63,1-13.58,1.41-20.52
		C37.06,143.75,26.84,143.75,16.32,143.75z M143.51,143.86c-10.6,0-20.94,0-31.47,0c0,5.7-0.2,11.01,0.05,16.3
		c0.4,8.47,6.92,14.79,15.25,15.14c7.89,0.34,15.15-5.46,16.06-13.69C144.01,155.92,143.51,150.1,143.51,143.86z M351.07,143.76
		c0.31,6.69,0.07,13.14,1.04,19.42c1.1,7.14,8.2,12.23,15.41,12.14c7.03-0.1,14.2-5.14,15.09-11.96c0.84-6.41,0.18-13.01,0.18-19.6
		C372.29,143.76,362.07,143.76,351.07,143.76z M207.88,143.62c0,6.06-0.24,11.67,0.06,17.25c0.4,7.49,6.27,13.25,14.01,14.26
		c7.05,0.92,15.01-3.46,16.49-10.5c1.43-6.75,1.15-13.86,1.63-21.01C228.78,143.62,218.66,143.62,207.88,143.62z M255.52,143.72
		c0,5.46-0.05,10.43,0.03,15.39c0.02,1.43,0.32,2.88,0.68,4.28c1.83,7.11,8.5,12.14,15.7,11.9c7.28-0.24,14.3-5.63,15.07-12.64
		c0.68-6.15,0.14-12.44,0.14-18.94C276.65,143.72,266.42,143.72,255.52,143.72z M303.61,143.71c0,5.51-0.15,10.79,0.03,16.05
		c0.29,8.49,6.55,14.87,14.94,15.49c7.65,0.57,15.21-4.85,16.3-12.81c0.83-6.1,0.17-12.4,0.17-18.99c-9.38,0-18.54-0.01-27.7,0.01
		C306.25,143.47,305.17,143.6,303.61,143.71z M159.74,143.68c0,5.72-0.04,10.86,0.03,15.99c0.02,1.27,0.34,2.55,0.67,3.79
		c1.94,7.16,8.58,12.13,15.75,11.83c7.3-0.3,14.18-5.62,15-12.73c0.7-6.15,0.15-12.43,0.15-18.88
		C180.8,143.68,170.56,143.68,159.74,143.68z M63.92,143.66c0,4.81-0.01,9.12,0.01,13.43c0,1.28-0.02,2.58,0.14,3.85
		c0.99,8.09,7.61,14.18,15.57,14.37c7.45,0.18,14.87-5.36,15.78-12.87c0.74-6.11,0.15-12.38,0.15-18.78
		C85.02,143.66,74.8,143.66,63.92,143.66z M199.65,340.23c4.58-4.76,8.26-9.05,12.45-12.77c3.45-3.07,4.36-6.41,3.05-10.98
		c-10.29,3.19-20.59,3.21-31.93-0.33c0.69,3.48,0.38,6.85,1.91,8.73C189.34,330.1,194.32,334.71,199.65,340.23z M366.06,478.48
		c-2.74-6.73-9.5-8.19-13.59-8.27c-4.91-0.1-9.91,4.4-14.88,6.91c0.23,0.45,0.47,0.91,0.7,1.36
		C347.2,478.48,356.11,478.48,366.06,478.48z"/>
	<path class="st0" d="M56.39,446.98c5.18,0,9.94,0,15.07,0c0,5.22,0,10.24,0,15.55c-4.93,0-9.82,0-15.07,0
		C56.39,457.49,56.39,452.46,56.39,446.98z"/>
	<path class="st0" d="M88.18,462.56c0-5.35,0-10.27,0-15.49c5.11,0,10,0,15.25,0c0,5.19,0,10.21,0,15.49
		C98.39,462.56,93.5,462.56,88.18,462.56z"/>
	<path class="st0" d="M135.47,462.63c-5.2,0-9.98,0-15.17,0c0-5,0-10.03,0-15.47c4.89,0,9.9,0,15.17,0
		C135.47,452.29,135.47,457.22,135.47,462.63z"/>
	<path class="st0" d="M345.96,358.92c1.05,0.65,1.89,1.11,2.66,1.65c3.28,2.32,6.53,4.67,9.93,7.11
		c-10.65,18.6-9.95,36.23,5.18,51.78c10.84,11.14,30.01,16.69,50.77,4.26c2.94,4.05,5.91,8.16,8.88,12.26
		c-17.91,15.75-50.36,13.89-69.71-3.86C332.9,413.07,329.44,381.65,345.96,358.92z"/>
	<path class="st0" d="M436.5,423.07c-4.02-2.88-8.05-5.76-12.36-8.84c10.76-18.99,10.19-37.18-5.97-52.34
		c-15.01-14.07-32.31-13.98-50.1-3.68c-2.99-4.21-5.93-8.36-8.86-12.49c21.23-16.24,52.69-13.46,71.84,6.01
		C450.1,371.07,452.59,402.6,436.5,423.07z"/>
</g>
</svg>
