<?xml version="1.0" encoding="utf-8"?>
<!-- Generator: Adobe Illustrator 25.2.1, SVG Export Plug-In . SVG Version: 6.00 Build 0)  -->
<svg version="1.1" id="Layer_1" xmlns="http://www.w3.org/2000/svg" xmlns:xlink="http://www.w3.org/1999/xlink" x="0px" y="0px"
	 viewBox="0 0 364.01 512" style="enable-background:new 0 0 364.01 512;" xml:space="preserve">
<g>
	<path d="M103.04,512c-2.55-3.14-5.77-5.95-7.56-9.48c-11.87-23.46-23.59-47-35.06-70.65c-10.91-22.49,1.04-47.65,25.01-53.26
		c14.72-3.45,30.01,2.68,38.68,15.75c4.29,6.47,8.23,13.18,13.44,19.5c0-1.61,0-3.21,0-4.82c0-45-0.04-89.99,0.08-134.99
		c0.01-3.67-0.95-5.54-4.47-7.06c-41.44-17.87-66.79-61.92-60.85-105.36c6.46-47.23,41.53-82.91,87.88-89.4
		c56.36-7.9,109.04,33.37,115.04,90.12c4.75,44.89-19.94,87.21-61.47,104.97c-3.63,1.55-4.84,3.31-4.77,7.25
		c0.26,15.98,0.11,31.97,0.11,49.6c11.42-4.39,22.37-7.75,32.58-12.66c54.99-26.42,88.69-83.92,85.7-144.92
		c-1.36-27.76-9.49-53.23-24.38-76.65c-1.98-3.12-3.52-4.16-7.44-2.75c-17.05,6.11-35.81-0.99-44.96-16.53
		c-9.27-15.75-6.08-35.58,7.67-47.74c13.45-11.88,33.62-12.66,47.96-1.84c14.33,10.81,19.28,30.43,11.32,46.58
		c-1.78,3.61-1.64,5.93,0.6,9.24c58.62,86.57,26.24,206.92-67.86,252.57c-1.62,0.79-3.21,1.64-5.2,2.66
		c2.04,1.76,3.75,3.22,5.44,4.68c20.44-18.8,50.13-11.8,60.41,14.14c7.64-3.85,15.76-5.25,24.16-3.56
		c16.54,3.33,28.61,17.34,28.73,34.4c0.28,39.66,0.08,79.33,0.15,118.99c0.01,5.3-2.83,8.58-6.93,11.21c-2,0-4,0-6,0
		c-5.59-2.79-7.24-7.32-7.21-13.47c0.21-37.65,0.14-75.31,0.04-112.96c-0.01-3.1-0.33-6.41-1.43-9.27
		c-2.65-6.93-10.07-10.62-17.51-9.28c-7.14,1.28-12.55,7.8-12.68,15.85c-0.18,11.16,0.03,22.33-0.12,33.49
		c-0.08,5.88-4.12,9.95-9.55,10.13c-5.43,0.17-9.66-3.68-10.3-9.48c-0.17-1.48-0.09-3-0.09-4.49c-0.01-16.66,0.04-33.32-0.03-49.98
		c-0.03-7.26-3.8-12.85-9.99-15.29c-10.18-4.01-21.15,3.34-21.31,14.65c-0.23,16.49-0.07,32.99-0.08,49.48
		c0,1.66,0.07,3.35-0.12,4.99c-0.68,5.75-5.04,9.73-10.31,9.53c-5.4-0.21-9.46-4.28-9.51-10.2c-0.14-16.99,0-33.99-0.14-50.98
		c-0.02-2.94-0.37-6.06-1.4-8.78c-2.59-6.82-10.04-10.83-16.89-9.58c-7.77,1.42-13.23,7.67-13.3,15.83
		c-0.14,16.33,0,32.66-0.07,48.98c-0.03,6.67-3.85,10.84-9.73,10.95c-6.07,0.11-10.06-4.17-10.25-11.02c-0.04-1.33-0.01-2.67-0.01-4
		c0-60.15,0-120.29,0-180.44c0-1.83,0.06-3.67-0.06-5.5c-0.44-6.85-5.45-12.74-12.04-14.23c-6.85-1.55-14.02,1.1-16.98,7.37
		c-1.69,3.58-2.33,7.97-2.34,11.99c-0.13,73.48-0.09,146.95-0.11,220.43c0,2.33,0,4.68-0.36,6.97c-0.63,4.01-3.11,7.22-7,7.42
		c-3.28,0.17-6.82-1.32-9.94-2.74c-1.41-0.64-2.15-2.86-3.1-4.42c-9.72-15.91-19.36-31.87-29.16-47.73
		c-4.14-6.7-11.19-9.6-18.44-8.05c-6.85,1.46-12.52,7.27-12.97,14.7c-0.22,3.76,0.85,7.98,2.52,11.42
		c11.38,23.51,23.08,46.86,34.66,70.27c4.2,8.49,3.08,12.56-4.73,17.44C107.04,512,105.04,512,103.04,512z M209.11,247.1
		c28.2-12.06,52.97-47.52,45.53-87.94c-7.38-40.11-42.48-68.87-82.15-67.81c-41.26,1.1-74.62,31-80.21,71.89
		c-4.62,33.81,17.39,74.71,45.27,83.13c0-4.95-0.22-9.73,0.05-14.49c0.4-6.95,0.44-14.04,2-20.76c0.94-4.01,0.73-6.41-1.82-9.64
		c-12.32-15.65-13.04-36.79-2.22-53.18c10.69-16.2,30.33-23.86,49.35-19.25c32.54,7.9,45.65,47.78,24,73.55
		c-2.52,2.99-2.84,5.23-1.7,8.81c1.24,3.89,1.67,8.14,1.81,12.25C209.3,231.29,209.11,238.94,209.11,247.1z M155.25,191.03
		c14.08-5.96,21.35-6.22,34.29-0.61c2.91,1.26,3.9-0.11,5.22-1.9c7.96-10.81,5.89-26.39-4.67-35.03
		c-10.3-8.43-25.72-7.47-34.92,2.17C145.67,165.61,145.62,180.89,155.25,191.03z M301.24,51.3c-0.05-10.07-8.13-18.03-18.13-17.86
		c-9.76,0.17-17.71,8.14-17.8,17.84c-0.1,9.91,8.02,18.02,18.04,18.02C293.48,69.3,301.29,61.45,301.24,51.3z"/>
	<path d="M167.05,0c3.84,2.27,7.12,4.9,7.08,9.98c-0.05,5.84-3.93,9.55-10.73,10.08c-39.14,3.09-72.57,18.51-100.05,46.56
		C13.56,117.43,5.8,197.78,44.83,257.2c0.81,1.24,1.68,2.44,2.72,3.95c8.59-3.46,17.33-4.68,26.34-2.31
		c21.21,5.57,33.27,27.68,26.44,48.5c-6.85,20.87-29.59,31.6-49.99,23.58c-20.3-7.97-29.89-31.62-20.36-51.27
		c2-4.13,1.44-6.63-0.91-10.17C-37.68,168.46,15.88,32.14,135,4.16c7.59-1.78,15.36-2.79,23.04-4.16C161.05,0,164.05,0,167.05,0z
		 M82.16,295.87c0.13-10.15-7.63-18.14-17.71-18.22c-10.01-0.09-18.19,7.92-18.24,17.84c-0.04,9.67,7.85,17.75,17.61,18.03
		C73.82,313.8,82.04,305.89,82.16,295.87z"/>
	<path d="M209.51,3.72c5.53,0.13,9.7,4.46,9.63,10c-0.07,5.46-4.48,9.81-9.91,9.8c-5.56-0.01-10.23-4.85-9.98-10.33
		C199.49,7.76,204.01,3.59,209.51,3.72z"/>
</g>
</svg>
