<?xml version="1.0" encoding="utf-8"?>
<!-- Generator: Adobe Illustrator 25.2.1, SVG Export Plug-In . SVG Version: 6.00 Build 0)  -->
<svg version="1.1" id="Layer_1" xmlns="http://www.w3.org/2000/svg" xmlns:xlink="http://www.w3.org/1999/xlink" x="0px" y="0px"
	 viewBox="0 0 16 16" style="enable-background:new 0 0 16 16;" xml:space="preserve">
<style type="text/css">
	.st0{clip-path:url(#SVGID_2_);fill:url(#SVGID_3_);}
	.st1{clip-path:url(#SVGID_5_);fill:url(#SVGID_6_);}
	.st2{clip-path:url(#SVGID_8_);fill:url(#SVGID_9_);}
	.st3{clip-path:url(#SVGID_11_);fill:url(#SVGID_12_);}
	.st4{clip-path:url(#SVGID_14_);fill:url(#SVGID_15_);}
	.st5{clip-path:url(#SVGID_17_);fill:url(#SVGID_18_);}
	.st6{clip-path:url(#SVGID_20_);fill:url(#SVGID_21_);}
	.st7{clip-path:url(#SVGID_23_);fill:url(#SVGID_24_);}
	.st8{clip-path:url(#SVGID_26_);fill:url(#SVGID_27_);}
	.st9{clip-path:url(#SVGID_29_);fill:url(#SVGID_30_);}
	.st10{clip-path:url(#SVGID_32_);fill:url(#SVGID_33_);}
	.st11{clip-path:url(#SVGID_35_);fill:url(#SVGID_36_);}
</style>
<g>
	<g>
		<defs>
			<path id="SVGID_1_" d="M0.08,9.58C0.04,9.58,0,9.61,0,9.65v0.47c0,0.04,0.03,0.07,0.07,0.07h2.54c1.77,0,3.2,1.44,3.2,3.21v2.53
				c0,0.04,0.03,0.07,0.07,0.07h0.47c0.04,0,0.07-0.03,0.07-0.07V13.4c0-2.11-1.71-3.82-3.81-3.82H0.08z"/>
		</defs>
		<clipPath id="SVGID_2_">
			<use xlink:href="#SVGID_1_"  style="overflow:visible;"/>
		</clipPath>
		
			<linearGradient id="SVGID_3_" gradientUnits="userSpaceOnUse" x1="-950.4422" y1="548.1247" x2="-950.3969" y2="548.1247" gradientTransform="matrix(853.8871 0 0 -853.8871 811570.0625 468049.4062)">
			<stop  offset="0" style="stop-color:#FBC266"/>
			<stop  offset="1" style="stop-color:#E51675"/>
		</linearGradient>
		<rect x="0" y="9.58" class="st0" width="6.42" height="6.42"/>
	</g>
	<g>
		<defs>
			<path id="SVGID_4_" d="M0.07,10.84C0.03,10.84,0,10.88,0,10.92v0.47c0,0.04,0.03,0.07,0.07,0.07h2.2c1.26,0,2.29,1.03,2.29,2.29
				v2.18c0,0.04,0.03,0.07,0.07,0.07H5.1c0.04,0,0.07-0.03,0.07-0.07v-2.18c0-1.6-1.3-2.91-2.9-2.91H0.07z"/>
		</defs>
		<clipPath id="SVGID_5_">
			<use xlink:href="#SVGID_4_"  style="overflow:visible;"/>
		</clipPath>
		
			<linearGradient id="SVGID_6_" gradientUnits="userSpaceOnUse" x1="-950.4422" y1="548.1403" x2="-950.3969" y2="548.1403" gradientTransform="matrix(853.8871 0 0 -853.8871 811570.0625 468063.3438)">
			<stop  offset="0" style="stop-color:#FBC266"/>
			<stop  offset="1" style="stop-color:#E51675"/>
		</linearGradient>
		<rect x="0" y="10.84" class="st1" width="5.17" height="5.15"/>
	</g>
	<g>
		<defs>
			<path id="SVGID_7_" d="M0.08,8.32C0.04,8.32,0,8.35,0,8.39v0.47C0,8.9,0.04,8.93,0.08,8.93h2.72c2.36,0,4.27,1.92,4.27,4.28v2.71
				C7.07,15.97,7.1,16,7.14,16h0.47c0.04,0,0.07-0.03,0.07-0.07v-2.71c0-2.7-2.19-4.89-4.88-4.89H0.08z"/>
		</defs>
		<clipPath id="SVGID_8_">
			<use xlink:href="#SVGID_7_"  style="overflow:visible;"/>
		</clipPath>
		
			<linearGradient id="SVGID_9_" gradientUnits="userSpaceOnUse" x1="-950.4422" y1="548.1093" x2="-950.3969" y2="548.1093" gradientTransform="matrix(853.8871 0 0 -853.8871 811570.0625 468035.5938)">
			<stop  offset="0" style="stop-color:#FBC266"/>
			<stop  offset="1" style="stop-color:#E51675"/>
		</linearGradient>
		<rect x="0" y="8.32" class="st2" width="7.67" height="7.68"/>
	</g>
	<g>
		<defs>
			<path id="SVGID_10_" d="M13.39,9.58c-2.11,0-3.81,1.71-3.81,3.82v2.53c0,0.04,0.03,0.07,0.07,0.07h0.47
				c0.04,0,0.07-0.03,0.07-0.07V13.4c0-1.77,1.43-3.21,3.2-3.21h2.54c0.04,0,0.07-0.03,0.07-0.07V9.65c0-0.04-0.03-0.07-0.07-0.07
				H13.39z"/>
		</defs>
		<clipPath id="SVGID_11_">
			<use xlink:href="#SVGID_10_"  style="overflow:visible;"/>
		</clipPath>
		
			<linearGradient id="SVGID_12_" gradientUnits="userSpaceOnUse" x1="-950.4422" y1="548.1247" x2="-950.3969" y2="548.1247" gradientTransform="matrix(853.8871 0 0 -853.8871 811570.0625 468049.4062)">
			<stop  offset="0" style="stop-color:#FBC266"/>
			<stop  offset="1" style="stop-color:#E51675"/>
		</linearGradient>
		<rect x="9.58" y="9.58" class="st3" width="6.42" height="6.42"/>
	</g>
	<g>
		<defs>
			<path id="SVGID_13_" d="M13.73,10.84c-1.6,0-2.9,1.3-2.9,2.91v2.18c0,0.04,0.03,0.07,0.07,0.07h0.47c0.04,0,0.07-0.03,0.07-0.07
				v-2.18c0-1.27,1.02-2.29,2.29-2.29h2.2c0.04,0,0.07-0.03,0.07-0.07v-0.47c0-0.04-0.03-0.07-0.07-0.07H13.73z"/>
		</defs>
		<clipPath id="SVGID_14_">
			<use xlink:href="#SVGID_13_"  style="overflow:visible;"/>
		</clipPath>
		
			<linearGradient id="SVGID_15_" gradientUnits="userSpaceOnUse" x1="-950.4422" y1="548.1403" x2="-950.3969" y2="548.1403" gradientTransform="matrix(853.8871 0 0 -853.8871 811570.0625 468063.3438)">
			<stop  offset="0" style="stop-color:#FBC266"/>
			<stop  offset="1" style="stop-color:#E51675"/>
		</linearGradient>
		<rect x="10.83" y="10.84" class="st4" width="5.17" height="5.15"/>
	</g>
	<g>
		<defs>
			<path id="SVGID_16_" d="M13.21,8.32c-2.7,0-4.88,2.19-4.88,4.89v2.71c0,0.04,0.03,0.07,0.07,0.07h0.47
				c0.04,0,0.07-0.03,0.07-0.07v-2.71c0-2.36,1.91-4.28,4.27-4.28h2.72c0.04,0,0.07-0.03,0.07-0.07V8.39c0-0.04-0.03-0.07-0.07-0.07
				H13.21z"/>
		</defs>
		<clipPath id="SVGID_17_">
			<use xlink:href="#SVGID_16_"  style="overflow:visible;"/>
		</clipPath>
		
			<linearGradient id="SVGID_18_" gradientUnits="userSpaceOnUse" x1="-950.4422" y1="548.1093" x2="-950.3969" y2="548.1093" gradientTransform="matrix(853.8871 0 0 -853.8871 811570.0625 468035.5938)">
			<stop  offset="0" style="stop-color:#FBC266"/>
			<stop  offset="1" style="stop-color:#E51675"/>
		</linearGradient>
		<rect x="8.32" y="8.32" class="st5" width="7.67" height="7.68"/>
	</g>
	<g>
		<defs>
			<path id="SVGID_19_" d="M5.88,0C5.84,0,5.81,0.04,5.81,0.08V2.6c0,1.77-1.43,3.21-3.2,3.21H0.08C0.04,5.81,0,5.84,0,5.88v0.47
				c0,0.04,0.03,0.07,0.07,0.07h2.54c2.11,0,3.81-1.71,3.81-3.82V0.08C6.42,0.04,6.39,0,6.35,0H5.88z"/>
		</defs>
		<clipPath id="SVGID_20_">
			<use xlink:href="#SVGID_19_"  style="overflow:visible;"/>
		</clipPath>
		
			<linearGradient id="SVGID_21_" gradientUnits="userSpaceOnUse" x1="-950.4422" y1="547.889" x2="-950.3969" y2="547.889" gradientTransform="matrix(853.8871 0 0 -853.8871 811570.0625 467838.5625)">
			<stop  offset="0" style="stop-color:#FBC266"/>
			<stop  offset="1" style="stop-color:#E51675"/>
		</linearGradient>
		<rect x="0" y="0" class="st6" width="6.42" height="6.42"/>
	</g>
	<g>
		<defs>
			<path id="SVGID_22_" d="M4.63,0C4.59,0,4.56,0.04,4.56,0.08v2.18c0,1.27-1.02,2.29-2.29,2.29h-2.2C0.03,4.54,0,4.58,0,4.62v0.47
				c0,0.04,0.03,0.07,0.07,0.07h2.2c1.6,0,2.9-1.3,2.9-2.91V0.08C5.17,0.04,5.14,0,5.1,0H4.63z"/>
		</defs>
		<clipPath id="SVGID_23_">
			<use xlink:href="#SVGID_22_"  style="overflow:visible;"/>
		</clipPath>
		
			<linearGradient id="SVGID_24_" gradientUnits="userSpaceOnUse" x1="-950.4422" y1="547.8734" x2="-950.3969" y2="547.8734" gradientTransform="matrix(853.8871 0 0 -853.8871 811570.0625 467824.6562)">
			<stop  offset="0" style="stop-color:#FBC266"/>
			<stop  offset="1" style="stop-color:#E51675"/>
		</linearGradient>
		<rect x="0" y="0" class="st7" width="5.17" height="5.15"/>
	</g>
	<g>
		<defs>
			<path id="SVGID_25_" d="M7.14,0C7.1,0,7.07,0.03,7.07,0.07v2.71c0,2.36-1.91,4.28-4.27,4.28H0.08C0.04,7.07,0,7.1,0,7.14v0.47
				c0,0.04,0.03,0.07,0.07,0.07h2.72c2.7,0,4.88-2.19,4.88-4.89V0.07C7.68,0.03,7.65,0,7.61,0H7.14z"/>
		</defs>
		<clipPath id="SVGID_26_">
			<use xlink:href="#SVGID_25_"  style="overflow:visible;"/>
		</clipPath>
		
			<linearGradient id="SVGID_27_" gradientUnits="userSpaceOnUse" x1="-950.4422" y1="547.9044" x2="-950.3969" y2="547.9044" gradientTransform="matrix(853.8871 0 0 -853.8871 811570.0625 467852.375)">
			<stop  offset="0" style="stop-color:#FBC266"/>
			<stop  offset="1" style="stop-color:#E51675"/>
		</linearGradient>
		<rect x="0" y="0" class="st8" width="7.67" height="7.68"/>
	</g>
	<g>
		<defs>
			<path id="SVGID_28_" d="M9.65,0C9.61,0,9.58,0.04,9.58,0.08V2.6c0,2.11,1.71,3.82,3.81,3.82h2.54c0.04,0,0.07-0.03,0.07-0.07
				V5.88c0-0.04-0.03-0.07-0.07-0.07h-2.54c-1.77,0-3.2-1.44-3.2-3.21V0.08c0-0.04-0.03-0.07-0.07-0.07H9.65z"/>
		</defs>
		<clipPath id="SVGID_29_">
			<use xlink:href="#SVGID_28_"  style="overflow:visible;"/>
		</clipPath>
		
			<linearGradient id="SVGID_30_" gradientUnits="userSpaceOnUse" x1="-950.4422" y1="547.889" x2="-950.3969" y2="547.889" gradientTransform="matrix(853.8871 0 0 -853.8871 811570.0625 467838.5625)">
			<stop  offset="0" style="stop-color:#FBC266"/>
			<stop  offset="1" style="stop-color:#E51675"/>
		</linearGradient>
		<rect x="9.58" y="0" class="st9" width="6.42" height="6.42"/>
	</g>
	<g>
		<defs>
			<path id="SVGID_31_" d="M10.9,0c-0.04,0-0.07,0.03-0.07,0.07v2.18c0,1.6,1.3,2.91,2.9,2.91h2.2c0.04,0,0.07-0.03,0.07-0.07V4.62
				c0-0.04-0.03-0.07-0.07-0.07h-2.2c-1.26,0-2.29-1.03-2.29-2.29V0.08c0-0.04-0.03-0.07-0.07-0.07H10.9z"/>
		</defs>
		<clipPath id="SVGID_32_">
			<use xlink:href="#SVGID_31_"  style="overflow:visible;"/>
		</clipPath>
		
			<linearGradient id="SVGID_33_" gradientUnits="userSpaceOnUse" x1="-950.4422" y1="547.8734" x2="-950.3969" y2="547.8734" gradientTransform="matrix(853.8871 0 0 -853.8871 811570.0625 467824.6562)">
			<stop  offset="0" style="stop-color:#FBC266"/>
			<stop  offset="1" style="stop-color:#E51675"/>
		</linearGradient>
		<rect x="10.83" y="0" class="st10" width="5.17" height="5.15"/>
	</g>
	<g>
		<defs>
			<path id="SVGID_34_" d="M8.39,0C8.35,0,8.32,0.03,8.32,0.07v2.71c0,2.7,2.19,4.89,4.88,4.89h2.72c0.04,0,0.07-0.03,0.07-0.07
				V7.14c0-0.04-0.03-0.07-0.07-0.07h-2.72c-2.36,0-4.27-1.92-4.27-4.28V0.07C8.93,0.03,8.9,0,8.86,0H8.39z"/>
		</defs>
		<clipPath id="SVGID_35_">
			<use xlink:href="#SVGID_34_"  style="overflow:visible;"/>
		</clipPath>
		
			<linearGradient id="SVGID_36_" gradientUnits="userSpaceOnUse" x1="-950.4422" y1="547.9044" x2="-950.3969" y2="547.9044" gradientTransform="matrix(853.8871 0 0 -853.8871 811570.0625 467852.375)">
			<stop  offset="0" style="stop-color:#FBC266"/>
			<stop  offset="1" style="stop-color:#E51675"/>
		</linearGradient>
		<rect x="8.32" y="0" class="st11" width="7.67" height="7.68"/>
	</g>
</g>
</svg>
