<?xml version="1.0" encoding="utf-8"?>
<!-- Generator: Adobe Illustrator 25.2.1, SVG Export Plug-In . SVG Version: 6.00 Build 0)  -->
<svg version="1.1" id="Layer_1" xmlns="http://www.w3.org/2000/svg" xmlns:xlink="http://www.w3.org/1999/xlink" x="0px" y="0px"
	 viewBox="0 0 956.6 352.29" style="enable-background:new 0 0 956.6 352.29;" xml:space="preserve">
<style type="text/css">
	.st0{clip-path:url(#SVGID_2_);fill:url(#SVGID_3_);}
	.st1{clip-path:url(#SVGID_5_);fill:url(#SVGID_6_);}
	.st2{clip-path:url(#SVGID_8_);fill:url(#SVGID_9_);}
	.st3{clip-path:url(#SVGID_11_);fill:url(#SVGID_12_);}
	.st4{clip-path:url(#SVGID_14_);fill:url(#SVGID_15_);}
	.st5{clip-path:url(#SVGID_17_);fill:url(#SVGID_18_);}
	.st6{clip-path:url(#SVGID_20_);fill:url(#SVGID_21_);}
	.st7{clip-path:url(#SVGID_23_);fill:url(#SVGID_24_);}
	.st8{clip-path:url(#SVGID_26_);fill:url(#SVGID_27_);}
	.st9{clip-path:url(#SVGID_29_);fill:url(#SVGID_30_);}
	.st10{clip-path:url(#SVGID_32_);fill:url(#SVGID_33_);}
	.st11{clip-path:url(#SVGID_35_);fill:url(#SVGID_36_);}
	.st12{clip-path:url(#SVGID_38_);fill:url(#SVGID_39_);}
	.st13{clip-path:url(#SVGID_41_);fill:url(#SVGID_42_);}
	.st14{clip-path:url(#SVGID_44_);fill:url(#SVGID_45_);}
	.st15{clip-path:url(#SVGID_47_);fill:url(#SVGID_48_);}
	.st16{clip-path:url(#SVGID_50_);fill:url(#SVGID_51_);}
	.st17{clip-path:url(#SVGID_53_);fill:url(#SVGID_54_);}
	.st18{clip-path:url(#SVGID_56_);fill:url(#SVGID_57_);}
	.st19{clip-path:url(#SVGID_59_);fill:url(#SVGID_60_);}
</style>
<g>
	<g>
		<defs>
			<path id="SVGID_1_" d="M1.67,210.9c-0.88,0-1.6,0.71-1.6,1.6v10.3c0,0.88,0.71,1.6,1.6,1.6h55.94c38.99,0,70.6,31.61,70.6,70.6
				v55.64c0,0.88,0.72,1.6,1.6,1.6h10.3c0.88,0,1.6-0.71,1.6-1.6v-55.64c0-46.45-37.65-84.1-84.09-84.1H1.67z"/>
		</defs>
		<clipPath id="SVGID_2_">
			<use xlink:href="#SVGID_1_"  style="overflow:visible;"/>
		</clipPath>
		
			<linearGradient id="SVGID_3_" gradientUnits="userSpaceOnUse" x1="-481.7" y1="710.305" x2="-480.7" y2="710.305" gradientTransform="matrix(853.8871 0 0 -853.8871 411310.125 606801.875)">
			<stop  offset="0" style="stop-color:#FEC465"/>
			<stop  offset="1" style="stop-color:#ED0874"/>
		</linearGradient>
		<rect x="0.07" y="210.9" class="st0" width="141.63" height="141.33"/>
	</g>
	<g>
		<defs>
			<path id="SVGID_4_" d="M1.6,238.73c-0.88,0-1.6,0.72-1.6,1.6v10.3c0,0.88,0.71,1.6,1.6,1.6h48.5c27.88,0,50.49,22.6,50.49,50.49
				v47.92c0,0.88,0.71,1.6,1.6,1.6h10.3c0.88,0,1.6-0.71,1.6-1.6v-47.92c0-35.34-28.65-63.98-63.98-63.98H1.6z"/>
		</defs>
		<clipPath id="SVGID_5_">
			<use xlink:href="#SVGID_4_"  style="overflow:visible;"/>
		</clipPath>
		
			<linearGradient id="SVGID_6_" gradientUnits="userSpaceOnUse" x1="-481.7" y1="710.305" x2="-480.7" y2="710.305" gradientTransform="matrix(853.8871 0 0 -853.8871 411310.125 606815.8125)">
			<stop  offset="0" style="stop-color:#FEC465"/>
			<stop  offset="1" style="stop-color:#ED0874"/>
		</linearGradient>
		<rect x="0" y="238.73" class="st1" width="114.08" height="113.5"/>
	</g>
	<g>
		<defs>
			<path id="SVGID_7_" d="M1.71,183.21c-0.88,0-1.6,0.71-1.6,1.6v10.3c0,0.88,0.71,1.6,1.6,1.6h59.92
				c52.07,0,94.27,42.21,94.27,94.27v59.72c0,0.88,0.72,1.6,1.6,1.6h10.3c0.88,0,1.6-0.71,1.6-1.6v-59.72
				c0-59.52-48.25-107.76-107.76-107.76H1.71z"/>
		</defs>
		<clipPath id="SVGID_8_">
			<use xlink:href="#SVGID_7_"  style="overflow:visible;"/>
		</clipPath>
		
			<linearGradient id="SVGID_9_" gradientUnits="userSpaceOnUse" x1="-481.7" y1="710.305" x2="-480.7" y2="710.305" gradientTransform="matrix(853.8871 0 0 -853.8871 411310.125 606788.0625)">
			<stop  offset="0" style="stop-color:#FEC465"/>
			<stop  offset="1" style="stop-color:#ED0874"/>
		</linearGradient>
		<rect x="0.11" y="183.21" class="st2" width="169.28" height="169.08"/>
	</g>
	<g>
		<defs>
			<path id="SVGID_10_" d="M295.39,210.9c-46.44,0-84.09,37.65-84.09,84.09v55.64c0,0.88,0.71,1.6,1.6,1.6h10.3
				c0.88,0,1.6-0.71,1.6-1.6v-55.64c0-38.99,31.61-70.6,70.6-70.6h55.94c0.88,0,1.6-0.71,1.6-1.6v-10.3c0-0.88-0.72-1.6-1.6-1.6
				H295.39z"/>
		</defs>
		<clipPath id="SVGID_11_">
			<use xlink:href="#SVGID_10_"  style="overflow:visible;"/>
		</clipPath>
		
			<linearGradient id="SVGID_12_" gradientUnits="userSpaceOnUse" x1="-481.7" y1="710.305" x2="-480.7" y2="710.305" gradientTransform="matrix(853.8871 0 0 -853.8871 411310.125 606801.875)">
			<stop  offset="0" style="stop-color:#FEC465"/>
			<stop  offset="1" style="stop-color:#ED0874"/>
		</linearGradient>
		<rect x="211.29" y="210.9" class="st3" width="141.63" height="141.33"/>
	</g>
	<g>
		<defs>
			<path id="SVGID_13_" d="M302.9,238.73c-35.34,0-63.98,28.65-63.98,63.98v47.92c0,0.88,0.72,1.6,1.6,1.6h10.3
				c0.88,0,1.6-0.71,1.6-1.6v-47.92c0-27.89,22.61-50.49,50.49-50.49h48.5c0.88,0,1.6-0.72,1.6-1.6v-10.3c0-0.88-0.71-1.6-1.6-1.6
				H302.9z"/>
		</defs>
		<clipPath id="SVGID_14_">
			<use xlink:href="#SVGID_13_"  style="overflow:visible;"/>
		</clipPath>
		
			<linearGradient id="SVGID_15_" gradientUnits="userSpaceOnUse" x1="-481.7" y1="710.305" x2="-480.7" y2="710.305" gradientTransform="matrix(853.8871 0 0 -853.8871 411310.125 606815.8125)">
			<stop  offset="0" style="stop-color:#FEC465"/>
			<stop  offset="1" style="stop-color:#ED0874"/>
		</linearGradient>
		<rect x="238.92" y="238.73" class="st4" width="114.08" height="113.5"/>
	</g>
	<g>
		<defs>
			<path id="SVGID_16_" d="M291.37,183.21c-59.52,0-107.76,48.25-107.76,107.76v59.72c0,0.88,0.71,1.6,1.6,1.6h10.3
				c0.88,0,1.6-0.71,1.6-1.6v-59.72c0-52.07,42.21-94.27,94.27-94.27h59.92c0.88,0,1.6-0.72,1.6-1.6v-10.3c0-0.88-0.71-1.6-1.6-1.6
				H291.37z"/>
		</defs>
		<clipPath id="SVGID_17_">
			<use xlink:href="#SVGID_16_"  style="overflow:visible;"/>
		</clipPath>
		
			<linearGradient id="SVGID_18_" gradientUnits="userSpaceOnUse" x1="-481.7" y1="710.305" x2="-480.7" y2="710.305" gradientTransform="matrix(853.8871 0 0 -853.8871 411310.125 606788.0625)">
			<stop  offset="0" style="stop-color:#FEC465"/>
			<stop  offset="1" style="stop-color:#ED0874"/>
		</linearGradient>
		<rect x="183.61" y="183.21" class="st5" width="169.28" height="169.08"/>
	</g>
	<g>
		<defs>
			<path id="SVGID_19_" d="M129.81,0.06c-0.88,0-1.6,0.72-1.6,1.6V57.3c0,38.99-31.61,70.6-70.6,70.6H1.67c-0.88,0-1.6,0.71-1.6,1.6
				v10.3c0,0.88,0.71,1.6,1.6,1.6h55.94c46.44,0,84.09-37.65,84.09-84.1V1.65c0-0.88-0.71-1.6-1.6-1.6H129.81z"/>
		</defs>
		<clipPath id="SVGID_20_">
			<use xlink:href="#SVGID_19_"  style="overflow:visible;"/>
		</clipPath>
		
			<linearGradient id="SVGID_21_" gradientUnits="userSpaceOnUse" x1="-481.7" y1="710.305" x2="-480.7" y2="710.305" gradientTransform="matrix(853.8871 0 0 -853.8871 411310.125 606591)">
			<stop  offset="0" style="stop-color:#FEC465"/>
			<stop  offset="1" style="stop-color:#ED0874"/>
		</linearGradient>
		<rect x="0.07" y="0.06" class="st6" width="141.63" height="141.34"/>
	</g>
	<g>
		<defs>
			<path id="SVGID_22_" d="M102.18,0.06c-0.88,0-1.6,0.72-1.6,1.6v47.92c0,27.89-22.61,50.49-50.49,50.49H1.6
				c-0.88,0-1.6,0.71-1.6,1.6v10.3c0,0.88,0.71,1.6,1.6,1.6h48.5c35.34,0,63.98-28.65,63.98-63.98V1.65c0-0.88-0.71-1.6-1.6-1.6
				H102.18z"/>
		</defs>
		<clipPath id="SVGID_23_">
			<use xlink:href="#SVGID_22_"  style="overflow:visible;"/>
		</clipPath>
		
			<linearGradient id="SVGID_24_" gradientUnits="userSpaceOnUse" x1="-481.7" y1="710.305" x2="-480.7" y2="710.305" gradientTransform="matrix(853.8871 0 0 -853.8871 411310.125 606577.125)">
			<stop  offset="0" style="stop-color:#FEC465"/>
			<stop  offset="1" style="stop-color:#ED0874"/>
		</linearGradient>
		<rect x="0" y="0.06" class="st7" width="114.08" height="113.5"/>
	</g>
	<g>
		<defs>
			<path id="SVGID_25_" d="M157.49,0c-0.88,0-1.6,0.71-1.6,1.6v59.72c0,52.06-42.21,94.27-94.27,94.27H1.71
				c-0.88,0-1.6,0.71-1.6,1.6v10.3c0,0.88,0.71,1.6,1.6,1.6h59.92c59.52,0,107.76-48.25,107.76-107.76V1.6c0-0.88-0.71-1.6-1.6-1.6
				H157.49z"/>
		</defs>
		<clipPath id="SVGID_26_">
			<use xlink:href="#SVGID_25_"  style="overflow:visible;"/>
		</clipPath>
		
			<linearGradient id="SVGID_27_" gradientUnits="userSpaceOnUse" x1="-481.7" y1="710.305" x2="-480.7" y2="710.305" gradientTransform="matrix(853.8871 0 0 -853.8871 411310.125 606604.8125)">
			<stop  offset="0" style="stop-color:#FEC465"/>
			<stop  offset="1" style="stop-color:#ED0874"/>
		</linearGradient>
		<rect x="0.11" class="st8" width="169.28" height="169.08"/>
	</g>
	<g>
		<defs>
			<path id="SVGID_28_" d="M212.89,0.06c-0.88,0-1.6,0.72-1.6,1.6V57.3c0,46.45,37.65,84.1,84.1,84.1h55.94c0.88,0,1.6-0.72,1.6-1.6
				v-10.3c0-0.88-0.72-1.6-1.6-1.6h-55.94c-38.99,0-70.6-31.61-70.6-70.6V1.65c0-0.88-0.72-1.6-1.6-1.6H212.89z"/>
		</defs>
		<clipPath id="SVGID_29_">
			<use xlink:href="#SVGID_28_"  style="overflow:visible;"/>
		</clipPath>
		
			<linearGradient id="SVGID_30_" gradientUnits="userSpaceOnUse" x1="-481.7" y1="710.305" x2="-480.7" y2="710.305" gradientTransform="matrix(853.8871 0 0 -853.8871 411310.125 606591)">
			<stop  offset="0" style="stop-color:#FEC465"/>
			<stop  offset="1" style="stop-color:#ED0874"/>
		</linearGradient>
		<rect x="211.29" y="0.06" class="st9" width="141.63" height="141.34"/>
	</g>
	<g>
		<defs>
			<path id="SVGID_31_" d="M240.51,0.06c-0.88,0-1.6,0.72-1.6,1.6v47.92c0,35.34,28.65,63.98,63.98,63.98h48.5
				c0.88,0,1.6-0.72,1.6-1.6v-10.3c0-0.88-0.71-1.6-1.6-1.6h-48.5c-27.89,0-50.49-22.61-50.49-50.49V1.65c0-0.88-0.71-1.6-1.6-1.6
				H240.51z"/>
		</defs>
		<clipPath id="SVGID_32_">
			<use xlink:href="#SVGID_31_"  style="overflow:visible;"/>
		</clipPath>
		
			<linearGradient id="SVGID_33_" gradientUnits="userSpaceOnUse" x1="-481.7" y1="710.305" x2="-480.7" y2="710.305" gradientTransform="matrix(853.8871 0 0 -853.8871 411310.125 606577.125)">
			<stop  offset="0" style="stop-color:#FEC465"/>
			<stop  offset="1" style="stop-color:#ED0874"/>
		</linearGradient>
		<rect x="238.92" y="0.06" class="st10" width="114.08" height="113.5"/>
	</g>
	<g>
		<defs>
			<path id="SVGID_34_" d="M185.2,0c-0.88,0-1.6,0.71-1.6,1.6v59.72c0,59.52,48.25,107.76,107.76,107.76h59.92
				c0.88,0,1.6-0.71,1.6-1.6v-10.3c0-0.88-0.71-1.6-1.6-1.6h-59.92c-52.07,0-94.27-42.21-94.27-94.27V1.6c0-0.88-0.71-1.6-1.6-1.6
				H185.2z"/>
		</defs>
		<clipPath id="SVGID_35_">
			<use xlink:href="#SVGID_34_"  style="overflow:visible;"/>
		</clipPath>
		
			<linearGradient id="SVGID_36_" gradientUnits="userSpaceOnUse" x1="-481.7" y1="710.305" x2="-480.7" y2="710.305" gradientTransform="matrix(853.8871 0 0 -853.8871 411310.125 606604.8125)">
			<stop  offset="0" style="stop-color:#FEC465"/>
			<stop  offset="1" style="stop-color:#ED0874"/>
		</linearGradient>
		<rect x="183.61" class="st11" width="169.28" height="169.08"/>
	</g>
	<g>
		<defs>
			<path id="SVGID_37_" d="M469.45,226.07c2.14-0.33,4.33-0.58,6.56-0.74c2.23-0.16,4.83-0.25,7.8-0.25
				c17.49,0,26.23,7.34,26.23,22.03c0,7.42-2.4,12.99-7.18,16.7c-4.79,3.71-11.22,5.57-19.3,5.57h-14.11V226.07z M471.05,194.14
				c-3.55,0.17-7.1,0.5-10.64,0.99c-3.55,0.49-7.02,1.08-10.39,1.73c-3.38,0.66-6.4,1.48-9.03,2.48c-3.3,0.99-5.82,2.39-7.55,4.21
				c-1.73,1.82-2.6,4.37-2.6,7.67v120.03c0,6.93,1.52,11.71,4.58,14.35c3.05,2.64,8.45,3.96,16.21,3.96c3.63,0,7.09-0.21,10.39-0.62
				c3.3-0.42,5.85-0.87,7.67-1.36v-47.77h16.34c9.9,0,18.77-1.24,26.6-3.71c7.84-2.47,14.48-6.02,19.92-10.64
				c5.44-4.62,9.61-10.19,12.5-16.71c2.89-6.52,4.33-13.73,4.33-21.65c0-16.5-5.78-29.49-17.33-38.98
				c-11.55-9.49-28.55-14.23-50.98-14.23C477.94,193.9,474.6,193.98,471.05,194.14"/>
		</defs>
		<clipPath id="SVGID_38_">
			<use xlink:href="#SVGID_37_"  style="overflow:visible;"/>
		</clipPath>
		
			<linearGradient id="SVGID_39_" gradientUnits="userSpaceOnUse" x1="-481.7" y1="710.305" x2="-480.7" y2="710.305" gradientTransform="matrix(853.8871 0 0 -853.8871 411310.125 606792.0625)">
			<stop  offset="0" style="stop-color:#FEC465"/>
			<stop  offset="1" style="stop-color:#ED0874"/>
		</linearGradient>
		<rect x="430.84" y="193.9" class="st12" width="118.55" height="155.67"/>
	</g>
	<g>
		<defs>
			<path id="SVGID_40_" d="M573.85,185.23c-3.05,0.5-5.41,0.99-7.05,1.48v145.28c0,6.93,1.61,11.59,4.83,13.98
				c3.22,2.39,8.54,3.59,15.96,3.59c3.63,0,6.93-0.21,9.9-0.62c2.97-0.42,5.36-0.87,7.18-1.36V202.31c0-6.93-1.65-11.63-4.95-14.11
				c-3.3-2.47-8.58-3.71-15.84-3.71C580.24,184.49,576.9,184.74,573.85,185.23"/>
		</defs>
		<clipPath id="SVGID_41_">
			<use xlink:href="#SVGID_40_"  style="overflow:visible;"/>
		</clipPath>
		
			<linearGradient id="SVGID_42_" gradientUnits="userSpaceOnUse" x1="-481.7" y1="710.305" x2="-480.7" y2="710.305" gradientTransform="matrix(853.8871 0 0 -853.8871 411310.125 606787.3125)">
			<stop  offset="0" style="stop-color:#FEC465"/>
			<stop  offset="1" style="stop-color:#ED0874"/>
		</linearGradient>
		<rect x="566.8" y="184.49" class="st13" width="37.87" height="165.08"/>
	</g>
	<g>
		<defs>
			<path id="SVGID_43_" d="M717.84,227.8c-2.97,0.49-5.28,0.99-6.93,1.48v89.09c-1.49,0.83-3.67,1.61-6.56,2.35
				c-2.89,0.74-6.48,1.11-10.77,1.11c-6.93,0-12.29-1.61-16.09-4.83c-3.8-3.22-5.69-8.54-5.69-15.96v-56.18
				c0-6.93-1.61-11.63-4.82-14.11c-3.22-2.47-8.54-3.71-15.96-3.71c-3.63,0-6.93,0.25-9.9,0.74c-2.97,0.49-5.36,0.99-7.18,1.48
				v72.02c0,8.91,1.44,16.5,4.33,22.77c2.88,6.27,6.93,11.47,12.13,15.59c5.2,4.13,11.42,7.14,18.69,9.03
				c7.26,1.9,15.34,2.85,24.25,2.85c9.41,0,17.98-0.95,25.74-2.85c7.76-1.89,14.27-4.49,19.55-7.79
				c6.77-4.12,10.15-10.06,10.15-17.82v-78.21c0-6.93-1.65-11.63-4.95-14.11c-3.3-2.47-8.66-3.71-16.09-3.71
				C724.11,227.06,720.81,227.31,717.84,227.8"/>
		</defs>
		<clipPath id="SVGID_44_">
			<use xlink:href="#SVGID_43_"  style="overflow:visible;"/>
		</clipPath>
		
			<linearGradient id="SVGID_45_" gradientUnits="userSpaceOnUse" x1="-481.7" y1="710.305" x2="-480.7" y2="710.305" gradientTransform="matrix(853.8871 0 0 -853.8871 411310.125 606809.625)">
			<stop  offset="0" style="stop-color:#FEC465"/>
			<stop  offset="1" style="stop-color:#ED0874"/>
		</linearGradient>
		<rect x="633.94" y="227.06" class="st14" width="114.84" height="124.49"/>
	</g>
	<g>
		<defs>
			<path id="SVGID_46_" d="M787.06,235.1c-9.49,6.85-14.23,16.13-14.23,27.84c0,10.56,3.3,18.77,9.9,24.63
				c6.6,5.86,16.66,10.19,30.19,12.99l9.9,2.23c4.95,1.16,8.45,2.48,10.52,3.96c2.06,1.48,3.09,3.63,3.09,6.43
				c0,6.6-5.86,9.9-17.57,9.9c-8.09,0-15.18-1.07-21.28-3.22c-6.11-2.14-11.55-4.62-16.33-7.43c-2.31,1.65-4.21,3.75-5.69,6.31
				c-1.48,2.56-2.23,5.65-2.23,9.28c0,3.96,1.15,7.42,3.46,10.39c2.31,2.97,5.53,5.45,9.65,7.42c4.12,1.98,9.03,3.47,14.73,4.46
				c5.69,0.99,12,1.49,18.93,1.49c17.65,0,31.02-3.43,40.09-10.27c9.07-6.84,13.61-16.37,13.61-28.59c0-9.9-3.22-17.98-9.65-24.25
				c-6.43-6.27-17.16-11.05-32.17-14.35l-9.4-2.23c-4.79-1.15-8.09-2.39-9.9-3.71c-1.82-1.32-2.72-3.13-2.72-5.44
				c0-3.13,1.61-5.48,4.83-7.05c3.22-1.57,7.71-2.35,13.49-2.35c2.8,0,5.85,0.24,9.16,0.74c3.3,0.49,6.44,1.16,9.41,1.98
				c2.97,0.83,5.73,1.73,8.29,2.72c2.56,0.99,4.49,1.9,5.82,2.72c2.14-1.65,3.88-3.75,5.2-6.31c1.32-2.55,1.98-5.48,1.98-8.79
				c0-3.63-1.11-6.8-3.34-9.53c-2.23-2.72-5.24-4.99-9.03-6.81c-3.8-1.81-8.33-3.17-13.61-4.08c-5.28-0.91-10.89-1.36-16.83-1.36
				C809.29,224.83,796.55,228.26,787.06,235.1"/>
		</defs>
		<clipPath id="SVGID_47_">
			<use xlink:href="#SVGID_46_"  style="overflow:visible;"/>
		</clipPath>
		
			<linearGradient id="SVGID_48_" gradientUnits="userSpaceOnUse" x1="-481.7" y1="710.305" x2="-480.7" y2="710.305" gradientTransform="matrix(853.8871 0 0 -853.8871 411310.125 606808.625)">
			<stop  offset="0" style="stop-color:#FEC465"/>
			<stop  offset="1" style="stop-color:#ED0874"/>
		</linearGradient>
		<rect x="772.83" y="224.83" class="st15" width="100.97" height="126.96"/>
	</g>
	<g>
		<defs>
			<path id="SVGID_49_" d="M451.38,0.31c-6.27,0-11.26,1.85-14.97,5.57c-3.71,3.71-5.57,8.7-5.57,14.97v112.86
				c0,6.93,1.52,11.72,4.58,14.35c3.05,2.64,8.45,3.96,16.21,3.96c3.63,0,7.09-0.21,10.39-0.62c3.3-0.41,5.85-0.87,7.67-1.36V94.85
				h46.28c4.12,0,7.43-1.28,9.9-3.84c2.47-2.55,3.71-6.56,3.71-12c0-3.3-0.46-6.19-1.36-8.66c-0.91-2.48-1.86-4.62-2.85-6.43H469.2
				V31.49h54.94c4.29,0,7.63-1.32,10.02-3.96c2.39-2.64,3.59-6.68,3.59-12.13c0-3.13-0.41-6.02-1.24-8.66
				c-0.83-2.64-1.73-4.78-2.72-6.43H451.38z"/>
		</defs>
		<clipPath id="SVGID_50_">
			<use xlink:href="#SVGID_49_"  style="overflow:visible;"/>
		</clipPath>
		
			<linearGradient id="SVGID_51_" gradientUnits="userSpaceOnUse" x1="-481.7" y1="710.305" x2="-480.7" y2="710.305" gradientTransform="matrix(853.8871 0 0 -853.8871 411310.125 606596.4375)">
			<stop  offset="0" style="stop-color:#FEC465"/>
			<stop  offset="1" style="stop-color:#ED0874"/>
		</linearGradient>
		<rect x="430.84" y="0.31" class="st16" width="106.91" height="151.71"/>
	</g>
	<g>
		<defs>
			<path id="SVGID_52_" d="M711.64,30.63c-7.67,1.9-14.23,4.5-19.67,7.8c-4.13,2.47-7.35,5.36-9.65,8.66
				c-2.31,3.3-3.46,7.26-3.46,11.88v75.48c0,6.93,1.65,11.59,4.95,13.98c3.3,2.39,8.66,3.59,16.09,3.59c3.63,0,6.93-0.21,9.9-0.62
				c2.97-0.41,5.28-0.87,6.93-1.36V63.91c3.63-1.98,7.84-3.54,12.62-4.7c4.78-1.15,9.57-1.73,14.36-1.73
				c5.44,0,10.06,0.41,13.86,1.24c0.99-1.65,1.9-3.63,2.72-5.94c0.82-2.31,1.24-4.87,1.24-7.67c0-11.55-8.58-17.32-25.74-17.32
				C727.36,27.78,719.32,28.73,711.64,30.63"/>
		</defs>
		<clipPath id="SVGID_53_">
			<use xlink:href="#SVGID_52_"  style="overflow:visible;"/>
		</clipPath>
		
			<linearGradient id="SVGID_54_" gradientUnits="userSpaceOnUse" x1="-481.7" y1="710.305" x2="-480.7" y2="710.305" gradientTransform="matrix(853.8871 0 0 -853.8871 411310.125 606610.1875)">
			<stop  offset="0" style="stop-color:#FEC465"/>
			<stop  offset="1" style="stop-color:#ED0874"/>
		</linearGradient>
		<rect x="678.85" y="27.78" class="st17" width="82.66" height="124.24"/>
	</g>
	<g>
		<defs>
			<path id="SVGID_55_" d="M885.57,30.87c-6.27,2.23-11.88,4.99-16.83,8.29c-5.12-3.96-10.77-6.89-16.95-8.79
				c-6.19-1.89-12.75-2.84-19.68-2.84c-8.75,0-17.12,1.16-25.12,3.46c-8.01,2.31-14.73,5.36-20.17,9.16
				c-3.3,2.31-5.86,4.79-7.67,7.42c-1.82,2.64-2.72,6.11-2.72,10.39v76.48c0,6.93,1.65,11.59,4.95,13.98
				c3.3,2.39,8.66,3.59,16.09,3.59c3.63,0,6.93-0.21,9.9-0.62c2.97-0.41,5.28-0.87,6.93-1.36V61.93c1.81-0.99,4.12-2.02,6.93-3.09
				c2.81-1.07,5.94-1.61,9.41-1.61c4.78,0,8.82,1.28,12.13,3.84c3.3,2.56,4.95,6.56,4.95,12.01v61.38c0,6.93,1.61,11.59,4.83,13.98
				c3.22,2.39,8.54,3.59,15.96,3.59c3.63,0,6.93-0.21,9.9-0.62c2.97-0.41,5.36-0.87,7.18-1.36V68.37c0-0.82-0.04-1.65-0.12-2.48
				c-0.08-0.82-0.21-1.65-0.37-2.47c2.31-1.82,4.91-3.3,7.8-4.46c2.88-1.15,5.98-1.73,9.28-1.73c5.11,0,9.16,1.28,12.13,3.84
				c2.97,2.56,4.46,6.56,4.46,12.01v61.38c0,6.93,1.61,11.59,4.83,13.98c3.22,2.39,8.54,3.59,15.96,3.59c3.63,0,6.93-0.21,9.9-0.62
				c2.97-0.41,5.36-0.87,7.18-1.36V72.08c0-8.08-1.36-14.97-4.08-20.67c-2.72-5.69-6.31-10.31-10.77-13.86
				c-4.45-3.55-9.61-6.1-15.47-7.67c-5.86-1.57-12-2.35-18.44-2.35C899.26,27.53,891.84,28.65,885.57,30.87"/>
		</defs>
		<clipPath id="SVGID_56_">
			<use xlink:href="#SVGID_55_"  style="overflow:visible;"/>
		</clipPath>
		
			<linearGradient id="SVGID_57_" gradientUnits="userSpaceOnUse" x1="-481.7" y1="710.305" x2="-480.7" y2="710.305" gradientTransform="matrix(853.8871 0 0 -853.8871 411310.125 606610.0625)">
			<stop  offset="0" style="stop-color:#FEC465"/>
			<stop  offset="1" style="stop-color:#ED0874"/>
		</linearGradient>
		<rect x="776.43" y="27.53" class="st18" width="180.17" height="124.49"/>
	</g>
	<g>
		<defs>
			<path id="SVGID_58_" d="M578.97,113.65c0.35-3.62,1.53-5.17,4.46-7.24c9.59-6.77,33.46-2.68,33.46-2.68v18.24
				c-6.36,2.99-13.21,4.41-19.31,4.41C586.7,126.37,578.18,121.85,578.97,113.65 M560.97,34.93c-7.71,2.85-11.82,10.51-11.82,17.48
				c0,3.01,1.08,10.3,8.32,16.53c26.97-15.91,59.86-11.08,59.86,3.99v6.02c0,0-44.91-7.12-66.08,12.17
				c-6.39,5.82-9.34,12.46-9.34,23.39c0,34,37.09,37.29,46.55,37.27c16.75-0.03,28.43-6.62,28.43-6.62
				c6.17,12.47,36.34,3.33,36.34,3.33l0-21.38V73.4c0,0,1.32-27.91-30.98-39.14c-9.97-3.47-19.94-4.75-29.06-4.75
				C579.74,29.51,568.11,32.29,560.97,34.93"/>
		</defs>
		<clipPath id="SVGID_59_">
			<use xlink:href="#SVGID_58_"  style="overflow:visible;"/>
		</clipPath>
		
			<linearGradient id="SVGID_60_" gradientUnits="userSpaceOnUse" x1="-481.7" y1="710.3016" x2="-480.7" y2="710.3016" gradientTransform="matrix(853.8871 0 0 -853.8871 411310.125 606610.9375)">
			<stop  offset="0" style="stop-color:#FEC465"/>
			<stop  offset="1" style="stop-color:#ED0874"/>
		</linearGradient>
		<rect x="541.91" y="29.51" class="st19" width="112.65" height="128.12"/>
	</g>
</g>
</svg>
