<?xml version="1.0" encoding="utf-8"?>
<!-- Generator: Adobe Illustrator 26.0.0, SVG Export Plug-In . SVG Version: 6.00 Build 0)  -->
<svg version="1.1" id="Layer_1" xmlns="http://www.w3.org/2000/svg" xmlns:xlink="http://www.w3.org/1999/xlink" x="0px" y="0px"
	 viewBox="0 0 297.24 115.45" style="enable-background:new 0 0 297.24 115.45;" xml:space="preserve">
<style type="text/css">
	.st0{fill:url(#SVGID_1_);}
	.st1{fill:url(#SVGID_00000094586088035584422930000010995573357384225671_);}
	.st2{fill:url(#SVGID_00000047778424264806744770000012474348646774820031_);}
	.st3{fill:url(#SVGID_00000160153732070210018440000015990950959330100373_);}
	.st4{fill:url(#SVGID_00000107576582522392424260000010946910723374439833_);}
	.st5{fill:url(#SVGID_00000142890249547437543470000014995767698338971012_);}
	.st6{fill:url(#SVGID_00000143581426930191864200000011356983662059788169_);}
	.st7{fill:url(#SVGID_00000032607493015662760140000000722517499569432993_);}
	.st8{fill:url(#SVGID_00000153694180548371470100000010114980141644443526_);}
	.st9{fill:url(#SVGID_00000160907267365052805190000000509465845605627830_);}
	.st10{fill:url(#SVGID_00000164473624873640195460000010531068028925014166_);}
	.st11{fill:url(#SVGID_00000075872531785476813120000018231612138654401725_);}
	.st12{fill:url(#SVGID_00000085229808895387494440000015241927287388882347_);}
	.st13{fill:url(#SVGID_00000074434919554859060750000012203135623433616556_);}
	.st14{fill:url(#SVGID_00000077314550807784578200000011131757611199988624_);}
	.st15{fill:url(#SVGID_00000146478042332041331560000007825092641048116872_);}
	.st16{fill:url(#SVGID_00000157298072668290693120000015672043525396127619_);}
	.st17{fill:url(#SVGID_00000082368805863783541270000008643581779995465869_);}
	.st18{fill:url(#SVGID_00000055677722351385065360000000235924081482304418_);}
	.st19{fill:url(#SVGID_00000172417827632743844960000004856141607598118815_);}
	.st20{fill:#ED0E74;}
</style>
<g>
	<g>
		<g>
			<linearGradient id="SVGID_1_" gradientUnits="userSpaceOnUse" x1="-2.4355" y1="92.3081" x2="277.0042" y2="92.3081">
				<stop  offset="0" style="stop-color:#FEC566"/>
				<stop  offset="1" style="stop-color:#ED0E74"/>
			</linearGradient>
			<path class="st0" d="M45.81,115.43h-3.37c-0.29,0-0.52-0.23-0.52-0.52V96.7c0-12.76-10.34-23.1-23.1-23.1H0.51
				c-0.29,0-0.52-0.23-0.52-0.52V69.7c0-0.29,0.23-0.52,0.52-0.52h18.31c15.2,0,27.52,12.32,27.52,27.52v18.21
				C46.34,115.2,46.1,115.43,45.81,115.43z"/>
		</g>
		<g>
			
				<linearGradient id="SVGID_00000126300327623466656410000011317413625887086488_" gradientUnits="userSpaceOnUse" x1="-2.4355" y1="96.8624" x2="277.0042" y2="96.8624">
				<stop  offset="0" style="stop-color:#FEC566"/>
				<stop  offset="1" style="stop-color:#ED0E74"/>
			</linearGradient>
			<path style="fill:url(#SVGID_00000126300327623466656410000011317413625887086488_);" d="M36.77,115.43H33.4
				c-0.29,0-0.52-0.23-0.52-0.52V99.23c0-9.13-7.4-16.52-16.52-16.52H0.49c-0.29,0-0.52-0.23-0.52-0.52v-3.37
				c0-0.29,0.23-0.52,0.52-0.52h15.87c11.56,0,20.94,9.37,20.94,20.94v15.68C37.3,115.2,37.06,115.43,36.77,115.43z"/>
		</g>
		<g>
			
				<linearGradient id="SVGID_00000020391874787135968440000006130509531349896625_" gradientUnits="userSpaceOnUse" x1="-2.4355" y1="87.7873" x2="277.0042" y2="87.7873">
				<stop  offset="0" style="stop-color:#FEC566"/>
				<stop  offset="1" style="stop-color:#ED0E74"/>
			</linearGradient>
			<path style="fill:url(#SVGID_00000020391874787135968440000006130509531349896625_);" d="M54.87,115.45H51.5
				c-0.29,0-0.52-0.23-0.52-0.52V95.39c0-17.04-13.81-30.85-30.85-30.85H0.52C0.23,64.54,0,64.3,0,64.01v-3.37
				c0-0.29,0.23-0.52,0.52-0.52h19.61c19.48,0,35.27,15.79,35.27,35.27v19.54C55.4,115.22,55.16,115.45,54.87,115.45z"/>
		</g>
		<g>
			<g>
				
					<linearGradient id="SVGID_00000178890868231635199290000005241647049331559843_" gradientUnits="userSpaceOnUse" x1="-2.4355" y1="92.3081" x2="277.0042" y2="92.3081">
					<stop  offset="0" style="stop-color:#FEC566"/>
					<stop  offset="1" style="stop-color:#ED0E74"/>
				</linearGradient>
				<path style="fill:url(#SVGID_00000178890868231635199290000005241647049331559843_);" d="M73,115.43h-3.37
					c-0.29,0-0.52-0.23-0.52-0.52V96.7c0-15.2,12.32-27.52,27.52-27.52h18.31c0.29,0,0.52,0.23,0.52,0.52v3.37
					c0,0.29-0.23,0.52-0.52,0.52H96.63c-12.76,0-23.1,10.34-23.1,23.1v18.21C73.53,115.2,73.29,115.43,73,115.43z"/>
			</g>
			<g>
				
					<linearGradient id="SVGID_00000002342555460225575650000000692169031254311614_" gradientUnits="userSpaceOnUse" x1="-2.4355" y1="96.8624" x2="277.0042" y2="96.8624">
					<stop  offset="0" style="stop-color:#FEC566"/>
					<stop  offset="1" style="stop-color:#ED0E74"/>
				</linearGradient>
				<path style="fill:url(#SVGID_00000002342555460225575650000000692169031254311614_);" d="M82.04,115.43h-3.37
					c-0.29,0-0.52-0.23-0.52-0.52V99.23c0-11.56,9.37-20.94,20.94-20.94h15.87c0.29,0,0.52,0.23,0.52,0.52v3.37
					c0,0.29-0.23,0.52-0.52,0.52H99.09c-9.13,0-16.52,7.4-16.52,16.52v15.68C82.57,115.2,82.33,115.43,82.04,115.43z"/>
			</g>
			<g>
				
					<linearGradient id="SVGID_00000088120513410828047480000005084121990302223028_" gradientUnits="userSpaceOnUse" x1="-2.4355" y1="87.7873" x2="277.0042" y2="87.7873">
					<stop  offset="0" style="stop-color:#FEC566"/>
					<stop  offset="1" style="stop-color:#ED0E74"/>
				</linearGradient>
				<path style="fill:url(#SVGID_00000088120513410828047480000005084121990302223028_);" d="M63.94,115.45h-3.37
					c-0.29,0-0.52-0.23-0.52-0.52V95.39c0-19.48,15.79-35.27,35.27-35.27h19.61c0.29,0,0.52,0.23,0.52,0.52v3.37
					c0,0.29-0.23,0.52-0.52,0.52H95.32c-17.04,0-30.85,13.81-30.85,30.85v19.54C64.47,115.22,64.23,115.45,63.94,115.45z"/>
			</g>
		</g>
		<g>
			<g>
				
					<linearGradient id="SVGID_00000170973654328469699060000015126686814744635314_" gradientUnits="userSpaceOnUse" x1="-2.4355" y1="23.3091" x2="277.0042" y2="23.3091">
					<stop  offset="0" style="stop-color:#FEC566"/>
					<stop  offset="1" style="stop-color:#ED0E74"/>
				</linearGradient>
				<path style="fill:url(#SVGID_00000170973654328469699060000015126686814744635314_);" d="M18.82,46.44H0.51
					c-0.29,0-0.52-0.23-0.52-0.52v-3.37c0-0.29,0.23-0.52,0.52-0.52h18.31c12.76,0,23.11-10.34,23.11-23.11V0.71
					c0-0.29,0.23-0.52,0.52-0.52h3.37c0.29,0,0.52,0.23,0.52,0.52v18.21C46.34,34.11,34.02,46.44,18.82,46.44z"/>
			</g>
			<g>
				
					<linearGradient id="SVGID_00000129167323614989593170000013164940358535158955_" gradientUnits="userSpaceOnUse" x1="-2.4355" y1="18.7548" x2="277.0042" y2="18.7548">
					<stop  offset="0" style="stop-color:#FEC566"/>
					<stop  offset="1" style="stop-color:#ED0E74"/>
				</linearGradient>
				<path style="fill:url(#SVGID_00000129167323614989593170000013164940358535158955_);" d="M16.36,37.33H0.49
					c-0.29,0-0.52-0.23-0.52-0.52v-3.37c0-0.29,0.23-0.52,0.52-0.52h15.87c9.13,0,16.52-7.4,16.52-16.52V0.71
					c0-0.29,0.23-0.52,0.52-0.52h3.37c0.29,0,0.52,0.23,0.52,0.52v15.68C37.3,27.95,27.92,37.33,16.36,37.33z"/>
			</g>
			<g>
				
					<linearGradient id="SVGID_00000002378781616641593250000014917725884602817709_" gradientUnits="userSpaceOnUse" x1="-2.4355" y1="27.8297" x2="277.0042" y2="27.8297">
					<stop  offset="0" style="stop-color:#FEC566"/>
					<stop  offset="1" style="stop-color:#ED0E74"/>
				</linearGradient>
				<path style="fill:url(#SVGID_00000002378781616641593250000014917725884602817709_);" d="M20.13,55.5H0.52
					C0.23,55.5,0,55.26,0,54.97V51.6c0-0.29,0.23-0.52,0.52-0.52h19.61c17.04,0,30.85-13.81,30.85-30.85V0.69
					c0-0.29,0.23-0.52,0.52-0.52h3.37c0.29,0,0.52,0.23,0.52,0.52v19.54C55.4,39.71,39.61,55.5,20.13,55.5z"/>
			</g>
			<g>
				<g>
					
						<linearGradient id="SVGID_00000181079612990457685980000016000829823565956999_" gradientUnits="userSpaceOnUse" x1="-2.4355" y1="23.3091" x2="277.0042" y2="23.3091">
						<stop  offset="0" style="stop-color:#FEC566"/>
						<stop  offset="1" style="stop-color:#ED0E74"/>
					</linearGradient>
					<path style="fill:url(#SVGID_00000181079612990457685980000016000829823565956999_);" d="M114.94,46.44H96.63
						c-15.2,0-27.52-12.32-27.52-27.52V0.71c0-0.29,0.23-0.52,0.52-0.52H73c0.29,0,0.52,0.23,0.52,0.52v18.21
						c0,12.76,10.34,23.11,23.11,23.11h18.31c0.29,0,0.52,0.23,0.52,0.52v3.37C115.46,46.2,115.23,46.44,114.94,46.44z"/>
				</g>
				<g>
					
						<linearGradient id="SVGID_00000046330304032271314080000000453585845504477836_" gradientUnits="userSpaceOnUse" x1="-2.4355" y1="18.7548" x2="277.0042" y2="18.7548">
						<stop  offset="0" style="stop-color:#FEC566"/>
						<stop  offset="1" style="stop-color:#ED0E74"/>
					</linearGradient>
					<path style="fill:url(#SVGID_00000046330304032271314080000000453585845504477836_);" d="M114.96,37.33H99.09
						c-11.56,0-20.94-9.37-20.94-20.94V0.71c0-0.29,0.23-0.52,0.52-0.52h3.37c0.29,0,0.52,0.23,0.52,0.52v15.68
						c0,9.13,7.4,16.52,16.52,16.52h15.87c0.29,0,0.52,0.23,0.52,0.52v3.37C115.48,37.09,115.25,37.33,114.96,37.33z"/>
				</g>
				<g>
					
						<linearGradient id="SVGID_00000167354499337472459960000003262122814027427492_" gradientUnits="userSpaceOnUse" x1="-2.4355" y1="27.8297" x2="277.0042" y2="27.8297">
						<stop  offset="0" style="stop-color:#FEC566"/>
						<stop  offset="1" style="stop-color:#ED0E74"/>
					</linearGradient>
					<path style="fill:url(#SVGID_00000167354499337472459960000003262122814027427492_);" d="M114.92,55.5H95.32
						c-19.48,0-35.27-15.79-35.27-35.27V0.69c0-0.29,0.23-0.52,0.52-0.52h3.37c0.29,0,0.52,0.23,0.52,0.52v19.54
						c0,17.04,13.81,30.85,30.85,30.85h19.61c0.29,0,0.52,0.23,0.52,0.52v3.37C115.45,55.26,115.21,55.5,114.92,55.5z"/>
				</g>
			</g>
		</g>
	</g>
	<g>
		
			<linearGradient id="SVGID_00000031927680888447801990000003026741641706200491_" gradientUnits="userSpaceOnUse" x1="17.2465" y1="74.247" x2="250.0448" y2="74.247">
			<stop  offset="0" style="stop-color:#FEC566"/>
			<stop  offset="1" style="stop-color:#ED0E74"/>
		</linearGradient>
		<path style="fill:url(#SVGID_00000031927680888447801990000003026741641706200491_);" d="M147.3,81.9v13.02
			c-0.5,0.14-1.19,0.26-2.09,0.37c-0.9,0.11-1.84,0.17-2.83,0.17c-2.11,0-3.59-0.36-4.42-1.08c-0.83-0.72-1.25-2.02-1.25-3.91V57.75
			c0-0.9,0.24-1.6,0.71-2.09c0.47-0.49,1.16-0.88,2.06-1.15c0.72-0.27,1.54-0.49,2.46-0.67c0.92-0.18,1.87-0.34,2.83-0.47
			c0.97-0.13,1.93-0.22,2.9-0.27c0.97-0.04,1.88-0.07,2.73-0.07c6.12,0,10.75,1.29,13.9,3.88c3.15,2.59,4.72,6.13,4.72,10.63
			c0,2.16-0.39,4.13-1.18,5.9c-0.79,1.78-1.92,3.3-3.41,4.55c-1.48,1.26-3.3,2.23-5.43,2.9c-2.14,0.67-4.55,1.01-7.25,1.01H147.3z
			 M151.08,73.61c2.2,0,3.96-0.51,5.26-1.52c1.3-1.01,1.96-2.53,1.96-4.55c0-4-2.39-6.01-7.15-6.01c-0.81,0-1.52,0.02-2.13,0.07
			c-0.61,0.05-1.2,0.11-1.79,0.2v11.81H151.08z"/>
		
			<linearGradient id="SVGID_00000047756505276576627230000016280860507666146230_" gradientUnits="userSpaceOnUse" x1="17.2465" y1="72.9648" x2="250.0448" y2="72.9648">
			<stop  offset="0" style="stop-color:#FEC566"/>
			<stop  offset="1" style="stop-color:#ED0E74"/>
		</linearGradient>
		<path style="fill:url(#SVGID_00000047756505276576627230000016280860507666146230_);" d="M179.44,95.47
			c-2.02,0-3.47-0.33-4.35-0.98c-0.88-0.65-1.32-1.92-1.32-3.81V51.07c0.45-0.13,1.09-0.27,1.92-0.4c0.83-0.13,1.74-0.2,2.73-0.2
			c1.98,0,3.42,0.34,4.32,1.01c0.9,0.67,1.35,1.96,1.35,3.85v39.61c-0.5,0.14-1.15,0.26-1.96,0.37
			C181.33,95.41,180.43,95.47,179.44,95.47z"/>
		
			<linearGradient id="SVGID_00000064314914877248188480000015806638073970337435_" gradientUnits="userSpaceOnUse" x1="17.2465" y1="79.0371" x2="250.0448" y2="79.0371">
			<stop  offset="0" style="stop-color:#FEC566"/>
			<stop  offset="1" style="stop-color:#ED0E74"/>
		</linearGradient>
		<path style="fill:url(#SVGID_00000064314914877248188480000015806638073970337435_);" d="M220.62,93.11
			c-1.44,0.9-3.22,1.61-5.33,2.13s-4.45,0.78-7.02,0.78c-2.43,0-4.63-0.26-6.61-0.78c-1.98-0.52-3.68-1.34-5.09-2.46
			c-1.42-1.12-2.52-2.54-3.31-4.25c-0.79-1.71-1.18-3.78-1.18-6.21V62.68c0.49-0.14,1.15-0.27,1.96-0.4c0.81-0.14,1.71-0.2,2.7-0.2
			c2.02,0,3.47,0.34,4.35,1.01c0.88,0.67,1.32,1.96,1.32,3.85v15.32c0,2.02,0.52,3.47,1.55,4.35c1.03,0.88,2.5,1.32,4.39,1.32
			c1.17,0,2.15-0.1,2.94-0.3c0.79-0.2,1.38-0.42,1.79-0.64V62.68c0.45-0.14,1.08-0.27,1.89-0.4c0.81-0.14,1.71-0.2,2.7-0.2
			c2.02,0,3.48,0.34,4.39,1.01c0.9,0.67,1.35,1.96,1.35,3.85v21.32C223.39,90.36,222.46,91.98,220.62,93.11z"/>
		
			<linearGradient id="SVGID_00000179622280828654864100000016811482937250821504_" gradientUnits="userSpaceOnUse" x1="17.2465" y1="78.7674" x2="250.0448" y2="78.7674">
			<stop  offset="0" style="stop-color:#FEC566"/>
			<stop  offset="1" style="stop-color:#ED0E74"/>
		</linearGradient>
		<path style="fill:url(#SVGID_00000179622280828654864100000016811482937250821504_);" d="M257.47,85.48
			c0,3.33-1.24,5.93-3.71,7.79c-2.47,1.87-6.12,2.8-10.93,2.8c-1.89,0-3.61-0.13-5.16-0.4c-1.55-0.27-2.89-0.67-4.01-1.21
			c-1.12-0.54-2-1.21-2.63-2.02c-0.63-0.81-0.94-1.75-0.94-2.83c0-0.99,0.2-1.83,0.61-2.53c0.4-0.7,0.92-1.27,1.55-1.72
			c1.3,0.77,2.79,1.44,4.45,2.02c1.66,0.58,3.6,0.88,5.8,0.88c3.19,0,4.79-0.9,4.79-2.7c0-0.76-0.28-1.35-0.84-1.75
			c-0.56-0.4-1.52-0.76-2.87-1.08l-2.7-0.61c-3.69-0.76-6.43-1.95-8.23-3.54c-1.8-1.6-2.7-3.83-2.7-6.71c0-3.19,1.29-5.72,3.88-7.59
			c2.59-1.87,6.06-2.8,10.42-2.8c1.62,0,3.15,0.12,4.59,0.37c1.44,0.25,2.68,0.62,3.71,1.11c1.03,0.5,1.86,1.11,2.46,1.86
			c0.61,0.74,0.91,1.61,0.91,2.6c0,0.9-0.18,1.7-0.54,2.4c-0.36,0.7-0.83,1.27-1.42,1.72c-0.36-0.22-0.89-0.47-1.59-0.74
			c-0.7-0.27-1.45-0.52-2.26-0.74c-0.81-0.22-1.66-0.4-2.56-0.54c-0.9-0.14-1.73-0.2-2.5-0.2c-1.58,0-2.8,0.21-3.68,0.64
			c-0.88,0.43-1.32,1.07-1.32,1.92c0,0.63,0.25,1.12,0.74,1.48c0.49,0.36,1.39,0.7,2.7,1.01l2.56,0.61c4.09,0.9,7.02,2.2,8.77,3.91
			C256.6,80.58,257.47,82.78,257.47,85.48z"/>
		
			<linearGradient id="SVGID_00000099623863115290692930000008669629184967938692_" gradientUnits="userSpaceOnUse" x1="17.2465" y1="20.929" x2="250.0448" y2="20.929">
			<stop  offset="0" style="stop-color:#FEC566"/>
			<stop  offset="1" style="stop-color:#ED0E74"/>
		</linearGradient>
		<path style="fill:url(#SVGID_00000099623863115290692930000008669629184967938692_);" d="M164.78,0.25
			c0.27,0.45,0.52,1.03,0.74,1.75c0.22,0.72,0.34,1.51,0.34,2.36c0,1.48-0.33,2.59-0.98,3.31c-0.65,0.72-1.56,1.08-2.73,1.08h-14.98
			v8.84h15.32c0.27,0.5,0.53,1.08,0.78,1.75c0.25,0.67,0.37,1.46,0.37,2.36c0,1.48-0.34,2.58-1.01,3.27
			c-0.67,0.7-1.58,1.05-2.7,1.05H147.3v15.05c-0.5,0.14-1.19,0.26-2.09,0.37c-0.9,0.11-1.84,0.17-2.83,0.17
			c-2.11,0-3.59-0.36-4.42-1.08c-0.83-0.72-1.25-2.02-1.25-3.91V5.85c0-1.71,0.51-3.07,1.52-4.08c1.01-1.01,2.37-1.52,4.08-1.52
			H164.78z"/>
		
			<linearGradient id="SVGID_00000023251589299631474320000007817552743481210270_" gradientUnits="userSpaceOnUse" x1="17.2465" y1="24.6738" x2="250.0448" y2="24.6738">
			<stop  offset="0" style="stop-color:#FEC566"/>
			<stop  offset="1" style="stop-color:#ED0E74"/>
		</linearGradient>
		<path style="fill:url(#SVGID_00000023251589299631474320000007817552743481210270_);" d="M214.65,41.07
			c-0.45,0.14-1.08,0.26-1.89,0.37c-0.81,0.11-1.71,0.17-2.7,0.17c-2.02,0-3.49-0.33-4.39-0.98c-0.9-0.65-1.35-1.92-1.35-3.81V16.24
			c0-1.26,0.31-2.34,0.94-3.24c0.63-0.9,1.51-1.69,2.63-2.36c1.48-0.9,3.27-1.61,5.36-2.13c2.09-0.52,4.28-0.78,6.58-0.78
			c4.68,0,7.02,1.57,7.02,4.72c0,0.77-0.11,1.46-0.34,2.09c-0.23,0.63-0.47,1.17-0.74,1.62c-1.04-0.22-2.29-0.34-3.78-0.34
			c-1.31,0-2.61,0.16-3.91,0.47c-1.3,0.32-2.45,0.74-3.44,1.28V41.07z"/>
		
			<linearGradient id="SVGID_00000103224081223776558220000001037678952404090300_" gradientUnits="userSpaceOnUse" x1="17.2465" y1="24.6399" x2="250.0448" y2="24.6399">
			<stop  offset="0" style="stop-color:#FEC566"/>
			<stop  offset="1" style="stop-color:#ED0E74"/>
		</linearGradient>
		<path style="fill:url(#SVGID_00000103224081223776558220000001037678952404090300_);" d="M280.05,41.07
			c-0.5,0.14-1.15,0.26-1.96,0.37c-0.81,0.11-1.71,0.17-2.7,0.17c-2.02,0-3.47-0.33-4.35-0.98c-0.88-0.65-1.32-1.92-1.32-3.81V20.09
			c0-1.48-0.4-2.57-1.21-3.27c-0.81-0.7-1.91-1.05-3.31-1.05c-0.9,0-1.74,0.16-2.53,0.47c-0.79,0.32-1.5,0.72-2.13,1.21
			c0.04,0.23,0.08,0.45,0.1,0.67c0.02,0.23,0.03,0.45,0.03,0.67v22.27c-0.5,0.14-1.15,0.26-1.96,0.37c-0.81,0.11-1.71,0.17-2.7,0.17
			c-2.02,0-3.47-0.33-4.35-0.98c-0.88-0.65-1.32-1.92-1.32-3.81V20.09c0-1.48-0.45-2.57-1.35-3.27c-0.9-0.7-2-1.05-3.31-1.05
			c-0.94,0-1.8,0.15-2.56,0.44c-0.77,0.29-1.39,0.57-1.89,0.84v24.02c-0.45,0.14-1.08,0.26-1.89,0.37c-0.81,0.11-1.71,0.17-2.7,0.17
			c-2.02,0-3.49-0.33-4.39-0.98c-0.9-0.65-1.35-1.92-1.35-3.81V15.97c0-1.17,0.25-2.11,0.74-2.83c0.49-0.72,1.19-1.39,2.09-2.02
			c1.48-1.03,3.32-1.87,5.5-2.5c2.18-0.63,4.46-0.94,6.85-0.94c1.89,0,3.68,0.26,5.36,0.78c1.69,0.52,3.23,1.32,4.62,2.4
			c1.35-0.9,2.88-1.65,4.59-2.26c1.71-0.61,3.73-0.91,6.07-0.91c1.75,0,3.43,0.21,5.03,0.64c1.6,0.43,3,1.12,4.22,2.09
			c1.21,0.97,2.19,2.23,2.94,3.78c0.74,1.55,1.11,3.43,1.11,5.63V41.07z"/>
		
			<linearGradient id="SVGID_00000149343679701088389520000017527714262681616778_" gradientUnits="userSpaceOnUse" x1="17.2465" y1="24.8775" x2="250.0448" y2="24.8775">
			<stop  offset="0" style="stop-color:#FEC566"/>
			<stop  offset="1" style="stop-color:#ED0E74"/>
		</linearGradient>
		<path style="fill:url(#SVGID_00000149343679701088389520000017527714262681616778_);" d="M197.34,40.65l0-5.83V20.18
			c0,0,0.36-7.61-8.45-10.67c-6.73-2.34-13.45-1.02-16.71,0.18c-2.1,0.78-3.22,2.87-3.22,4.77c0,0.82,0.29,2.81,2.27,4.51
			c7.35-4.34,16.32-3.02,16.32,1.09v1.64c0,0-12.24-1.94-18.02,3.32c-1.74,1.59-2.55,3.4-2.55,6.38c0,9.27,10.11,10.17,12.69,10.16
			c4.57-0.01,7.75-1.8,7.75-1.8C189.11,43.14,197.34,40.65,197.34,40.65z M187.43,33.42c-4.83,2.27-10.68,1.22-10.34-2.27
			c0.1-0.99,0.42-1.41,1.22-1.97c2.61-1.85,9.12-0.73,9.12-0.73V33.42z"/>
	</g>
	<g>
		<path class="st20" d="M287.4,0.2h-2.89v7.47h-1.38V0.2h-2.9v-1.21h7.17V0.2z"/>
		<path class="st20" d="M295.86,7.67V1.48l-2.56,4.7h-0.81l-2.56-4.7v6.19h-1.38v-8.68h1.47l2.87,5.3l2.87-5.3h1.47v8.68H295.86z"/>
	</g>
	<g>
		<path class="st20" d="M141.05,105.34h0.83l4.14,9.97h-1.04l-1.25-3.12h-4.56l-1.25,3.12h-1.05L141.05,105.34z M143.42,111.42
			l-1.97-4.93l-1.97,4.93H143.42z"/>
		<path class="st20" d="M156.34,115.38c-0.79,0-1.45-0.14-1.99-0.42c-0.54-0.28-0.97-0.66-1.29-1.13c-0.32-0.47-0.55-1.01-0.69-1.61
			c-0.15-0.6-0.22-1.22-0.22-1.85v-5.03h0.97v5.03c0,0.52,0.05,1.02,0.16,1.52c0.11,0.5,0.28,0.94,0.53,1.33
			c0.24,0.39,0.57,0.7,0.98,0.93c0.41,0.23,0.93,0.34,1.54,0.34c0.64,0,1.16-0.12,1.58-0.36c0.42-0.24,0.74-0.55,0.98-0.95
			c0.24-0.39,0.41-0.84,0.51-1.33c0.1-0.49,0.15-0.99,0.15-1.5v-5.03h0.98v5.03c0,0.66-0.08,1.3-0.22,1.91
			c-0.15,0.61-0.39,1.14-0.72,1.6c-0.33,0.46-0.77,0.82-1.3,1.1C157.76,115.25,157.11,115.38,156.34,115.38z"/>
		<path class="st20" d="M169.59,115.31h-0.96v-4.06c0-0.86-0.13-1.48-0.38-1.88c-0.25-0.4-0.65-0.59-1.19-0.59
			c-0.37,0-0.74,0.09-1.11,0.27c-0.37,0.18-0.69,0.43-0.96,0.74c-0.28,0.31-0.48,0.67-0.6,1.07v4.45h-0.95v-7.29h0.87v1.66
			c0.2-0.35,0.45-0.66,0.77-0.93s0.68-0.47,1.08-0.62c0.4-0.15,0.82-0.22,1.25-0.22c0.4,0,0.74,0.07,1.03,0.22
			c0.28,0.15,0.51,0.36,0.67,0.64c0.17,0.27,0.29,0.6,0.37,0.99c0.07,0.39,0.11,0.82,0.11,1.29V115.31z"/>
		<path class="st20" d="M172.47,106.47v-1.4h0.95v1.4H172.47z M172.47,115.31V108h0.95v7.32H172.47z"/>
		<path class="st20" d="M179.89,115.02c-0.08,0.03-0.19,0.08-0.35,0.15c-0.16,0.08-0.35,0.14-0.58,0.2
			c-0.22,0.06-0.47,0.08-0.73,0.08c-0.27,0-0.53-0.05-0.77-0.16c-0.24-0.1-0.43-0.26-0.57-0.47c-0.14-0.21-0.21-0.47-0.21-0.78
			v-5.26h-1.01v-0.76h1.01v-2.47h0.96v2.47h1.68v0.76h-1.68v5c0.02,0.26,0.11,0.46,0.29,0.59c0.17,0.13,0.37,0.2,0.6,0.2
			c0.26,0,0.5-0.04,0.72-0.13c0.22-0.09,0.35-0.15,0.39-0.19L179.89,115.02z"/>
		<path class="st20" d="M189.48,115.45c-0.53,0-1.02-0.1-1.47-0.3c-0.44-0.2-0.83-0.47-1.15-0.82c-0.32-0.35-0.57-0.75-0.75-1.2
			c-0.18-0.45-0.27-0.93-0.27-1.43c0-0.52,0.09-1.01,0.27-1.46c0.18-0.45,0.43-0.85,0.76-1.2c0.33-0.35,0.71-0.62,1.16-0.82
			c0.44-0.2,0.93-0.3,1.45-0.3c0.52,0,1.01,0.1,1.45,0.3c0.44,0.2,0.82,0.47,1.15,0.82c0.33,0.35,0.58,0.75,0.76,1.2
			c0.18,0.45,0.27,0.94,0.27,1.46c0,0.5-0.09,0.98-0.27,1.43c-0.18,0.45-0.43,0.85-0.75,1.2c-0.32,0.35-0.71,0.62-1.15,0.82
			C190.49,115.35,190,115.45,189.48,115.45z M186.81,111.71c0,0.54,0.12,1.03,0.36,1.47c0.24,0.44,0.56,0.79,0.96,1.05
			c0.4,0.26,0.85,0.38,1.33,0.38c0.49,0,0.93-0.13,1.33-0.39c0.4-0.26,0.73-0.62,0.97-1.07c0.24-0.45,0.37-0.95,0.37-1.49
			c0-0.53-0.12-1.02-0.37-1.46c-0.24-0.45-0.57-0.8-0.97-1.06c-0.4-0.26-0.85-0.39-1.33-0.39c-0.49,0-0.93,0.13-1.33,0.4
			c-0.4,0.27-0.72,0.63-0.96,1.07C186.93,110.67,186.81,111.16,186.81,111.71z"/>
		<path class="st20" d="M195.77,115.31v-6.56h-1.01V108h1.01v-0.2c0-0.6,0.09-1.11,0.26-1.54c0.17-0.43,0.42-0.76,0.74-0.99
			c0.32-0.23,0.7-0.34,1.14-0.34c0.29,0,0.57,0.04,0.84,0.13c0.27,0.08,0.51,0.2,0.7,0.34l-0.29,0.69c-0.12-0.1-0.28-0.18-0.48-0.24
			s-0.39-0.08-0.59-0.08c-0.44,0-0.78,0.17-1.02,0.52c-0.24,0.35-0.36,0.85-0.36,1.5V108h2.02v0.76h-2.02v6.56H195.77z"/>
		<path class="st20" d="M205.21,115.31v-9.97h3.38c1.06,0,1.94,0.22,2.65,0.67c0.71,0.44,1.24,1.04,1.59,1.8
			c0.36,0.75,0.53,1.59,0.53,2.51c0,1.01-0.19,1.89-0.58,2.64c-0.39,0.75-0.94,1.33-1.66,1.74c-0.72,0.41-1.56,0.62-2.53,0.62
			H205.21z M212.38,110.31c0-0.8-0.15-1.5-0.44-2.12c-0.3-0.62-0.72-1.1-1.29-1.45c-0.56-0.35-1.25-0.53-2.06-0.53h-2.4v8.23h2.4
			c0.82,0,1.52-0.18,2.08-0.55c0.56-0.37,0.99-0.86,1.28-1.48C212.24,111.79,212.38,111.09,212.38,110.31z"/>
		<path class="st20" d="M219.05,115.45c-0.52,0-1.01-0.1-1.46-0.3c-0.45-0.2-0.84-0.48-1.17-0.82c-0.33-0.35-0.58-0.75-0.77-1.21
			c-0.18-0.46-0.27-0.95-0.27-1.47c0-0.68,0.16-1.3,0.47-1.87c0.31-0.57,0.75-1.02,1.3-1.36c0.55-0.34,1.18-0.51,1.88-0.51
			c0.72,0,1.35,0.17,1.89,0.52c0.54,0.34,0.96,0.8,1.27,1.36c0.31,0.56,0.46,1.18,0.46,1.85c0,0.07,0,0.15,0,0.22
			c0,0.07-0.01,0.12-0.01,0.16h-6.26c0.05,0.52,0.19,0.99,0.44,1.39c0.25,0.41,0.57,0.73,0.97,0.96c0.4,0.24,0.83,0.36,1.3,0.36
			c0.48,0,0.93-0.12,1.36-0.37c0.43-0.24,0.72-0.56,0.89-0.96l0.83,0.22c-0.15,0.35-0.38,0.66-0.69,0.94
			c-0.31,0.28-0.67,0.5-1.09,0.65C219.98,115.38,219.53,115.45,219.05,115.45z M216.36,111.32h5.41c-0.04-0.53-0.18-0.99-0.43-1.39
			c-0.25-0.4-0.57-0.71-0.97-0.94c-0.4-0.23-0.84-0.34-1.31-0.34c-0.48,0-0.91,0.11-1.31,0.34c-0.39,0.23-0.71,0.54-0.96,0.94
			C216.54,110.34,216.39,110.81,216.36,111.32z"/>
		<path class="st20" d="M232.97,105.34v9.97H232v-4.66h-5.91v4.66h-0.98v-9.97h0.98v4.44H232v-4.44H232.97z"/>
		<path class="st20" d="M235.45,113.22c0-0.46,0.13-0.85,0.39-1.18c0.26-0.33,0.62-0.59,1.09-0.77c0.46-0.18,1-0.27,1.61-0.27
			c0.36,0,0.73,0.03,1.11,0.08c0.38,0.06,0.73,0.14,1.03,0.25v-0.62c0-0.61-0.18-1.1-0.55-1.47c-0.37-0.36-0.87-0.54-1.52-0.54
			c-0.39,0-0.78,0.07-1.16,0.22c-0.38,0.15-0.77,0.36-1.19,0.64l-0.37-0.67c0.48-0.33,0.95-0.57,1.4-0.74
			c0.46-0.16,0.93-0.25,1.4-0.25c0.9,0,1.61,0.26,2.13,0.77c0.52,0.51,0.79,1.22,0.79,2.12v3.36c0,0.13,0.03,0.23,0.08,0.29
			c0.06,0.06,0.15,0.1,0.27,0.1v0.76c-0.1,0.01-0.19,0.02-0.27,0.03c-0.08,0.01-0.13,0.01-0.17,0c-0.23-0.01-0.41-0.08-0.53-0.22
			c-0.12-0.14-0.19-0.29-0.2-0.45l-0.01-0.53c-0.33,0.42-0.75,0.75-1.28,0.98c-0.52,0.23-1.06,0.34-1.6,0.34
			c-0.47,0-0.89-0.1-1.27-0.3s-0.67-0.47-0.88-0.81C235.56,114,235.45,113.63,235.45,113.22z M240.36,113.78
			c0.1-0.13,0.18-0.25,0.24-0.38c0.06-0.12,0.08-0.23,0.08-0.32v-1.06c-0.32-0.12-0.65-0.21-0.99-0.28c-0.34-0.07-0.69-0.1-1.03-0.1
			c-0.68,0-1.24,0.13-1.66,0.4c-0.42,0.27-0.63,0.64-0.63,1.1c0,0.27,0.07,0.52,0.21,0.76c0.14,0.24,0.35,0.43,0.62,0.58
			c0.27,0.15,0.59,0.23,0.95,0.23c0.46,0,0.89-0.09,1.29-0.26C239.83,114.28,240.14,114.06,240.36,113.78z"/>
		<path class="st20" d="M243.95,113.22c0-0.46,0.13-0.85,0.39-1.18c0.26-0.33,0.62-0.59,1.09-0.77c0.46-0.18,1-0.27,1.61-0.27
			c0.36,0,0.73,0.03,1.11,0.08c0.38,0.06,0.73,0.14,1.03,0.25v-0.62c0-0.61-0.18-1.1-0.55-1.47c-0.37-0.36-0.87-0.54-1.52-0.54
			c-0.39,0-0.78,0.07-1.16,0.22c-0.38,0.15-0.77,0.36-1.19,0.64l-0.37-0.67c0.48-0.33,0.95-0.57,1.4-0.74
			c0.46-0.16,0.93-0.25,1.4-0.25c0.9,0,1.61,0.26,2.13,0.77c0.52,0.51,0.79,1.22,0.79,2.12v3.36c0,0.13,0.03,0.23,0.08,0.29
			c0.06,0.06,0.15,0.1,0.27,0.1v0.76c-0.1,0.01-0.19,0.02-0.27,0.03c-0.08,0.01-0.13,0.01-0.17,0c-0.23-0.01-0.41-0.08-0.53-0.22
			s-0.19-0.29-0.2-0.45l-0.01-0.53c-0.33,0.42-0.75,0.75-1.28,0.98c-0.52,0.23-1.06,0.34-1.6,0.34c-0.47,0-0.89-0.1-1.27-0.3
			c-0.38-0.2-0.67-0.47-0.88-0.81C244.06,114,243.95,113.63,243.95,113.22z M248.85,113.78c0.1-0.13,0.18-0.25,0.24-0.38
			c0.06-0.12,0.08-0.23,0.08-0.32v-1.06c-0.32-0.12-0.65-0.21-0.99-0.28c-0.34-0.07-0.69-0.1-1.03-0.1c-0.68,0-1.24,0.13-1.66,0.4
			c-0.42,0.27-0.63,0.64-0.63,1.1c0,0.27,0.07,0.52,0.21,0.76c0.14,0.24,0.35,0.43,0.62,0.58c0.27,0.15,0.59,0.23,0.95,0.23
			c0.46,0,0.89-0.09,1.29-0.26C248.33,114.28,248.64,114.06,248.85,113.78z"/>
		<path class="st20" d="M256.49,115.02c-0.08,0.03-0.19,0.08-0.35,0.15c-0.16,0.08-0.35,0.14-0.58,0.2
			c-0.22,0.06-0.47,0.08-0.73,0.08c-0.27,0-0.53-0.05-0.77-0.16c-0.24-0.1-0.43-0.26-0.57-0.47c-0.14-0.21-0.21-0.47-0.21-0.78
			v-5.26h-1.01v-0.76h1.01v-2.47h0.96v2.47h1.68v0.76h-1.68v5c0.02,0.26,0.11,0.46,0.29,0.59c0.17,0.13,0.37,0.2,0.6,0.2
			c0.26,0,0.5-0.04,0.72-0.13c0.22-0.09,0.35-0.15,0.39-0.19L256.49,115.02z"/>
	</g>
</g>
</svg>
