<?xml version="1.0" encoding="utf-8"?>
<!-- Generator: Adobe Illustrator 25.2.1, SVG Export Plug-In . SVG Version: 6.00 Build 0)  -->
<svg version="1.1" id="Layer_1" xmlns="http://www.w3.org/2000/svg" xmlns:xlink="http://www.w3.org/1999/xlink" x="0px" y="0px"
	 viewBox="0 0 373.15 372.95" style="enable-background:new 0 0 373.15 372.95;" xml:space="preserve">
<style type="text/css">
	.st0{fill:#E51675;stroke:#E51675;stroke-miterlimit:10;}
</style>
<g>
	<path class="st0" d="M324.64,318.42c0,15.36,0,30.22,0,45.08c0,7.34-1.62,8.94-9.07,8.94c-86,0-172,0-258,0
		c-7.38,0-8.98-1.61-8.99-9.02c0-13.5,0-27.01,0-40.51c0-1.35,0-2.7,0-4.49c-1.61,0-2.94,0-4.27,0c-12.13,0-24.25,0.02-36.38-0.01
		c-5.18-0.01-7.35-2.14-7.35-7.26c-0.02-26.38-0.21-52.76,0.08-79.14c0.15-13.16,6.92-22.43,19.01-27.56
		c16.43-6.97,32.92-13.79,49.44-20.54c2.51-1.03,3.31-2.28,3.61-5.08c0.88-8.15-1.26-13.74-8.57-18.84
		c-11.21-7.82-17.27-19.8-20.3-33.13c-14.18-3.44-19.79-8.84-19.61-18.87c0.17-9.32,6.17-15.64,17.38-17.95
		c-2.5-5.06-4.75-10.15-7.46-14.97c-13.14-23.35,0.1-49.3,21.78-55.48c3.39-0.97,6.22-4.04,9.21-6.28
		C76.31,4.92,88.83,0.4,102.76,0.5c5.19,0.04,10.74,0.32,15.48,2.16c11.36,4.39,23.17,8.5,33.3,15.04
		c17.83,11.52,23.63,29.15,20.46,49.59c8.6,0,17.34,0,26.4,0c-0.07-0.66-0.07-1.46-0.25-2.22c-4.65-19.78,5.64-38.22,24.75-45.1
		c3.63-1.31,6.81-4.05,9.97-6.44C244.1,5.04,256.7,0.42,270.78,0.5c5.19,0.03,10.73,0.33,15.48,2.15
		c11.26,4.31,22.8,8.53,33.04,14.75c19.31,11.73,26.58,36.46,18.33,57.64c-1.94,4.99-4.14,9.88-6.34,15.08
		c5.86,0.72,10.75,2.89,14.17,7.65c2.59,3.6,3.59,7.61,3.31,12.02c-0.61,9.38-6.98,15.03-19.34,16.91
		c-2.05,9.03-5.49,17.65-11.7,24.67c-4.34,4.91-9.53,9.11-14.62,13.3c-1.72,1.42-2.65,2.57-2.52,4.84c0.2,3.36,0.19,6.76,0,10.12
		c-0.11,2.1,0.64,3.03,2.57,3.82c16.16,6.64,32.25,13.45,48.39,20.13c14.73,6.1,21.1,15.55,21.11,31.51c0,25.01,0,50.01,0,75.02
		c0,6.42-1.87,8.32-8.19,8.32C351.35,318.43,338.25,318.42,324.64,318.42z M245.49,192.35c-3.97,16.87-12.94,29.75-27.16,38.96
		c-0.79,0.51-1.6,1.67-1.63,2.55c-0.16,4.61-0.08,9.22-0.08,13.85c1.2,0.37,2.14,0.69,3.1,0.96c27.65,7.71,55.32,15.31,82.93,23.18
		c11.88,3.38,19.05,11.51,21.41,23.63c0.68,3.49,0.61,7.12,0.88,10.67c11.96,0,23.76,0,35.72,0c0-1.52,0-2.76,0-4
		c0-22.38,0-44.76,0-67.15c0-10.78-3.5-16.04-13.38-20.17c-17.73-7.41-35.43-14.9-53.22-22.17c-3.95-1.61-5.6-4.03-5.48-8.24
		c0.2-6.62,0.2-13.26,0-19.88c-0.12-3.9,1.73-5.95,4.8-8.1c5.17-3.62,10.32-7.51,14.58-12.12c5.87-6.36,8.89-14.36,10.14-22.98
		c0.8-5.52,2.62-6.98,8.21-7.01c1.5-0.01,3.01,0.08,4.5-0.04c3.51-0.29,5.91-2.86,5.82-6.12c-0.09-3.12-2.41-5.54-5.76-5.79
		c-1.99-0.15-4,0.03-6-0.08c-3.78-0.2-6.32-2.4-6.1-6.14c0.23-4.02,0.86-8.12,2.07-11.95c1.51-4.74,3.96-9.16,5.72-13.83
		c6.6-17.52-0.79-36.83-17.47-45.28c-6.67-3.38-13.5-6.52-20.47-9.24c-14.35-5.6-28.45-4.51-41.88,2.97
		c-8.76,4.89-16.31,11.54-25.73,15.75c-9.08,4.05-12.72,13.21-11.81,23.27c0.82,9.09,4.33,16.56,14.23,19.2
		c2.14,0.57,4.3,1.56,6.08,2.86c5.41,3.95,11.55,7.37,15.76,12.38c12.55,14.92,14.98,31.94,7.82,50.18
		c-1.79,4.56-3.83,9.03-5.9,13.9c2.38,0,4.12-0.05,5.87,0.01c9.78,0.31,17.52,8.21,17.56,17.89c0.04,9.7-7.63,17.7-17.37,18.07
		C250.76,192.43,248.26,192.35,245.49,192.35z M156.6,247.84c0-4.47-0.12-8.59,0.05-12.7c0.09-2.16-0.93-3.15-2.45-4.5
		c-5.66-5.03-11.92-9.74-16.28-15.79c-4.71-6.54-7.55-14.43-11.02-21.36c-5.14-1.31-11.11-1.91-16.17-4.37
		c-5.72-2.79-8.17-8.58-8.11-15.06c0.09-10.86,7.05-16.37,23.01-18c-3.04-6.14-6.11-12.1-8.96-18.16
		c-9.7-20.6,0.24-44.11,21.68-51.62c1.84-0.64,3.6-1.67,5.22-2.77c3.93-2.66,7.81-5.4,11.6-8.25c1.13-0.85,2.2-2.06,2.74-3.34
		c7.66-18.11,0.24-38.26-17.42-47.08c-6.25-3.12-12.63-6.01-19.08-8.68c-9.49-3.93-19.29-4.66-29.39-2.51
		c-10.01,2.13-17.95,7.85-25.81,13.89c-1.94,1.49-4.15,2.87-6.45,3.59C43.8,36.09,36.59,52.23,43.81,67.36
		c2.69,5.63,5.38,11.28,8.43,16.72c2.21,3.93,2.59,8.01,2.31,12.29c-0.23,3.54-2.45,5.7-6.02,5.92c-1.99,0.12-4.01-0.06-6,0.07
		c-3.56,0.24-5.95,2.74-5.92,6.02c0.03,3.27,2.45,5.68,6.03,5.92c1.49,0.1,3,0.02,4.5,0.03c5.33,0.03,7.16,1.54,7.99,6.84
		c2.49,15.89,10.82,27.71,24.85,35.45c3.38,1.87,4.77,4.37,4.66,8.17c-0.17,6.25-0.04,12.5-0.05,18.75c0,6.24-0.59,7.12-6.34,9.52
		c-17.51,7.29-35.03,14.56-52.53,21.86c-9.5,3.96-13.13,9.39-13.13,19.59c-0.01,22.63,0,45.26,0,67.89c0,1.22,0,2.43,0,3.79
		c12.15,0,23.94,0,36.01,0c0-1.57,0-2.93,0-4.28c0.06-15.14,8.47-26.36,22.93-30.44c12.13-3.42,24.29-6.73,36.43-10.1
		C124.04,256.9,140.15,252.42,156.6,247.84z M312.37,360.25c0.12-0.61,0.25-0.96,0.25-1.31c0.01-19.63,0.1-39.27-0.04-58.9
		c-0.06-8.07-5.43-14.56-13.59-16.84c-27.88-7.81-55.79-15.51-83.66-23.35c-2.28-0.64-3.61-0.13-5.18,1.49
		c-5.65,5.84-11.46,11.53-17.21,17.27c-5.13,5.12-7.45,5.15-12.48,0.13c-5.75-5.74-11.57-11.42-17.19-17.29
		c-1.68-1.76-3.16-2.2-5.51-1.54c-27.51,7.74-55.05,15.36-82.58,23.06c-9.82,2.75-14.57,9.01-14.58,19.1
		c-0.02,17.88-0.01,35.76-0.01,53.65c0,1.46,0,2.93,0,4.48c12.18,0,23.97,0,36.17,0c0-16.04,0-31.84,0-47.57c4.12,0,7.82,0,11.93,0
		c0,16,0,31.8,0,47.52c52.21,0,104.01,0,156.09,0c0-16.01,0-31.72,0-47.46c4.07,0,7.86,0,11.93,0c0,15.97,0,31.68,0,47.57
		C288.69,360.25,300.39,360.25,312.37,360.25z M146.75,141.76c-4.68,8.72-9.74,16.88-8.24,27.22c0.57,3.92,0.06,7.99,0.11,11.99
		c0.29,24.35,18.54,44.25,43.28,47.22c23.02,2.76,46.1-13.23,51.08-36.46c1.83-8.54,0.84-17.65,1.73-26.45
		c0.95-9.29-4.85-15.8-8.14-23.55C199.82,161.27,173.45,161.29,146.75,141.76z M132.67,142.77c2-4,3.65-7.33,5.32-10.66
		c3.35-6.69,6.33-7.43,12.25-3.03c3.11,2.31,6.14,4.74,9.37,6.87c12.48,8.26,25.94,10.41,40.43,6.45
		c9.07-2.48,16.15-8.23,23.45-13.69c5.17-3.86,8.45-3.09,11.33,2.6c1.7,3.37,3.4,6.74,5.25,10.43c8.9-16.73,5.31-36.76-9.41-46.85
		c-11.92-8.17-25.06-14.63-39.83-16.2c-10.31-1.09-19.95,1.39-29.08,6.78c16.24,9.26,20.75,13.1,23.34,19.84
		c-3.05,2.03-6.14,4.09-9.36,6.24c-1.42-1.87-2.59-3.64-3.99-5.2c-7.45-8.32-16.71-11.85-27.63-9.12
		c-10.25,2.56-16.46,9.54-18.67,19.86C123.4,126.55,128.01,134.26,132.67,142.77z M186.54,267.92c5.89-5.88,11.39-11.32,16.82-16.84
		c0.63-0.64,1.16-1.68,1.19-2.55c0.14-3.48,0.06-6.96,0.06-10.87c-12.11,3.66-23.92,3.51-36,0.03c0,3.59-0.09,6.7,0.05,9.81
		c0.05,1.15,0.3,2.6,1.03,3.36C175.13,256.52,180.71,262.05,186.54,267.92z M126.43,168.44c-4.1,0.12-8.57-1.46-10.85,3.03
		c-0.84,1.64-0.7,4.59,0.26,6.18c2.45,4.04,6.7,2.51,10.59,2.61C126.43,176.29,126.43,172.61,126.43,168.44z M246.89,168.6
		c0,4.04,0,7.82,0,11.57c8.27,0.59,11.74-1.19,11.7-5.85C258.56,169.64,254.99,167.85,246.89,168.6z"/>
</g>
</svg>
