<?xml version="1.0" encoding="utf-8"?>
<!-- Generator: Adobe Illustrator 25.2.1, SVG Export Plug-In . SVG Version: 6.00 Build 0)  -->
<svg version="1.1" id="Layer_1" xmlns="http://www.w3.org/2000/svg" xmlns:xlink="http://www.w3.org/1999/xlink" x="0px" y="0px"
	 viewBox="0 0 75.7 70.94" style="enable-background:new 0 0 75.7 70.94;" xml:space="preserve">
<style type="text/css">
	.st0{fill:#E51675;}
	.st1{fill:#E51675;stroke:#E51675;stroke-miterlimit:10;}
	.st2{fill:none;stroke:#E51675;stroke-width:3;stroke-miterlimit:10;}
</style>
<g>
	<g>
		<path class="st0" d="M-7.24-394.83c5.64-7,11.29-14.01,16.93-21.01c0.77-0.96,1.63-1.08,2.71-0.4c2.63,1.66,5.26,3.31,7.85,5.01
			c1.19,0.78,2.42,1.36,3.81,1.71c2.55,0.64,5.07,1.38,7.62,2.04c0.42,0.11,0.93,0.1,1.35-0.02c2.79-0.77,5.56-1.6,8.35-2.37
			c0.64-0.18,1.32-0.29,1.98-0.29c3.67-0.03,7.33,0.01,11-0.04c0.6-0.01,1.27-0.21,1.78-0.53c2.87-1.77,5.7-3.6,8.54-5.41
			c1.33-0.85,2.1-0.7,3.07,0.56c4.81,6.25,9.62,12.5,14.44,18.75c1.07,1.38,1,2.13-0.35,3.29c-2.53,2.19-5.07,4.36-7.59,6.56
			c-0.36,0.32-0.67,0.73-0.88,1.17c-1.71,3.53-3.41,7.06-5.07,10.61c-0.15,0.31-0.2,0.81-0.06,1.1c2.04,4.34-0.51,8.81-5.26,9.21
			c-0.08,0.01-0.16,0.04-0.24,0.06c-0.91,4.32-2.42,5.83-6.38,6.35c-0.4,3.78-2.46,5.97-6.32,6.36c-1.25,6.29-5.69,8.01-11.17,4.24
			c-1.74,2.09-3.94,3.21-6.71,2.56c-2.78-0.65-4.31-2.54-4.86-5.36c-1.88,0.11-3.6-0.3-5.05-1.56c-1.43-1.25-2.07-2.87-2.19-4.69
			c-4.82-1.35-6.39-3.17-6.24-7.26c-0.17-0.06-0.35-0.13-0.54-0.17c-4.47-0.93-6.49-6.03-3.83-9.75c0.38-0.53,0.38-0.84-0.01-1.35
			c-2.33-3.09-4.61-6.21-6.94-9.31c-0.4-0.53-0.91-0.99-1.42-1.43c-2.35-2.04-4.72-4.05-7.06-6.09c-0.46-0.4-0.85-0.87-1.27-1.31
			C-7.24-394.01-7.24-394.42-7.24-394.83z M22.91-373.66c1.98-0.26,3.78,0.04,5.32,1.33c1.53,1.28,2.2,2.97,2.27,4.93
			c2.04,0.05,3.67,0.8,4.91,2.33c1.26,1.54,1.55,3.35,1.29,5.23c0.12,0.08,0.17,0.12,0.22,0.13c3.63,0.67,6.14,4.62,4.54,8.63
			c-0.07,0.18-0.06,0.47,0.04,0.62c0.61,0.85,1.96,1.23,3.01,0.89c1.11-0.36,1.78-1.26,1.83-2.42c0.04-0.92-0.34-1.64-0.97-2.27
			c-1.29-1.29-2.61-2.54-3.81-3.9c-0.38-0.43-0.68-1.17-0.6-1.71c0.21-1.47,1.92-1.93,3.04-0.85c1.35,1.3,2.65,2.66,3.97,4
			c0.72,0.73,1.57,1.13,2.62,0.89c2.13-0.5,2.86-2.91,1.32-4.54c-1.75-1.86-3.58-3.64-5.37-5.46c-0.76-0.77-1.54-1.53-2.28-2.32
			c-0.5-0.53-0.74-1.24-0.36-1.85c0.31-0.49,0.91-1.05,1.42-1.09c0.56-0.05,1.3,0.32,1.74,0.75c2.44,2.37,4.81,4.81,7.2,7.23
			c0.74,0.75,1.59,1.21,2.68,0.95c2.2-0.53,2.84-3.01,1.2-4.68c-3.62-3.68-7.26-7.34-10.9-11.01c-0.25-0.25-0.51-0.5-0.69-0.79
			c-0.71-1.16,0.11-2.71,1.46-2.63c0.55,0.03,1.18,0.36,1.58,0.76c3.56,3.53,7.08,7.11,10.61,10.68c0.31,0.31,0.62,0.64,0.97,0.89
			c0.85,0.61,1.79,0.7,2.74,0.23c0.95-0.47,1.43-1.26,1.48-2.32c0.04-0.96-0.41-1.66-1.06-2.31c-6.73-6.71-13.44-13.45-20.19-20.15
			c-0.33-0.33-0.9-0.56-1.37-0.6c-2.1-0.19-4.21-0.27-6.32-0.45c-0.57-0.05-0.83,0.13-1.09,0.6c-1.32,2.38-2.66,4.76-4.03,7.11
			c-1.5,2.57-4.33,3.74-7.06,2.99c-3.95-1.09-5.85-5.42-3.88-9.03c2.05-3.75,4.2-7.45,6.3-11.17c0.16-0.29,0.31-0.59,0.49-0.93
			c-1.53-0.42-2.95-0.76-4.34-1.2c-0.61-0.19-0.94-0.06-1.33,0.43c-3.91,4.8-7.85,9.57-11.77,14.36c-1.34,1.63-2.67,3.26-4.02,4.91
			c1.16,1.56,2.28,3.07,3.39,4.57c1.13,1.52,2.26,3.04,3.39,4.57C16.24-380.4,21.76-378.77,22.91-373.66z M65.28-377.2
			c1.56-3.26,2.96-6.28,4.45-9.26c0.37-0.74,0.25-1.18-0.22-1.78c-4.68-5.91-9.34-11.83-13.98-17.76c-0.36-0.46-0.72-0.66-1.31-0.65
			c-3.49,0.03-6.98,0-10.47,0.02c-0.52,0-1.05,0.07-1.55,0.21c-3.82,1.09-7.64,2.19-11.45,3.32c-0.3,0.09-0.66,0.3-0.81,0.56
			c-2.16,3.76-4.32,7.52-6.38,11.33c-0.32,0.6-0.34,1.48-0.19,2.17c0.21,1.02,1.03,1.62,2.07,1.76c1.23,0.17,2.18-0.32,2.8-1.4
			c1.57-2.75,3.14-5.49,4.67-8.26c0.53-0.96,1.22-1.39,2.34-1.3c2.92,0.24,5.85,0.41,8.77,0.59c0.84,0.05,1.48,0.41,2.07,1
			c6.15,6.17,12.31,12.33,18.47,18.49C64.78-377.9,64.95-377.62,65.28-377.2z M18.71-407.99c-2.43-1.54-4.76-3.02-7.11-4.52
			c-4.91,6.08-9.74,12.07-14.59,18.08c2.11,1.81,4.12,3.55,6.19,5.33C8.38-395.41,13.51-401.66,18.71-407.99z M72.49-390.19
			c2.11-1.82,4.13-3.56,6.19-5.34c-4.38-5.69-8.71-11.31-13.06-16.96c-2.41,1.53-4.73,3.02-7.1,4.53
			C63.22-401.99,67.83-396.13,72.49-390.19z M20.4-360.63c0.28-0.12,0.91-0.23,1.3-0.6c1.58-1.48,3.14-3,4.6-4.6
			c0.97-1.06,0.77-2.71-0.26-3.65c-1.02-0.94-2.55-0.98-3.59,0c-1.51,1.43-2.99,2.9-4.41,4.42c-0.76,0.81-0.87,1.84-0.4,2.87
			C18.12-361.17,18.97-360.68,20.4-360.63z M26.44-354.16c0.53-0.22,1.16-0.33,1.56-0.69c1.58-1.48,3.14-3,4.6-4.59
			c0.98-1.06,0.8-2.68-0.22-3.65c-1-0.95-2.54-1.02-3.59-0.04c-1.52,1.42-2.99,2.9-4.42,4.41c-0.77,0.81-0.88,1.85-0.43,2.87
			C24.4-354.82,25.25-354.31,26.44-354.16z M30.91-351.48c0.01,1.15,0.47,1.96,1.41,2.45c0.94,0.49,1.93,0.51,2.73-0.16
			c1.02-0.86,1.99-1.83,2.84-2.86c0.75-0.9,0.65-2.19-0.03-3.11c-0.66-0.9-1.84-1.4-2.87-0.93c-1.76,0.82-3.03,2.23-3.98,3.92
			C30.89-351.95,30.93-351.65,30.91-351.48z M14.61-367.72c0.5-0.2,1.11-0.3,1.49-0.63c0.95-0.82,1.87-1.7,2.67-2.67
			c0.92-1.12,0.72-2.75-0.32-3.65c-1.06-0.92-2.6-0.88-3.67,0.13c-0.77,0.73-1.52,1.46-2.23,2.24c-0.79,0.86-0.91,1.88-0.44,2.94
			C12.57-368.32,13.43-367.84,14.61-367.72z"/>
		<path class="st0" d="M28.01-413.47c-0.23-0.13-0.74-0.31-1.09-0.65c-3.95-3.92-7.89-7.86-11.82-11.8
			c-0.86-0.87-0.9-1.88-0.15-2.64c0.76-0.77,1.78-0.77,2.65,0.09c3.97,3.95,7.92,7.91,11.87,11.87c0.58,0.59,0.81,1.29,0.43,2.08
			C29.59-413.86,29.05-413.51,28.01-413.47z"/>
		<path class="st0" d="M47.47-413.32c-1.48-0.18-2.33-1.62-1.65-2.8c0.13-0.23,0.31-0.43,0.5-0.61c3.87-3.88,7.73-7.77,11.64-11.6
			c0.43-0.42,1.19-0.77,1.76-0.72c1.4,0.12,1.97,1.77,1.08,2.87c-0.27,0.34-0.61,0.63-0.92,0.94c-3.65,3.65-7.29,7.3-10.95,10.93
			C48.52-413.9,47.96-413.65,47.47-413.32z"/>
		<path class="st0" d="M36.07-420.29c0-1.61-0.01-3.22,0-4.83c0.01-1.13,0.72-1.9,1.73-1.92c1.04-0.02,1.79,0.77,1.79,1.94
			c0.01,3.22,0.01,6.44,0,9.66c0,1.21-0.69,1.94-1.78,1.94c-1.08-0.01-1.74-0.74-1.75-1.96C36.06-417.07,36.07-418.68,36.07-420.29z
			"/>
		<path class="st0" d="M39.59-432.36c0.02,1.02-0.73,1.79-1.75,1.79c-0.99,0-1.74-0.71-1.77-1.68c-0.03-1.03,0.69-1.81,1.7-1.84
			C38.81-434.11,39.57-433.38,39.59-432.36z"/>
	</g>
</g>
<g>
	<path class="st0" d="M0,65.02c0.27-0.99,0.44-2.01,0.83-2.95c2.04-4.95,5.74-7.84,11.01-8.73c0.17-0.03,0.33-0.09,0.71-0.19
		c-2.69-0.49-4.69-1.73-6.13-3.81c-1.44-2.09-1.87-4.42-1.36-6.89c0.89-4.33,4.9-7.26,9.46-6.97c4.1,0.26,7.73,3.86,8.07,8
		c0.38,4.58-2.6,8.73-7.31,9.62c1.4,0.45,3,0.8,4.45,1.47c1.43,0.66,2.72,1.63,4.12,2.5c1.45-1.84,3.29-3.44,5.48-4.65
		c2.15-1.19,4.47-1.83,6.9-2.2c-3.17-0.56-5.77-2.03-7.73-4.56c-1.98-2.55-2.78-5.45-2.41-8.65c0.72-6.18,6.21-10.95,12.78-10.38
		c5.95,0.52,10.36,5.25,10.76,10.9c0.47,6.46-4.16,11.74-10.2,12.69c5.11,0.64,9.29,2.92,12.52,7.01c2.42-2.33,5.33-3.57,8.6-4.05
		c-5.06-1.02-7.97-5.35-7.45-9.85c0.53-4.67,4.39-7.93,9.15-7.87c4.31,0.05,8.15,3.66,8.53,8c0.41,4.71-2.67,8.68-7.64,9.69
		c0.82,0.18,1.48,0.31,2.14,0.47c5.57,1.4,9.62,5.88,10.33,11.57c0.18,1.46,0.07,2.95,0.04,4.43c-0.02,0.69-0.61,1.21-1.3,1.29
		c-0.22,0.02-0.44,0.01-0.66,0.01c-23.89,0-47.77,0-71.66,0.01c-0.9,0-1.58-0.23-2.01-1.05C0,68.27,0,66.64,0,65.02z M52.63,67.94
		c-0.33-5.9-2.86-10.43-8.09-13.06c-5.53-2.78-10.95-2.2-15.85,1.57c-3.72,2.86-5.49,6.79-5.61,11.49
		C32.95,67.94,42.74,67.94,52.63,67.94z M46.69,38.41c-0.01-4.83-4.01-8.83-8.84-8.85c-4.84-0.02-8.9,4.03-8.89,8.88
		c0.01,4.83,4.01,8.83,8.84,8.85C42.65,47.3,46.71,43.25,46.69,38.41z M19.98,67.95c0.2-1.39,0.28-2.73,0.6-4.01
		c0.32-1.28,0.88-2.49,1.29-3.75c0.07-0.22-0.06-0.6-0.23-0.78c-4.73-4.9-13.2-4.09-16.96,1.6C3.28,63.13,2.8,65.44,3,67.95
		C8.71,67.95,14.36,67.95,19.98,67.95z M72.79,67.94c-0.11-1.16-0.09-2.31-0.34-3.39c-0.94-4.1-3.55-6.76-7.52-7.92
		c-4.12-1.2-7.8-0.13-10.95,2.79c-0.3,0.28-0.34,0.52-0.17,0.89c0.32,0.69,0.67,1.38,0.84,2.11c0.43,1.8,0.76,3.63,1.15,5.51
		C61.3,67.94,66.97,67.94,72.79,67.94z M19.65,44.35c-0.13-3.28-2.42-5.85-5.86-5.89c-3.23-0.04-5.86,2.32-5.91,5.81
		c-0.05,3.3,2.41,5.86,5.87,5.94C16.91,50.3,19.61,47.55,19.65,44.35z M67.82,44.32c-0.02-3.19-2.72-5.88-5.9-5.89
		c-3.17-0.01-5.94,2.68-5.89,5.88c0.05,3.39,2.54,5.92,5.91,5.89C65.36,50.17,67.68,47.62,67.82,44.32z"/>
	<path class="st0" d="M30.96,14.7c-0.08-0.11-0.22-0.33-0.4-0.5c-1.3-1.28-2.59-2.56-3.91-3.82c-0.54-0.52-0.86-1.09-0.6-1.84
		c0.25-0.72,0.85-0.94,1.56-1.03c1.7-0.22,3.4-0.49,5.1-0.73c0.59-0.08,1-0.28,1.27-0.9c0.7-1.59,1.51-3.14,2.27-4.71
		C36.56,0.53,36.96,0,37.78,0c0.81,0,1.21,0.53,1.52,1.19c0.76,1.57,1.56,3.12,2.28,4.71c0.25,0.56,0.59,0.82,1.19,0.89
		c1.75,0.22,3.5,0.51,5.25,0.74c0.72,0.1,1.26,0.37,1.51,1.09c0.24,0.72-0.1,1.24-0.57,1.71c-1.32,1.29-2.66,2.56-3.95,3.88
		c-0.23,0.23-0.38,0.7-0.34,1.02c0.28,1.84,0.62,3.68,0.95,5.51c0.12,0.66-0.01,1.24-0.56,1.65c-0.55,0.42-1.14,0.38-1.73,0.07
		c-1.67-0.88-3.35-1.75-5.02-2.65c-0.39-0.21-0.69-0.2-1.08,0.01c-1.6,0.87-3.22,1.69-4.82,2.55c-0.65,0.35-1.3,0.51-1.93,0.02
		c-0.59-0.46-0.65-1.08-0.51-1.79c0.33-1.69,0.59-3.38,0.88-5.08C30.89,15.29,30.91,15.07,30.96,14.7z M44.65,10.06
		c-1.01-0.15-2.1-0.36-3.19-0.45c-1.04-0.09-1.72-0.53-2.14-1.51c-0.44-1.06-1-2.07-1.55-3.21c-0.58,1.18-1.14,2.23-1.61,3.33
		c-0.39,0.91-1.05,1.28-1.99,1.38c-1.13,0.12-2.25,0.32-3.33,0.47c0.9,0.95,1.77,1.89,2.66,2.8c0.48,0.5,0.68,1.02,0.53,1.73
		c-0.25,1.24-0.43,2.5-0.65,3.85c0.66-0.34,1.23-0.64,1.8-0.93c2.97-1.54,2.21-1.55,5.21,0.01c0.55,0.28,1.09,0.56,1.77,0.9
		c-0.24-1.42-0.43-2.65-0.65-3.88c-0.13-0.72,0.1-1.27,0.62-1.79C43,11.9,43.81,10.98,44.65,10.06z"/>
	<path class="st0" d="M21.55,20.19c-0.23,0.38-0.41,0.82-0.71,1.14c-0.83,0.87-1.73,1.68-2.56,2.55c-0.19,0.2-0.31,0.59-0.27,0.87
		c0.15,1.14,0.38,2.27,0.56,3.41c0.11,0.68,0.09,1.33-0.54,1.8c-0.62,0.46-1.24,0.34-1.86,0c-0.97-0.53-1.97-1.01-2.92-1.56
		c-0.45-0.26-0.81-0.29-1.27-0.02c-1.02,0.59-2.08,1.11-3.12,1.66c-0.57,0.3-1.14,0.34-1.66-0.06c-0.54-0.41-0.71-0.95-0.58-1.63
		c0.22-1.13,0.37-2.28,0.6-3.41c0.1-0.51-0.01-0.87-0.4-1.23c-0.82-0.74-1.6-1.54-2.39-2.3c-0.51-0.49-0.83-1.04-0.57-1.77
		c0.25-0.69,0.79-0.95,1.47-1.03c1.12-0.14,2.23-0.34,3.35-0.48c0.48-0.06,0.77-0.25,0.98-0.72c0.45-1.03,0.99-2.03,1.49-3.04
		c0.3-0.61,0.72-1.06,1.46-1.06c0.74,0,1.16,0.42,1.46,1.04c0.53,1.08,1.05,2.17,1.61,3.23c0.11,0.21,0.39,0.43,0.62,0.48
		c1.23,0.22,2.47,0.39,3.71,0.58C20.9,18.76,21.43,19.31,21.55,20.19z M10.14,25.9c0.78-0.32,1.61-0.91,2.45-0.92
		c0.82-0.01,1.64,0.58,2.44,0.9c-0.05-0.89-0.35-1.85-0.09-2.61c0.27-0.79,1.08-1.39,1.76-2.2c-2.21,0.24-3.53-0.75-4.12-2.89
		c-0.57,2.16-1.91,3.1-4.08,2.91c0.68,0.82,1.5,1.42,1.75,2.21C10.52,24.08,10.2,25.06,10.14,25.9z"/>
	<path class="st0" d="M71.8,20.22c-0.24,0.38-0.42,0.81-0.73,1.13c-0.83,0.87-1.73,1.68-2.56,2.55c-0.18,0.19-0.29,0.55-0.26,0.81
		c0.15,1.14,0.37,2.28,0.56,3.41c0.12,0.71,0.11,1.38-0.56,1.86c-0.63,0.46-1.24,0.3-1.86-0.03c-0.99-0.54-2.01-1.03-2.99-1.59
		c-0.42-0.24-0.74-0.21-1.14,0.01c-1.03,0.57-2.09,1.1-3.12,1.65c-0.59,0.32-1.18,0.37-1.73-0.06c-0.53-0.42-0.68-0.97-0.55-1.64
		c0.22-1.13,0.38-2.27,0.6-3.41c0.09-0.48,0-0.83-0.38-1.17c-0.82-0.74-1.6-1.54-2.39-2.3c-0.5-0.49-0.86-1.02-0.61-1.76
		c0.24-0.73,0.8-0.99,1.52-1.08c1.17-0.15,2.34-0.32,3.49-0.55c0.28-0.05,0.6-0.31,0.74-0.56c0.54-0.99,1.02-2.01,1.51-3.03
		c0.32-0.66,0.73-1.17,1.54-1.16c0.78,0.01,1.18,0.5,1.48,1.13c0.49,1.02,1.01,2.02,1.49,3.04c0.17,0.36,0.36,0.57,0.79,0.62
		c1.22,0.14,2.43,0.34,3.64,0.53C71.17,18.76,71.68,19.33,71.8,20.22z M62.98,18.22c-0.06,0.02-0.12,0.04-0.19,0.06
		c-0.22,0.43-0.48,0.85-0.65,1.31c-0.35,0.93-1.04,1.31-1.98,1.38c-0.45,0.04-0.89,0.13-1.33,0.2c-0.05,0.04-0.1,0.09-0.15,0.13
		c1.93,1.1,2.34,2.71,1.6,4.75c1.71-1.42,3.34-1.4,5.14-0.04c-0.99-2.15-0.14-3.61,1.53-4.88C64.74,21.29,63.45,20.33,62.98,18.22z"
		/>
	<path class="st0" d="M48.63,63.43c0,0.79-0.33,1.24-0.94,1.48c-0.62,0.24-1.16,0.1-1.6-0.39c-0.13-0.14-0.25-0.31-0.34-0.48
		c-0.71-1.39-1.72-2.5-2.99-3.41c-0.53-0.38-0.87-0.89-0.72-1.58c0.22-1.04,1.31-1.55,2.24-0.97c1.87,1.19,3.27,2.82,4.23,4.82
		C48.6,63.1,48.61,63.33,48.63,63.43z"/>
	<path class="st0" d="M39.3,57.6c0.01,0.83-0.65,1.51-1.48,1.5c-0.8,0-1.45-0.65-1.46-1.44c-0.01-0.83,0.65-1.51,1.48-1.5
		C38.64,56.16,39.29,56.8,39.3,57.6z"/>
</g>
<g>
	<path class="st0" d="M35.13-217.94c0.38,0.46,0.92,0.86,1.11,1.39c0.45,1.24-0.41,2.4-1.8,2.51c-5.62,0.45-10.82,2.12-15.4,5.44
		c-7.53,5.45-11.8,12.8-12.63,22.09c-0.63,7.1,1.21,13.56,4.99,19.22c1.68-0.11,3.19-0.41,4.66-0.26c3.51,0.34,6.2,3.57,6.24,7.22
		c0.04,3.59-2.56,6.79-6,7.37c-3.03,0.51-5.55-0.43-7.38-2.89c-1.83-2.46-1.99-5.16-0.59-7.88c0.28-0.55,0.15-0.86-0.15-1.29
		c-4.39-6.46-6.33-13.63-5.78-21.4c1.05-14.99,11.62-27.29,26.29-30.72c1.35-0.32,2.73-0.53,4.09-0.79
		C33.57-217.94,34.35-217.94,35.13-217.94z M15-163.71c-2.01-0.04-3.57,1.45-3.6,3.41c-0.03,1.91,1.5,3.47,3.43,3.5
		c1.96,0.02,3.51-1.45,3.54-3.37C18.39-162.12,16.91-163.68,15-163.71z"/>
	<path class="st0" d="M50.23-153.1c0.36,0.32,0.67,0.59,0.98,0.86c3.76-3.51,9.63-2.54,11.7,2.5c1.4-0.17,2.77-0.54,4.12-0.47
		c3.52,0.2,6.32,3.19,6.33,6.71c0.04,7.77,0.02,15.55,0.01,23.32c0,1.32-0.81,2.17-1.99,2.16c-1.19-0.01-1.93-0.81-1.93-2.19
		c-0.01-7.42,0-14.83-0.01-22.25c0-0.45-0.01-0.91-0.09-1.36c-0.29-1.57-1.53-2.55-3.11-2.51c-1.48,0.04-2.77,1.12-2.86,2.66
		c-0.13,2.14-0.05,4.29-0.09,6.43c-0.01,0.48-0.04,0.99-0.2,1.43c-0.31,0.81-1.26,1.27-2.07,1.11c-1.02-0.2-1.66-0.96-1.66-2.1
		c-0.02-3.15-0.01-6.31-0.01-9.46c0-0.39,0.01-0.78-0.01-1.17c-0.07-1.63-1.44-2.95-3.06-2.93c-1.62,0.01-3,1.33-3.01,2.97
		c-0.03,3.38,0.02,6.77-0.04,10.15c-0.01,0.6-0.24,1.28-0.57,1.79c-0.42,0.64-1.24,0.9-1.9,0.55c-0.57-0.3-1.02-0.91-1.37-1.47
		c-0.2-0.32-0.1-0.82-0.1-1.24c-0.01-3.19,0-6.37-0.01-9.56c0-1.33-0.59-2.32-1.81-2.88c-1.14-0.53-2.23-0.34-3.19,0.44
		c-0.84,0.68-1.13,1.63-1.13,2.69c0,3.02,0.01,6.05,0,9.07c0,1.52-0.73,2.35-1.99,2.32c-1.22-0.02-1.92-0.86-1.92-2.31
		c0-12.13,0-24.26,0-36.39c0-2.14-1.4-3.49-3.42-3.32c-1.38,0.11-2.55,1.28-2.66,2.66c-0.03,0.42-0.02,0.85-0.02,1.27
		c0,14.31,0,28.62,0,42.93c0,0.33,0.02,0.65-0.02,0.97c-0.1,0.97-0.6,1.66-1.56,1.89c-0.93,0.22-1.66-0.18-2.15-0.97
		c-0.96-1.55-1.9-3.1-2.84-4.66c-1.01-1.66-2.02-3.33-3.05-4.99c-1.09-1.76-2.96-2.32-4.59-1.39c-1.58,0.89-2.09,2.77-1.21,4.58
		c2.25,4.57,4.51,9.14,6.77,13.7c0.1,0.2,0.21,0.4,0.3,0.61c0.5,1.16,0.17,2.25-0.85,2.75c-1.03,0.51-2.1,0.14-2.68-1.01
		c-1.31-2.57-2.58-5.17-3.86-7.75c-1.15-2.33-2.34-4.63-3.43-6.99c-1.46-3.16-0.46-6.87,2.3-8.87c2.82-2.04,6.66-1.92,9.13,0.5
		c1.05,1.02,1.75,2.4,2.59,3.63c0.33,0.48,0.61,0.98,1.05,1.68c0.04-0.47,0.09-0.74,0.09-1c0-8.85,0-17.69,0.02-26.54
		c0-0.65-0.2-0.96-0.8-1.23c-6.78-3.11-10.81-8.37-11.89-15.75c-1.51-10.32,5.95-20.32,16.23-22.17
		c10.66-1.92,21.4,5.14,23.27,16.48c1.47,8.92-3.44,17.82-11.76,21.42c-0.79,0.34-1.1,0.72-1.08,1.62c0.07,3.05,0.03,6.11,0.03,9.33
		c9.72-2.59,16.81-8.22,20.66-17.46c4.19-10.05,3.01-19.71-2.88-28.89c-1.77,0.73-3.46,0.97-5.23,0.48
		c-3.53-0.98-5.93-4.39-5.51-7.86c0.47-3.86,3.55-6.71,7.34-6.77c5.45-0.09,9.18,5.75,6.78,10.67c-0.33,0.68-0.32,1.1,0.1,1.73
		c4.27,6.4,6.29,13.44,5.64,21.13c-1.09,12.97-7.57,22.37-19.11,28.33C50.73-153.39,50.51-153.26,50.23-153.1z M43.15-169.78
		c4.9-1.94,10.13-8.49,8.94-16.69c-1.14-7.81-7.97-13.63-15.88-13.59c-8.19,0.04-14.87,5.95-15.85,14.27
		c-0.92,7.8,4.03,13.96,8.77,15.87c0-0.72-0.01-1.38,0-2.05c0.02-1.84-0.15-3.71,0.62-5.48c0.08-0.19-0.13-0.59-0.3-0.8
		c-1.71-2.07-2.41-4.45-2.07-7.09c0.48-3.64,3.2-6.58,6.79-7.45c3.58-0.87,7.29,0.54,9.43,3.57c2.1,2.98,2.25,6.93,0.13,9.96
		c-0.82,1.18-1.28,2.15-0.67,3.54c0.24,0.55,0.09,1.28,0.1,1.93C43.16-172.46,43.15-171.13,43.15-169.78z M32.64-180.71
		c2.3-0.96,4-1.37,6.82-0.08c0.18,0.08,0.61-0.09,0.76-0.28c0.88-1.09,1.13-2.37,0.98-3.75c-0.22-2.02-1.93-3.8-4.04-4.21
		c-2.09-0.4-4.32,0.68-5.33,2.59C30.79-184.47,31.11-182.22,32.64-180.71z M57.59-204.44c1.96,0.01,3.49-1.47,3.51-3.39
		c0.02-2-1.48-3.52-3.48-3.52c-1.96,0-3.46,1.5-3.47,3.44C54.14-205.97,55.65-204.45,57.59-204.44z"/>
	<path class="st0" d="M45.11-215.26c-0.01,1.09-0.94,2-1.99,1.96c-1.02-0.04-1.91-0.94-1.92-1.96c-0.02-1.07,0.89-2,1.97-2
		C44.25-217.26,45.12-216.37,45.11-215.26z"/>
</g>
<g>
	<path class="st1" d="M271.42,34.38c0.37-0.63,0.92-0.84,1.65-0.83c3.62,0.03,7.24,0.01,10.86,0.01c1.55,0,1.89,0.33,1.91,1.86
		c0,0.24,0.03,0.47,0.05,0.85c0.61-0.52,1.11-0.96,1.64-1.38c2.22-1.75,4.47-3.45,6.65-5.24c3.24-2.65,4.53-6.16,4.32-10.26
		c-0.09-1.71,0.32-3.21,1.63-4.37c2.65-2.32,6.74-1.21,7.8,2.15c1.81,5.73,2.34,11.51,0.58,17.37c-0.02,0.08-0.03,0.16-0.05,0.29
		c1.67,0,3.32,0,5.07,0c0-0.34,0-0.66,0-0.98c0-7.32,0-14.64,0-21.96c0-2.78,1.4-4.88,3.96-5.96c0.71-0.3,9.23-3.74,9.94-4
		c0.72-0.27,1.35-0.01,1.64,0.64c0.28,0.64,0.04,1.31-0.65,1.64c-0.74,0.35-9.34,3.75-10.08,4.09c-1.48,0.68-2.32,1.85-2.32,3.48
		c-0.02,7.57-0.01,15.14-0.01,22.7c0,0.1,0.02,0.21,0.05,0.41c1.79,0,3.56-0.01,5.34,0c2.73,0.01,4.89,1.72,5.37,4.38
		c0.43,2.38-0.55,4.21-2.55,5.59c0.94,1.31,1.48,2.72,1.19,4.37c-0.29,1.62-1.15,2.81-2.57,3.76c1.06,1.33,1.51,2.85,1.19,4.52
		c-0.31,1.65-1.26,2.89-2.74,3.73c1.55,2.25,1.6,4.49-0.03,6.89c0.37,0,0.65,0,0.92,0c6.28,0,20.09,0,26.37,0c0.19,0,0.38,0,0.58,0
		c0.94,0.02,1.52,0.49,1.54,1.24c0.02,0.75-0.56,1.26-1.5,1.26c-2.44,0.01-12.42,0.01-14.86,0.01c-4.58,0-9.16,0.03-13.74-0.02
		c-1.07-0.01-2.14-0.34-3.21-0.51c-0.38-0.06-0.76-0.12-1.14-0.12c-6.72-0.01-13.43-0.03-20.15,0.01c-1.82,0.01-3.44-0.42-4.91-1.53
		c-1.53-1.16-3.33-1.57-5.33-1.7c0,0.91,0.01,1.75,0,2.59c-0.01,1.31-0.43,1.71-1.73,1.72c-3.67,0-7.35-0.01-11.02,0.01
		c-0.73,0.01-1.27-0.22-1.66-0.83C271.42,58.29,271.42,46.33,271.42,34.38z M285.84,64.12c0.26,0.07,0.42,0.13,0.58,0.14
		c2.54,0.23,4.83,1.07,6.9,2.58c0.5,0.36,1.22,0.58,1.84,0.58c7.35,0.04,14.69,0.03,22.04,0.02c1.56,0,2.76-1.24,2.77-2.77
		c0.01-1.58-1.18-2.8-2.78-2.84c-0.52-0.01-1.04,0-1.56,0c-1.15,0-1.75-0.44-1.74-1.27c0-0.83,0.58-1.23,1.77-1.24
		c1.1-0.01,2.2,0.04,3.29-0.03c1.59-0.11,2.67-1.27,2.68-2.77c0.01-1.51-1.04-2.68-2.62-2.83c-0.76-0.07-1.53-0.02-2.3-0.04
		c-0.89-0.02-1.45-0.49-1.47-1.21c-0.02-0.75,0.58-1.28,1.49-1.28c1.18-0.01,2.36,0.02,3.54-0.01c1.56-0.04,2.72-1.26,2.71-2.82
		c0-1.56-1.16-2.76-2.73-2.79c-1.04-0.02-2.08-0.01-3.12-0.01c-1.22,0-1.86-0.42-1.88-1.24c-0.03-0.84,0.64-1.28,1.91-1.29
		c1.59-0.01,3.18,0.05,4.77-0.06c1.71-0.12,2.8-1.77,2.38-3.43c-0.35-1.39-1.43-2.17-3.08-2.17c-4.74-0.01-9.48,0-14.23-0.01
		c-1.29,0-1.83-0.72-1.39-1.91c0.84-2.28,1.35-4.61,1.48-7.04c0.19-3.63-0.41-7.14-1.54-10.58c-0.36-1.1-1.46-1.67-2.54-1.47
		c-1.18,0.22-1.92,1.09-1.94,2.29c-0.01,0.6,0.02,1.21,0,1.81c-0.06,2.82-0.72,5.47-2.31,7.84c-1.47,2.2-3.53,3.8-5.57,5.43
		c-2.33,1.86-4.6,3.8-6.86,5.74c-0.26,0.23-0.41,0.7-0.43,1.07c-0.05,1.18,0.03,2.36-0.04,3.53c-0.03,0.45-0.21,0.99-0.52,1.29
		c-0.24,0.23-0.82,0.27-1.19,0.17c-0.63-0.17-0.81-0.75-0.81-1.37c0-2.41,0-4.83,0-7.24c0-0.29-0.03-0.58-0.04-0.86
		c-3.16,0-6.22,0-9.32,0c0,10.83,0,21.61,0,32.43c3.13,0,6.21,0,9.36,0c0-0.49,0-0.92,0-1.36c0-5.68,0-19.64,0-25.32
		c0-0.98,0.53-1.59,1.29-1.58c0.74,0.02,1.21,0.6,1.25,1.54c0.01,0.19,0,0.38,0,0.58c0,3.07,0,14.43,0,17.5
		C285.84,61.28,285.84,62.67,285.84,64.12z"/>
	<path class="st1" d="M355.65,38.04c0,8.72,0,17.43,0,26.15c0,3.55-2.48,6.2-6.02,6.4c-0.79,0.05-1.59,0.03-2.38,0.01
		c-0.75-0.02-1.16-0.47-1.24-1.18c-0.07-0.65,0.49-1.25,1.21-1.3c0.6-0.04,1.21-0.01,1.81-0.02c2.58-0.01,4.16-1.57,4.16-4.14
		c0-7.37,0-14.75,0-22.12c0-9.84,0-19.68,0-29.52c0-2.29-0.75-3.4-2.86-4.28c-4.54-1.89-9.09-3.76-13.62-5.69
		c-1.46-0.62-2.82-0.62-4.27,0.03c-2.02,0.91-4.08,1.71-6.13,2.55c-0.98,0.4-1.67,0.18-1.98-0.6c-0.27-0.69,0.1-1.32,1-1.7
		c2.19-0.92,4.39-1.82,6.59-2.74c1.78-0.74,3.56-0.76,5.34-0.01c4.77,1.99,9.53,3.97,14.3,5.97c2.73,1.15,4.11,3.19,4.11,6.2
		C355.63,20.72,355.65,29.38,355.65,38.04z"/>
	<path class="st1" d="M329.65,12.22c-0.01-2.62,2.05-4.7,4.66-4.73c2.6-0.03,4.71,2.06,4.73,4.66c0.02,2.66-2.06,4.78-4.7,4.78
		C331.74,16.92,329.66,14.83,329.65,12.22z M334.32,10.01c-1.2,0.01-2.2,1.02-2.19,2.2c0.01,1.18,1.03,2.2,2.21,2.21
		c1.21,0.01,2.26-1.06,2.23-2.27C336.53,10.95,335.54,10,334.32,10.01z"/>
</g>
<text transform="matrix(1 0 0 1 331.0211 54.2611)" class="st0" style="font-family:'RupeeForadian'; font-size:32.0434px;">`</text>
<g>
	<path class="st0" d="M520.69,34.98c0.07-0.04,0.16-0.06,0.2-0.12c0.57-0.88,1.39-1.15,2.34-0.8c0.93,0.34,1.16,1.13,1.15,2.08
		c-0.02,6.26-0.01,12.52-0.01,18.78c0,4.13,0,8.27,0,12.4c0,0.44,0,0.89,0,1.4c15.51,0,30.92,0,46.47,0
		c0.02-0.42,0.07-0.85,0.07-1.28c0.01-3.64,0-7.28,0.01-10.93c0.01-2.85,1.19-4.03,4.01-4.04c3.44-0.01,6.87,0,10.31,0
		c0.44,0,0.88,0,1.41,0c0.02-0.52,0.06-0.92,0.06-1.32c0-8.51-0.01-17.02,0.01-25.53c0-0.85-0.15-1.41-1.05-1.8
		c-9.08-3.98-18.14-8.02-27.2-12.04c-0.29-0.13-0.6-0.22-1.03-0.38c0,3.25,0.02,6.39-0.01,9.53c-0.01,1.89-0.93,3.18-2.57,3.34
		c-0.76,0.08-1.61-0.2-2.33-0.52c-8.85-3.89-17.69-7.82-26.53-11.74c-0.48-0.21-0.96-0.41-1.63-0.69c0,0.56,0,0.98,0,1.41
		c0,4.58-0.01,9.17,0.01,13.75c0,1.04-0.08,1.97-1.22,2.41c-1.16,0.44-1.84-0.24-2.47-1.05c0-6.14,0-12.28,0-18.42
		c1.54-2.36,2.63-2.68,5.21-1.54c8.8,3.89,17.61,7.79,26.41,11.68c0.36,0.16,0.74,0.3,1.32,0.54c0-0.66,0-1.17,0-1.67
		c0-2.58-0.03-5.16,0.01-7.73c0.04-2.72,2.22-4.12,4.72-3.04c2.81,1.21,5.59,2.45,8.61,3.78c0-0.57,0-1,0-1.43
		c0-6.96,0-13.91,0-20.87c0-3.27,1.17-4.44,4.42-4.45c2.78,0,5.56-0.01,8.35,0c2.93,0.01,4.2,1.27,4.2,4.19
		c0.01,9.62,0.02,19.23-0.02,28.85c0,0.9,0.2,1.44,1.1,1.74c0.85,0.28,1.65,0.69,2.47,1.06c1.96,0.87,2.92,2.34,2.92,4.52
		c-0.03,8.63-0.01,17.27-0.01,25.9c0,0.44,0,0.89,0,1.51c0.56,0,1.03,0,1.5,0c6.38,0,12.76,0,19.15,0c2.99,0,4.14,1.16,4.14,4.16
		c0,0.93,0,1.86,0,2.9c2.2,0,4.28,0,6.35,0c2.82,0,5.65,0.02,8.47-0.01c1.3-0.01,2.41,0.38,3.33,1.29
		c3.94,3.93,7.92,7.82,11.76,11.85c0.71,0.75,1.19,2.02,1.22,3.06c0.13,4.54,0.07,9.08,0.05,13.62c-0.01,2.21-1.38,3.56-3.61,3.57
		c-1.51,0.01-3.03,0.03-4.54-0.01c-0.67-0.02-0.98,0.16-1.25,0.83c-1.18,2.98-3.87,4.8-6.91,4.81c-3.03,0.01-5.76-1.84-6.95-4.77
		c-0.22-0.54-0.39-0.88-1.08-0.88c-8.8,0.03-17.59,0.02-26.39,0.03c-0.08,0-0.16,0.03-0.29,0.06c-0.93,2.7-2.66,4.64-5.55,5.32
		c-3.56,0.84-7.13-0.94-8.5-4.33c-0.37-0.91-0.82-1.12-1.71-1.08c-1.67,0.07-3.35,0.02-5.03,0.02c-2.45-0.01-3.64-1.18-3.65-3.72
		c-0.03-4.42-0.01-8.84-0.01-13.26c0-1.1,0-2.19,0-3.41c-0.61,0-1.09,0-1.57,0c-14.77,0-29.54-0.02-44.31,0.03
		c-2.02,0.01-3.47-0.63-4.35-2.47C520.69,58.39,520.69,46.68,520.69,34.98z M574.72,76.42c12.3,0,24.47,0,36.7,0
		c0-6.71,0-13.35,0-20.03c-12.27,0-24.46,0-36.7,0C574.72,63.09,574.72,69.7,574.72,76.42z M642.64,77.12c-0.55,0-1.03,0-1.51,0
		c-5.85,0-11.69,0.01-17.54,0c-2.94,0-4.19-1.26-4.2-4.16c0-2.58,0-5.15,0-7.73c0-0.63,0-1.27,0-1.91c-1.49,0-2.78,0-4.12,0
		c0,8.66,0,17.26,0,25.93c2.36,0,4.65,0.02,6.93-0.03c0.29-0.01,0.71-0.35,0.83-0.64c1.32-3.16,3.68-4.93,7.08-4.9
		c3.34,0.02,5.67,1.79,6.96,4.9c0.11,0.28,0.46,0.64,0.7,0.65c1.62,0.06,3.24,0.03,4.87,0.03
		C642.64,85.14,642.64,81.19,642.64,77.12z M611.43,80.28c-12.28,0-24.47,0-36.68,0c0,3.01,0,5.93,0,8.97
		c1.77,0,3.48-0.04,5.19,0.02c0.74,0.02,1.03-0.25,1.31-0.92c1.27-3,3.61-4.58,6.84-4.7c3.02-0.1,5.78,1.8,6.94,4.73
		c0.28,0.69,0.6,0.9,1.32,0.89c4.7-0.03,9.4-0.01,14.1-0.02c0.31,0,0.63-0.04,0.99-0.07C611.43,86.2,611.43,83.31,611.43,80.28z
		 M580.08,17.26c0-5.83,0-11.46,0-17.11c-3.13,0-6.2,0-9.33,0c0,4.18-0.01,8.27,0.02,12.35c0,0.29,0.24,0.73,0.49,0.84
		C574.13,14.65,577.04,15.91,580.08,17.26z M623.23,73.22c5.75,0,11.39,0,17.25,0c-3.28-3.27-6.39-6.39-9.52-9.49
		c-0.22-0.22-0.55-0.44-0.84-0.44c-2.27-0.04-4.55-0.02-6.89-0.02C623.23,66.64,623.23,69.89,623.23,73.22z M580.08-11.4
		c-3.16,0-6.2,0-9.26,0c0,2.56,0,5.03,0,7.56c3.11,0,6.15,0,9.26,0C580.08-6.37,580.08-8.84,580.08-11.4z M630.11,94.79
		c2.02-0.04,3.64-1.7,3.63-3.72c-0.01-2.08-1.71-3.72-3.8-3.65c-2.03,0.06-3.63,1.75-3.57,3.76
		C626.42,93.19,628.11,94.83,630.11,94.79z M588.14,87.41c-2.03-0.01-3.65,1.58-3.68,3.61c-0.03,2.09,1.59,3.77,3.65,3.77
		c1.97,0,3.67-1.65,3.73-3.63C591.9,89.16,590.19,87.42,588.14,87.41z"/>
	<path class="st0" d="M619.36,7.62c-2.72,2.4-4.08,5.14-4.13,8.39c-0.1,5.97-0.08,11.95-0.01,17.92
		c0.06,5.54,4.47,10.29,10.03,10.93c3.69,0.42,7.29,0.25,10.41-2.11c2.86-2.16,4.48-5.03,4.63-8.66c0.04-1.02-0.01-2.05,0.07-3.07
		c0.09-1.12,0.94-1.94,1.9-1.86c1.08,0.09,1.75,0.74,1.84,1.81c0.99,11.17-7.12,17.71-15.25,17.78c-4.12,0.04-7.99-0.52-11.32-3.11
		c-3.79-2.95-5.9-6.81-6.02-11.66c-0.05-1.92-0.01-3.84-0.01-5.82c-3.06-0.55-5.77-1.7-8.05-3.75c-3.23-2.91-5.04-6.55-5.13-10.87
		c-0.12-6.05-0.12-12.11-0.02-18.16c0.13-7.8,6.87-14.41,14.67-14.65c4.31-0.13,8.41,0.36,11.93,3.13c3.86,3.04,5.93,6.99,6,11.93
		c0.02,1.8,0,3.6,0,5.5c0.61,0.14,1.19,0.27,1.76,0.42c6.71,1.78,11.24,7.57,11.44,14.65c0.05,1.88,0.03,3.76,0.01,5.65
		c-0.01,1.4-0.74,2.27-1.85,2.31c-1.15,0.04-1.92-0.86-1.95-2.33c-0.04-2.25,0.03-4.5-0.08-6.75c-0.23-4.75-4.72-9.58-9.33-9.95
		c0,1.25-0.04,2.5,0.03,3.74c0.01,0.25,0.4,0.56,0.68,0.7c3.11,1.53,4.61,4.05,4.63,7.47c0.02,5.11,0.01,10.23,0,15.34
		c-0.01,5.15-3.21,8.22-8.35,8.37c-4.96,0.15-7.81-3.07-8.39-6.03c-0.15-0.79-0.16-1.62-0.16-2.44c-0.01-7.73-0.01-15.46-0.01-23.2
		C619.36,8.79,619.36,8.35,619.36,7.62z M623.06,21.83c2.85-2.51,4.12-5.46,4.15-8.91c0.05-5.64,0.04-11.29-0.01-16.93
		c-0.03-3.2-1.18-5.98-3.47-8.25c-3.02-2.98-6.78-3.54-10.78-3.21c-6.22,0.51-10.56,4.66-10.81,10.88c-0.25,6.2-0.07,12.43,0,18.64
		c0.03,2.37,1.02,4.45,2.51,6.25c1.74,2.1,3.93,3.49,6.83,3.97c0-1.19-0.04-2.24,0.01-3.29c0.03-0.66-0.18-0.99-0.8-1.29
		c-3.01-1.45-4.53-3.91-4.55-7.24c-0.03-5.32-0.02-10.63,0.01-15.95c0-0.81,0.12-1.64,0.34-2.41c1.15-3.96,5.09-6.13,9.77-5.44
		c4.04,0.6,6.77,3.69,6.78,7.73C623.07,4.76,623.06,13.14,623.06,21.83z M611.43,15.75c0.5-5.41,2.89-9.54,7.42-12.4
		c0.29-0.18,0.48-0.73,0.49-1.11c0.05-1.8,0.03-3.6,0.02-5.4c-0.02-2.96-1.56-4.46-4.59-4.47c-3.32-0.01-4.82,1.35-4.85,4.43
		c-0.02,3.11-0.01,6.21,0,9.32c0,2.25-0.01,4.5,0.03,6.75C609.98,13.99,610.38,14.98,611.43,15.75z M631.42,13.73
		c-0.15,0.05-0.3,0.1-0.45,0.15c-0.51,5.25-2.9,9.36-7.37,12.22c-0.27,0.17-0.5,0.64-0.51,0.97c-0.05,2.08-0.06,4.17-0.01,6.25
		c0.05,1.91,1.37,3.43,3.29,3.69c0.99,0.14,2.04,0.12,3.04-0.04c1.76-0.28,3.02-1.72,3.03-3.49c0.04-5.68,0.06-11.36-0.03-17.03
		C632.38,15.53,631.76,14.63,631.42,13.73z"/>
	<path class="st0" d="M538.94,47.83c-1.51,0-3.02,0.02-4.53,0c-2.13-0.04-3.28-1.12-3.32-3.22c-0.05-2.49-0.05-4.98,0-7.47
		c0.04-2.05,1.15-3.19,3.21-3.23c3.14-0.06,6.29-0.06,9.43,0c2.19,0.04,3.22,1.19,3.23,3.42c0.01,2.41,0.01,4.82,0,7.23
		c-0.01,2.13-1.09,3.23-3.23,3.28C542.13,47.85,540.53,47.83,538.94,47.83z M543.17,44.03c0-2.16,0-4.22,0-6.3
		c-2.78,0-5.49,0-8.22,0c0,2.14,0,4.19,0,6.3C537.71,44.03,540.39,44.03,543.17,44.03z"/>
	<path class="st0" d="M572.03,47.82c-1.6,0-3.19,0.04-4.79-0.01c-2.02-0.06-3.08-1.16-3.09-3.16c-0.01-2.54-0.01-5.07,0-7.61
		c0.01-1.88,1-3.07,2.88-3.12c3.35-0.09,6.71-0.08,10.06,0c1.76,0.04,2.81,1.12,2.86,2.9c0.08,2.7,0.09,5.4,0,8.1
		c-0.06,1.81-1.18,2.83-3,2.88C575.3,47.86,573.66,47.82,572.03,47.82z M576.16,37.74c-2.84,0-5.55,0-8.25,0c0,2.15,0,4.21,0,6.25
		c2.8,0,5.51,0,8.25,0C576.16,41.87,576.16,39.85,576.16,37.74z"/>
</g>
<g>
	<g>
		<path class="st0" d="M621.76-205.52c-2.19-1.1-4.38-2.2-6.71-3.36c0.51-1.03,1-2.03,1.53-3.09c2.06,1.03,4.04,2.02,6.02,3.02
			c2.4,1.2,4.79,2.41,7.2,3.6c0.74,0.37,1.32,0.82,1.32,1.74c0,0.92-0.57,1.37-1.32,1.74c-4.2,2.09-8.4,4.2-12.6,6.31
			c-0.18,0.09-0.38,0.16-0.64,0.27c-0.5-1.01-0.98-1.97-1.52-3.04c2.29-1.16,4.5-2.27,6.71-3.39c-0.02-0.06-0.03-0.13-0.05-0.19
			c-0.34,0-0.67,0-1.01,0c-21.83,0-43.66,0-65.5,0c-9.61,0-17.08,6.13-18.92,15.56c-0.24,1.24-0.29,2.53-0.3,3.8
			c-0.02,13.48-0.01,26.97-0.01,40.45c0,0.42,0,0.83,0,1.3c-1.14,0-2.19,0-3.4,0c0-0.33,0-0.67,0-1.01c0-13.91-0.01-27.82,0-41.73
			c0.01-10.83,8.37-20.24,19.14-21.58c1.05-0.13,2.11-0.2,3.17-0.2c21.9-0.01,43.81-0.01,65.71-0.01c0.37,0,0.74,0,1.11,0
			C621.73-205.39,621.75-205.45,621.76-205.52z"/>
		<path class="st0" d="M545.35-130.36c2.19,1.11,4.38,2.21,6.7,3.38c-0.5,1.02-0.98,1.98-1.5,3.03c-0.32-0.14-0.6-0.24-0.87-0.37
			c-4.11-2.05-8.21-4.11-12.33-6.16c-0.77-0.38-1.39-0.83-1.37-1.81c0.02-0.92,0.61-1.35,1.35-1.71c4.36-2.17,8.71-4.36,13.18-6.59
			c0.52,1.03,1.02,2.02,1.55,3.08c-2.31,1.16-4.51,2.26-6.97,3.5c0.6,0.03,0.93,0.07,1.25,0.07c21.87,0,43.74,0.01,65.61,0
			c9.57,0,17.09-6.22,18.87-15.63c0.23-1.24,0.28-2.53,0.28-3.8c0.02-13.45,0.01-26.9,0.01-40.35c0-0.42,0-0.84,0-1.32
			c1.12,0,2.17,0,3.4,0c0,0.34,0,0.71,0,1.08c0,13.77,0.01,27.54,0,41.31c-0.01,11.18-8.13,20.44-19.25,21.92
			c-1.05,0.14-2.11,0.19-3.17,0.19c-21.84,0.01-43.67,0.01-65.51,0.01c-0.39,0-0.78,0-1.17,0
			C545.4-130.49,545.38-130.43,545.35-130.36z"/>
		<path class="st0" d="M541.08-167.94c0-3.11,0.03-6.23-0.02-9.34c-0.02-1.08,0.42-1.71,1.39-2.12c5.46-2.32,10.89-4.68,16.36-6.96
			c0.55-0.23,1.36-0.23,1.91-0.01c5.5,2.3,10.97,4.67,16.45,7.01c0.87,0.37,1.29,0.98,1.29,1.97c-0.02,6.3-0.02,12.6,0,18.9
			c0,0.99-0.42,1.6-1.29,1.97c-5.48,2.35-10.95,4.72-16.45,7.01c-0.57,0.24-1.43,0.21-2.01-0.04c-5.4-2.26-10.77-4.6-16.17-6.89
			c-1.06-0.45-1.51-1.1-1.49-2.26C541.12-161.78,541.08-164.86,541.08-167.94z M544.48-175.05c0,5.17-0.01,10.12,0.03,15.07
			c0,0.3,0.37,0.74,0.67,0.87c4.01,1.75,8.03,3.47,12.06,5.18c0.24,0.1,0.5,0.15,0.83,0.26c0-5.07,0.01-10.03-0.03-14.98
			c0-0.3-0.38-0.72-0.69-0.86c-2.22-1-4.47-1.94-6.7-2.9C548.65-173.27,546.64-174.12,544.48-175.05z M561.46-153.62
			c0.33-0.1,0.49-0.14,0.65-0.21c4.09-1.75,8.17-3.51,12.27-5.23c0.64-0.27,0.68-0.68,0.67-1.24c-0.01-4.6-0.01-9.2-0.01-13.81
			c0-0.26-0.03-0.53-0.06-0.9c-4.45,1.9-8.79,3.75-13.12,5.64c-0.21,0.09-0.4,0.49-0.4,0.74
			C561.46-163.68,561.46-158.73,561.46-153.62z M547.17-177.65c3.74,1.6,7.3,3.05,10.79,4.67c1.31,0.61,2.37,0.58,3.67-0.01
			c3.48-1.6,7.03-3.05,10.7-4.62c-0.46-0.22-0.77-0.38-1.09-0.51c-3.11-1.34-6.26-2.6-9.32-4.05c-1.49-0.71-2.73-0.74-4.24-0.02
			C554.31-180.61,550.84-179.22,547.17-177.65z"/>
		<path class="st0" d="M626.02-167.91c-0.02,10.44-8.37,18.68-18.91,18.66c-10.28-0.02-18.49-8.47-18.46-18.99
			c0.03-10.12,8.49-18.42,18.75-18.39C617.73-186.6,626.04-178.25,626.02-167.91z M607.35-183.23c-8.4,0.04-15.3,6.91-15.3,15.25
			c0,8.43,6.91,15.34,15.33,15.32c8.4-0.02,15.29-6.98,15.25-15.4C622.57-176.35,615.61-183.27,607.35-183.23z"/>
	</g>
	
		<text transform="matrix(1 0 0 1 601.9882 -159.506)" style="fill:#E51675;stroke:#E51675;stroke-width:0.5;stroke-miterlimit:10; font-family:'RupeeForadian'; font-size:24px;">`</text>
</g>
<g>
	
		<text transform="matrix(1 0 0 1 330.776 -169.7305)" style="fill:#E51675;stroke:#E51675;stroke-width:0.5;stroke-miterlimit:10; font-family:'RupeeForadian'; font-size:25.5652px;">`</text>
	<g>
		<path class="st0" d="M319.27-192.03c-1.81-2.63-4.32-4.48-7.09-5.96c-2.75-1.47-5.73-2.26-8.87-2.48c0-3.85,0-7.59,0-11.53
			c1.97,0.29,3.9,0.46,5.78,0.86c5.68,1.22,10.83,3.59,15.16,7.53c1.39,1.26,2.69,2.63,3.95,4.02c0.44,0.48,0.79,0.56,1.35,0.35
			c2.68-1.01,5.46-1.4,8.32-1.31c3.16,0.1,6.18,0.81,9.03,2.19c4.46,2.16,7.82,5.41,10.1,9.87c2.95,5.75,2.97,11.57,0.56,17.39
			c-1.01,2.45-2.5,4.75-4.48,6.6c-2.32,2.16-4.89,3.97-7.9,5.05c-0.5,0.18-0.68,0.42-0.66,0.95c0.04,1.09,0.01,2.17,0.01,3.37
			c1.59,0,3.12-0.02,4.64,0c2.35,0.03,5.07,2.67,4.01,5.57c-0.4,1.09-1.24,1.82-2.21,2.42c-0.25,0.15-0.52,0.26-0.82,0.42
			c0.45,1.58,0.25,3.05-0.8,4.31c1.39,2.37,1.39,3.63-0.01,5.72c1.22,1.66,1.48,3.43,0.3,5.23c-1.2,1.83-3.09,1.95-5.12,1.87
			c0,0.41,0,0.75,0,1.1c0,2.8-1.78,4.57-4.6,4.58c-1.92,0-3.84,0.01-5.76,0c-2.53-0.01-4.33-1.82-4.34-4.36c0-0.41,0-0.82,0-1.32
			c-2.75,0-5.43,0.01-8.1-0.01c-0.85-0.01-1.71-0.04-2.55-0.16c-1.84-0.28-3.45-1.14-4.93-2.24c-1.29-0.97-2.56-1.97-3.87-2.93
			c-0.21-0.15-0.54-0.22-0.81-0.2c-6.91,0.47-13.83,0.96-20.74,1.43c-5.62,0.38-11.24,0.74-16.86,1.11
			c-1.32,0.09-2.64,0.2-4.05,0.31c0-8.6,0-17.18,0-25.79c2.78,0.18,5.54,0.36,8.59,0.57c-5.36-5.84-8.01-12.59-8.73-20.25
			c4.03,0,7.97,0,11.89,0c0.3,1.48,0.54,2.96,0.92,4.41c1.04,3.98,3.33,7.23,6.36,9.88c3.59,3.14,7.84,4.93,12.63,5.37
			c0.2,0.02,0.4,0.09,0.66,0.15c0,0.69,0,1.36,0,2.08c1.79,0.14,3.52,0.28,5.24,0.4c1.15,0.08,2.31,0.05,3.44,0.23
			c1.02,0.16,1.73-0.29,2.47-0.84c1.5-1.13,2.98-2.31,4.55-3.34c1.48-0.97,3.17-1.38,4.96-1.37c1.62,0.01,3.25,0,5.15,0
			c-5.58-3.36-9.05-7.95-10.56-14.12C313.96-181.28,315.98-186.72,319.27-192.03z M270.93-155.01c0,6.59,0,13.07,0,19.6
			c7.86-0.54,15.65-1.08,23.6-1.63c-4.19-5.52-4.16-10.9-0.01-16.35C286.56-153.94,278.79-154.47,270.93-155.01z M335.64-157.93
			c-0.14-0.02-0.23-0.05-0.31-0.05c-4.75,0-9.5-0.02-14.25,0.01c-1.5,0.01-2.93,0.38-4.15,1.29c-1.44,1.07-2.88,2.15-4.27,3.28
			c-0.28,0.23-0.5,0.72-0.51,1.1c-0.03,4.73-0.04,9.46,0,14.19c0,0.39,0.26,0.9,0.57,1.16c1.1,0.92,2.32,1.72,3.42,2.64
			c1.54,1.3,3.3,1.88,5.29,1.88c2.51,0,5.02,0,7.53,0c0.28,0,0.56,0,0.84,0c0-6.68,0-13.23,0-19.87c-1.18,0-2.33-0.01-3.47,0.01
			c-0.2,0.01-0.43,0.16-0.6,0.3c-0.63,0.53-1.23,1.08-1.86,1.61c-2.59,2.22-5.64,2.54-8.87,2.27c0-0.94,0-1.81,0-2.7
			c0.12-0.03,0.2-0.08,0.28-0.07c3.68,0.37,6.62-0.96,8.92-3.83c0.21-0.26,0.7-0.41,1.07-0.42c2.39-0.04,4.78,0,7.17-0.02
			C334.35-155.17,335.39-156.07,335.64-157.93z M337.18-197.69c-0.32,0-0.65-0.03-0.97,0.01c-0.79,0.08-1.58,0.15-2.37,0.29
			c-6.62,1.15-11.5,4.81-14.27,10.85c-2.51,5.47-2.25,11.03,0.96,16.3c1.23,2.03,2.68,3.83,4.6,5.29c4.66,3.54,9.85,4.77,15.56,3.78
			c5.27-0.91,9.47-3.69,12.49-8.04c4.4-6.34,3.97-15.63-0.93-21.24c-1.44-1.65-2.94-3.17-4.84-4.33
			C344.24-196.72,340.83-197.6,337.18-197.69z M309.08-152.29c-0.11-0.04-0.19-0.1-0.28-0.1c-3.32-0.23-6.64-0.46-9.96-0.67
			c-0.18-0.01-0.43,0.06-0.56,0.19c-0.77,0.76-1.66,1.44-2.25,2.33c-2.82,4.25-1.9,9.69,2.11,12.88c0.24,0.19,0.64,0.29,0.96,0.28
			c2.35-0.12,4.7-0.29,7.06-0.44c0.96-0.06,1.93-0.14,2.91-0.22C309.08-142.86,309.08-147.57,309.08-152.29z M332.67-152.26
			c0,0.86,0,1.65,0,2.44c0,7.06,0,14.12,0,21.17c0,1.23,0.45,1.83,1.52,1.86c1.95,0.05,3.89,0.04,5.84,0.01
			c0.91-0.02,1.44-0.6,1.49-1.53c0.02-0.4,0-0.81,0-1.32c-2.02,0.15-3.9,0-5.1-1.82c-1.18-1.79-0.97-3.56,0.27-5.23
			c-1.39-2.23-1.39-3.2-0.01-5.76c-0.08-0.11-0.17-0.23-0.25-0.35c-1.73-2.61-0.43-5.88,2.63-6.54c0.79-0.17,1.61-0.15,2.41-0.21
			c0-2.96,0-5.86,0-8.81c-1.01,0.13-1.96,0.25-2.89,0.37C338.18-154.45,336.27-152.59,332.67-152.26z M312.72-200.92
			c3.45,1.56,6.21,3.9,8.64,6.56c1.53-1.13,3.04-2.24,4.62-3.4c-3.08-3.54-6.64-6.5-11.08-8.42
			C314.16-204.39,313.47-202.73,312.72-200.92z M282.81-163.28c-1.16-1.71-2.39-3.51-3.67-5.4c-1.65,0.67-3.39,1.36-5.22,2.1
			c1.37,2.71,2.8,5.24,5.22,7.36C280.4-160.61,281.64-161.98,282.81-163.28z M272.58-169.14c1.96-0.81,3.69-1.52,5.4-2.22
			c-0.34-1.29-0.64-2.45-0.95-3.61c-1.94,0-3.85,0-5.93,0C271.59-173.03,272.06-171.17,272.58-169.14z M306.28-208.83
			c0,1.92-0.01,3.68,0.01,5.44c0,0.15,0.18,0.38,0.32,0.42c1.09,0.31,2.19,0.58,3.3,0.86c0.8-1.73,1.56-3.38,2.42-5.24
			C310.25-207.86,308.33-208.33,306.28-208.83z M280.96-157.22c4.32,0.3,8.4,0.58,12.49,0.86c-3.05-1.13-5.73-2.84-8.3-4.8
			C283.81-159.9,282.47-158.64,280.96-157.22z M343.01-146.63c-0.24,0-0.47,0-0.71,0c-0.71,0-1.42-0.03-2.12,0.01
			c-0.89,0.05-1.91,1.05-1.62,1.6c0.36,0.67,0.85,1.25,1.76,1.23c1.8-0.03,3.6,0.01,5.4-0.01c0.96-0.01,1.62-0.6,1.63-1.4
			c0.01-0.8-0.65-1.4-1.6-1.43C344.84-146.65,343.93-146.63,343.01-146.63z M343.01-138.12c0.86,0,1.71,0.01,2.57,0
			c1.09-0.01,1.78-0.58,1.77-1.44c-0.01-0.85-0.7-1.4-1.8-1.4c-1.68-0.01-3.36-0.02-5.05,0.01c-0.37,0.01-0.82,0.04-1.09,0.24
			c-0.46,0.35-1.13,0.78-0.79,1.47c0.34,0.68,0.93,1.18,1.83,1.13C341.3-138.16,342.16-138.12,343.01-138.12z M342.96-132.44
			c0.89,0,1.77,0.01,2.66,0c1.04-0.01,1.71-0.56,1.74-1.38c0.03-0.85-0.67-1.45-1.75-1.45c-1.68-0.01-3.36-0.01-5.05,0
			c-1.05,0-2.04,0.71-2.03,1.43c0.01,0.72,1,1.41,2.05,1.41C341.37-132.44,342.16-132.44,342.96-132.44z M344.55-149.48
			c1.54,0,3,0.04,4.47-0.02c0.76-0.03,1.27-0.53,1.33-1.3c0.06-0.77-0.4-1.39-1.14-1.44c-1.54-0.1-3.09-0.03-4.65-0.03
			C344.55-151.32,344.55-150.47,344.55-149.48z"/>
		<path class="st0" d="M300.2-200.59c-11.58,1.69-18.66,8.04-20.57,19.86c-3.84,0-7.75,0-11.8,0c0.25-2.01,0.24-4.02,0.98-5.94
			c0.41-1.06,0.56-2.24,1.01-3.28c0.89-2.08,1.7-4.23,2.89-6.14c2.41-3.88,5.53-7.18,9.32-9.75c5.35-3.64,11.3-5.61,17.75-6.04
			c0.12-0.01,0.23,0,0.41,0C300.2-208.1,300.2-204.34,300.2-200.59z M290.74-201.07c-0.69-1.67-1.39-3.34-2.1-5.06
			c-2.88,1.15-5.27,2.9-7.68,4.82c1.46,1.37,2.82,2.65,4.1,3.86C286.95-198.66,288.8-199.84,290.74-201.07z M279.14-199.37
			c-2.45,2.17-3.88,4.71-5.23,7.4c1.86,0.75,3.59,1.44,5.22,2.1c1.31-1.91,2.54-3.72,3.62-5.31
			C281.6-196.51,280.38-197.93,279.14-199.37z M297.39-208.85c-2.1,0.52-4.08,1.01-6.13,1.52c0.86,1.85,1.63,3.52,2.4,5.18
			c1.27-0.32,2.51-0.63,3.73-0.94C297.39-204.98,297.39-206.81,297.39-208.85z M271.09-183.57c2.08,0,4.01,0,5.94,0
			c0.31-1.21,0.62-2.37,0.94-3.62c-1.76-0.71-3.51-1.42-5.41-2.19C272.05-187.34,271.58-185.5,271.09-183.57z"/>
		<path class="st0" d="M301.82-189.16c2.98,0,5.8,0,8.69,0c0,6.59,0,13.14,0,19.79c1.02,0,1.97,0,2.98,0c0,0.99,0,1.89,0,2.83
			c-8.81,0-17.6,0-26.44,0c0-0.89,0-1.79,0-2.78c0.95,0,1.91,0,2.93,0c0-4.75,0-9.41,0-14.13c2.96,0,5.87,0,8.86,0
			c0,4.68,0,9.36,0,14.08c1.03,0,1.96,0,2.99,0C301.82-175.95,301.82-182.52,301.82-189.16z M307.63-169.37c0-5.7,0-11.32,0-16.92
			c-1.02,0-1.97,0-2.95,0c0,2.88,0,5.68,0,8.49c0,2.8,0,5.59,0,8.43C305.71-169.37,306.64-169.37,307.63-169.37z M295.77-169.37
			c0-3.8,0-7.53,0-11.24c-0.96,0-1.85,0-2.73,0c0,3.78,0,7.49,0,11.24C293.96-169.37,294.83-169.37,295.77-169.37z"/>
		<path class="st0" d="M336.91-194.91c4.05,0.1,7.42,1.22,10.44,3.54c2.43,1.87,3.91,4.3,5.07,7.06c1.16,2.76,1.29,5.57,0.57,8.37
			c-0.8,3.11-2.23,6.01-4.76,8.08c-5.63,4.62-11.86,5.63-18.52,2.43c-9.27-4.45-11.33-15.74-5.58-23.21
			c2.6-3.37,6.14-5.43,10.43-6.04C335.43-194.81,336.31-194.86,336.91-194.91z M350.38-179.24c0-7.13-6-12.79-13.28-12.78
			c-7.57,0.02-13.23,5.96-13.25,12.73c-0.02,6.75,5.61,12.73,13.19,12.78C344.31-166.47,350.35-172.1,350.38-179.24z"/>
		<path class="st0" d="M301.72-140.96c-2.45-0.01-4.31-1.86-4.3-4.3c0.01-2.44,1.91-4.19,4.47-4.22c2.46-0.03,4.38,2.24,4.34,4.31
			C306.2-143.12,304.35-140.82,301.72-140.96z M301.84-146.62c-0.84-0.01-1.54,0.6-1.57,1.36c-0.04,0.78,0.68,1.46,1.56,1.46
			c0.74,0,1.43-0.67,1.43-1.4C303.26-145.94,302.58-146.62,301.84-146.62z"/>
	</g>
</g>
<g>
	<path class="st0" d="M317.77-377.18c0.45,0.03,0.96-0.01,1.44,0.1c1.45,0.34,2.57-0.06,3.49-1.25c0.37-0.47,0.6-0.87,0.56-1.48
		c-0.1-1.3-0.13-2.61-0.21-3.92c-0.05-0.87,0.34-1.4,1.13-1.72c1.47-0.59,2.93-1.2,4.39-1.82c0.86-0.37,1.55-0.19,2.16,0.51
		c0.84,0.96,1.67,1.93,2.57,2.83c0.31,0.31,0.81,0.48,1.25,0.57c1.5,0.33,2.6-0.25,3.46-1.51c0.49-0.71,1.16-1.3,1.73-1.95
		c0.56-0.63,1.21-0.82,2.01-0.49c1.52,0.63,3.04,1.26,4.56,1.89c0.75,0.31,1.11,0.85,1.06,1.67c-0.08,1.27-0.11,2.55-0.21,3.82
		c-0.05,0.67,0.18,1.12,0.61,1.65c0.93,1.15,2.01,1.48,3.43,1.21c0.91-0.17,1.86-0.09,2.79-0.14c0.75-0.04,1.27,0.3,1.55,0.96
		c0.67,1.57,1.31,3.15,1.96,4.73c0.31,0.76,0.09,1.39-0.51,1.92c-0.97,0.87-1.98,1.71-2.9,2.64c-0.31,0.31-0.48,0.81-0.58,1.25
		c-0.31,1.49,0.24,2.61,1.51,3.46c0.74,0.5,1.36,1.19,2.02,1.8c0.6,0.54,0.74,1.19,0.42,1.94c-0.63,1.52-1.26,3.04-1.89,4.56
		c-0.31,0.75-0.85,1.11-1.67,1.06c-1.27-0.08-2.55-0.11-3.82-0.21c-0.67-0.05-1.12,0.19-1.65,0.61c-1.16,0.93-1.47,2.01-1.21,3.43
		c0.17,0.88,0.07,1.8,0.13,2.7c0.06,0.87-0.35,1.4-1.13,1.72c-1.49,0.61-2.99,1.22-4.47,1.85c-0.79,0.33-1.45,0.15-2.01-0.48
		c-0.87-0.98-1.71-1.98-2.64-2.9c-0.31-0.31-0.81-0.47-1.25-0.57c-1.5-0.33-2.6,0.25-3.46,1.51c-0.51,0.74-1.19,1.35-1.8,2.02
		c-0.55,0.6-1.19,0.74-1.94,0.42c-1.52-0.63-3.04-1.27-4.56-1.89c-0.76-0.31-1.11-0.85-1.06-1.67c0.08-1.27,0.11-2.55,0.21-3.82
		c0.05-0.67-0.18-1.12-0.61-1.65c-0.91-1.1-1.94-1.48-3.34-1.22c-0.94,0.17-1.92,0.1-2.89,0.14c-0.75,0.04-1.26-0.3-1.55-0.97
		c-0.67-1.57-1.31-3.15-1.96-4.73c-0.31-0.76-0.09-1.39,0.51-1.92c0.98-0.87,1.98-1.71,2.9-2.64c0.31-0.31,0.48-0.81,0.57-1.25
		c0.32-1.49-0.24-2.61-1.51-3.46c-0.72-0.48-1.3-1.16-1.95-1.73c-0.67-0.59-0.81-1.27-0.46-2.09c0.56-1.31,1.1-2.63,1.65-3.95
		c0.62-1.51,0.75-1.59,2.35-1.56C317.22-377.17,317.47-377.18,317.77-377.18z M316.11-358.8c0.35,0.85,0.63,1.64,1,2.38
		c0.11,0.22,0.5,0.44,0.75,0.43c1.21-0.01,2.43-0.16,3.64-0.13c0.54,0.01,1.18,0.22,1.58,0.56c0.95,0.8,1.84,1.69,2.64,2.64
		c0.34,0.41,0.55,1.04,0.57,1.58c0.03,1.21-0.12,2.42-0.13,3.64c0,0.26,0.21,0.65,0.43,0.76c2.28,1.19,2.29,1.18,4.01-0.77
		c0.08-0.09,0.18-0.18,0.24-0.28c0.95-1.41,2.22-2.07,3.97-1.8c0.7,0.11,1.45-0.08,2.14,0.05c0.6,0.11,1.25,0.36,1.69,0.76
		c0.87,0.79,1.61,1.73,2.41,2.6c0.16,0.17,0.44,0.41,0.58,0.37c0.85-0.3,1.68-0.65,2.48-1.05c0.13-0.07,0.18-0.42,0.17-0.64
		c-0.04-1.24-0.17-2.49-0.15-3.73c0.01-0.48,0.21-1.06,0.52-1.42c0.86-0.98,1.79-1.9,2.77-2.77c0.34-0.3,0.88-0.49,1.34-0.5
		c1.09-0.03,2.19-0.01,3.26,0.15c0.87,0.12,1.25-0.11,1.56-0.94c0.7-1.92,0.75-1.9-0.77-3.25c-0.09-0.08-0.18-0.18-0.28-0.24
		c-1.67-1.09-2.14-2.59-2.14-4.59c0-2.04,0.57-3.45,2.16-4.69c1.96-1.54,1.9-1.64,0.79-3.9c-0.12-0.24-0.53-0.48-0.81-0.48
		c-1.24,0.01-2.49,0.16-3.73,0.14c-0.48-0.01-1-0.26-1.42-0.53c-0.41-0.26-0.68-0.74-1.08-1.03c-1.81-1.31-2.41-2.99-2.15-5.24
		c0.27-2.31,0.1-2.34-2.14-3.16c-0.26-0.09-0.73,0.01-0.92,0.2c-0.86,0.86-1.6,1.83-2.49,2.66c-0.41,0.38-1.05,0.67-1.61,0.72
		c-1.17,0.11-2.37,0.11-3.54,0c-0.56-0.05-1.19-0.34-1.61-0.72c-0.87-0.8-1.59-1.75-2.42-2.59c-0.19-0.2-0.62-0.4-0.81-0.32
		c-0.85,0.36-1.67,0.83-2.48,1.28c-0.05,0.03,0.01,0.24,0.02,0.36c0.06,1.21,0.19,2.43,0.15,3.64c-0.02,0.53-0.26,1.16-0.61,1.57
		c-0.78,0.92-1.65,1.79-2.57,2.57c-0.41,0.34-1.04,0.57-1.57,0.59c-1.21,0.04-2.42-0.12-3.64-0.13c-0.28,0-0.69,0.24-0.81,0.48
		c-1.12,2.28-1.17,2.36,0.8,3.9c1.55,1.22,2.42,2.58,2.09,4.6c-0.09,0.55-0.04,1.12-0.01,1.68c0.04,0.77-0.23,1.37-0.82,1.88
		C318.13-360.67,317.16-359.75,316.11-358.8z"/>
	<path class="st0" d="M276.92-360.51c1.01,0,1.94,0,2.99,0c0,0.96,0.05,1.91-0.02,2.86c-0.05,0.69,0.14,1.21,0.69,1.61
		c1.96,1.39,2.55,3.26,2.36,5.65c-0.22,2.76-1.64,4.52-4.52,4.83c0,0.94,0,1.89,0,2.89c-1.01,0-1.93,0-2.96,0c0-0.92,0-1.87,0-2.86
		c-2.26-0.24-3.8-1.3-4.4-3.48c-0.11-0.41-0.12-0.86-0.13-1.29c-0.01-4.33-0.01-8.66,0-12.98c0-4.48,3.1-7.64,7.57-7.73
		c0.15,0,0.3-0.02,0.59-0.04c-1.94-2.44-2.64-5.13-1.95-8.09c0.49-2.07,1.62-3.75,3.32-5.04c3.41-2.59,8.2-2.37,11.43,0.5
		c3.51,3.13,3.83,7.55,0.88,12.58c0.74,0.09,1.47,0.11,2.18,0.26c3.43,0.73,5.85,3.72,5.86,7.23c0.01,4.27-0.09,8.53,0.04,12.8
		c0.08,2.52-1.2,4.9-4.51,5.29c0,0.92,0,1.84,0,2.83c-1,0-1.95,0-2.99,0c0-0.95,0-1.91,0-2.84c-3.22-0.33-4.55-2.72-4.56-5.2
		c-0.01-2.12,0.35-3.84,2.15-5.09c0.75-0.52,1.01-1.24,0.93-2.16c-0.08-0.8-0.02-1.62-0.02-2.57c0.51,0,0.99,0,1.47,0
		c0.46,0,0.93,0,1.5,0c0,1.63,0.03,3.2-0.03,4.78c-0.01,0.32-0.32,0.66-0.55,0.93c-0.32,0.38-0.65,0.78-1.06,1.05
		c-1.32,0.89-1.5,2.15-1.34,3.58c0.11,0.97,0.63,1.56,1.6,1.6c0.93,0.04,1.87,0.04,2.8,0c0.97-0.04,1.57-0.63,1.57-1.62
		c0.02-4.48,0.06-8.97-0.02-13.45c-0.04-2.48-1.99-4.32-4.48-4.34c-4.95-0.04-9.9-0.04-14.85,0c-2.61,0.02-4.52,1.96-4.54,4.58
		c-0.03,4.33-0.02,8.66-0.01,12.98c0,1.26,0.57,1.83,1.81,1.86c0.81,0.01,1.62,0.02,2.43,0c1.13-0.03,1.64-0.62,1.75-1.75
		c0.14-1.38-0.1-2.55-1.32-3.4c-1.4-0.98-1.92-2.33-1.7-4.03C277.02-358.66,276.92-359.57,276.92-360.51z M279.91-377.01
		c0,3.26,2.75,6.01,6.01,5.99c3.21-0.01,5.93-2.74,5.94-5.97c0.01-3.26-2.76-6.02-6.01-5.99
		C282.63-382.94,279.92-380.23,279.91-377.01z"/>
	<path class="st0" d="M339.66-400.91c-3.83,0-7.66,0-11.49,0c-1.44,0-1.92-0.46-1.93-1.87c0-4.73-0.01-9.47,0.01-14.2
		c0-0.48,0.13-0.99,0.33-1.42c0.85-1.8,1.77-3.56,2.64-5.35c0.37-0.75,0.9-1.1,1.77-1.09c5.79,0.02,11.58,0.02,17.37,0
		c0.85,0,1.41,0.31,1.78,1.07c0.89,1.81,1.82,3.61,2.69,5.43c0.19,0.4,0.29,0.89,0.3,1.34c0.02,4.76,0.02,9.53,0.01,14.29
		c0,1.3-0.5,1.8-1.81,1.8C347.44-400.91,343.55-400.91,339.66-400.91z M350.09-403.94c0-4.01,0-7.94,0-11.87c-1.49,0-2.91,0-4.42,0
		c0,1.4,0,2.76,0,4.13c-0.01,1.3-0.5,1.8-1.8,1.81c-2.77,0.01-5.54,0-8.31,0c-1.36,0-1.84-0.49-1.84-1.85c0-1.36,0-2.71,0-4.05
		c-1.57,0-3.01,0-4.44,0c0,3.98,0,7.89,0,11.85C336.23-403.94,343.12-403.94,350.09-403.94z M336.75-415.82c0,1.03,0,1.95,0,2.89
		c1.99,0,3.92,0,5.86,0c0-1,0-1.94,0-2.89C340.63-415.82,338.72-415.82,336.75-415.82z M337.18-418.88c1.72,0,3.32,0,5.03,0
		c-0.24-1.01-0.47-1.95-0.71-2.92c-1.22,0-2.39,0-3.62,0C337.65-420.83,337.42-419.89,337.18-418.88z M334.74-421.83
		c-0.97,0-1.84-0.02-2.71,0.01c-0.18,0.01-0.42,0.15-0.5,0.3c-0.45,0.84-0.85,1.7-1.31,2.62c1.35,0,2.58,0,3.81,0
		C334.27-419.88,334.5-420.81,334.74-421.83z M345.35-418.9c1.3,0,2.5,0,3.81,0c-0.46-0.94-0.87-1.81-1.32-2.65
		c-0.08-0.15-0.34-0.27-0.52-0.28c-0.86-0.03-1.72-0.01-2.68-0.01C344.89-420.78,345.12-419.86,345.35-418.9z"/>
	<path class="st0" d="M302.33-408.34c0,3.33,0,6.66,0,9.99c0,1.44-0.47,1.92-1.87,1.92c-5.73,0-11.45,0-17.18,0
		c-1.38,0-1.87-0.48-1.87-1.83c0-6.75,0-13.51,0-20.26c0-1.35,0.49-1.82,1.87-1.82c5.73,0,11.45,0,17.18,0
		c1.41,0,1.87,0.48,1.87,1.92C302.33-415.06,302.33-411.7,302.33-408.34z M299.27-399.41c0-6.05,0-11.97,0-17.89
		c-4.98,0-9.88,0-14.82,0c0,5.97,0,11.89,0,17.86c0.23,0.01,0.41,0.03,0.59,0.03C289.76-399.41,294.49-399.41,299.27-399.41z"/>
	<path class="st0" d="M290.37-423.33c-0.74,0-1.33,0-1.92,0c-0.31,0-0.62,0-1.03,0c0-1.98,0-3.92,0-5.92c-5.03,0-9.96,0-14.94,0
		c0,9.91,0,19.8,0,29.79c1.92,0,3.86,0,5.86,0c0,1.04,0,1.99,0,3.03c-2.55,0-5.09,0.03-7.64-0.02c-0.72-0.01-1.16-0.55-1.25-1.29
		c-0.03-0.24-0.01-0.5-0.01-0.75c0-10.58,0-21.17,0-31.75c0-1.63,0.42-2.06,2.02-2.06c5.66,0,11.33,0,16.99,0
		c1.43,0,1.91,0.47,1.91,1.88C290.37-428.09,290.37-425.76,290.37-423.33z"/>
	<path class="st0" d="M323.81-412.66c-0.38,1-0.71,1.86-1.07,2.82c-5.6-2-11.19-2.05-16.89,0.01c-0.19-0.47-0.36-0.92-0.53-1.37
		c-0.17-0.46-0.34-0.92-0.54-1.47C311.13-414.96,317.41-414.95,323.81-412.66z"/>
	<path class="st0" d="M305.63-417.92c-0.21-0.74-0.46-1.63-0.71-2.51c4.44-1.75,13.13-1.98,18.73-0.06c-0.25,0.9-0.5,1.81-0.71,2.57
		c-2.95-0.32-5.81-0.86-8.66-0.86C311.45-418.78,308.62-418.24,305.63-417.92z"/>
	<path class="st0" d="M341.17-389.02c-1.05,0.05-1.97,0.1-2.78,0.14c-0.69-2.84-1.37-5.62-2.08-8.53c0.66-0.3,1.52-0.7,2.48-1.14
		C340.21-395.53,340.92-392.4,341.17-389.02z"/>
	<path class="st0" d="M348.65-388.99c-1.03,0-1.98,0-2.84,0c-0.53-2.82-1.05-5.63-1.59-8.52c0.8-0.27,1.7-0.57,2.67-0.89
		C347.94-395.32,348.48-392.24,348.65-388.99z"/>
	<path class="st0" d="M303.19-362.93c0.41-0.92,0.8-1.79,1.16-2.58c2.4,0.67,4.7,1.31,7.12,1.98c-0.1,0.83-0.21,1.77-0.33,2.8
		C308.34-361.03,305.76-361.77,303.19-362.93z"/>
	<path class="st0" d="M303.33-354.84c0.33-0.98,0.62-1.86,0.91-2.75c2.38,0.5,4.72,0.99,7.18,1.51c-0.07,0.85-0.15,1.78-0.23,2.84
		C308.49-353.39,305.96-354,303.33-354.84z"/>
	<path class="st0" d="M287.24-387.5c0.25-2.14,0.5-4.19,0.75-6.34c1.13,0.27,2.05,0.49,2.96,0.71c-0.23,1.91-0.45,3.74-0.68,5.62
		C289.36-387.5,288.44-387.5,287.24-387.5z"/>
	<path class="st0" d="M283.37-393.2c-0.19,1.96-0.37,3.8-0.55,5.69c-0.92,0-1.84,0-3,0c0.18-2.04,0.35-4.08,0.54-6.23
		C281.48-393.53,282.41-393.37,283.37-393.2z"/>
	<path class="st0" d="M278.35-423.37c-0.97,0-1.89,0-2.86,0c0-0.98,0-1.92,0-2.9c0.96,0,1.88,0,2.86,0
		C278.35-425.34,278.35-424.4,278.35-423.37z"/>
	<path class="st0" d="M275.51-414.34c0.97,0,1.87,0,2.84,0c0,0.96,0,1.9,0,2.9c-0.92,0-1.87,0-2.84,0
		C275.51-412.41,275.51-413.37,275.51-414.34z"/>
	<path class="st0" d="M278.36-417.4c-0.95,0-1.87,0-2.86,0c0-0.93,0-1.87,0-2.88c0.92,0,1.86,0,2.86,0
		C278.36-419.33,278.36-418.39,278.36-417.4z"/>
	<path class="st0" d="M284.35-426.27c0,0.97,0,1.89,0,2.87c-0.95,0-1.89,0-2.89,0c0-0.94,0-1.88,0-2.87
		C282.41-426.27,283.32-426.27,284.35-426.27z"/>
	<path class="st0" d="M278.38-408.33c0,0.98,0,1.89,0,2.88c-0.96,0-1.9,0-2.89,0c0-0.95,0-1.89,0-2.88
		C276.43-408.33,277.35-408.33,278.38-408.33z"/>
	<path class="st0" d="M335.21-375.5c5.86,0.01,10.47,4.67,10.46,10.58c-0.01,5.73-4.7,10.35-10.51,10.34
		c-5.81-0.01-10.42-4.67-10.41-10.53C324.76-370.87,329.42-375.5,335.21-375.5z M335.24-372.51c-4.08-0.02-7.51,3.4-7.5,7.49
		c0.01,4.04,3.41,7.45,7.44,7.46c4.09,0,7.49-3.39,7.5-7.49C342.69-369.08,339.28-372.49,335.24-372.51z"/>
	<path class="st0" d="M293.42-408.33c0.95,0,1.87,0,2.86,0c0,0.93,0,1.87,0,2.88c-0.92,0-1.86,0-2.86,0
		C293.42-406.41,293.42-407.35,293.42-408.33z"/>
	<path class="st0" d="M290.33-405.43c-0.98,0-1.9,0-2.88,0c0-0.96,0-1.9,0-2.9c0.96,0,1.9,0,2.88,0
		C290.33-407.37,290.33-406.45,290.33-405.43z"/>
	<path class="st0" d="M296.28-411.42c-0.99,0-1.91,0-2.87,0c0-0.96,0-1.88,0-2.87c0.92,0,1.87,0,2.87,0
		C296.28-413.37,296.28-412.43,296.28-411.42z"/>
	<path class="st0" d="M287.45-414.32c0.99,0,1.91,0,2.87,0c0,0.96,0,1.88,0,2.87c-0.92,0-1.87,0-2.87,0
		C287.45-412.36,287.45-413.31,287.45-414.32z"/>
</g>
<g>
	<g>
		<g>
			<g>
				<path class="st0" d="M551.5-358.75c0-3.34-0.01-6.67,0-10.01c0.01-2.88,2.2-5.08,5.04-5.09c2.85,0,5.07,2.18,5.07,5.05
					c0.01,6.74,0.01,13.48,0,20.22c0,2.89-2.2,5.08-5.04,5.09c-2.85,0-5.06-2.19-5.07-5.05C551.49-351.94,551.5-355.35,551.5-358.75
					z M558.25-358.56c0-3.34,0.01-6.67-0.01-10.01c-0.01-1.13-0.75-1.91-1.7-1.89c-0.91,0.02-1.65,0.77-1.65,1.83
					c-0.02,6.64-0.03,13.28,0.03,19.91c0,0.53,0.41,1.24,0.85,1.56c1.13,0.81,2.47-0.13,2.48-1.71
					C558.27-352.1,558.25-355.33,558.25-358.56z"/>
			</g>
			<g>
				<path class="st0" d="M575.11-358.61c0,3.34,0.01,6.67,0,10.01c-0.01,2.94-2.21,5.13-5.11,5.12c-2.82-0.01-5-2.23-5-5.13
					c-0.01-6.71-0.01-13.41,0-20.12c0-2.94,2.21-5.13,5.11-5.12c2.83,0.01,4.99,2.22,5,5.13
					C575.12-365.35,575.11-361.98,575.11-358.61z M571.74-358.67c0-3.3,0.01-6.6-0.01-9.9c-0.01-1.13-0.76-1.91-1.71-1.89
					c-0.92,0.02-1.65,0.77-1.65,1.84c-0.02,6.64-0.03,13.28,0.03,19.91c0,0.53,0.41,1.24,0.85,1.56c1.13,0.81,2.47-0.14,2.48-1.72
					C571.76-352.13,571.74-355.4,571.74-358.67z"/>
			</g>
			<g>
				<path class="st0" d="M588.61-358.64c0,3.34,0.01,6.67,0,10.01c-0.01,2.96-2.19,5.16-5.09,5.15c-2.83-0.01-5.01-2.22-5.03-5.11
					c-0.01-2.14-0.01-4.29,0-6.43c0-1.25,0.62-1.96,1.69-1.96c1.06,0,1.68,0.71,1.68,1.96c0.01,2,0,4,0.01,6.01
					c0.01,1.31,0.67,2.13,1.68,2.13c1.01,0,1.69-0.82,1.69-2.12c0.01-6.46,0.01-12.93,0-19.39c0-1.28-0.72-2.12-1.73-2.08
					c-0.98,0.04-1.63,0.83-1.63,2.07c-0.01,2.04,0,11.81-0.01,13.84c-0.01,1.24-0.65,1.94-1.72,1.92c-1.02-0.02-1.64-0.72-1.64-1.9
					c-0.01-2.25-0.02-12.23,0-14.48c0.03-2.7,2.31-4.85,5.07-4.85c2.76,0,5.02,2.16,5.04,4.88
					C588.63-365.53,588.61-362.09,588.61-358.64z"/>
			</g>
			<g>
				<path class="st0" d="M557.89-336.74c-6.48,0.36-10.87-3.78-12.14-8.01c-0.63-2.1-0.87-4.32-1.19-6.5
					c-0.83-5.65-1.61-11.3-2.42-16.96c-0.49-3.43-0.98-6.87-1.46-10.3c-0.15-1.11,0.44-1.96,1.41-2.08c1-0.12,1.81,0.5,1.97,1.6
					c0.38,2.56,0.72,5.13,1.09,7.7c0.81,5.69,1.62,11.38,2.44,17.06c0.35,2.46,0.61,4.94,1.11,7.37c0.82,3.99,4.1,6.62,8.17,6.73
					c0.91,0.03,10.61,0,11.52,0.01c1.27,0.01,1.97,0.6,1.99,1.66c0.02,1.1-0.7,1.7-2.04,1.71
					C567.8-336.73,558.46-336.74,557.89-336.74z"/>
			</g>
			<g>
				<path class="st0" d="M561.62-377.22c-3.26,0-15.68,0-18.94,0c-1.33,0-2.04-0.63-2.01-1.73c0.03-1.05,0.73-1.63,2.01-1.63
					c6.53,0,73.84,0,80.37,0c1.33,0,2.04,0.62,2.02,1.73c-0.03,1.05-0.73,1.63-2.01,1.64C619.79-377.22,564.89-377.22,561.62-377.22
					z"/>
			</g>
			<g>
				<path class="st0" d="M601.25-377.22c-1.89,0-3.79,0.01-5.68,0c-1.17-0.01-1.87-0.63-1.89-1.64c-0.02-1.07,0.68-1.72,1.92-1.72
					c3.79-0.01,7.58-0.01,11.36,0c1.18,0,1.87,0.63,1.89,1.64c0.02,1.07-0.68,1.72-1.92,1.72
					C605.03-377.22,603.14-377.22,601.25-377.22z"/>
			</g>
			<g>
				<path class="st0" d="M624.77-356.78c-0.24-0.23-0.72-0.67-1.16-1.14c-0.74-0.81-1.37-1.73-2.19-2.45
					c-0.86-0.76-1.17-1.6-0.63-2.46c0.5-0.79,1.47-1.02,2.4-0.5c1.75,0.98,2.98,2.42,3.62,4.32
					C627.19-357.86,626.38-356.76,624.77-356.78z"/>
			</g>
		</g>
		<g>
			<path class="st0" d="M632.2-423.32l-2.94-0.61c0.65-3.1,0.26-5.5-1.14-7.13c-2.64-3.06-8.13-2.76-8.18-2.76l-0.19-2.99
				c0.28-0.02,7.01-0.4,10.63,3.78C632.44-430.66,633.06-427.4,632.2-423.32z"/>
		</g>
	</g>
	<path class="st0" d="M628.83-383.97c3.08-0.01,5.31-2.12,5.31-5.03c0.01-2.94-2.21-5.08-5.26-5.08c-1.97,0-3.94,0-5.9,0
		c-1.39,0-2.79,0-4.36,0c0.5-1.15,0.94-2.15,1.39-3.17c0.25,0.15,0.37,0.22,0.49,0.29c4.51,2.64,9.86-0.18,10.3-5.39
		c0.03-0.36,0.37-0.78,0.69-1.03c3.08-2.39,3.6-6.75,1.07-9.71c-0.46-0.54-0.49-0.9-0.22-1.55c1.64-3.98,0.99-7.62-1.78-10.88
		c-0.81-0.95-1.79-1.04-2.58-0.34c-0.78,0.69-0.75,1.65,0.1,2.7c3.05,3.77,1.94,8.65-2.46,10.68c-0.87,0.4-1.3,0.97-1.36,1.92
		c-0.14,2-1.2,3.43-3.01,4.22c-1.79,0.78-3.51,0.51-5.05-0.68c-2.71-2.08-2.51-6.09,0.38-8.19c1.04-0.75,1.3-1.76,0.69-2.6
		c-0.61-0.84-1.55-0.94-2.61-0.24c-1.73,1.15-2.93,2.72-3.46,4.74c-0.25,0.97-0.35,1.98-0.51,2.97c-3.04,0.54-5.53-1.55-5.8-4.87
		c-0.1-1.22-0.7-1.86-1.7-1.85c-1.04,0.02-1.69,0.77-1.67,1.99c0.01,0.62,0.1,1.25,0.17,1.97c-0.38,0.08-0.78,0.22-1.19,0.25
		c-2.57,0.16-4.75-1.53-5.28-4.03c-0.51-2.43,0.91-4.84,3.41-5.69c0.96-0.33,1.48-0.87,1.65-1.93c0.38-2.37,2.43-4.42,4.81-4.92
		c-0.4,2.02-0.05,3.92,0.75,5.76c0.69,1.61,1.6,2.12,2.68,1.59c1.03-0.5,1.12-1.36,0.45-2.98c-1.03-2.51-0.79-4.92,0.95-7.02
		c1.76-2.13,4.11-2.93,6.8-2.24c2.58,0.66,4.27,2.36,4.86,5c0.17,0.74,0.12,1.53,0.19,2.3c0.09,0.93,0.76,1.55,1.67,1.56
		c0.92,0.01,1.63-0.57,1.68-1.52c0.05-0.91,0.09-1.85-0.1-2.72c-0.91-4.19-3.45-6.99-7.62-7.96c-4.26-0.99-7.8,0.43-10.52,3.87
		c-0.25,0.32-0.69,0.61-1.08,0.66c-4.18,0.56-6.99,2.81-8.55,6.71c-0.17,0.43-0.56,0.87-0.97,1.09c-3.76,2.02-5.51,6.39-3.98,10.33
		c0.37,0.96,0.3,1.62-0.49,2.33c-0.43-0.9-0.85-1.78-1.27-2.66c-1.32-2.75-3.4-4.6-6.4-5.33c-0.63-0.15-0.82-0.46-0.86-1.07
		c-0.15-2.7-0.33-5.4-0.53-8.09c-0.07-0.91-0.61-1.47-1.41-1.58l0,0c-0.01,0-0.01,0-0.02,0c-0.09-0.01-0.19-0.02-0.29-0.02
		c-0.14,0-0.27,0.02-0.39,0.05c-5.53,0.27-8.87,2.77-10.04,3.76c-0.1,0.06-0.19,0.13-0.28,0.22c-0.06,0.06-0.12,0.12-0.19,0.18
		c0,0-0.01,0-0.01,0.01l0,0c-1.64,1.56-3.28,3.13-4.87,4.74c-0.74,0.74-0.61,1.83,0.19,2.5c0.35,0.29,0.75,0.52,1.13,0.77
		c2.16,1.43,4.32,2.86,6.31,4.18c-0.22,1.52-0.41,2.86-0.57,4.03c-2.24,1.02-4.46,2.02-6.82,3.08c-0.79-0.6-1.58-2.14-3.16-0.99
		c-0.93,0.68-0.79,1.62-0.21,2.59c-3,0.92-4.97,2.87-6.02,5.72c-1.31-0.44-2.5-0.85-3.7-1.24c-3.51-1.25-10.17-3.59-11.45-3.95
		c-2.98-0.85-6.02,1.31-6.29,4.39c-0.23,2.63,1.11,4.53,3.9,5.51c1.52,0.54,3.04,1.06,4.56,1.59c-0.44,0.18-0.82,0.18-1.21,0.18
		c-1.65,0.03-3.33-0.14-4.94,0.13c-2.63,0.45-4.26,2.93-3.95,5.63c0.28,2.48,2.48,4.36,5.13,4.36c11.24,0,22.49,0,33.73,0.02
		c0.65,0,1.33,0.11,1.94,0.32c2.99,0.99,5.95,2.07,8.95,3.05c2.72,0.89,5.48-0.46,6.42-3.07c0.04-0.11,0.05-0.22,0.08-0.33
		c9.28,0.02,24.32,0.01,33.29,0.01c0.38,0,0.76,0,1.23,0c-0.33,2.4-0.65,4.68-0.99,6.97c-0.03,0.19-0.26,0.39-0.44,0.5
		c-0.62,0.39-1.27,0.73-2.05,1.18c0-0.31,0.01-0.51,0-0.71c-0.11-3.04-2.77-5.07-5.74-4.36c-2.63,0.62-3.94,2.83-3.49,5.83
		c0.2,1.34,0.35,2.68,0.5,3.87c-1.72,0.28-3.38,0.39-4.93,0.87c-1.54,0.47-2.97,1.32-4.5,2.02c0-0.35,0.01-0.76,0-1.17
		c-0.05-2.71-2.3-4.86-5.06-4.86c-2.76,0-5.04,2.16-5.04,4.87c-0.02,6.85-0.02,13.71,0,20.56c0,2.18,1.44,4.07,3.54,4.72
		c1.82,0.56,3.45,0.09,4.86-1c1.07,1.54,2.1,3.02,3.19,4.59c-0.49,0-0.87,0-1.25,0c-11.53,0-23.05,0-34.57,0c-0.25,0-0.49,0-0.74,0
		c-1.33,0.01-2.05,0.62-2.02,1.73c0.02,1.05,0.73,1.64,2.01,1.64c14.69,0,29.37,0.02,44.06-0.03c1.2,0,2.4-0.43,3.61-0.6
		c0.59-0.08,1.25-0.16,1.81,0.01c4.99,1.52,8.5,0.38,11.85-3.89c0.45-0.14,0.85-0.46,1.04-0.97c1.44-3.83,5.41-14.25,4.31-18.33
		c-0.96-3.54-3.11-6.23-6.18-8.1c0.34-0.39,0.66-0.76,0.99-1.12c1.46-1.59,2.27-3.44,2.28-5.61c0.01-1.19-0.61-1.81-1.8-1.84
		c-0.87-0.02-1.74,0-2.71,0c0.33-2.32,0.64-4.49,0.97-6.75C627.79-383.97,628.31-383.97,628.83-383.97z M621.72-401.25
		c0.49-1.13,0.99-2.13,2.21-2.76c1.57-0.81,2.74-2.23,3.15-3.92c0.39-1.61,1.45-2.35,2.74-3.1c1.6,1.97,1.04,4.32-1.21,5.34
		c-1.32,0.6-1.56,1.05-1.32,2.46c0.22,1.34-0.35,2.63-1.49,3.34c-1.21,0.76-2.62,0.69-3.76-0.13
		C621.57-400.36,621.47-400.69,621.72-401.25z M598.17-350.26c0.12,0.4,0.27,0.79,0.41,1.19c0.29,0.89-0.08,1.68-0.93,2.04
		c-0.82,0.34-1.74-0.01-2.08-0.86c-0.15-0.38-0.19-0.82-0.2-1.23c-0.02-3.2-0.01-6.39-0.01-9.59c0-3.09,0-6.18,0-9.27
		c0-0.28-0.02-0.56,0.01-0.84c0.11-0.93,0.8-1.62,1.63-1.64c0.82-0.02,1.71,0.66,1.68,1.56c-0.08,2.34,0.38,4.68-0.68,7.02
		C596.26-358.06,597.06-354.12,598.17-350.26z M612.25-406.29c0.08,0.19,0.14,0.48,0.06,0.66c-0.33,0.78-0.72,1.55-1.23,2.6
		c-0.29-1.42-0.51-2.5-0.75-3.65C611.06-406.88,611.8-407.33,612.25-406.29z M604-409.25c0.48,0.54,1.09,1.04,1.75,1.32
		c0.8,0.34,1.05,0.91,1.19,1.66c0.57,2.88,1.15,5.76,1.73,8.64c0.17,0.84,0.53,1.53,1.49,1.67c0.99,0.13,1.57-0.37,1.97-1.22
		c0.97-2.09,1.97-4.18,2.96-6.28c1.15,0.35,2.26,0.69,3.43,1.05c-1.16,2.62-2.31,5.25-3.49,7.86c-0.1,0.22-0.45,0.45-0.68,0.45
		c-3.29,0.03-6.59,0.02-9.82,0.02c0.3-4.35-1.32-8.34-1.92-12.49c-0.14-1-0.38-1.98-0.56-2.92
		C602.86-410.09,603.41-409.93,604-409.25z M601.2-396.02c0.09,0.59-0.3,1.25-0.7,1.93c-1.39-2.95-2.79-5.9-4.23-8.95
		c1.18,0,2.27,0,3.56,0C600.29-400.75,600.82-398.4,601.2-396.02z M596.64-394.15c-0.95,0-1.81,0-2.93,0
		c0.86-0.51,1.53-0.91,2.32-1.38C596.28-394.98,596.44-394.6,596.64-394.15z M594.95-410.95c1.09,0.44,2.13,0.83,3.13,1.29
		c0.26,0.12,0.5,0.46,0.58,0.75c0.2,0.73,0.3,1.49,0.44,2.27c-1.39,0.56-2.56,0.21-3.56-0.78
		C594.59-408.36,594.39-409.7,594.95-410.95z M585.01-416.52c-0.56,0.33-1.12,0.63-1.64,0.98c-0.86,0.58-1.1,1.47-0.65,2.28
		c0.47,0.84,1.41,1.1,2.37,0.64c0.38-0.18,0.73-0.42,1.1-0.62c0.36-0.2,0.73-0.39,1.06-0.57c0.11,0.07,0.19,0.1,0.22,0.15
		c0.66,1.39,1.32,2.78,2.03,4.28c-0.61,0.36-1.21,0.69-1.79,1.06c-0.98,0.61-1.26,1.55-0.75,2.41c0.52,0.87,1.45,1.08,2.48,0.54
		c0.49-0.26,0.97-0.53,1.54-0.85c1.2,2.54,2.36,5,3.58,7.57c-0.67,0.39-1.33,0.78-1.98,1.16c-1.65,0.96-1.83,1.75-0.64,3.4
		c-1.75,0-3.42,0.02-5.08-0.02c-0.22,0-0.48-0.24-0.63-0.44c-0.5-0.67-0.96-1.38-1.53-2.21c1.36-0.79,2.63-1.52,3.9-2.26
		c1.1-0.65,1.45-1.63,0.93-2.53c-0.52-0.9-1.52-1.06-2.67-0.41c-1.34,0.76-2.68,1.54-4.14,2.38c-0.93-1.34-1.86-2.68-2.85-4.11
		c1.05-0.62,2.05-1.19,3.03-1.78c1.12-0.67,1.47-1.63,0.94-2.53c-0.55-0.93-1.48-1.09-2.66-0.43c-1.07,0.6-2.13,1.22-3.19,1.84
		c-2.65-2.6-2.97-6.2-0.8-8.81C579.1-417.71,582.56-418.22,585.01-416.52z M579.46-427.11c0.11,2.12,0.23,4.25,0.35,6.34
		c-0.59,0.17-1.01,0.29-1.49,0.43c-0.1-0.27-0.2-0.49-0.27-0.72c-0.54-1.87-1.08-3.73-1.62-5.6c0.93-0.35,1.94-0.71,2.99-1.05
		C579.44-427.5,579.45-427.31,579.46-427.11z M569.28-421.47c0.71-0.75,1.36-1.46,2.02-2.16c2.79,2.5,4.69,4.43,3.41,5.75
		C572.89-419.09,571.06-420.3,569.28-421.47z M567.33-401.12c0.88,0.42,1.8,0.4,2.45-0.62c0.55-0.87,0.34-1.3-1.78-3.66
		c1.8-0.76,3.46-1.45,5.05-2.12c3.15,4.55,6.16,8.89,9.3,13.43c-0.66,0-1.16-0.04-1.66,0.01c-4.06,0.39-7.92-0.38-11.66-1.96
		c-1.31-0.55-2.68-0.96-3.95-1.41C565.85-398.7,566.58-399.88,567.33-401.12z M564.07-403.02c-0.46,2.86-2.58,4.48-4.67,3.56
		C560.08-401.72,561.84-403.06,564.07-403.02z M562.55-387.34c-8.1,0-16.2,0.01-24.3-0.01c-1.14,0-1.91-0.73-1.91-1.68
		c0-0.95,0.77-1.68,1.91-1.68c4.91-0.02,9.82-0.01,14.73,0c0.21,0,0.43,0.01,0.62,0.07c3,1.03,5.99,2.08,8.99,3.12
		C562.57-387.46,562.56-387.4,562.55-387.34z M585.87-384.82c-0.34,1.03-1.3,1.27-2.85,0.74c-8.34-2.89-16.67-5.79-25.01-8.67
		c-6.19-2.14-12.38-4.26-18.57-6.41c-1.14-0.4-1.64-1.23-1.33-2.14c0.34-1,1.23-1.39,2.38-1.01c1.36,0.45,11.34,4.01,12.71,4.44
		c0.13,0.04,0.26,0.07,0.39,0.08c10.18,3.54,20.37,7.07,30.55,10.6C585.72-386.65,586.23-385.93,585.87-384.82z M615.65-377.21
		c0.75,0.03,1.31,0.69,1.2,1.55c-0.33,2.74-0.7,5.48-1.07,8.21c-0.01,0.05-0.08,0.1-0.32,0.36c-0.25-1.88-0.48-3.56-0.7-5.24
		c-0.15-1.11-0.3-2.22-0.41-3.33C614.26-376.56,614.86-377.24,615.65-377.21z M630.62-355.81c-0.25,1.72-3.07,8.39-4.08,11.32
		c-0.01,0.01-0.02,0.01-0.02,0.02c-0.46,0.53-0.85,1.12-1.32,1.64c-2.48,2.82-4.69,3.38-8.17,1.98c-1.03-0.41-1.88-0.41-2.91,0.01
		c-3.49,1.42-5.96,0.78-8.32-2.14c-3.15-3.9-4.94-8.39-5.35-13.37c-0.48-5.76,4.46-10.88,10.22-10.75c0.77,0.02,1.33,0.11,1.6,1.09
		c0.4,1.44,1.83,2.28,3.32,2.28c1.49,0,2.91-0.85,3.31-2.3c0.27-0.98,0.86-1.05,1.62-1.07
		C626.54-367.22,631.49-361.74,630.62-355.81z M626.95-373.8c-0.76,2.35-2.99,3.57-5.81,3.25C621.65-372.73,623.89-374,626.95-373.8
		z M589.04-387.34c-0.53-1.23-1.55-2.25-2.97-2.81c-0.34-0.13-0.68-0.27-1.02-0.41c0.01-0.05,0.02-0.11,0.03-0.16
		c0.37,0,0.75,0,1.12,0c13.28,0,26.56,0,39.85,0c0.95,0,1.9-0.02,2.85,0.01c1.12,0.04,1.9,0.78,1.87,1.73
		c-0.03,0.91-0.78,1.58-1.86,1.64c-0.28,0.02-0.56,0-0.84,0C617.18-387.34,600.01-387.34,589.04-387.34z"/>
	<line class="st2" x1="540.44" y1="-385.46" x2="543.37" y2="-370.5"/>
</g>
</svg>
